<?xml version="1.0" encoding="UTF-8" standalone="no"?>
<svg
   id="Amoeba"
   version="1.1"
   width="5156.69276mm"
   height="4336.90104mm"
   viewBox="0.00000,0.00000,5156.69276,4336.90104"
   sodipodi:docname="Amoeba.svg"
   inkscape:version="1.1.2 (0a00cf5339, 2022-02-04)"
   xmlns:inkscape="http://www.inkscape.org/namespaces/inkscape"
   xmlns:sodipodi="http://sodipodi.sourceforge.net/DTD/sodipodi-0.dtd"
   xmlns="http://www.w3.org/2000/svg"
   xmlns:svg="http://www.w3.org/2000/svg">
  <defs
     id="defs66" />
  <sodipodi:namedview
     id="trackview"
     pagecolor="#00c389"
     bordercolor="#000000"
     borderopacity="0.25"
     inkscape:pageshadow="2"
     inkscape:pageopacity="0.0"
     inkscape:pagecheckerboard="0"
     inkscape:document-units="mm"
     showgrid="false"
     inkscape:zoom="0.071195713"
     inkscape:cx="7381.0624"
     inkscape:cy="7072.055"
     inkscape:window-width="2490"
     inkscape:window-height="1376"
     inkscape:window-x="2630"
     inkscape:window-y="27"
     inkscape:window-maximized="1"
     inkscape:current-layer="Amoeba" />
  <path
     d="m 933.6852,3380.5567 c -59.47557,-32.6536 -24.66148,-112.6093 -20.18377,-165.1441 52.31775,-229.6984 143.45357,-448.6055 201.78037,-676.8697 118.593,-413.6781 147.2098,-845.5986 228.462,-1266.6118 31.1724,-117.5021 71.8407,-265.9011 204.3625,-303.41534 244.7042,-80.92933 508.2051,-75.02125 762.4044,-59.35889 250.6892,19.63827 508.405,101.54723 684.194,289.68193 282.1551,260.329 516.6429,566.0276 733.6332,881.3279 139.9335,188.0862 257.0625,392.3522 344.817,609.8739 84.4142,206.6543 174.072,419.4905 183.4485,645.3412 8.4755,48.5018 -30.015,86.433 -78.0363,83.027 -136.6876,19.0547 -283.8102,36.0691 -415.4697,-14.0769 -156.6179,-122.2025 -268.9881,-291.544 -428.0796,-411.6166 -274.3976,-229.8082 -637.7931,-373.9537 -998.9616,-323.0258 -319.9572,38.691 -603.3429,227.1393 -809.8691,467.8788 -85.1652,83.6655 -161.0427,190.2479 -284.256,218.4417 -98.7307,30.9255 -206.0826,47.4053 -308.2459,24.5467 z m 19.64653,-46.2571 c 132.31867,18.829 276.92297,-6.7652 388.13757,-82.352 162.7566,-152.1905 299.1678,-335.9742 494.2881,-450.4705 343.5251,-226.3138 802.8548,-251.7721 1172.3506,-73.4446 267.6955,118.575 484.4375,322.5817 676.1399,539.2009 52.6684,48.4774 101.4053,115.1931 181.0621,112.5554 112.1629,13.8842 232.2396,6.2902 339.3208,-19.409 5.0983,-190.077 -69.568,-371.5796 -134.5701,-546.9826 -93.8875,-240.1701 -209.4708,-472.8179 -365.0451,-679.4332 -218.6384,-317.4593 -451.9108,-627.6843 -735.8429,-890.3407 -145.5842,-158.3382 -352.3149,-243.88657 -562.4162,-272.86552 -248.7969,-30.25816 -504.8954,-33.48073 -751.0834,18.26764 -84.7571,18.08698 -180.6391,49.28458 -211.1575,140.37108 -87.3805,200.1027 -89.2997,423.0707 -129.0747,635.0412 -45.1824,331.8224 -105.1105,662.604 -208.7033,981.7027 -52.8978,189.1053 -137.36608,371.5993 -156.56998,568.5805 2.18924,4.9516 -3.17792,17.4981 3.16411,19.5787 z"
     id="il"
     style="fill:#ffffff;fill-opacity:1;stroke:none" />
  <path
     d="M 439.13018,1200.355 C 505.71124,790.25549 712.2126,364.74741 1105.1671,180.81155 1530.322,-19.133039 2017.5596,-21.010276 2476.4246,21.656364 2920.2382,69.309766 3351.775,261.07388 3659.2446,589.12517 4059.8733,971.43515 4384.079,1425.201 4681.3469,1889.999 c 207.5518,378.5222 383.4245,783.1072 456.6601,1210.7781 64.6429,362.8288 -25.5361,784.398 -339.2323,1009.3671 -278.0688,214.2163 -649.5508,239.232 -987.3061,219.4931 -285.4733,-16.8712 -559.9869,-140.5234 -756.5308,-349.2647 -168.4512,-157.0308 -312.2186,-388.6675 -559.9086,-419.8082 -197.4018,0.016 -297.5252,200.0928 -430.7031,313.9717 -324.251,343.4703 -835.8415,472.834 -1293.41685,392.1053 C 400.92354,4199.8269 75.869464,3901.5804 19.79773,3522.9665 -67.355297,3071.0852 167.66941,2649.9018 268.36327,2221.7181 349.82772,1886.0397 383.46163,1540.7985 439.13018,1200.355 Z m -72.58625,802.7089 C 303.7012,2415.6896 103.66411,2794.259 55.325638,3209.3567 c -39.1896,342.1353 105.351552,716.3873 415.486182,888.5757 372.72691,219.0269 849.27278,166.8217 1227.38928,-11.3284 240.5608,-109.262 393.5799,-332.4208 585.9984,-502.2769 118.5691,-103.8006 295.7519,-88.8818 418.6605,-1.3406 244.5563,156.8016 390.503,430.7569 651.783,566.991 336.2771,176.4239 740.4166,161.0199 1100.8761,77.2879 333.164,-89.0058 605.8316,-382.5647 638.8048,-730.6681 56.317,-442.1648 -122.2271,-869.9016 -295.1382,-1266.9244 C 4621.7287,1827.237 4346.2298,1479.5792 4084.52,1129.8341 3849.4294,846.25254 3601.7469,563.73474 3296.8924,353.30532 2809.0136,43.043365 2202.1839,12.271185 1642.83,76.688795 1283.671,121.08542 910.92432,273.32302 714.61693,593.94247 462.8291,980.08572 467.53724,1456.2008 384.98465,1894.3243 c -6.1469,36.2466 -12.29381,72.4931 -18.44072,108.7396 z"
     id="ol"
     style="fill:#ffffff;fill-opacity:1;stroke:none" />
  <path
     d="M 394.15291,1840.2033 C 470.12863,1411.2059 472.45653,943.70211 729.88933,572.42336 951.48351,227.7807 1373.0969,94.528705 1761.9282,63.365349 c 557.7409,-46.531935 1164.7177,7.401442 1626.1957,354.308691 496.2371,398.16048 872.7736,920.53326 1220.4348,1447.87126 207.991,359.0768 374.5859,747.0562 464.3557,1153.1015 78.5241,351.0038 32.3543,771.8966 -259.686,1015.5009 -266.5107,235.5432 -644.5299,264.4391 -983.9512,246.967 -273.8925,-14.6804 -540.4649,-127.3069 -730.1232,-327.7253 -176.1575,-165.6099 -328.904,-402.9474 -586.7966,-441.8309 -199.1499,-19.4888 -321.0498,167.5371 -445.6726,289.6187 C 1759.3792,4151.822 1259.4751,4293.2144 806.69416,4222.4619 450.69954,4167.7095 129.70068,3889.4356 71.300158,3526.3713 -16.633728,3097.4211 200.58309,2694.3168 302.33103,2288.8184 c 41.53265,-147.1377 67.28147,-297.9091 91.82188,-448.6151 z m 546.28541,1542.4053 c 183.13708,27.4024 393.55148,-20.0734 513.39038,-170.4958 176.5503,-194.8196 371.0628,-385.7756 623.5815,-477.1229 385.262,-153.7891 832.0054,-58.9885 1159.6619,182.4362 199.2047,130.7244 338.1645,327.7614 517.1276,481.0252 142.2732,63.7488 308.5749,36.5005 458.19,13.8983 75.1888,-28.1479 36.2783,-131.6979 33.3359,-191.452 -61.3947,-309.6506 -192.775,-602.2941 -342.4799,-878.6087 C 3608.8118,1891.8576 3293.3605,1443.1352 2876.6698,1096.6367 2570.9306,881.52716 2174.2795,886.47259 1816.8311,912.05635 c -147.5803,23.48014 -348.558,30.2231 -415.1311,191.39405 -105.8484,246.0745 -103.8255,520.8998 -154.706,780.8239 -51.0094,420.293 -175.6181,825.7884 -308.47254,1226.1504 -13.93536,82.0987 -60.83805,175.7582 -24.84093,256.3068 6.93834,7.9804 16.47835,13.5043 26.75779,15.8771 z"
     id="road"
     style="fill:#232f3e;fill-opacity:1;stroke:none" />
  <path
     style="color:#000000;fill:#ff9900;stroke-dasharray:150, 100;-inkscape-stroke:none"
     d="m 2145.375,450.00586 -50.6152,0.0137 0.012,50 49.6289,-0.0117 99.3086,3.89844 1.9609,-49.96289 z m -152.2266,0.0391 -141.5781,6.44922 -9.0586,0.88867 4.8809,49.76172 7.7558,-0.76172 139.1446,-6.33789 h 0.4804 l -0.014,-50 z m 353.9004,10.4707 -5.2383,49.72461 112.336,11.83594 34.6758,6.21875 8.8261,-49.21484 -36.4589,-6.53711 z m -604.0586,6.625 -22.3222,2.1875 -120.1973,19.18165 -8.8887,2.07031 11.3321,48.69726 7.1738,-1.66992 116.9648,-18.66406 20.8164,-2.04102 z m 853.0879,29.5918 -8.8261,49.21485 7.6484,1.37304 131.6406,34.57813 1.8633,0.66601 16.8223,-47.08593 -3.8965,-1.39063 -135.6485,-35.63281 z m -1101.8945,16.51367 -3.1797,0.73828 -98.7187,31.69727 -43.6289,18.75781 19.748,45.9336 41.4395,-17.81446 94.4921,-30.33984 1.1817,-0.27539 z m 1345.2129,55.87696 -16.8223,47.08398 26.5918,9.50195 108.2871,50.41211 21.1016,-45.32812 -110.3848,-51.39063 z m -1582.4727,41.26953 -29.5996,16.79492 -69.5586,55.03711 -23.8222,25.37891 36.457,34.21875 21.2891,-22.68165 63.6503,-50.35937 26.2598,-14.90039 z m 1810.2246,71.77539 -25.4316,43.04883 26.2891,15.53125 94.1152,69.3789 29.668,-40.24609 -96.1621,-70.88867 z m -1999.0664,104.85937 -29.0351,40.91407 -49.15237,91.05273 -0.79297,1.93945 46.28324,18.91602 -0.2188,0.53906 46.4258,-86.00586 27.2656,-38.41601 z m 2199.9317,51.47071 -33.666,36.96875 20.8222,18.96289 87.5137,83.85156 34.5918,-36.10156 -87.9707,-84.29102 z M 951.26758,1013.5 l -3.60938,8.8281 -35.21875,115.6563 -5.11914,23.3027 48.83399,10.7285 4.69336,-21.3633 33.96875,-111.5468 2.73437,-6.6895 z m 2496.95312,0.055 -35.5019,35.209 20.4472,20.6172 82.5117,87.5761 36.3907,-34.289 -82.9493,-88.041 z m 171.0469,184.0332 -37.2598,33.3418 19.2715,21.5371 77.9824,91.8047 38.1074,-32.3692 -78.4003,-92.2968 z m -2733.40627,61.3711 -1.53906,7.0039 -21.3418,142.9453 49.45117,7.3828 21.0918,-141.2617 1.17383,-5.3418 z m 2894.75197,131.2305 -38.9278,31.3769 17.8458,22.1406 73.4316,96.0684 39.7246,-30.3652 -73.8242,-96.5782 z m -2932.40041,117.623 -22.14844,148.3555 49.45117,7.3828 22.1504,-148.3555 z m 3083.60161,83.041 -40.4922,29.334 17.0957,23.5957 67.041,93.3242 3.3223,4.6719 40.748,-28.9766 -3.3906,-4.7695 -67.1719,-93.5019 z m -3120.51763,164.2188 -22.15039,148.3554 49.45313,7.3828 22.14844,-148.3554 z m 3266.26173,39.3574 -40.9219,28.7305 52.1563,74.2832 33.5605,48.58 41.1387,-28.4199 -33.6699,-48.7363 z m -3289.99805,118.3887 -25.07813,147.8886 49.29688,8.3575 25.07617,-147.8887 z m 3432.37895,88.041 -41.7969,27.4414 28.3554,43.1933 24.9961,39.7676 18.3164,31.2793 6.6915,11.7539 43.4531,-24.7344 -6.8418,-12.0214 -18.8692,-32.2207 -25.6757,-40.8516 z M 744.27148,2158.3145 c -6.65875,33.5159 -13.9861,66.9611 -21.73046,100.371 l -0.1211,0.5176 0.0996,-0.4082 c -3.85719,15.4052 -7.06886,30.3445 -10.70898,44.5508 l 48.43554,12.4102 c 3.965,-15.4742 7.19163,-30.5033 10.77539,-44.8164 l 0.0508,-0.2051 0.17578,-0.75 0.002,-0.01 c 7.83515,-33.8016 15.27645,-67.7632 22.0625,-101.92 z m 3604.25972,59.5312 -44.1972,23.3828 c 16.9469,32.032 33.2874,64.3994 49.0566,97.0547 l 15.9004,33.4629 1.1777,2.5566 45.4219,-20.9023 -1.3066,-2.8359 -16.0938,-33.8692 -0.033,-0.07 c -16.0373,-33.213 -32.6662,-66.1563 -49.9258,-98.7793 z M 686.69922,2399.7988 c -12.98871,48.0508 -26.62446,95.9261 -40.91016,143.6035 l 47.89649,14.3516 c 14.41648,-48.1139 28.17556,-96.4247 41.28125,-144.9082 z m 3770.56838,45.0274 -45.7129,20.2558 c 20.159,45.4899 39.6588,91.2805 58.5195,137.336 l 46.2715,-18.9473 c -19.0362,-46.484 -38.7223,-92.7107 -59.0781,-138.6445 z M 616.46484,2638.5547 c -15.16977,47.6307 -30.37329,95.2506 -45.61132,142.8594 l 47.61914,15.2422 c 15.24539,-47.6318 30.4578,-95.2745 45.63476,-142.9278 z m 3937.11526,38.2207 -46.6133,18.0879 c 16.0055,41.2487 30.9971,82.9613 45.2988,124.9746 l 5.0117,15.0351 47.4336,-15.8085 -5.0859,-15.2637 -0.025,-0.076 c -14.4833,-42.5467 -29.7108,-84.9192 -46.0195,-126.9492 z M 540.33789,2876.627 c -7.87819,24.5575 -15.77912,49.117 -23.67969,73.6835 l -0.084,0.2618 -10.63867,35.7636 -9.5293,34.8204 48.22656,13.1972 9.38281,-34.289 10.32032,-34.6895 c 7.87359,-24.4826 15.75265,-48.9718 23.61328,-73.4746 z m 4094.92191,38.5312 -47.9375,14.2109 9.3027,31.3848 9.5977,34.9902 8.8652,35.1348 8.1328,35.2793 1.3281,6.3496 48.9434,-10.2246 -1.4336,-6.8555 -8.3633,-36.2812 -9.1172,-36.1328 -9.8691,-35.9805 z m -2126.9981,145.4473 -0.3945,49.998 1.2344,0.01 1.998,0.07 36.2559,2.2207 2.0117,0.1777 35.9394,4.1543 2.0098,0.2871 35.625,6.086 1.9883,0.3965 25.998,5.9023 11.0723,-48.7578 -26.6582,-6.0547 -3.3145,-0.6582 -36.9589,-6.3145 -3.3496,-0.4785 -37.2793,-4.3086 -3.3536,-0.2968 -37.5957,-2.3028 -3.3281,-0.1152 z m -102.5273,3.8828 -16.1074,1.6055 -3.4629,0.4433 -37.1661,5.8184 -3.4746,0.6445 -36.623,7.877 -3.4512,0.8457 -36.0722,9.9316 -3.3965,1.0391 -12.168,4.1074 15.9902,47.375 11.4961,-3.8809 2.0371,-0.623 34.7012,-9.5547 2.0703,-0.5078 35.2383,-7.5781 2.084,-0.3868 35.7793,-5.5996 2.0762,-0.2676 15.4121,-1.5371 z m 355.4511,47.5293 -18.6445,46.3945 27.6445,11.1094 1.2071,0.5098 33.9765,15.0527 1.1954,0.5566 33.332,16.1914 1.1816,0.5996 32.6895,17.336 1.1601,0.6406 0.1602,0.094 24.9726,-43.3184 -0.5449,-0.3145 -1.9355,-1.0703 -33.4688,-17.7461 -1.9687,-1 -34.125,-16.58 -1.9942,-0.9258 -34.7773,-15.4063 -2.0117,-0.8496 z m -2287.53511,8.2012 -2.2168,10.8925 -6.61132,36.6289 -5.8086,36.8028 -4.95117,36.6133 -2.51563,30.3027 49.82813,4.1367 2.4082,-29.0176 4.70508,-34.7851 5.63672,-35.7149 6.41602,-35.539 2.10546,-10.3496 z m 1685.45121,15.1113 c -16.8217,7.494 -28.9193,16.2997 -39.0528,20.6367 l -1.248,0.5332 -3.1992,1.8008 -32.7129,19.3164 -2.2071,1.3672 -31.7578,20.5781 -2.164,1.4668 -20.1465,14.2852 28.9199,40.7871 19.7207,-13.9825 1.2969,-0.8789 30.8847,-20.0117 1.3243,-0.8203 31.8222,-18.791 1.0996,-0.6192 c 16.0606,-7.156 27.8738,-15.5884 37.7676,-19.996 z m 2532.9394,26.2519 -49.3223,8.2012 0.5137,3.0918 5.209,35.873 4.3731,35.1856 2.7597,34.1894 1.2559,34.0274 -0.018,2.5078 49.998,0.3613 0.025,-3.6113 -1.3359,-36.2207 -2.9355,-36.3516 -4.5684,-36.7636 -5.3574,-36.8907 z m -1705.416,69.0371 -27.9648,41.4493 12.7402,8.5957 1.0762,0.7539 30.1328,21.9043 1.039,0.7832 29.5528,23.0937 0.7597,0.6094 0.023,0.018 c 14.1013,11.5468 27.9519,22.5571 40.8105,33.8789 l 33.041,-37.5254 c -14.2061,-12.5083 -28.6122,-23.927 -42.3906,-35.2129 l -0.1094,-0.092 -1.1211,-0.8945 -30.121,-23.5391 -1.7344,-1.3066 -30.8379,-22.418 -1.793,-1.2559 z m -1040.4375,49.1739 -22.9707,21.0742 -1.8711,1.7891 -26.9531,26.8671 -1.7793,1.8477 -0.1778,0.1914 c -17.5288,18.9827 -34.9314,37.8979 -52.5156,56.4473 l 36.2871,34.3984 c 17.8718,-18.8528 35.3667,-37.8694 52.8008,-56.75 l 1.0469,-1.0859 26.2226,-26.1387 1.1231,-1.0723 22.5898,-20.7246 z m -1443.45117,91.6894 -49.85352,3.8496 0.66797,8.6328 4.63672,35.1973 6.54687,35.0195 8.45899,34.8516 10.2832,34.3848 2.0586,5.3457 46.6582,-17.9727 -1.36524,-3.5449 -9.35546,-31.2813 -7.83399,-32.2812 -6.05469,-32.3867 -4.28515,-32.5254 z m 2679.83597,20.3692 -34.2813,36.3984 0.051,0.049 0.623,0.5996 26.6504,26.2852 0.6094,0.6152 26.0567,26.9141 0.5937,0.6269 25.4688,27.5469 0.5761,0.6387 21.0235,23.8125 37.4824,-33.0918 -21.2149,-24.0273 -0.9609,-1.0645 -25.8555,-27.9668 -0.9882,-1.0449 -26.461,-27.3301 -1.0137,-1.0234 -27.0605,-26.6914 -1.0391,-1.002 z m 1469.1464,20.3906 -0.1152,1.1973 -4.7422,33.5644 -6.2461,33.4961 -7.4746,32.2109 -9.25,29.4063 -3.6445,9.0019 46.3437,18.7657 4.3965,-10.8555 10.4258,-33.1465 8.1563,-35.1445 6.6484,-35.6504 5.0488,-35.752 0.2227,-2.3007 z m -2880.7578,47.7558 c -34.6884,35.6959 -69.8642,70.9281 -105.4863,105.711 l 34.9317,35.7754 c 35.9255,-35.0792 71.4098,-70.6218 106.4121,-106.6406 z m 1583.9981,114.168 -35.668,35.041 11.4082,11.6114 26.5293,26.0586 26.9688,25.5566 27.4101,25.0586 18.0235,15.8945 33.0703,-37.5019 -17.6875,-15.5977 -26.7481,-24.4531 -26.3203,-24.9434 -25.8906,-25.4297 z m -2780.90041,20.2988 -40.86914,28.8047 13.75,19.5098 21.56836,25.7344 23.9043,24.1562 26.27344,22.5977 25.80859,18.9414 29.58203,-40.3106 -24.25195,-17.7968 -23.28516,-20.0274 -21.03711,-21.2617 -18.89843,-22.5469 z m 1017.26371,32.7461 -9.0938,6.6387 -27.8379,18.3106 -28.7832,16.9804 -29.7519,15.6582 -30.3848,14.1778 21.1426,45.3086 31.4707,-14.6836 31.8828,-16.7813 30.8789,-18.2148 29.8809,-19.6524 10.08,-7.3593 z m 2983.9648,5.8008 -8.5391,11.5957 -19.5664,22.4063 -21.8574,21.2851 -24.6035,20.4805 -25.8945,18.9551 -1.7207,1.0996 26.9062,42.1426 3.0625,-1.9551 28.4375,-20.8164 27.2988,-22.7246 24.7051,-24.0567 22.2598,-25.4941 9.7715,-13.2656 z M 1374.5,3733.4414 l -8.3477,2.8516 -33.7324,10.3828 -34.0156,9.3496 -34.3027,8.3144 -31.5801,6.6446 10.2969,48.9277 32.3222,-6.8008 35.7813,-8.6718 35.4824,-9.752 35.1855,-10.832 9.0665,-3.0957 z m 2164.0098,2.0371 -27.5762,41.709 14.2598,9.4277 30.3535,17.4727 31.3281,15.5215 32.3164,13.5801 32.1641,11.2363 16.4902,-47.2031 -30.709,-10.7266 -29.459,-12.3789 -28.5371,-14.1406 -27.664,-15.9239 z m -2781.58402,5.4141 -21.67969,45.0547 4.20118,2.0215 32.34765,13.1308 33.22461,11.1172 34.11719,9.1074 35.0293,7.0938 11.92773,1.6836 6.99414,-49.5078 -10.45703,-1.4766 -32.07422,-6.4961 -31.14453,-8.3125 -30.26367,-10.127 -29.4375,-11.9492 z m 3632.75972,33.4082 -27.1699,10.6777 -30.5215,9.8008 -31.6093,8.0137 -34.1661,6.4804 -15.957,2.6914 8.3184,49.3047 16.457,-2.7773 36.1602,-6.8594 34.5976,-8.7695 33.5254,-10.7656 28.6524,-11.2618 z m -3253.6171,11.3847 -11.2325,1.2579 -34.7382,2.6347 -34.7168,1.377 -34.7071,0.1211 -30.78513,-1.0059 -1.63476,49.9727 31.68949,1.0351 36.5156,-0.1269 36.5215,-1.4492 36.5293,-2.7696 12.123,-1.3574 z m 2625.5019,33.1446 -9.2461,49.1367 6.4707,1.2187 36.334,5.711 36.4609,4.6074 36.5918,3.5059 36.0645,2.3613 3.2656,-49.8926 -35.3105,-2.3125 -35.0899,-3.3613 -34.9648,-4.4199 -34.8457,-5.4766 z m 391.2149,6.959 -30.0118,3.1875 -36.0761,3.0879 -36.166,2.3535 -36.2559,1.6191 -9.0371,0.2207 1.2168,49.9844 9.5429,-0.2324 37.2735,-1.6641 37.1816,-2.4199 37.0938,-3.1758 30.5195,-3.2422 z"
     id="cl" />
  <path
     style="color:#000000;fill:#ffffff;-inkscape-stroke:none"
     d="m 1275.584,2307.9355 -938.60744,146.7598 15.44922,98.7988 938.60552,-146.7597 z"
     id="start_line"
     transform="matrix(1,0,0,-1,0,4336.9149)" />
</svg>
