<?xml version="1.0" encoding="UTF-8" standalone="no"?>
<svg
   id="Amoeba"
   version="1.1"
   width="5156.69276mm"
   height="3934.12534mm"
   viewBox="0.00000,0.00000,5156.69276,3934.12534"
   sodipodi:docname="Amoeba_raw.svg"
   inkscape:version="1.1.2 (0a00cf5339, 2022-02-04)"
   xmlns:inkscape="http://www.inkscape.org/namespaces/inkscape"
   xmlns:sodipodi="http://sodipodi.sourceforge.net/DTD/sodipodi-0.dtd"
   xmlns="http://www.w3.org/2000/svg"
   xmlns:svg="http://www.w3.org/2000/svg">
  <defs
     id="defs9" />
  <sodipodi:namedview
     id="trackview"
     pagecolor="#00c389"
     bordercolor="#000000"
     borderopacity="0.25"
     inkscape:pageshadow="2"
     inkscape:pageopacity="0.0"
     inkscape:pagecheckerboard="0"
     inkscape:document-units="mm"
     showgrid="false"
     inkscape:zoom="0.058712226"
     inkscape:cx="9750.9504"
     inkscape:cy="7434.5674"
     inkscape:window-width="2490"
     inkscape:window-height="1376"
     inkscape:window-x="2630"
     inkscape:window-y="27"
     inkscape:window-maximized="1"
     inkscape:current-layer="Amoeba" />
  <path
     d="M 416.99543,928.02528 C 476.81806,608.97447 651.10206,285.20657 959.47429,148.74249 1207.6339,30.507917 1494.8914,58.095067 1750.8076,134.37455 c 257.2808,59.0866 538.2995,52.51857 774.1906,-76.596399 333.3881,-127.195334 711.6662,-35.210792 996.6812,164.247409 350.5469,240.81965 603.1084,589.85872 884.0598,903.08824 180.8584,198.6205 329.2911,424.258 434.6711,671.596 176.5743,402.3895 355.5746,834.7257 306.3557,1283.3362 -27.7542,339.7851 -265.9485,641.4643 -583.2013,760.3706 -309.8491,106.801 -652.5931,120.8245 -972.4175,51.0444 -317.68,-65.2488 -545.184,-312.5144 -754.4987,-541.3218 -120.6561,-115.3868 -303.0343,-256.3181 -474.2634,-159.6364 -168.1383,110.8548 -277.5336,290.3227 -439.5332,410.2631 C 1582.6564,3855.6577 1122.9027,3946.652 709.82562,3849.787 360.32183,3764.647 67.065592,3469.3671 17.506727,3107.9348 -62.733549,2662.6621 166.14387,2248.462 266.30368,1826.8065 338.9523,1532.3183 364.25574,1226.7644 416.99543,928.02528 Z m 536.3363,2003.49862 c 176.46447,25.8159 372.72427,-28.5714 483.01757,-175.7356 205.8964,-238.0444 464.1021,-449.097 778.2921,-517.7047 430.1447,-105.8845 883.4095,65.9551 1203.0923,356.2782 139.9834,111.3183 237.7626,270.0071 385.3317,370.6548 130.9043,30.6999 274.1188,21.8372 401.5654,-7.4126 0.4371,-259.4719 -117.8645,-501.556 -215.0555,-736.7788 -75.6727,-192.452 -195.6083,-360.7506 -334.6743,-512.3338 -212.225,-232.9487 -399.027,-494.0281 -649.3179,-688.5467 -62.9709,-39.25306 -142.2864,-102.17474 -212.9788,-40.63654 -447.6688,191.16654 -956.2008,169.64144 -1417.6253,42.40454 -64.0187,252.8489 -83.679,515.7711 -129.8605,772.6626 -54.7674,352.5346 -196.2892,683.7515 -282.61946,1028.2341 -4.27668,35.014 -18.33334,75.9411 -9.16731,108.9145 z"
     id="road"
     style="fill:#232f3e;fill-opacity:1;stroke:none" />
  <path
     d="m 933.6852,2977.781 c -59.47269,-32.6634 -24.65892,-112.5985 -20.18377,-165.1441 50.72571,-224.1651 139.55317,-437.7365 197.18307,-660.2024 44.8697,-155.5696 83.0719,-312.8356 101.6369,-473.9318 33.6582,-204.1672 58.3633,-410.2631 97.6063,-613.228 6.3108,-45.0338 29.9099,-111.43867 88.8298,-90.90066 424.5444,118.98526 889.9634,142.22086 1307.9104,-15.43131 69.0961,-14.87053 132.9458,-85.11627 206.046,-46.21634 208.2272,91.39651 351.6184,277.48181 500.3226,442.10851 166.2505,192.5417 341.4775,378.8349 490.5171,585.2084 135.0873,243.4547 245.4831,502.1625 319.8485,770.6907 17.4179,89.3356 48.9921,184.7194 23.8984,274.8749 -38.4639,42.9416 -106.9804,29.6606 -159.0993,42.0095 -108.7145,8.0773 -225.6286,16.2786 -327.7353,-27.6915 -154.6195,-122.5814 -266.9407,-289.8422 -424.7368,-409.4087 -270.9678,-226.7204 -628.0688,-371.1321 -985.1092,-325.2968 -324.418,34.6432 -613.3111,223.8035 -822.3798,467.4 -85.9276,84.2504 -162.1145,192.0914 -286.3095,220.6084 -98.7343,30.9301 -206.0763,47.3902 -308.2454,24.5512 z m 19.64653,-46.2571 c 129.98457,19.1349 270.18817,-6.9825 381.59147,-77.0646 163.5968,-148.8896 296.8333,-333.3147 489.5407,-448.4401 338.6462,-228.1671 794.0353,-260.9911 1163.813,-89.5488 271.9322,116.1225 494.3619,319.4842 687.2788,539.1393 55.6718,50.7153 105.7567,123.6009 189.7543,121.4033 112.1392,13.8395 232.2696,6.3191 339.3208,-19.409 5.4082,-181.6025 -64.0264,-355.4275 -125.2624,-523.5136 -75.3877,-179.6722 -145.0307,-365.9241 -259.3438,-525.0571 -203.8858,-252.8213 -419.1989,-496.7253 -638.8264,-735.7912 -93.5232,-88.9533 -191.0515,-187.77959 -318.8207,-222.79062 -175.9654,76.79462 -363.6942,135.31192 -556.183,155.57832 -312.1539,39.6689 -628.9944,-4.5156 -931.2155,-84.3171 -46.7308,153.5321 -54.4327,315.9664 -83.9173,473.4113 -33.0599,201.5646 -52.4174,406.0851 -113.4928,601.895 -59.613,239.1372 -151.2724,469.0153 -211.44563,707.7784 -5.65332,40.6983 -22.23684,87.8869 -12.79154,126.7265 z"
     id="il"
     style="fill:#ffffff;fill-opacity:1;stroke:none" />
  <path
     d="M 416.99543,928.02528 C 476.81806,608.97447 651.10206,285.20657 959.47429,148.74249 1207.6339,30.507917 1494.8914,58.095067 1750.8076,134.37455 c 257.2808,59.0866 538.2995,52.51857 774.1906,-76.596399 333.3881,-127.195334 711.6662,-35.210792 996.6812,164.247409 350.5469,240.81965 603.1084,589.85872 884.0598,903.08824 180.8584,198.6205 329.2911,424.258 434.6711,671.596 176.5743,402.3895 355.5746,834.7257 306.3557,1283.3362 -27.7542,339.7851 -265.9485,641.4643 -583.2013,760.3706 -309.8491,106.801 -652.5931,120.8245 -972.4175,51.0444 -317.68,-65.2488 -545.184,-312.5144 -754.4987,-541.3218 -120.6561,-115.3868 -303.0343,-256.3181 -474.2634,-159.6364 -168.1383,110.8548 -277.5336,290.3227 -439.5332,410.2631 C 1582.6564,3855.6577 1122.9027,3946.652 709.82562,3849.787 360.32183,3764.647 67.065592,3469.3671 17.506727,3107.9348 -62.733549,2662.6621 166.14387,2248.462 266.30368,1826.8065 338.9523,1532.3183 364.25574,1226.7644 416.99543,928.02528 Z M 308.10284,1864.568 c -99.13089,407.5757 -319.085581,808.7025 -240.473212,1239.3909 49.495832,354.8696 348.528532,637.3158 693.607132,706.9329 405.37714,78.2679 853.87614,-17.7114 1173.29434,-284.5107 148.8552,-119.6046 250.8696,-294.3127 419.7118,-388.2113 182.7274,-91.3487 376.5224,41.8609 505.8362,165.3451 204.976,215.7244 413.0641,461.8138 716.6078,532.7725 315.2963,75.6371 654.9879,62.3739 962.498,-40.0127 303.3738,-111.2365 532.0741,-398.4312 557.995,-722.6736 47.3868,-440.3825 -130.5243,-864.0552 -303.549,-1258.9663 -103.6342,-243.5923 -250.8607,-464.941 -428.7991,-660.4827 C 4085.9772,844.1925 3836.6544,496.85034 3487.897,259.96325 3201.6528,59.271045 2810.8925,-25.701775 2485.4014,129.70202 2185.5774,279.04316 1838.4922,216.40653 1529.6209,133.16545 1257.1263,83.724187 957.67535,147.75853 757.00272,346.4882 531.54295,568.78946 462.37429,890.52973 426.80574,1193.6164 386.92043,1417.059 371.26288,1646.0437 308.10284,1864.568 Z"
     id="ol"
     style="fill:#ffffff;fill-opacity:1;stroke:none" />
  <path
     style="color:#000000;fill:#ff9900;stroke-dasharray:150, 100;-inkscape-stroke:none"
     d="m 2804.0547,449.9707 -23.4063,5.15235 10.75,48.83007 17.8965,-3.93945 104.2149,0.83008 16.1406,3.58398 10.8379,-48.81054 -21.2969,-4.72852 z m 238.2969,28.97852 -19.4922,46.04297 117.4551,49.72461 15.9511,9.77929 26.1309,-42.6289 -19.1426,-11.73438 z m -363.627,2.01953 -95.9023,44.47656 -3.5528,1.43164 -35.83,12.35352 16.2968,47.26953 37.0391,-12.77148 5.9238,-2.38672 97.0625,-45.01368 z m -1340.3047,35.12695 -20.1992,2.35742 5.7988,49.66407 14.9746,-1.75 125.4375,11.75195 -0.3652,-0.0937 12.6211,-48.38086 -3.5566,-0.92969 z m -125.3867,16.7793 -93.3359,36.39258 -45.25,34.32031 30.2148,39.83789 39.6953,-30.10742 86.8379,-33.85938 z m 360.416,22.01172 -12.6211,48.38086 53.4375,13.93945 3.9512,0.89453 90.6758,17.47266 9.4609,-49.09766 -89.8808,-17.31836 -2.3711,-0.53711 z m 877.5469,15.1875 -114.7148,27.07031 -3.5528,0.66016 -25.8711,3.52148 6.7461,49.54297 27.0645,-3.68555 5.9238,-1.09961 115.8887,-27.34765 z m 816.6582,24.05273 -26.1309,42.62891 22.2579,13.64453 94.7734,75.05273 31.041,-39.19726 -97.125,-76.91602 z m -1452.457,8.35938 -5.9336,49.64648 109.8808,13.13281 4.8711,0.38868 36.375,1.48242 2.0371,-49.95703 -35.3984,-1.44336 -2.9219,-0.23438 z m 392.5742,12.33008 -2.7149,0.37109 -3.4023,0.30469 -133.0313,5.88086 -3.1816,0.006 -3.0957,-0.12696 -2.0371,49.95899 4.1543,0.16797 5.3066,-0.008 135.2305,-5.97656 5.6738,-0.51172 3.8438,-0.52344 z m -1208.13088,63.35937 -37.75,48.43945 -40.57421,84.79297 45.10156,21.58203 38.23823,-79.91015 34.4219,-44.16992 z m 2466.72848,75.6582 -34.6464,36.05079 96.7168,92.94726 9.2773,10.40039 37.3125,-33.28125 -10.5566,-11.83789 z m -2579.84176,155.42188 -24.50195,85.48828 -9.75,63.49996 49.42188,7.5879 9.26757,-60.3633 23.62696,-82.43745 z m 2755.06646,25.32226 -37.3145,33.28321 65.7012,73.65817 33.8808,38.3555 37.4727,-33.0996 -33.959,-38.4473 z m 165.9433,187.14458 -37.4746,33.1015 27.6738,31.3301 71.0352,81.4121 37.6758,-32.873 -71.1348,-81.5274 z m -2970.43554,35.3632 -22.76367,148.2637 49.42188,7.5859 22.76171,-148.2617 z m 3134.99614,153.3008 -37.9356,32.5742 72.166,84.043 25.0606,29.8262 38.2812,-32.166 -25.2324,-30.0313 z m -3172.93364,93.8047 -22.76367,148.2617 49.42188,7.5879 22.76171,-148.2637 z m 3334.92384,97.459 -38.7676,31.5762 56.6328,69.5312 36.6192,47.1914 39.5019,-30.6523 -36.9805,-47.6563 z m -3372.86134,149.6445 -22.76172,148.2637 49.41993,7.5879 22.76171,-148.2637 z m 3525.62114,52.7696 -43.1465,25.2675 6.1093,10.4336 18.2774,32.1055 17.873,32.3184 17.4707,32.5312 11.961,22.9473 44.3379,-23.1133 -12.1035,-23.2188 -17.7637,-33.0742 -18.1699,-32.8574 -18.5801,-32.6406 z M 718.27148,1877.2207 c -12.722,48.4719 -25.0484,96.8072 -38.36914,144.6191 l 48.16602,13.42 c 13.51802,-48.5201 25.90176,-97.0998 38.56445,-145.3457 z m 3686.35742,49.6172 -45.0859,21.6172 c 19.3273,40.3118 37.6207,81.3429 55.8965,122.6015 l 5.7363,13.1582 45.834,-19.9843 -5.8243,-13.3575 -0.029,-0.066 c -18.3074,-41.3301 -36.8002,-82.823 -56.5273,-123.9687 z M 652.60742,2117.6777 c -14.02601,47.7515 -28.71977,95.324 -43.98828,142.7246 l 47.5918,15.3301 c 15.39162,-47.7828 30.21272,-95.7674 44.36914,-143.9629 z m 3853.82028,38.9571 -46.1953,19.1347 c 19.0888,46.0843 37.7982,92.1653 55.2461,138.5606 l 46.8008,-17.5996 c -17.7531,-47.2069 -36.6737,-93.7964 -55.8516,-140.0957 z m -3928.24215,199.08 c -15.22299,47.6136 -30.4801,95.2168 -45.77149,142.8086 l 47.60352,15.295 c 15.29863,-47.6144 30.56262,-95.2405 45.79297,-142.877 z m 4018.13475,35.752 -47.2558,16.3379 3.2402,9.3711 c 11.8854,35.0129 23.1838,70.2255 33.8906,105.6172 l 7.9707,26.8847 47.9375,-14.2109 -8.0293,-27.0859 -0.02,-0.066 c -10.882,-35.9708 -22.3675,-71.7595 -34.4492,-107.3457 l -0.021,-0.066 z m -4093.55858,203.6914 -6.66016,24.3359 -9.02734,36.1075 -8.22266,36.2793 -7.41797,36.455 -2.72851,15.1172 49.20508,8.8828 2.63086,-14.5722 7.19531,-35.3692 7.97851,-35.2011 8.75977,-35.0352 6.51367,-23.8027 z m 4164.93168,38.5547 -48.7227,11.2324 4.25,18.4375 7.4023,35.4238 6.67,35.5723 5.9394,35.7207 2.9356,20.2149 49.4804,-7.1856 -3.0097,-20.7226 -6.1075,-36.7364 -6.8593,-36.5859 -7.6133,-36.4317 z m -2195.4356,23.834 -3.2773,0.059 -38.2305,1.705 -3.418,0.2481 -37.705,3.7598 -3.4629,0.4433 -5.7246,0.8965 7.7324,49.3984 5.0371,-0.7871 2.0762,-0.2675 36.3281,-3.6231 2.0508,-0.1484 36.8886,-1.6446 1.9668,-0.035 36.5821,0.2871 1.998,0.07 21.3164,1.3047 3.0586,-49.9063 -21.9844,-1.3457 -3.3281,-0.1152 z m 166.2637,15.4961 -11.0723,48.7597 32.7988,7.4473 1.9512,0.498 35.0176,9.9551 1.8965,0.5957 34.7207,11.8926 1.8301,0.6816 30.9297,12.4297 18.6445,-46.3945 -31.5332,-12.6719 -3.0508,-1.1347 -35.9648,-12.3203 -3.1622,-0.9903 -36.3007,-10.3203 -3.252,-0.832 z m -357.9492,12.7617 c -18.5175,4.5773 -34.6563,11.1204 -49.4356,15.8769 l -0.5039,0.1622 -3.4746,1.2832 -34.9512,14.039 -3.1914,1.3867 -34.3808,16.0879 -3.0508,1.5293 -15.4766,8.2989 23.6309,44.0644 14.875,-7.9766 1.8301,-0.9179 33.1328,-15.5039 1.914,-0.8321 33.6504,-13.5156 2.1407,-0.791 c 16.6707,-5.4026 31.528,-11.2507 45.289,-14.6523 z m 597.4648,76.8555 -23.4238,44.1738 19.1543,10.1562 1.1601,0.6426 32.0489,18.4746 1.1347,0.6836 31.4102,19.6172 1.293,0.8398 -0.8145,-0.5527 c 14.0424,9.9257 27.5419,18.0592 38.9043,26.6152 l 30.0762,-39.9433 c -14.1512,-10.6561 -28.1127,-19.0139 -40.1211,-27.502 l -0.4024,-0.2851 -2.0742,-1.3477 -32.1582,-20.084 -1.8926,-1.1367 -32.8164,-18.9179 -1.9355,-1.0704 z m -829.8281,34.6132 -1.4492,0.9805 -30.8008,21.8399 -2.1055,1.5605 -29.8418,23.0996 -2.0371,1.6465 -28.8828,24.3555 -1.957,1.7246 -22.6875,20.8125 33.8007,36.8437 22.3028,-20.4609 1.1758,-1.0352 28.08,-23.6816 1.2227,-0.9863 29.0137,-22.459 1.2636,-0.9356 29.9473,-21.2343 1.0156,-0.6875 z m -1594.67189,47.418 -2.46484,29.7168 -1.08008,35.8027 0.82617,35.5899 2.73242,35.3887 2.43164,18.455 49.57031,-6.5312 -2.2539,-17.1172 -2.52539,-32.7012 -0.76563,-32.9101 1.00196,-33.1524 2.35742,-28.4062 z m 4252.43559,40.543 -49.9649,1.8418 0.8223,22.2988 -0.2442,33.8828 -1.7422,33.7559 -3.2402,33.6504 -3.0449,21.5507 49.5078,6.9942 3.1992,-22.6485 3.4531,-35.8613 1.8575,-35.9726 0.2597,-36.0938 z m -1617.2071,20.0566 -31.6836,38.6817 5.8106,4.7578 0.6621,0.5547 28.4258,24.3984 0.6504,0.5703 27.832,25.0254 0.6367,0.5859 27.2422,25.6582 0.623,0.5996 17.3809,17.1426 35.1113,-35.5976 -17.5859,-17.3457 -1.0391,-1.002 -27.6621,-26.0508 -1.0605,-0.9765 -28.2637,-25.4121 -1.082,-0.9512 -28.8633,-24.7734 -1.1016,-0.9239 z m -1231.2636,61.1699 c -33.9543,36.4094 -68.3732,72.38 -103.2696,107.8711 l 35.6524,35.0547 c 35.2133,-35.8135 69.9369,-72.1012 104.1836,-108.8242 z m 1413.9882,114.961 -37.4824,33.0918 19.7363,22.3535 25.2129,27.5605 25.6524,27.0586 26.0898,26.5567 7.1992,7.0722 35.0371,-35.6718 -6.8808,-6.7579 -25.4668,-25.9218 -25.0391,-26.4141 -24.6152,-26.9043 z m -2745.91989,5.4687 -47.90429,14.3282 5.81054,19.4238 12.47266,32.3808 14.73047,30.6621 16.99023,28.9786 19.26953,27.3398 2.66407,3.1797 38.32031,-32.1191 -1.32031,-1.5743 -16.85743,-23.9199 -14.89062,-25.3965 -12.96875,-26.9941 -11.0586,-28.709 z m 4102.58399,38.8946 -4.2637,13.5566 -11.2461,27.7715 -13.2441,26.2597 -15.2774,24.8672 -17.375,23.5918 -4.998,5.7246 37.6621,32.8848 6.3633,-7.2871 19.8516,-26.9531 17.4726,-28.4414 15.1172,-29.9688 12.7695,-31.5371 4.8653,-15.4648 z m -2944.2109,19.0351 -23.6485,23.1934 -25.1308,22.3926 -26.0176,21.0156 -26.918,19.6523 -9.6875,6.3731 27.4766,41.7734 10.709,-7.043 28.8906,-21.0937 27.9062,-22.541 26.9278,-23.9942 24.5019,-24.0293 z m 1761.0371,112.6621 -33.7364,36.9024 0.3633,0.332 27.8477,24.5566 27.8926,23.7227 28.4492,21.4082 29.3965,19.4355 8.9941,5.1778 24.9434,-43.334 -7.6543,-4.4063 -26.834,-17.7402 -26.0391,-19.5957 -26.414,-22.4648 -27.1758,-23.9649 z m -2790.31448,19.3965 -29.58204,40.3106 22.41211,16.4453 29.81641,19.2246 30.64648,17.1816 31.48829,15.1524 21.1582,8.5898 18.80664,-46.3281 -19.70117,-7.9981 -28.66407,-13.7929 -27.9375,-15.6641 -27.25,-17.5684 z m 834.29878,8.3594 -23.8515,11.1289 -32.3203,13.2637 -33.1836,12.4629 -33.4571,11.4238 -13.8535,4.2637 14.711,47.7871 14.58,-4.4883 34.8907,-11.9121 34.5976,-12.9961 34.1074,-13.9942 24.92,-11.6289 z m 3003.8497,26.5547 -17.9883,13.166 -26.7227,17.0625 -27.5918,15.207 -28.5097,13.3867 -24.7247,9.7168 18.2891,46.5352 26.2246,-10.3067 31.4375,-14.7617 30.4219,-16.7675 29.4238,-18.7852 19.2715,-14.1074 z m -3234.9239,51.0781 -28.3886,5.9727 -34.9004,6.248 -34.9961,5.1836 -34.7696,3.8926 -11.8418,0.8984 3.7793,49.8574 12.7364,-0.9648 36.541,-4.0918 36.6211,-5.4258 36.3867,-6.5137 29.1269,-6.1289 z m -387.0488,11.082 -9.92383,49.0059 13.24805,2.6836 36.22851,5.1172 36.51953,3.8359 36.51563,2.5137 30.73441,1.0058 1.6347,-49.9746 -29.83396,-0.9746 -34.71875,-2.3906 -34.74218,-3.6504 -33.87305,-4.7832 z m 2774.2734,12.5547 -16.4882,47.2012 23.8886,8.3457 34.3457,9.7031 35.7246,7.8379 36.209,6.8145 19.8496,3.1191 7.7618,-49.3945 -19.1055,-3.002 -34.7324,-6.5351 -33.5411,-7.3594 -31.457,-8.8887 z m 630.1758,18.2695 -9.0723,1.7207 -35.7363,6.0293 -35.8183,5.293 -35.9043,4.5586 -29.9161,3.1777 5.2813,49.7207 30.4258,-3.2324 36.916,-4.6875 36.8281,-5.4414 36.7422,-6.1992 9.5723,-1.8164 z m -391.8027,26.3536 -3.2676,49.8925 24.6836,1.6153 36.8574,1.3027 36.9922,0.1992 37.2441,-0.9062 16.8692,-0.752 -2.2305,-49.9511 -16.3613,0.7304 -35.9941,0.877 -35.502,-0.1934 -35.3574,-1.248 z"
     id="cl" />
  <path
     style="color:#000000;fill:#ffffff;-inkscape-stroke:none"
     d="m 1221.1191,1997.4727 -933.46676,178.0839 18.74024,98.2286 933.46682,-178.084 z"
     id="start_line"
     transform="matrix(1,0,0,-1,0,3934.1392)" />
</svg>
