<?xml version="1.0" encoding="UTF-8" standalone="no"?>
<svg
   id="Amoeba"
   version="1.1"
   width="5156.69276mm"
   height="3934.12534mm"
   viewBox="0.00000,0.00000,5156.69276,3934.12534"
   sodipodi:docname="Amoeba_iconography.svg"
   inkscape:version="1.1.2 (0a00cf5339, 2022-02-04)"
   xmlns:inkscape="http://www.inkscape.org/namespaces/inkscape"
   xmlns:sodipodi="http://sodipodi.sourceforge.net/DTD/sodipodi-0.dtd"
   xmlns="http://www.w3.org/2000/svg"
   xmlns:svg="http://www.w3.org/2000/svg">
  <defs
     id="defs1581" />
  <sodipodi:namedview
     id="trackview"
     pagecolor="#ffffff"
     bordercolor="#000000"
     borderopacity="0.25"
     inkscape:pageopacity="0"
     inkscape:pagecheckerboard="true"
     inkscape:pageshadow="2"
     inkscape:document-units="mm"
     showgrid="false"
     inkscape:zoom="0.078484728"
     inkscape:cx="9740.7485"
     inkscape:cy="8453.874"
     inkscape:window-width="2490"
     inkscape:window-height="1376"
     inkscape:window-x="2630"
     inkscape:window-y="27"
     inkscape:window-maximized="1"
     inkscape:current-layer="Amoeba" />
  <path
     d="m 416.99543,928.02528 12.88356,-58.79045 41.4593,-144.65325 12.52191,-37.66919 15.62347,-36.4921 55.31967,-115.60516 24.55829,-44.92789 29.2515,-42.02349 68.09732,-87.37933 26.6672,-31.3205 29.27704,-28.89583 31.6673,-26.25444 80.65637,-61.1759 36.13447,-24.86524 38.2741,-21.42598 40.08736,-17.80404 94.91411,-37.00755 38.2711,-13.074218 39.2447,-9.771265 39.9336,-6.397482 111.7659,-13.05379 49.6759,-3.176016 49.7356,2.040037 130.0738,12.186435 38.0661,5.12611 37.5274,8.184952 136.6528,35.648947 121.6044,23.5162 113.0529,13.60818 104.7059,4.37979 96.6867,-4.14755 91.2334,-12.27819 82.5022,-19.46952 77.5222,-26.72756 88.2604,-40.932075 47.9592,-19.147532 49.7543,-13.828148 105.9282,-23.321051 52.6462,-8.5248423 53.2701,-2.5694271 109.6764,0.87433563 49.8884,3.02728147 49.2941,8.2525773 114.8196,25.496513 41.7049,11.273372 40.5083,15.015936 120.6133,51.06228 32.1347,15.04348 30.9221,17.40025 126.342,77.44488 46.6513,32.59506 131.6914,104.28826 34.2475,29.89605 136.638,131.31459 25.3426,26.30301 142.2217,159.45088 1.5232,1.71598 127.8472,144.7364 1.9086,2.17411 112.243,128.6415 2.4613,2.84347 96.6152,112.51646 3.2931,3.8769 80.9457,96.3365 4.6292,5.5956 65.1953,80.0447 6.9734,8.7711 49.2628,63.4848 11.6491,15.6666 32.8117,46.0757 22.9663,35.4937 17.8641,30.5041 2.9223,5.0613 18.4282,32.3743 2.8621,5.1009 18.0222,32.5879 2.8004,5.1382 17.6163,32.8019 2.7373,5.1732 17.2106,33.016 2.6731,5.2059 16.8049,33.2304 2.6077,5.2361 16.3995,33.4451 2.5411,5.264 15.9941,33.6599 2.4736,5.2894 15.647,34.0015 1.323,2.9005 15.4729,34.2263 1.304,2.9104 15.2405,34.3242 1.2847,2.9198 15.0081,34.4223 1.2653,2.9287 14.7757,34.5204 1.2457,2.9374 14.5434,34.6184 1.2258,2.9456 14.3111,34.7167 1.2059,2.9534 14.0787,34.8149 1.1858,2.9608 13.8055,34.8097 1.9268,4.9386 13.3698,34.841 1.8731,4.9638 12.9752,34.9757 1.8185,4.9872 12.5806,35.1104 1.7632,5.0088 12.1862,35.2454 1.7072,5.0285 11.7917,35.3805 1.6506,5.0464 11.3974,35.5158 1.5934,5.0623 11.003,35.6514 1.5357,5.0763 10.5426,35.5636 2.6697,9.3566 9.7336,35.4867 2.4843,9.436 8.9909,35.6328 2.2942,9.5039 8.2487,35.78 2.1004,9.5599 7.5067,35.9285 1.9036,9.604 6.7651,36.0783 1.7042,9.6357 6.0237,36.2293 1.5035,9.6552 5.2824,36.3817 1.3018,9.6622 4.4713,35.9736 2.0868,20.3655 2.8476,35.2718 1.2175,20.71 1.2959,35.1238 0.3106,20.9422 -0.2525,34.9878 -0.6191,21.0547 -1.7994,34.8649 -1.5554,21.0434 -3.3465,34.755 -2.482,20.908 -4.8955,34.6581 -3.3826,20.6516 -6.448,34.5734 -4.242,20.2809 -7.8149,33.6786 -9.5937,35.1596 -9.8377,31.2755 -12.8398,35.7561 -12.0083,29.6548 -16.1669,35.6308 -14.1802,28.1139 -19.379,34.7247 -16.3752,26.655 -22.2699,33.0558 -18.6137,25.2719 -24.6576,30.7231 -20.9127,23.9505 -26.4144,27.89 -23.2818,22.6714 -27.4859,24.7549 -25.9502,21.6025 -23.3385,18.2273 -27.1669,19.8857 -24.9506,17.0711 -28.0726,17.923 -26.3258,15.6368 -29.0064,15.9874 -27.4035,13.9669 -29.9742,14.0737 -28.1396,12.1208 -30.9792,12.1749 -28.5107,10.1686 -32.023,10.2834 -28.5163,8.1843 -33.1043,8.3914 -28.1778,6.2382 -35.162,6.6708 -9.5224,1.7063 -36.2394,6.1134 -9.5751,1.515 -36.3237,5.3677 -9.6161,1.3208 -36.4094,4.6223 -9.645,1.1244 -36.4963,3.8771 -9.662,0.9267 -36.5844,3.1319 -9.6668,0.7283 -36.6738,2.3868 -9.6595,0.5299 -36.7645,1.6417 -9.6402,0.3324 -36.6194,0.8907 -14.1141,0.1335 -36.247,-0.1958 -14.206,-0.2892 -36.1074,-1.2756 -14.2606,-0.7186 -35.9719,-2.355 -14.2765,-1.1511 -35.8404,-3.4343 -14.2534,-1.5833 -35.713,-4.5138 -14.1915,-2.0116 -35.5897,-5.5938 -14.0911,-2.4327 -35.4704,-6.6748 -13.9533,-2.8429 -34.6331,-7.5988 -27.3397,-6.8547 -32.902,-9.2951 -27.5084,-8.6815 -31.8779,-11.1356 -27.3593,-10.5151 -30.888,-12.9787 -26.8818,-12.293 -29.9325,-14.8309 -26.0842,-13.9523 -29.0093,-16.6988 -24.9933,-15.4351 -28.1148,-18.5878 -23.6523,-16.695 -27.2439,-20.5021 -22.1157,-17.7 -27.1532,-23.093 -6.4359,-5.5737 -27.5129,-24.2621 -6.335,-5.6881 -27.0783,-24.7555 -6.228,-5.797 -26.6443,-25.2496 -6.1154,-5.9001 -26.2109,-25.7442 -5.9974,-5.9969 -25.778,-26.2396 -5.8746,-6.0873 -25.3455,-26.7357 -5.7471,-6.1711 -24.9136,-27.2324 -5.6153,-6.2481 -21.2211,-24.0363 -19.0806,-20.6519 -19.4418,-20.095 -19.8667,-19.6085 -20.3022,-19.1336 -20.7491,-18.6694 -21.2082,-18.2151 -21.6798,-17.7698 -20.0182,-15.654 -18.5583,-13.5124 -18.7444,-12.668 -19.0492,-11.9188 -19.3985,-11.2034 -19.796,-10.5173 -20.2443,-9.8549 -20.7453,-9.2109 -17.6595,-7.1127 -14.3956,-4.9587 -13.8384,-3.9609 -13.6356,-3.1224 -13.6187,-2.3526 -13.7989,-1.6208 -14.1791,-0.8948 -14.7535,-0.1426 -14.7381,0.6321 -13.6368,1.3344 -12.8865,1.9913 -12.3761,2.6353 -12.0952,3.3038 -12.0383,4.0359 -12.1894,4.8679 -12.5233,5.8301 -15.4069,8.2259 -16.9807,10.0024 -16.4641,10.6426 -15.8662,11.2233 -15.3481,11.8526 -14.9032,12.5402 -14.5233,13.2947 -14.199,14.1229 -20.3409,21.9624 -1.6326,1.7539 -25.5775,27.3386 -1.9905,2.1145 -25.7209,27.1571 -2.0067,2.1059 -25.8643,26.9757 -2.023,2.0971 -26.0077,26.7943 -2.0391,2.0878 -26.1511,26.613 -2.0549,2.0784 -26.2945,26.4316 -2.0707,2.0686 -26.438,26.2503 -2.0862,2.0587 -25.838,25.3398 -16.5912,15.5108 -26.0303,23.1941 -17.5292,14.8742 -26.9613,21.7776 -18.368,14.1107 -27.9039,20.3739 -19.0876,13.2336 -28.8599,18.9812 -19.6715,12.2611 -29.8307,17.5974 -20.1081,11.2141 -30.8176,16.2203 -20.3912,10.1162 -31.8206,14.8473 -20.5201,8.9914 -33.2128,13.6288 -13.3088,5.2286 -33.8912,12.7294 -13.5341,4.8509 -34.1733,11.6678 -13.7249,4.4545 -34.4591,10.6083 -13.8788,4.0424 -34.7489,9.5501 -13.9946,3.618 -35.0428,8.4931 -14.0713,3.1849 -35.3407,7.4366 -14.1085,2.7466 -35.6429,6.3808 -14.1062,2.3067 -35.8088,5.304 -16.7414,2.1764 -35.6555,3.9923 -16.946,1.5906 -35.634,2.7016 -17.0879,0.9863 -35.6193,1.4125 -17.1644,0.3701 -35.6116,0.1242 -17.1737,-0.2506 -35.61096,-1.1639 -17.11602,-0.8688 -35.61729,-2.4527 -16.99219,-1.4771 -35.6305,-3.7429 -16.80465,-2.0688 -35.05074,-4.9505 -27.85179,-4.7828 -33.55211,-6.7948 -28.20596,-6.6136 -32.63055,-8.709 -28.24041,-8.4845 -31.74379,-10.6219 -27.9365,-10.3328 -30.89283,-12.5409 -27.29463,-12.0926 -30.07654,-14.4723 -26.33513,-13.7015 -29.29179,-16.4227 -25.09656,-15.1061 -28.53375,-18.3967 -23.63153,-16.267 -27.42286,-20.1238 -28.71907,-22.8325 -24.77865,-21.3124 -27.90397,-26.0217 -22.47041,-22.709 -26.39378,-28.973 -20.23435,-24.1413 -24.22276,-31.4858 -18.06288,-25.6292 -21.49918,-33.3862 -15.94111,-27.1883 -18.39181,-34.5574 -13.849188,-28.8271 -15.10184,-34.9597 -11.765649,-30.5455 -11.828765,-34.6314 -9.8196,-32.8334 -6.516946,-24.0759 -8.146112,-33.5654 -5.31216,-24.7478 -6.300105,-33.7031 -4.016619,-25.225 -4.4620678,-33.8623 -2.6614459,-25.4897 -2.628508,-34.0444 -1.28133331,-25.533 -0.79568195,-34.2499 0.0878748,-25.3554 1.04014051,-34.4782 1.4117316,-24.9667 2.8824157,-34.7278 2.6595078,-24.385 4.8291856,-35.6995 1.517877,-10.3599 5.72134,-36.2589 1.750472,-10.3495 6.514065,-36.0844 1.981881,-10.3238 7.306969,-35.9116 2.211076,-10.2827 8.100159,-35.7404 2.437045,-10.2266 8.893741,-35.5707 2.658796,-10.1556 9.687819,-35.4025 2.875376,-10.0702 10.482488,-35.2359 3.085864,-9.9707 11.425907,-35.5312 11.55576,-35.9766 11.54198,-35.9755 11.52821,-35.9744 11.51442,-35.9732 11.50065,-35.972 11.48687,-35.9709 11.4731,-35.9697 11.00869,-34.5541 10.44045,-33.5245 10.21751,-33.5815 9.99666,-33.6452 9.77592,-33.7093 9.55527,-33.7738 9.33471,-33.8385 9.11291,-33.8987 37.2898,-142.437 z m 536.3363,2003.49862 5.49351,1.1125 12.66979,1.7895 18.72691,1.9672 18.55776,1.278 18.4604,0.6033 18.4369,-0.064 18.4876,-0.7331 18.6117,-1.411 18.8067,-2.1058 20.3871,-3.0197 21.5321,-3.8547 21.2474,-4.471 21.0065,-5.0912 20.8089,-5.7189 20.6542,-6.3584 20.541,-7.0133 20.4671,-7.6874 16.2317,-6.6606 11.3499,-5.2958 10.5532,-5.5545 9.9273,-5.8562 9.468,-6.2271 9.1658,-6.6924 9.0047,-7.2734 8.9646,-7.9879 16.6816,-16.36 24.3595,-24.1865 24.2317,-24.358 24.1041,-24.5298 23.9766,-24.7018 23.8494,-24.8743 23.7223,-25.0469 23.5954,-25.22 24.5539,-26.5676 6.6779,-7.0788 1.4211,-1.4757 6.8215,-6.9405 26.5877,-26.5025 7.0399,-6.8734 1.4969,-1.4315 7.1808,-6.7262 27.5343,-25.261 7.3747,-6.6254 1.5669,-1.3785 7.5114,-6.4701 28.4809,-24.0194 7.6766,-6.3376 1.6299,-1.3172 7.8077,-6.1753 29.4276,-22.778 7.9402,-6.014 1.6847,-1.2484 8.0647,-5.8462 30.3741,-21.5365 8.1616,-5.6595 1.7304,-1.1734 8.2781,-5.4877 31.3208,-20.295 8.3372,-5.2801 1.7666,-1.0933 8.4452,-5.1058 32.2673,-19.0534 8.4655,-4.8821 1.7926,-1.0093 8.5642,-4.7069 33.214,-17.8119 11.5124,-5.9729 2.4404,-1.2242 11.6712,-5.6564 33.7571,-15.7948 12.0547,-5.4371 2.5533,-1.1091 12.2013,-5.0995 34.3003,-13.7777 12.5057,-4.8196 2.6466,-0.9773 12.6367,-4.4648 34.8435,-11.7607 12.8486,-4.1344 2.7168,-0.8318 12.961,-3.7676 35.3866,-9.7436 13.0712,-3.4 2.7615,-0.6765 13.1625,-3.0269 35.9298,-7.7265 13.1664,-2.6372 2.7792,-0.516 13.2357,-2.264 36.4729,-5.7094 13.1336,-1.8684 2.7699,-0.3547 13.1806,-1.5009 37.0161,-3.6923 12.978,-1.1151 2.735,-0.1972 13.0037,-0.7588 37.5592,-1.6752 12.4521,-0.3919 2.6221,-0.048 12.4581,-0.065 37.2425,0.2936 12.6581,0.2686 2.6637,0.092 12.6465,0.6058 36.9257,2.2625 12.7598,0.9545 2.6831,0.2371 12.7294,1.2978 36.609,4.2314 12.7508,1.6489 2.6792,0.3834 12.7015,1.9935 36.2922,6.2002 12.6297,2.3339 2.6517,0.5271 12.562,2.6745 35.9755,8.1691 12.3998,2.9913 2.6015,0.6647 12.315,3.3232 35.6588,10.138 12.069,3.6049 2.5304,0.7925 11.9692,3.9237 35.342,12.1068 11.6494,4.161 2.4407,0.9077 11.5371,4.4629 35.0253,14.0757 7.6729,3.1617 1.6094,0.6797 7.6165,3.2952 34.3768,15.2308 7.6079,3.4511 1.5952,0.7406 7.546,3.5843 33.7283,16.3859 7.5131,3.7324 1.5747,0.7996 7.446,3.8645 33.0798,17.5409 7.3891,4.0023 1.548,0.8563 7.3172,4.1324 32.4312,18.6959 7.2372,4.2577 1.5155,0.9098 7.1607,4.385 31.7828,19.851 7.0589,4.4958 1.4776,0.9595 6.9786,4.6194 31.1343,21.0061 6.8567,4.7141 1.4347,1.005 6.7731,4.8334 30.4857,22.1612 6.6331,4.9104 1.3874,1.0459 6.5468,5.0249 29.8373,23.3162 4.2741,3.3797 0.8957,0.7166 4.2351,3.4285 29.2409,23.9506 4.2086,3.4878 0.8818,0.7393 4.1681,3.5361 28.6445,24.5849 4.1358,3.5913 0.8663,0.7611 4.0942,3.6387 28.048,25.2194 4.0561,3.6895 0.8493,0.7817 4.0132,3.7361 27.4517,25.8537 3.9696,3.7821 0.8311,0.801 3.9256,3.8275 26.8553,26.4882 3.877,3.8683 0.8115,0.8191 3.8321,3.9128 26.2589,27.1225 3.7785,3.9481 0.7907,0.8357 3.7329,3.9913 25.6625,27.757 3.675,4.0209 0.7688,0.8509 3.6286,4.0628 21.9933,24.9111 19.2322,21.0222 19.5344,20.6058 19.8416,20.197 20.1541,19.7953 20.4721,19.4005 20.7964,19.0125 21.1271,18.6307 13.1165,11.1552 4.3505,3.2739 3.7763,2.4967 3.449,1.9854 3.4234,1.6962 3.7384,1.5708 4.4137,1.5418 5.4477,1.539 13.9062,3.0512 21.4453,4.0355 21.4454,3.3707 21.4873,2.7158 21.5721,2.0671 21.7001,1.4207 21.8709,0.7727 22.0838,0.1192 24.7416,-0.6017 27.1136,-1.2108 27.0097,-1.7578 26.9189,-2.3045 26.8417,-2.8514 26.7778,-3.3996 26.7271,-3.9496 26.6897,-4.5024 16.2258,-3.0783 1.2014,-0.3045 0.3593,-2.5439 1.3258,-13.7691 0.7125,-13.8055 0.1009,-13.9791 -0.5271,-14.2877 -1.1888,-14.7248 -2.6071,-20.9755 -3.8799,-26.7219 -4.4198,-26.5828 -4.9611,-26.4574 -5.5045,-26.3455 -6.051,-26.2471 -6.6012,-26.1619 -7.156,-26.0896 -8.4061,-28.3565 -9.4385,-30.582 -9.7753,-30.4614 -10.1128,-30.3429 -10.4509,-30.2265 -10.7897,-30.1123 -11.1293,-29.9999 -11.4699,-29.8898 -12.2403,-30.8634 -12.8829,-31.8577 -13.0952,-31.7671 -13.3077,-31.6769 -13.5203,-31.5873 -13.7331,-31.498 -13.9462,-31.4092 -14.1594,-31.3208 -13.7601,-29.9012 -13.4867,-28.383 -13.8251,-28.1947 -14.1645,-28.0092 -14.5052,-27.8262 -14.8473,-27.6459 -15.1908,-27.4682 -15.5358,-27.293 -5.6947,-9.7241 -14.8744,-20.8874 -39.8423,-51.3445 -59.3636,-72.8849 -76.9736,-91.609 -93.7332,-109.1602 -110.0558,-126.1347 -126.13,-142.7924 -129.2928,-144.9557 -107.053,-102.8822 -91.5039,-72.4632 -71.724,-43.9653 -47.9632,-20.30549 -23.5184,-5.22243 -5.9053,-0.0471 -2.9387,0.64696 -60.9292,28.25682 -22.2778,9.6478 -4.7389,1.90997 -22.7416,8.49695 -118.237,40.76489 -22.697,7.1941 -4.8133,1.3939 -23.029,6.0477 -123.5351,29.1528 -22.408,4.7209 -4.7386,0.8796 -22.6095,3.6353 -128.8333,17.5408 -21.5087,2.4306 -4.5374,0.4083 -21.5971,1.4483 -134.1315,5.9286 -20.1595,0.4626 -4.2443,0.01 -20.161,-0.3934 -139.4297,-5.6835 -18.5377,-1.119 -3.8965,-0.3118 -18.4798,-1.8428 -144.7278,-17.2956 -16.8009,-2.3127 -3.5273,-0.5498 -16.7076,-2.911 -150.026,-28.9077 -15.07,-3.1579 -3.161,-0.716 -14.9596,-3.6447 -114.1452,-29.7773 -11.1576,-1.0454 -1.3754,2.8745 -22.1858,77.4072 -118.7444,773.4419 -4.3671,24.2376 -1.051,5.0754 -5.6174,23.9786 -43.1877,164.9698 -0.3962,1.5031 -0.084,0.3164 -0.4011,1.5018 -9.8354,36.5907 -0.4061,1.501 -0.086,0.3158 -0.411,1.4996 -10.0737,36.5214 -0.416,1.4985 -0.088,0.3154 -0.4209,1.4971 -10.3119,36.4521 -0.4259,1.4959 -0.09,0.3148 -0.4307,1.4946 -10.5502,36.3827 -0.4356,1.4932 -0.092,0.3142 -0.4405,1.4917 -10.7884,36.3134 -0.4453,1.4902 -0.094,0.3135 -0.4502,1.4887 -11.0266,36.2442 -0.455,1.4869 -0.096,0.3129 -0.4599,1.4855 -11.2648,36.1749 -0.4646,1.4835 -0.098,0.3122 -0.4695,1.482 -11.5518,36.2588 -11.5708,36.2759 -11.5846,36.277 -11.5985,36.278 -11.6124,36.279 -11.6262,36.2801 -11.64,36.2811 -11.6539,36.2822 -9.8528,30.6391 -7.50113,25.2144 -6.92013,25.2884 -6.34535,25.3784 -5.77576,25.4844 -5.21029,25.607 -4.64784,25.7465 -4.08724,25.9029 -2.48267,18.3529 -0.83301,10.0363 -0.28056,9.2998 0.20415,8.7873 0.65738,8.5145 0.22707,1.7232 z"
     id="road"
     style="fill:#232f3e;fill-opacity:0.7;stroke:none" />
  <path
     d="m 763.17437,1803.3522 123.3201,-803.2461 41.4593,-144.65321 55.31968,-115.60516 68.09735,-87.37932 80.6563,-61.17591 94.9141,-37.00755 111.7659,-13.05379 130.0738,12.18643 151.4025,39.49671 3.161,0.71606 150.026,28.9077 3.5272,0.54986 144.7279,17.2956 3.8966,0.31177 139.4297,5.6835 4.2442,-0.007 134.1315,-5.9286 4.5375,-0.40831 128.8333,-17.54071 4.7387,-0.8796 123.5351,-29.1528 4.8132,-1.39388 118.237,-40.76491 4.7389,-1.90997 107.9854,-50.07985 105.9282,-23.32105 109.6764,0.87434 114.8196,25.49651 120.6133,51.06228 126.3419,77.44488 131.6914,104.28826 136.638,131.3146 142.2217,159.4509 127.8472,144.7364 112.243,128.6415 96.6152,112.5164 80.9457,96.3365 65.1953,80.0447 49.2628,63.4848 32.8116,46.0757 17.8641,30.5041 18.4282,32.3743 18.0221,32.5879 17.6163,32.8019 17.2106,33.016 16.805,33.2304 16.3994,33.445 15.9942,33.6599 15.647,34.0015 15.4729,34.2263 15.2405,34.3243 15.0082,34.4223 14.7757,34.5203 14.5434,34.6185 14.3111,34.7167 14.0787,34.8148 13.8055,34.8097 13.3698,34.8411 12.9752,34.9756 12.5807,35.1104 12.1861,35.2454 11.7917,35.3805 11.3974,35.5159 11.0031,35.6514 10.5425,35.5636 9.7336,35.4867 8.9909,35.6328 8.2487,35.78 7.5067,35.9285 6.7651,36.0783 6.0237,36.2293 5.2824,36.3817 4.4713,35.9735 2.8476,35.2718 1.296,35.1237 -0.2526,34.9879 -1.7994,34.8649 -3.3465,34.755 -4.8955,34.658 -6.448,34.5735 -7.8148,33.6787 -9.8377,31.2755 -12.0083,29.6547 -14.1803,28.1139 -16.3751,26.655 -18.6137,25.272 -20.9127,23.9505 -23.2817,22.6713 -25.9503,21.6026 -27.1669,19.8856 -28.0725,17.923 -29.0065,15.9874 -29.9741,14.0737 -30.9793,12.175 -32.0229,10.2834 -33.1043,8.3915 -35.162,6.6708 -36.2394,6.1135 -36.3237,5.3677 -36.4094,4.6223 -36.4962,3.877 -36.5844,3.132 -36.6738,2.3868 -36.7645,1.6417 -36.6195,0.8906 -36.2469,-0.1957 -36.1075,-1.2757 -35.9718,-2.355 -35.8404,-3.4343 -35.713,-4.5138 -35.5898,-5.5938 -35.4704,-6.6749 -34.6331,-7.5987 -32.902,-9.2951 -31.8779,-11.1356 -30.888,-12.9787 -29.9324,-14.831 -29.0093,-16.6988 -28.1149,-18.5878 -27.2439,-20.5021 -27.1532,-23.093 -27.513,-24.2621 -27.0783,-24.7555 -26.6443,-25.2496 -26.2109,-25.7443 -25.7779,-26.2396 -25.3456,-26.7357 -24.9136,-27.2325 -24.7734,-28.0599 -0.7688,-0.8509 -25.6625,-27.757 -0.7906,-0.8357 -26.2589,-27.1226 -0.8115,-0.8191 -26.8553,-26.4881 -0.8311,-0.801 -27.4516,-25.8538 -0.8494,-0.7817 -28.0481,-25.2194 -0.8663,-0.761 -28.6445,-24.585 -0.8818,-0.7394 -29.2409,-23.9505 -0.8957,-0.7167 -29.8373,-23.3162 -1.3873,-1.0458 -30.4858,-22.1611 -1.4347,-1.005 -31.1343,-21.0061 -1.4777,-0.9595 -31.7828,-19.851 -1.5155,-0.9098 -32.4313,-18.696 -1.548,-0.8562 -33.0798,-17.541 -1.5746,-0.7996 -33.7283,-16.3859 -1.5952,-0.7405 -34.3767,-15.2308 -1.6095,-0.6797 -35.0252,-14.0758 -2.4407,-0.9077 -35.342,-12.1069 -2.5304,-0.7925 -35.6587,-10.138 -2.6016,-0.6647 -35.9755,-8.1691 -2.6517,-0.5272 -36.2923,-6.2002 -2.6792,-0.3834 -36.609,-4.2314 -2.683,-0.2371 -36.9258,-2.2625 -2.6636,-0.092 -37.2425,-0.2936 -2.6222,0.048 -37.5592,1.6752 -2.7349,0.1973 -37.0161,3.6923 -2.7699,0.3547 -36.473,5.7094 -2.7791,0.5159 -35.9298,7.7265 -2.7615,0.6765 -35.3866,9.7436 -2.7168,0.8318 -34.8434,11.7607 -2.6466,0.9773 -34.3003,13.7777 -2.5533,1.1092 -33.7571,15.7948 -2.4404,1.2241 -33.2139,17.812 -1.7926,1.0093 -32.2674,19.0535 -1.7666,1.0932 -31.3207,20.295 -1.7305,1.1734 -30.3742,21.5365 -1.6847,1.2484 -29.4275,22.778 -1.6299,1.3171 -28.481,24.0195 -1.5669,1.3785 -27.5344,25.261 -1.4969,1.4315 -26.5877,26.5025 -1.421,1.4757 -25.5375,27.632 -25.5776,27.3386 -25.7209,27.1572 -25.8643,26.9757 -26.0077,26.7943 -26.1511,26.6129 -26.2945,26.4316 -26.438,26.2503 -25.838,25.3399 -26.0302,23.1941 -26.9613,21.7776 -27.9039,20.3739 -28.8598,18.9812 -29.8308,17.5975 -30.8176,16.2203 -31.8206,14.8472 -33.2128,13.6288 -33.8912,12.7293 -34.1733,11.6679 -34.4592,10.6082 -34.7489,9.5501 -35.0427,8.493 -35.3407,7.4367 -35.6429,6.3807 -35.8089,5.304 -35.6555,3.9923 -35.634,2.7016 -35.6193,1.4125 -35.6115,0.1242 -35.61095,-1.1639 -35.61729,-2.4527 -35.63051,-3.743 -35.05074,-4.9505 -33.5521,-6.7949 -32.63055,-8.7089 -31.7438,-10.622 -30.89283,-12.5408 -30.07654,-14.4723 -29.29179,-16.4227 -28.53374,-18.3968 -27.42286,-20.1238 -24.77865,-21.3123 -22.4704,-22.7091 -20.23435,-24.1413 -18.06288,-25.6292 -15.94111,-27.1883 -13.84919,-28.8271 -11.76565,-30.5455 -9.8196,-32.8334 -8.14611,-33.5654 -6.3001,-33.7031 -4.46207,-33.8623 -2.62851,-34.0445 -0.79568,-34.2499 1.04014,-34.4782 2.88242,-34.7279 4.82918,-35.6994 5.72134,-36.2589 6.51407,-36.0844 7.30697,-35.9116 8.10015,-35.7404 8.89375,-35.5706 9.68782,-35.4025 10.48248,-35.236 11.45047,-35.6075 11.60483,-36.1294 11.59101,-36.1283 11.5772,-36.1273 11.56338,-36.1261 11.54956,-36.125 11.53575,-36.124 11.52194,-36.1228 11.50298,-36.1056 0.0983,-0.3122 11.26477,-36.1749 0.0963,-0.3129 11.02655,-36.2442 0.0943,-0.3135 10.78835,-36.3135 0.0922,-0.3142 10.55013,-36.3828 0.0902,-0.3148 10.31191,-36.452 0.0881,-0.3154 10.0737,-36.5213 0.086,-0.3159 9.83548,-36.5906 0.0839,-0.3164 43.18772,-164.9697 z"
     id="cl"
     style="fill:none;stroke:#ffffff;stroke-width:50;stroke-opacity:1" />
</svg>
