<?xml version="1.0" encoding="UTF-8" standalone="no"?>
<svg
   version="1.1"
   width="5264.12931mm"
   height="4446.18210mm"
   viewBox="0.00000,0.00000,5264.12931,4446.18210"
   id="svg4"
   sodipodi:docname="Amoeba.svg"
   inkscape:version="1.3 (0e150ed6c4, 2023-07-21)"
   xmlns:inkscape="http://www.inkscape.org/namespaces/inkscape"
   xmlns:sodipodi="http://sodipodi.sourceforge.net/DTD/sodipodi-0.dtd"
   xmlns="http://www.w3.org/2000/svg"
   xmlns:svg="http://www.w3.org/2000/svg">
  <defs
     id="defs4" />
  <sodipodi:namedview
     id="namedview4"
     pagecolor="#cccccf"
     bordercolor="#000000"
     borderopacity="0.25"
     inkscape:showpageshadow="2"
     inkscape:pageopacity="0.0"
     inkscape:pagecheckerboard="0"
     inkscape:deskcolor="#d1d1d1"
     inkscape:document-units="mm"
     inkscape:zoom="0.049332118"
     inkscape:cx="9942.8124"
     inkscape:cy="8402.2339"
     inkscape:window-width="1800"
     inkscape:window-height="1106"
     inkscape:window-x="-11"
     inkscape:window-y="-11"
     inkscape:window-maximized="1"
     inkscape:current-layer="svg4" />
  <path
     fill-rule="evenodd"
     fill="#ffffff"
     stroke="#555555"
     stroke-width="0"
     opacity="0.6"
     d="m 790.55139,3588.976 -3.13281,-3.4685 -2.79524,-3.746 -2.43325,-3.9906 -2.04998,-4.2004 -1.64881,-4.3734 -1.23324,-4.5083 -0.28901,-1.2909 -0.44776,-2.2384 -2.40655,-13.6429 -0.34851,-2.2826 -1.72363,-13.3486 -0.24412,-2.313 -1.08342,-13.2001 -0.13653,-2.3286 -0.46545,-13.2042 -0.0278,-2.3292 0.15176,-13.3627 0.0799,-2.3147 0.78955,-13.673 0.18465,-2.2856 1.46803,-14.1269 0.28446,-2.2429 3.12471,-20.849 0.15882,-0.9916 4.61064,-27.0459 0.17909,-0.9902 5.14495,-26.9002 0.19925,-0.9877 5.68084,-26.7669 0.21921,-0.9839 6.21906,-26.6459 0.23891,-0.9789 6.76035,-26.537 0.25827,-0.9728 7.30543,-26.4401 0.27723,-0.9655 7.85498,-26.3547 0.29572,-0.957 9.92357,-31.0116 11.46589,-35.7718 11.48138,-35.7607 11.49688,-35.7495 11.51236,-35.7384 11.52786,-35.7272 11.54335,-35.7161 11.55884,-35.705 11.60125,-35.7768 0.34283,-1.0625 0.15514,-0.4832 0.33975,-1.0635 11.41143,-35.8997 0.33673,-1.0647 0.15235,-0.4841 0.33364,-1.0656 11.20218,-35.9627 0.33058,-1.0667 0.14956,-0.4851 0.32748,-1.0677 10.99293,-36.0256 0.3244,-1.0687 0.14675,-0.486 0.3213,-1.0696 10.78367,-36.0886 0.31819,-1.0705 0.14392,-0.4868 0.31508,-1.0714 10.57443,-36.1516 0.31194,-1.0722 0.14109,-0.4876 0.30883,-1.0731 10.36517,-36.2146 0.30567,-1.0738 0.13824,-0.4883 0.30255,-1.0748 10.15588,-36.2775 0.2994,-1.0754 0.1354,-0.489 0.2962,-1.0762 9.9416,-36.3219 0.4481,-1.6514 0.202,-0.7511 0.4407,-1.6533 9.6105,-36.3795 0.4336,-1.6561 0.1954,-0.7532 0.4262,-1.6581 9.2847,-36.4556 0.419,-1.6605 0.1887,-0.7552 0.4116,-1.6623 8.9588,-36.5318 0.4042,-1.6645 0.1821,-0.7569 0.3968,-1.6663 8.6329,-36.608 0.3894,-1.668 0.1754,-0.7586 0.382,-1.6698 8.3069,-36.6842 0.3746,-1.6713 0.1685,-0.76 0.3672,-1.6729 7.981,-36.7605 0.3596,-1.674 0.1617,-0.7613 0.3521,-1.6757 7.6552,-36.8367 0.3445,-1.6764 0.1549,-0.7624 0.3371,-1.6779 7.3217,-36.8749 0.5559,-2.8563 0.2478,-1.2992 0.5343,-2.8605 6.7506,-36.9107 0.5135,-2.8687 0.2284,-1.3048 0.4917,-2.8725 6.1871,-36.9848 0.4704,-2.8792 0.2089,-1.3094 0.4486,-2.8827 5.6235,-37.0589 0.427,-2.8876 0.1891,-1.3133 0.4051,-2.8908 5.06,-37.1332 0.3832,-2.8942 0.1692,-1.3162 0.3612,-2.8969 4.4966,-37.2076 0.3391,-2.8987 0.1492,-1.3182 0.3172,-2.9011 3.933,-37.2822 0.295,-2.9011 0.1291,-1.3192 0.2729,-2.9034 3.3696,-37.3568 0.2507,-2.9017 0.109,-1.3193 0.2287,-2.9035 12.6485,-168.7204 0.8184,-14.6642 0.2447,-6.6699 0.2585,-14.6847 -0.8687,-589.4391 0.2886,-5.4386 7.234,-67.0298 1.0644,-6.1882 11.7534,-49.4902 2.1176,-6.7504 13.7279,-34.8977 1.5477,-3.52878 1.8148,-3.39909 14.6817,-25.11815 2.1612,-3.37859 2.4249,-3.19452 17.2179,-20.88629 2.6444,-2.96015 2.8709,-2.74105 23.857,-21.0326 2.8966,-2.36714 3.0655,-2.14395 35.6597,-23.00263 5.9187,-3.27348 65.073,-30.43815 2.8455,-1.22506 77.1141,-30.403 3.2261,-1.14594 70.464,-22.34361 3.6299,-1.00227 63.6654,-15.02302 4.0382,-0.7791 56.962,-8.57708 4.422,-0.4659 50.695,-3.07049 4.7438,-0.0618 45.2737,1.55919 4.9622,0.41903 41.1014,5.54351 5.0413,0.94541 56.1943,13.55491 1.5558,0.40186 64.177,17.68095 1.8436,0.54626 52.7461,16.7387 2.2077,0.75778 40.4068,14.93216 2.6706,1.07529 25.5199,11.13936 4.8803,2.45591 4.5832,2.97372 4.2314,3.45602 3.8291,3.89705 12.6136,14.32549 25.4711,28.83709 25.5165,28.79718 25.5622,28.75752 25.6078,28.71785 25.6535,28.67823 25.6992,28.6385 25.7616,28.6174 0.3125,0.3467 25.5102,28.2426 0.3133,0.3465 25.5581,28.2008 0.3138,0.3459 25.6059,28.1591 0.3144,0.3454 25.6538,28.1174 0.3149,0.3447 25.7016,28.0757 0.3155,0.3442 25.7495,28.0339 0.316,0.3437 25.7973,27.9922 0.3166,0.3431 25.8249,27.9285 0.9143,0.9853 0.4164,0.4472 0.9178,0.9822 25.7683,27.4796 0.9216,0.9794 0.4197,0.4445 0.9251,0.9762 25.9542,27.2932 0.9288,0.9733 0.423,0.4417 0.9322,0.97 26.1403,27.1069 0.9358,0.9671 0.4261,0.4388 0.9393,0.9638 26.3262,26.9206 0.9427,0.9606 0.4293,0.4359 0.9461,0.9574 26.5123,26.7343 0.9495,0.9541 0.4323,0.4329 0.9528,0.9508 26.6983,26.5479 0.9562,0.9475 0.4353,0.4298 0.9594,0.9441 26.8844,26.3617 0.9626,0.9406 0.4382,0.4267 0.9659,0.9372 27.0444,26.1503 1.7732,1.7036 0.8084,0.7718 1.784,1.6923 27.3351,25.7639 1.7964,1.6824 0.819,0.7621 1.8072,1.6708 27.6517,25.4027 1.8189,1.6602 0.8292,0.752 1.8294,1.6486 27.9685,25.0415 1.8404,1.6373 0.8389,0.7415 1.8509,1.6254 28.2853,24.6805 1.8611,1.6134 0.8482,0.7307 1.8714,1.6015 28.6021,24.3193 1.8809,1.5889 0.8572,0.7195 1.891,1.5768 28.919,23.9584 1.8996,1.5635 0.8657,0.708 1.9096,1.5513 29.236,23.5975 1.9174,1.5375 0.8738,0.6961 1.9272,1.5253 29.5182,23.209 3.0154,2.3468 1.3759,1.0599 3.0386,2.3167 29.8926,22.558 3.0694,2.2924 1.4003,1.035 3.092,2.2617 30.3018,21.9342 3.12,2.2348 1.4231,1.0087 3.1421,2.2035 30.7113,21.3107 3.167,2.1743 1.4445,0.9811 3.1885,2.1425 31.121,20.6873 3.2104,2.1111 1.464,0.9522 3.2313,2.079 31.5309,20.064 3.25,2.0454 1.4818,0.9223 3.2702,2.0128 31.941,19.441 3.2856,1.9774 1.4978,0.8913 3.3051,1.9446 32.3514,18.818 3.317,1.9075 1.512,0.8595 3.3358,1.8743 32.7206,18.1722 4.6289,2.5295 2.1118,1.1352 4.6631,2.4658 33.0719,17.199 4.7189,2.4129 2.1524,1.082 4.7517,2.3478 33.4638,16.2485 4.7992,2.2894 2.1885,1.0256 4.8303,2.2229 33.8565,15.2985 4.869,2.1597 2.2199,0.9663 4.8984,2.0921 34.2498,14.3489 4.9279,2.0245 2.2461,0.9047 4.9555,1.9562 34.6439,13.3995 4.9753,1.8849 2.2673,0.8411 5.0009,1.816 35.0388,12.4504 5.0111,1.7418 2.2832,0.7761 5.0346,1.6726 35.4344,11.5015 5.0351,1.5962 2.2936,0.7098 5.0565,1.527 35.3946,10.4243 0.1176,0.035 34.9209,10.3778 0.1175,0.035 34.8821,10.4595 0.1175,0.035 34.8431,10.5411 0.1175,0.036 34.8043,10.6228 0.1175,0.036 34.7654,10.7044 0.1175,0.036 34.7266,10.7861 0.1175,0.037 34.6878,10.8677 0.1174,0.037 21.5177,6.7997 2.6661,0.9261 7.5348,2.8579 2.6627,1.0986 6.6078,2.9521 2.6309,1.2688 5.9738,3.0992 2.5703,1.4309 5.6274,3.3535 2.4823,1.5801 5.5482,3.7654 2.3696,1.7115 5.7021,4.3776 2.236,1.8216 6.0447,5.2212 2.0864,1.9078 10.6203,10.2773 1.1582,1.1581 14.3859,14.8642 1.1254,1.2019 13.7885,15.2191 1.0886,1.2422 13.2314,15.611 1.048,1.2787 12.7112,16.0439 1.0039,1.311 12.2237,16.5214 0.9569,1.3388 11.7639,17.0458 0.9074,1.3619 11.3269,17.6194 0.8558,1.3801 13.4928,22.5674 0.3151,0.5345 15.7733,27.1408 0.3086,0.5388 15.4269,27.3202 0.3021,0.5429 15.082,27.502 0.2954,0.5467 14.7386,27.6864 0.2885,0.5503 14.3965,27.8734 0.2816,0.5536 14.0557,28.0631 0.2744,0.5566 13.7161,28.2554 0.2672,0.5594 14.0612,29.9047 0.1286,0.2755 14.553,31.446 0.1269,0.2764 14.3593,31.5289 0.1252,0.2772 14.1656,31.6123 0.1236,0.278 13.9721,31.6959 0.1219,0.2788 13.7788,31.7798 0.1202,0.2795 13.5856,31.8641 0.1184,0.2802 13.3925,31.9487 0.1168,0.2808 12.9298,31.3789 0.1669,0.4103 12.383,30.8243 0.1634,0.412 12.1057,30.9237 0.1598,0.4135 11.8289,31.024 0.1561,0.415 11.5524,31.1253 0.1525,0.4164 11.2763,31.2276 0.1487,0.4176 11.0006,31.331 0.145,0.4188 10.7252,31.4353 0.1412,0.4199 9.9394,29.9994 0.2339,0.7243 8.9834,28.563 0.2231,0.7289 8.5374,28.6645 0.2122,0.7329 8.0932,28.771 0.2011,0.7365 7.6507,28.8826 0.1898,0.7395 7.2096,28.9996 0.1785,0.7421 6.7697,29.1218 0.167,0.7441 6.3308,29.2494 0.1554,0.7456 5.2044,25.9512 0.2639,1.4221 3.8365,22.4854 0.2237,1.4372 3.158,22.4261 0.1825,1.4489 2.49,22.4031 0.1404,1.4571 1.8291,22.4176 0.098,1.4614 1.1721,22.4703 0.055,1.4621 0.5158,22.5614 0.012,1.4589 -0.1434,22.6905 -0.03,1.452 -0.5454,15.4145 -0.1868,2.8965 -0.6666,7.1136 -0.3653,2.9511 -0.9335,6.0571 -0.5512,2.9753 -1.1545,5.3266 -0.7385,2.9663 -1.3912,4.9386 -0.9212,2.9236 -1.7074,4.8907 -1.093,2.8482 -0.7623,1.8185 -2.098,4.3923 -2.5152,4.1675 -2.9086,3.9032 -3.2743,3.6019 -3.609,3.2664 -3.9095,2.9 -4.173,2.5061 -4.3969,2.0884 -9.5469,3.9773 -1.8894,0.7425 -15.348,5.6744 -1.9261,0.6678 -15.4731,5.0138 -1.9534,0.5892 -15.6962,4.3872 -1.9708,0.5078 -16.0204,3.7822 -1.9783,0.425 -16.4462,3.1864 -1.9758,0.3418 -16.9718,2.587 -1.9638,0.2597 -23.5396,2.639 -0.7738,0.081 -29.643,2.8571 -0.7763,0.069 -29.645,2.3915 -0.7782,0.057 -29.6527,1.927 -0.7796,0.044 -29.6662,1.463 -0.7804,0.032 -29.6856,0.9994 -0.7805,0.02 -29.7108,0.5359 -0.7802,0.01 -29.7417,0.072 -0.7793,-0 -25.0545,-0.3296 -1.7033,-0.051 -20.0589,-0.9483 -1.7152,-0.1107 -19.7471,-1.6153 -1.721,-0.1708 -19.4975,-2.276 -1.7208,-0.2313 -19.3115,-2.9371 -1.7142,-0.2913 -19.1893,-3.6052 -1.7013,-0.3504 -19.1297,-4.2868 -1.6825,-0.4078 -19.1307,-4.9885 -1.6578,-0.4629 -13.7296,-4.0897 -2.6821,-0.8821 -7.5092,-2.7069 -2.6801,-1.0543 -6.6094,-2.8224 -2.6497,-1.2241 -6.0024,-2.9886 -2.5906,-1.3864 -5.683,-3.2595 -2.5041,-1.5356 -5.6309,-3.6852 -2.3928,-1.6677 -5.8122,-4.308 -2.2607,-1.7786 -6.1827,-5.1589 -2.1124,-1.8661 -14.7239,-13.7652 -0.4287,-0.4055 -22.7784,-21.8047 -0.4237,-0.4104 -22.5286,-22.0807 -0.4186,-0.4151 -22.2805,-22.3586 -0.4133,-0.4196 -22.034,-22.6384 -0.4078,-0.424 -21.789,-22.9201 -0.4022,-0.4281 -21.5456,-23.204 -0.3964,-0.432 -21.3035,-23.4897 -0.3906,-0.4358 -22.9481,-25.906 -2.7577,-3.0798 -1.2611,-1.3932 -2.7907,-3.05 -25.3926,-27.4545 -2.8312,-3.0283 -1.2943,-1.3695 -2.8636,-2.9975 -25.9472,-26.8696 -2.9012,-2.972 -1.3259,-1.3438 -2.9331,-2.9406 -26.5019,-26.2847 -2.9674,-2.9115 -1.3559,-1.316 -2.9987,-2.8793 -27.0569,-25.7003 -3.0296,-2.8466 -1.384,-1.2865 -3.0601,-2.8138 -27.6123,-25.1161 -3.0874,-2.778 -1.4101,-1.2551 -3.1172,-2.7446 -28.1678,-24.5321 -3.1408,-2.7057 -1.4341,-1.2221 -3.1697,-2.6718 -28.7238,-23.9483 -3.1893,-2.6302 -1.456,-1.1877 -3.2174,-2.5958 -29.2344,-23.3284 -4.6493,-3.652 -2.1259,-1.6436 -4.7047,-3.5801 -29.7801,-22.3022 -4.7896,-3.5295 -2.1894,-1.5874 -4.8436,-3.4551 -30.3704,-21.3118 -4.9183,-3.3947 -2.2475,-1.5256 -4.9704,-3.318 -30.9615,-20.3222 -5.0341,-3.2486 -2.2996,-1.4586 -5.0841,-3.1698 -31.5534,-19.3334 -5.1359,-3.0921 -2.3452,-1.3872 -5.1834,-3.0117 -32.1463,-18.3451 -5.2226,-2.9268 -2.3841,-1.3118 -5.2675,-2.8452 -32.7403,-17.3572 -5.2936,-2.7541 -2.4157,-1.2331 -5.3357,-2.6717 -33.3352,-16.3699 -5.3486,-2.5755 -2.44,-1.1519 -5.3876,-2.4927 -33.8423,-15.3425 -8.1497,-3.5817 -3.7227,-1.585 -8.2303,-3.3923 -34.1393,-13.6117 -8.4253,-3.2452 -3.8464,-1.43 -8.4991,-3.0468 -34.5222,-11.9209 -8.6531,-2.8737 -3.948,-1.2595 -8.7187,-2.668 -34.9084,-10.232 -8.8267,-2.4735 -4.0249,-1.0764 -8.8832,-2.2626 -35.2983,-8.5447 -8.942,-2.0521 -4.075,-0.8842 -8.9884,-1.8385 -35.6921,-6.8585 -8.9962,-1.6181 -4.0973,-0.6869 -9.0321,-1.4042 -36.0899,-5.1726 -8.989,-1.1805 -4.0916,-0.4885 -9.0143,-0.9685 -36.4916,-3.4867 -8.9218,-0.7479 -4.0587,-0.2927 -8.9367,-0.5402 -36.8544,-1.798 -10.1182,-0.3604 -4.6005,-0.1033 -10.1242,-0.094 -36.4842,0.1404 -10.2977,0.1774 -4.6787,0.1432 -10.2892,0.4528 -36.1502,2.0756 -10.3919,0.7378 -4.7182,0.3992 -10.3682,1.0188 -35.8217,4.0099 -10.3955,1.3071 -4.7162,0.6583 -10.3562,1.5895 -35.4993,5.9442 -10.3066,1.8702 -4.6724,0.9137 -10.2519,2.15 -35.1828,7.8794 -10.1275,2.4124 -4.5877,1.1585 -10.0585,2.6854 -34.8721,9.8167 -9.8643,2.9196 -4.4651,1.3868 -9.7828,3.1822 -34.5663,11.7567 -9.5266,3.3804 -4.3093,1.5931 -9.4346,3.6293 -34.3187,13.7218 -7.4865,3.085 -3.3878,1.4379 -7.4199,3.2418 -33.5635,15.0863 -7.4255,3.433 -3.3582,1.5961 -7.3508,3.5899 -32.7471,16.4258 -7.3213,3.7709 -3.3092,1.7494 -7.239,3.9267 -31.9334,17.7662 -7.175,4.0932 -3.241,1.8953 -7.0855,4.2462 -31.1223,19.1078 -6.9884,4.3944 -3.1547,2.0312 -6.8925,4.5433 -30.3138,20.4509 -6.7645,4.6695 -3.0517,2.155 -6.6633,4.8128 -29.5075,21.796 -6.5076,4.9143 -2.9339,2.2648 -6.4021,5.0509 -28.7032,23.1433 -6.2224,5.1255 -2.8037,2.3591 -6.1137,5.2547 -27.9865,24.5681 -3.3041,2.9343 -1.4942,1.3423 -3.2702,2.9721 -27.4592,25.2444 -3.2442,3.0172 -1.4666,1.3799 -3.2093,3.0542 -26.8429,25.8427 -3.1786,3.0957 -1.4367,1.4154 -3.1428,3.1322 -26.2269,26.4412 -3.1079,3.1696 -1.4043,1.4488 -3.0711,3.2052 -25.6114,27.04 -3.0321,3.2384 -1.3697,1.4799 -2.9946,3.2732 -24.996,27.6392 -2.9518,3.3018 -1.333,1.5085 -2.9136,3.3356 -24.3811,28.2388 -2.8672,3.3596 -1.2945,1.5346 -2.8285,3.3923 -23.7663,28.8387 -2.779,3.4116 -1.2542,1.5579 -2.7398,3.4431 -16.3035,20.7309 -1.3974,1.6986 -9.6983,11.2739 -1.4903,1.6564 -9.8797,10.4999 -1.5772,1.6023 -10.133,9.8425 -1.656,1.5373 -10.4753,9.2928 -1.7254,1.4623 -10.921,8.8389 -1.784,1.3785 -11.482,8.4656 -1.8309,1.2877 -12.166,8.1555 -1.8654,1.1915 -15.3576,9.3374 -1.4104,0.8262 -18.0722,10.1941 -1.4451,0.7842 -18.2477,9.5162 -1.4756,0.7388 -18.4686,8.8689 -1.5015,0.6907 -18.7379,8.2477 -1.5224,0.6403 -19.0581,7.6475 -1.5384,0.5881 -19.4307,7.0634 -1.5491,0.5346 -19.8566,6.4898 -1.5545,0.4803 -21.4335,6.241 -1.3379,0.3695 -22.6492,5.9184 -1.3538,0.3337 -22.6823,5.2559 -1.3668,0.2967 -22.7468,4.6046 -1.3766,0.2586 -22.8437,3.9616 -1.3831,0.22 -22.9738,3.3243 -1.3865,0.1809 -23.1371,2.6898 -1.3866,0.1416 -23.3339,2.0554 -1.3834,0.1026 -20.93759,1.2601 -1.8925,0.078 -18.08253,0.402 -1.91249,0.01 -17.77052,-0.2848 -1.92429,-0.068 -17.54372,-0.9577 -1.9276,-0.1426 -17.40455,-1.6268 -1.92225,-0.2172 -17.35346,-2.3021 -1.90832,-0.2907 -17.38898,-2.9938 -1.88603,-0.3622 -17.50771,-3.7116 -1.8558,-0.4305 -11.76186,-2.9659 -2.96667,-0.8463 -4.88624,-1.5583 -2.98533,-1.0573 -3.72039,-1.4519 -2.96603,-1.2692 -2.95149,-1.3773 -2.90731,-1.4739 -2.58185,-1.4166 -2.81016,-1.6635 -2.5883,-1.6485 -2.6781,-1.8306 -2.92387,-2.1409 -2.51672,-1.9693 -1.04984,-0.8771 z m 36.54856,-34.3343 2.92387,2.1409 2.58829,1.6486 2.58185,1.4165 2.9515,1.3773 3.72039,1.4519 4.88624,1.5583 11.76185,2.9659 17.50771,3.7116 17.38898,2.9939 17.35346,2.302 17.40455,1.6267 17.54372,0.9577 17.77052,0.2848 18.08254,-0.4021 20.93758,-1.2601 23.3339,-2.0554 23.1371,-2.6898 22.9737,-3.3243 22.8437,-3.9617 22.7468,-4.6046 22.6823,-5.2559 22.6492,-5.9184 21.4335,-6.2411 19.8566,-6.4898 19.4308,-7.0634 19.0581,-7.6476 18.7379,-8.2477 18.4686,-8.8689 18.2478,-9.5162 18.0722,-10.1941 15.3576,-9.3373 12.166,-8.1556 11.4819,-8.4656 10.9211,-8.839 10.4752,-9.2928 10.1331,-9.8424 9.8797,-10.4999 9.6982,-11.2739 16.3918,-20.8432 2.9177,-3.6667 1.4335,-1.7804 2.9594,-3.6332 23.9484,-29.0595 3.0121,-3.6127 1.4794,-1.7537 3.0535,-3.5779 24.5687,-28.4561 3.1028,-3.5522 1.5235,-1.724 3.1434,-3.5163 25.1891,-27.8527 3.1891,-3.4856 1.5653,-1.6913 3.229,-3.4487 25.8096,-27.2493 3.2705,-3.4133 1.6049,-1.6558 3.3097,-3.3754 26.4299,-26.6458 3.3469,-3.3355 1.6419,-1.6177 3.385,-3.2967 27.0503,-26.0424 3.4177,-3.2526 1.6762,-1.577 3.4548,-3.213 27.6707,-25.439 3.4826,-3.165 1.7076,-1.5341 3.5187,-3.1248 28.291,-24.8355 6.5108,-5.5959 3.2042,-2.6962 6.6265,-5.4583 29.1131,-23.4737 6.8177,-5.379 3.3532,-2.5883 6.9301,-5.2334 29.9352,-22.1119 7.0959,-5.1253 3.4878,-2.463 7.2037,-4.9726 30.7573,-20.7502 7.34,-4.8382 3.6055,-2.3215 7.4421,-4.6797 31.5793,-19.3883 7.5457,-4.522 3.704,-2.1661 7.6409,-4.359 32.4014,-18.0266 7.7091,-4.1816 3.782,-1.9994 7.7968,-4.0158 33.2234,-16.6648 7.8282,-3.823 3.8381,-1.8241 7.9076,-3.6559 34.0455,-15.303 7.9018,-3.4523 3.8718,-1.6434 7.9727,-3.2853 34.8675,-13.9412 10.0473,-3.865 4.925,-1.8207 10.1452,-3.5999 35.1933,-11.9701 10.418,-3.3888 5.1032,-1.5849 10.5049,-3.1092 35.5189,-9.9989 10.7117,-2.8597 5.2432,-1.324 10.7851,-2.5691 35.8446,-8.0276 10.9177,-2.2896 5.3399,-1.0442 10.9759,-1.9917 36.1703,-6.0565 11.0286,-1.6928 5.3901,-0.7524 11.0706,-1.392 36.496,-4.0853 11.0415,-1.0849 5.3923,-0.4563 11.0667,-0.7857 36.8217,-2.1142 10.9574,-0.4822 5.3473,-0.1637 10.9663,-0.1889 37.1474,-0.1429 10.7817,0.1002 5.2577,0.1181 10.7753,0.3837 37.4731,1.8282 9.517,0.5753 4.6386,0.3346 9.5011,0.7964 37.0741,3.5424 9.5996,1.0314 4.6762,0.5582 9.5727,1.2572 36.6751,5.2565 9.6186,1.4953 4.6827,0.7851 9.5805,1.7232 36.2761,6.9707 9.572,1.9579 4.6572,1.0105 9.5227,2.1854 35.8771,8.6848 9.46,2.4096 4.6,1.2301 9.3999,2.6341 35.4781,10.399 9.2848,2.8413 4.5122,1.4394 9.2149,3.0604 35.0791,12.1131 9.051,3.2447 4.396,1.6343 8.9724,3.456 34.6801,13.8273 8.7648,3.6126 4.2545,1.8114 8.6789,3.8142 34.2812,15.5415 5.7374,2.6546 2.7886,1.3164 5.6959,2.7428 33.6821,16.5402 5.6822,2.8452 2.7608,1.4093 5.6374,2.9329 33.0832,17.539 5.6095,3.03 2.7247,1.4993 5.5617,3.1168 32.4842,18.5378 5.52,3.2074 2.6803,1.5854 5.4694,3.2929 31.8852,19.5366 5.4143,3.3756 2.6281,1.6671 5.361,3.4595 31.2863,20.5354 5.2932,3.5334 2.5685,1.7436 5.2378,3.6151 30.6873,21.5343 5.1581,3.6794 2.5022,1.8142 5.1006,3.7587 30.0884,22.5331 5.0102,3.8126 2.4297,1.8784 4.9511,3.8891 29.4894,23.5319 3.4263,2.7643 1.664,1.3574 3.3964,2.801 28.9302,24.1204 3.3755,2.8453 1.6391,1.3967 3.3447,2.8815 28.371,24.709 3.3196,2.9228 1.6116,1.4344 3.2879,2.9584 27.8119,25.2976 3.2588,2.9965 1.5817,1.4703 3.2263,3.0315 27.2527,25.8862 3.1933,3.0662 1.5496,1.5041 3.1601,3.1005 26.6935,26.4748 3.1236,3.1315 1.5153,1.5358 3.0896,3.165 26.1343,27.0634 3.0496,3.1922 1.4792,1.5651 3.0151,3.2249 25.5751,27.6519 2.972,3.2481 1.4411,1.5921 2.9369,3.2798 23.0371,26.0065 21.3035,23.4898 21.5455,23.2039 21.7891,22.9202 22.034,22.6384 22.2804,22.3586 22.5286,22.0807 22.7785,21.8046 14.7239,13.7652 6.1827,5.159 5.8123,4.308 5.6309,3.6852 5.683,3.2595 6.0024,2.9886 6.6094,2.8224 7.5092,2.7069 13.7297,4.0897 19.1307,4.9885 19.1297,4.2869 19.1893,3.6053 19.3116,2.9371 19.4975,2.276 19.747,1.6153 20.0589,0.9483 25.0544,0.3297 29.7418,-0.072 29.7107,-0.536 29.6856,-0.9994 29.6662,-1.4629 29.6527,-1.9269 29.645,-2.3915 29.643,-2.857 23.5395,-2.6391 16.9718,-2.587 16.4462,-3.1863 16.0204,-3.7822 15.6963,-4.3872 15.4731,-5.0138 15.348,-5.6744 9.5469,-3.9773 0.7622,-1.8185 1.7075,-4.8907 1.3912,-4.9386 1.1545,-5.3266 0.9335,-6.0571 0.6665,-7.1136 0.5455,-15.4145 0.1434,-22.6905 -0.5158,-22.5615 -1.1721,-22.4704 -1.8292,-22.4176 -2.49,-22.403 -3.158,-22.4261 -3.8364,-22.4854 -5.2044,-25.9511 -6.3308,-29.2494 -6.7697,-29.1219 -7.2096,-28.9995 -7.6507,-28.8827 -8.0932,-28.771 -8.5373,-28.6644 -8.9834,-28.5631 -9.9395,-29.9994 -10.7251,-31.4353 -11.0006,-31.3309 -11.2764,-31.2276 -11.5524,-31.1253 -11.8289,-31.024 -12.1057,-30.9237 -12.383,-30.8243 -12.9298,-31.3789 -13.3925,-31.9487 -13.5856,-31.8641 -13.7788,-31.7798 -13.9721,-31.6959 -14.1657,-31.6123 -14.3592,-31.5289 -14.5531,-31.4459 -14.0612,-29.9047 -13.716,-28.2555 -14.0557,-28.0631 -14.3965,-27.8734 -14.7386,-27.6865 -15.082,-27.502 -15.4268,-27.3202 -15.7733,-27.1408 -13.4928,-22.5674 -11.3269,-17.6194 -11.7639,-17.0459 -12.2237,-16.5213 -12.7113,-16.0439 -13.2314,-15.6111 -13.7884,-15.2191 -14.386,-14.8642 -10.6202,-10.2773 -6.0446,-5.2211 -5.7021,-4.3776 -5.5481,-3.7655 -5.6274,-3.3535 -5.9738,-3.0992 -6.6079,-2.952 -7.5347,-2.8579 -21.5177,-6.7997 -34.6878,-10.8677 -34.7266,-10.786 -34.7654,-10.7044 -34.8042,-10.6227 -34.8432,-10.5411 -34.882,-10.4595 -34.9209,-10.3779 -35.5592,-10.4727 -5.3849,-1.6262 -2.6212,-0.8112 -5.3621,-1.6999 -35.7613,-11.6076 -5.3616,-1.7813 -2.6093,-0.8868 -5.3366,-1.855 -35.3638,-12.5659 -5.3256,-1.9339 -2.5913,-0.9613 -5.2984,-2.0073 -34.9663,-13.5242 -5.2772,-2.0832 -2.5671,-1.034 -5.2479,-2.156 -34.5688,-14.4825 -5.2165,-2.2279 -2.537,-1.1044 -5.1852,-2.2999 -34.1714,-15.4408 -5.144,-2.3673 -2.5012,-1.1721 -5.1108,-2.4381 -33.7739,-16.3991 -5.0603,-2.5002 -2.4599,-1.2365 -5.0253,-2.5697 -33.3765,-17.3574 -4.9659,-2.6259 -2.4135,-1.2974 -4.9294,-2.6937 -32.979,-18.3157 -3.5524,-1.996 -1.728,-0.9823 -3.5324,-2.0313 -32.5664,-18.9431 -3.5197,-2.0709 -1.7119,-1.0186 -3.4988,-2.1058 -32.1539,-19.5706 -3.4825,-2.1435 -1.6936,-1.0541 -3.461,-2.1782 -31.7413,-20.1979 -3.4411,-2.2139 -1.6732,-1.0883 -3.4189,-2.2482 -31.3287,-20.8254 -3.3956,-2.2817 -1.6508,-1.1212 -3.3727,-2.3155 -30.9162,-21.4528 -3.346,-2.3466 -1.6265,-1.1529 -3.3226,-2.3798 -30.5035,-22.0803 -3.2928,-2.4085 -1.6003,-1.1829 -3.2687,-2.4412 -30.091,-22.7076 -3.2358,-2.4672 -1.5725,-1.2113 -3.2112,-2.4992 -29.6784,-23.335 -2.0524,-1.6244 -0.9986,-0.7955 -2.0419,-1.6374 -29.3603,-23.6977 -2.0335,-1.6521 -0.9894,-0.8091 -2.023,-1.6651 -29.0421,-24.0603 -2.0138,-1.6792 -0.9797,-0.8222 -2.0029,-1.6921 -28.724,-24.4229 -1.9929,-1.7055 -0.9694,-0.8351 -1.982,-1.7182 -28.4058,-24.7856 -1.971,-1.731 -0.9588,-0.8474 -1.9599,-1.7436 -28.0877,-25.1482 -1.9482,-1.7556 -0.9476,-0.8594 -1.937,-1.7681 -27.7695,-25.5108 -1.9245,-1.7794 -0.9359,-0.8709 -1.9131,-1.7916 -27.4514,-25.8735 -1.8998,-1.8022 -0.924,-0.882 -1.8883,-1.8143 -27.1332,-26.2361 -1.0286,-0.9981 -0.5009,-0.4877 -1.0251,-1.0017 -26.9467,-26.4228 -1.0217,-1.0054 -0.4976,-0.4913 -1.0182,-1.0089 -26.7602,-26.6096 -1.0147,-1.0125 -0.4941,-0.4948 -1.0112,-1.0161 -26.5738,-26.7963 -1.0075,-1.0195 -0.4906,-0.4982 -1.004,-1.023 -26.3873,-26.9831 -1.0002,-1.0264 -0.4871,-0.5015 -0.9966,-1.0298 -26.2009,-27.1698 -0.9927,-1.0331 -0.4834,-0.5048 -0.9891,-1.0365 -26.0144,-27.3565 -0.9852,-1.0396 -0.4797,-0.5079 -0.9815,-1.0431 -25.8279,-27.5432 -0.9774,-1.046 -0.4759,-0.5111 -0.9738,-1.0493 -25.8734,-27.9811 -0.3449,-0.3737 -25.8255,-28.0228 -0.3443,-0.3744 -25.7776,-28.0646 -0.3437,-0.375 -25.7298,-28.1064 -0.343,-0.3755 -25.6819,-28.1482 -0.3424,-0.3762 -25.634,-28.19 -0.3418,-0.3767 -25.5861,-28.2318 -0.3413,-0.3773 -25.5381,-28.2736 -0.3407,-0.3779 -25.477,-28.3007 -0.3204,-0.3566 -25.4318,-28.3398 -0.3198,-0.3572 -25.3867,-28.3791 -0.3193,-0.3576 -25.3414,-28.4184 -0.3187,-0.3582 -25.2962,-28.45752 -0.3182,-0.3587 -25.251,-28.49681 -0.3177,-0.3592 -25.2058,-28.53604 -0.317,-0.35972 -12.6394,-14.35475 -25.5199,-11.13935 -40.4068,-14.93216 -52.7461,-16.7387 -64.1769,-17.68095 -56.1943,-13.5549 -41.1014,-5.54351 -45.2736,-1.55919 -50.6951,3.07049 -56.9619,8.57707 -63.6654,15.02303 -70.464,22.3436 -77.114,30.40301 -65.073,30.43815 -35.6597,23.00262 -23.857,21.0326 -17.2179,20.88629 -14.6818,25.11814 -13.7279,34.8977 -11.7534,49.4902 -7.2339,67.0299 0.8694,589.9159 -0.2753,15.6383 -0.2797,7.6231 -0.8716,15.6165 -12.6912,169.2902 -0.2436,3.0921 -0.1245,1.5078 -0.2669,3.0901 -3.3866,37.5453 -0.2907,3.0919 -0.1476,1.5076 -0.3141,3.0896 -3.9529,37.4705 -0.3378,3.0896 -0.1705,1.5064 -0.3611,3.0869 -4.5193,37.3958 -0.3847,3.0851 -0.1934,1.5042 -0.4081,3.0821 -5.0856,37.321 -0.4314,3.0785 -0.2161,1.5009 -0.4547,3.0752 -5.652,37.2463 -0.4777,3.0698 -0.2387,1.4965 -0.501,3.0661 -6.2183,37.1716 -0.5236,3.059 -0.2611,1.4912 -0.5468,3.055 -6.7846,37.0967 -0.569,3.0462 -0.2832,1.4849 -0.592,3.0418 -7.351,37.022 -0.3589,1.7869 -0.177,0.8713 -0.3669,1.7853 -7.6778,36.9455 -0.375,1.7845 -0.1848,0.87 -0.3829,1.7828 -8.0047,36.8691 -0.3909,1.7815 -0.1927,0.8686 -0.3988,1.7798 -8.3315,36.7927 -0.4069,1.7782 -0.2004,0.867 -0.4147,1.7764 -8.6584,36.7162 -0.4226,1.7745 -0.2081,0.8651 -0.4305,1.7726 -8.9852,36.6397 -0.4383,1.7703 -0.2158,0.8631 -0.4461,1.7683 -9.3121,36.5634 -0.4539,1.7657 -0.2233,0.8608 -0.4618,1.7637 -9.6389,36.4869 -0.4694,1.7607 -0.2308,0.8583 -0.4771,1.7587 -9.9659,36.4104 -0.3154,1.1461 -0.1548,0.5589 -0.3188,1.1452 -10.1754,36.3473 -0.3222,1.1445 -0.158,0.5581 -0.3255,1.1436 -10.3852,36.2843 -0.3288,1.1428 -0.1613,0.5572 -0.3322,1.1419 -10.5948,36.2212 -0.3355,1.141 -0.1645,0.5563 -0.3388,1.14 -10.8045,36.1581 -0.3421,1.1391 -0.1678,0.5554 -0.3454,1.138 -11.01411,36.095 -0.34875,1.137 -0.17093,0.5544 -0.35205,1.136 -11.22374,36.0319 -0.3553,1.1348 -0.17412,0.5533 -0.35859,1.1338 -11.4334,35.9689 -0.36181,1.1325 -0.1773,0.5522 -0.36509,1.1315 -11.60497,35.7883 -11.55139,35.6819 -11.53591,35.6931 -11.52044,35.7042 -11.50496,35.7154 -11.48948,35.7265 -11.474,35.7376 -11.45852,35.7489 -9.92357,31.0115 -7.85499,26.3547 -7.30543,26.4401 -6.76035,26.537 -6.21906,26.6459 -5.68085,26.7669 -5.14495,26.9002 -4.61064,27.0458 -3.12471,20.849 -1.46804,14.127 -0.78955,13.673 -0.15175,13.3627 0.46544,13.2042 1.08342,13.2 1.72363,13.3486 2.40656,13.6429 0.28901,1.2909 z"
     id="path1" />
  <path
     style="color:#000000;fill:#ffcc00;stroke-dasharray:100, 50;-inkscape-stroke:none"
     d="m 4097.7109,4061.1845 -30.4238,-0.4004 0.6582,-49.9961 30.0332,0.3965 35.7461,-0.088 33.4336,-0.6015 0.9004,49.9902 -33.8223,0.6113 z m 121.0938,-2.5469 -2.4629,-49.9394 24.4707,-1.207 35.6504,-2.3165 35.6308,-2.873 2.8438,-0.2754 4.7969,49.7695 -3.2324,0.3125 -36.4063,2.9356 -36.4297,2.3691 z m -203.1524,-0.498 -23.4335,-1.916 -34.4747,-4.0254 -34.2578,-5.209 -9.5625,-1.7969 9.2325,-49.1406 8.7089,1.6367 32.5391,4.9492 32.752,3.8223 22.5722,1.8457 z m 354.211,-11.4414 -5.5703,-49.6895 17.5078,-1.9629 32.1465,-4.9003 31.6777,-6.1368 14.2031,-3.3535 11.4883,48.6621 -15.1894,3.586 -33.6543,6.5214 -34.1153,5.1993 z m -505.752,-11.7813 -8.5293,-1.9121 -33.664,-8.7793 -32.6817,-9.7343 -23.9961,-8.6504 16.9571,-47.0371 22.666,8.1718 30.5039,9.086 31.9941,8.3418 7.6836,1.7226 z m 656.5274,-18.6015 -13.459,-48.1563 0.4863,-0.1347 30.4141,-9.8555 30.0449,-11.1074 29.9414,-12.4746 19.2285,46.1543 -30.8789,12.8652 -31.9531,11.8125 -32.3555,10.4844 z m -3574.83011,-2.4649 -15.4414,-0.248 -34.30664,-1.8731 -34.15821,-3.1914 -18.62695,-2.4707 6.57617,-49.5664 17.66797,2.3438 32.23242,3.0117 32.37891,1.7676 14.47851,0.2324 z m 50.94532,-0.4043 -1.11133,-49.9882 1.77148,-0.039 33.55074,-2.0196 34,-2.9941 27.959,-3.252 5.7735,49.666 -28.6504,3.3301 -35.3867,3.1172 -35.18754,2.1191 z m -204.72657,-15.6718 -31.83789,-6.75 -32.8164,-8.2754 -30.81055,-9.8262 -4.98438,-1.9453 18.17579,-46.5781 3.50976,1.3691 27.83008,8.875 30.39844,7.666 30.90429,6.5508 z m 357.52346,-0.3926 -8.5449,-49.2656 24.8847,-4.3145 33.3106,-6.7441 33.1601,-7.6836 4.4727,-1.168 12.6406,48.375 -5.1484,1.3457 -34.5176,7.998 -34.6836,7.0215 z m 2567.209,-12.6231 -17.0196,-8.4726 -27.8632,-15.9824 -26.9473,-17.6348 -16.9199,-12.541 29.7734,-40.1699 15.7481,11.6718 24.496,16.0332 25.3145,14.5196 15.7031,7.8183 z m -2418.3907,-21.5429 -13.9785,-48.0059 13.5625,-3.9492 31.8106,-10.3965 31.3203,-11.3848 15.4297,-6.1933 18.6211,46.4043 -16.1953,6.498 -32.8653,11.9473 -33.3613,10.9043 z m 3366.2325,-5.9727 -24.3633,-43.6641 8.7637,-4.8906 21.9335,-14.5469 20.2872,-15.8867 18.8066,-17.3144 3.0117,-3.2539 36.6934,33.9648 -4.3692,4.7188 -21.7441,20.0195 -23.4082,18.332 -25.1738,16.6953 z m -4020.46879,-6.5215 -5.74219,-2.6797 -27.48046,-15.0781 -26.48438,-16.8672 -25.53711,-18.6992 -4.41406,-3.6875 32.05469,-38.373 3.18945,2.664 22.9375,16.7949 23.73633,15.1192 24.61914,13.5058 4.26562,1.9922 z m 797.74419,-40.9765 -20.1426,-45.7618 0.5781,-0.2558 29.9336,-14.3731 29.4941,-15.3828 26.5,-14.9472 24.5645,43.5488 -27.2149,15.3515 -30.955,16.1446 -31.4239,15.0879 z m 2145.5703,-13.2364 c -24.7253,-22.8711 -48.9312,-46.217 -72.7637,-69.8515 l 35.209,-35.502 c 23.5032,23.308 47.2909,46.2494 71.5058,68.6485 z m -3071.49808,-37.0332 -5.13867,-4.8691 -21.05469,-23.0215 -18.91016,-24.0137 -16.83984,-25.0605 -4.13672,-7.2988 43.50195,-24.6485 3.19727,5.6426 14.72656,21.9141 16.59961,21.082 18.60352,20.3379 3.84179,3.6387 z m 4267.36718,-7.4394 -39.2578,-30.9649 -0.3359,0.4258 15.0546,-22.4473 14.2696,-25.1328 12.9629,-26.3476 3.2754,-7.8164 46.1132,19.3301 -3.8593,9.205 -14.2813,29.0274 -15.918,28.0371 -17.164,25.5957 z m -3206.4023,-16.8321 -27.8418,-41.5332 16.1621,-10.832 25.4082,-18.7344 24.4394,-19.7793 10.5899,-9.3945 33.1816,37.4024 -11.4355,10.1445 -26.1973,21.2031 -27.2148,20.0664 z m 1902.375,-44.3105 c -22.3911,-22.7786 -44.2028,-45.9882 -65.6934,-69.3535 l -0.059,-0.064 -3.6191,-3.9903 37.0371,-33.5898 3.5254,3.8867 0.035,0.039 c 21.2085,23.0566 42.6033,45.8173 64.4297,68.0215 z m -1783.1934,-53.5762 -34.8379,-35.8652 -0.09,0.088 21.6933,-23.0547 20.8164,-24.2012 20.5293,-26.1035 39.3028,30.9082 -21.209,26.9688 -22.2617,25.8789 -23.2286,24.6855 z m -1270.44726,-10.0722 -10.29297,-26.9864 -9.00977,-30.0781 -7.24609,-32.3594 -1.96289,-11.1308 49.24023,-8.6856 1.76563,10.0059 6.60742,29.5176 7.97656,26.625 9.64063,25.2754 z m 4427.98636,-16.3282 -47.2051,-16.4804 0.2461,-0.7051 7.7851,-27.6367 6.1172,-28.2246 4.4531,-28.8965 0.5938,-6.3321 49.7812,4.6641 -0.7324,7.8145 -4.9101,31.8613 -6.7617,31.1992 -8.6153,30.584 z M 3376.1113,3679.872 c -12.2544,-14.1517 -25.321,-28.0743 -38.582,-42.3086 l -1.2637,-1.3359 -25.9472,-26.8711 -1.3477,-1.3652 35.5898,-35.1192 1.5372,1.5586 26.3222,27.2578 1.6328,1.7266 0.061,0.066 c 13.1704,14.1371 26.6625,28.4922 39.7969,43.6601 z m -1581.459,-58.4219 -37.8457,-32.6757 20.752,-24.0332 1.6465,-1.8633 0.025,-0.029 c 14.7541,-16.5877 29.8068,-33.1719 45.5293,-49.3809 l 35.8886,34.8125 c -14.9573,15.4203 -29.5291,31.466 -44.0566,47.7988 l -1.375,1.5547 z m -1405.09566,-45.3359 -0.64062,-4.9629 -2.74024,-33.4004 -1.18164,-33.4785 0.35742,-31.4785 49.99805,0.5683 -0.34375,30.3145 1.09766,31.1465 2.55078,31.0801 0.49218,3.8066 z m 2884.12306,-2.7852 c -15.7138,-15.2622 -31.9912,-30.16 -48.5469,-44.9746 l -1.4609,-1.3007 -23.0039,-20.0332 32.8379,-37.7051 23.207,20.2109 1.7363,1.5469 0.025,0.022 c 16.8303,15.0602 33.6143,30.4124 50.041,46.3672 z m 1604.9863,-17.3496 -49.9687,-1.7695 0.25,-7.0586 0.2148,-33.9004 -0.7734,-33.8086 -1.1992,-22.998 49.9316,-2.6055 1.2383,23.7285 0.8066,35.2715 -0.2246,35.3555 z m -2983.207,-43.1992 -35.4981,-35.2109 0.9004,-0.9082 1.8477,-1.8203 27.2578,-26.2422 1.8633,-1.752 0.082,-0.076 c 13.784,-12.7375 27.7936,-25.9 42.7207,-38.6933 l 32.5371,37.9629 c -13.7268,11.7646 -27.2418,24.4377 -41.1601,37.3007 l -0.057,0.053 c -0.036,0.034 -0.071,0.066 -0.1074,0.1 l -1.4082,1.3243 -26.8437,25.8437 -1.4356,1.416 z m 1267.7148,-37.1875 -28.5195,-22.7578 -2.125,-1.6426 -29.7793,-22.3027 -2.1895,-1.5879 -15.8632,-11.1289 28.7207,-40.9297 16.1797,11.3535 2.8144,2.041 30.3965,22.7637 2.7324,2.1133 28.8184,22.9961 z m -2724.41794,-49.791 -49.73242,-5.168 1.81445,-17.4648 5.23047,-34.8985 6.08008,-35.6679 2.46289,-12.8731 49.10937,9.3926 -2.36718,12.3789 -5.91211,34.6777 -4.98829,33.2832 z m 1566.14454,-11.4004 -31.3848,-38.9238 9.8633,-7.9532 3.7734,-2.9121 30.3614,-22.4277 5.2187,-3.6836 1.6543,-0.834 c 8.2094,-4.1392 18.1118,-13.2471 32.9981,-22.3379 l 26.0586,42.6739 c -8.4561,5.1639 -18.7673,14.699 -34.0567,22.8867 l -2.5937,1.8301 -29.5078,21.7968 -2.9336,2.2637 z m 2818.5391,-6.3418 -3.2891,-29.5957 -4.7227,-33.5391 -5.7168,-33.4961 -0.037,-0.1875 49.0235,-9.832 0.1797,0.8965 5.9589,34.9258 4.9278,34.9843 3.3691,30.3204 z m -1779.836,-19.5723 c -12.1578,-8.2132 -25.9884,-15.9885 -40.3105,-25.039 l -2.6778,-1.584 c -14.6722,-8.026 -27.8267,-16.2987 -40.4668,-22.7949 l 22.8555,-44.4707 c 15.5525,7.993 29.2425,16.689 42.2891,23.789 l 0.3925,0.2149 3.3985,2.0097 0.3262,0.2071 c 12.981,8.2314 27.4821,16.306 42.1816,26.2363 z m -918.1797,-55.7187 -24.3086,-43.6914 24.6524,-13.7168 4.2558,-2.2481 33.6993,-16.9043 4.3183,-2.0527 24.2852,-10.916 20.498,45.6055 -23.8008,10.6972 -3.3574,1.5977 -32.748,16.4238 -3.3086,1.75 z m 790.3496,-16.5801 c -17.4019,-8.8846 -35.6207,-17.0395 -54.2246,-25.3066 l -3.7929,-1.6153 -31.3184,-12.4863 18.5176,-46.4453 31.8554,12.7012 4.7012,2.0019 0.1778,0.08 c 18.7219,8.3193 37.8267,16.8418 56.8203,26.5391 z m -2452.22262,-35.5742 -48.91016,-10.3789 1.80079,-8.4824 8.21093,-35.1836 8.92383,-35.0293 5.47656,-19.8203 48.19532,13.3164 -5.34375,19.3359 -8.67383,34.0508 -7.98438,34.2051 z m 1794.51762,-10.4277 -18.5625,-46.4278 2.8339,-1.1328 5.5411,-2.0488 35.8203,-12.1817 6.0254,-1.873 0.6132,-0.1563 c 14.5413,-3.7211 30.577,-9.399 48.9688,-13.1679 l 10.0371,48.9824 c -13.6273,2.7925 -28.5851,7.9206 -45.457,12.3008 l -4.7188,1.4648 -34.5664,11.7578 -4.3105,1.5918 z m 2541.6269,-7.5508 -4.4316,-20.4785 -8.0996,-34.8438 -8.6289,-34.7051 -1.629,-6.1543 48.3321,-12.8047 1.7285,6.5254 8.8125,35.4453 8.2715,35.586 4.5137,20.8535 z m -2018.2383,-1.545 -35.0664,-10.2773 -4.0234,-1.0762 -35.2988,-8.5449 -4.0743,-0.8848 -16.1289,-3.0976 9.4356,-49.1035 16.7129,3.2129 5.2402,1.1367 36.4551,8.8242 5.1758,1.3848 35.6367,10.4453 z m -384.0215,-28.7246 -8.2578,-49.3144 21.6836,-3.6309 6.0645,-0.8457 37.1699,-4.1601 6.0664,-0.5137 31.0645,-1.7832 2.8652,49.918 -30.3867,1.7441 -4.7188,0.3984 -35.8222,4.0098 -4.7168,0.6582 z m 240.7872,-3.1894 c -15.9891,-2.62 -33.3245,-3.7511 -51.6622,-5.5606 l -4.0878,-0.2949 -36.8555,-1.7969 -3.5332,-0.08 1.123,-49.9864 4.1895,0.094 38.0918,1.8574 5.2637,0.3809 0.3339,0.033 c 17.2749,1.713 35.8122,2.8313 55.2207,6.0117 z m -2137.12895,-91.6602 -47.91797,-14.2812 0.38281,-1.2832 0.0762,-0.2364 c 10.04451,-31.4114 20.10554,-62.8209 30.19531,-94.2246 l 47.60351,15.295 c -10.05591,31.2982 -20.0868,62.6096 -30.10156,93.9277 z m 4262.80855,-18.9453 -4.207,-14.957 -10.2148,-34.293 -10.7422,-34.1582 -3.6895,-11.1348 47.4629,-15.7265 3.8086,11.498 10.9727,34.8848 10.4316,35.0234 4.3086,15.3223 z m -4217.17183,-123.373 -47.5957,-15.3203 c 10.21578,-31.738 20.4487,-63.475 30.71093,-95.2051 l 47.57422,15.3867 c -10.25298,31.7015 -20.47873,63.4165 -30.68945,95.1387 z m 4172.44923,-18.3575 c -10.6823,-31.3308 -21.7968,-62.5139 -33.3516,-93.5253 l 46.8516,-17.4571 c 11.7209,31.4573 22.9935,63.0813 33.8242,94.8477 z m -4126.38868,-124.2832 -47.5293,-15.5253 c 10.32607,-31.6129 20.48845,-63.2178 30.26953,-94.8829 l 47.77344,14.7559 c -9.89455,32.0324 -20.14012,63.8941 -30.51367,95.6523 z m 4075.47848,-15.8339 c -11.8208,-30.9301 -24.0458,-61.6972 -36.7129,-92.2657 l 46.1914,-19.1406 c 12.8533,31.0178 25.2506,62.2154 37.2286,93.5567 z M 638.0293,2708.9814 590.17773,2694.4833 c 9.63357,-31.7945 19.04635,-63.6256 28.11719,-95.5195 l 48.0918,13.6777 c -9.16622,32.2293 -18.65955,64.3331 -28.35742,96.3399 z m 3974.3574,-10.5586 c -12.8702,-30.5967 -25.9906,-61.0725 -39.418,-91.3926 l 45.7188,-20.2461 c 13.5672,30.6359 26.8088,61.3984 39.7871,92.252 z M 680.00781,2564.415 631.85352,2550.9579 c 8.93709,-31.9806 17.61078,-63.9539 25.69921,-95.9882 l 48.47852,12.2402 c -8.23212,32.6034 -17.0184,64.9813 -26.02344,97.2051 z m 3872.67769,-2.918 c -13.6293,-30.2749 -27.4886,-60.4234 -41.6562,-90.4004 l 45.2051,-21.3652 c 14.3186,30.2966 28.3076,60.7255 42.0449,91.2402 z m -63.1972,-135.2324 -1.209,-2.4903 -0.014,-0.029 c -14.2366,-28.7991 -28.8074,-57.345 -43.9804,-85.4746 l 44.0058,-23.7382 c 15.5623,28.8511 30.4261,57.9807 44.877,87.2168 l 0.039,0.08 1.2617,2.5996 z m -3771.30471,-7.7188 -48.55468,-11.9316 c 7.89893,-32.1447 15.35515,-64.4112 22.39648,-96.7715 l 48.85742,10.6309 c -7.13243,32.7789 -14.69008,65.4791 -22.69922,98.0722 z M 4420.5273,2294.6669 c -16.1003,-28.8926 -32.6263,-57.5002 -49.7168,-85.7148 l 42.7657,-25.9043 c 17.4496,28.8075 34.2761,57.9372 50.6269,87.2793 z M 751.33984,2271.3974 702.4082,2261.1142 c 6.4276,-30.5853 12.45664,-61.1759 17.79688,-91.8106 l 0.002,-0.01 0.24609,-1.4082 0.66016,-3.9492 49.31445,8.25 -0.6914,4.1348 -0.27344,1.5664 -0.004,0.019 c -5.46546,31.3513 -11.607,62.5007 -18.11914,93.4883 z m 3593.20316,-103.2227 -14.3047,-20.7265 -19.7735,-26.7266 -20.6132,-26.0176 -3.8164,-4.5019 38.1425,-32.3281 4.3516,5.1328 21.6387,27.3125 20.7539,28.0507 14.7715,21.4043 z m -3566.0723,-45.5117 -49.37109,-7.9043 c 3.19975,-19.9846 5.92829,-40.226 8.61914,-60.6543 l 0.17187,-1.332 4.3711,-36.166 49.63867,5.998 -4.39453,36.3555 -0.20899,1.6367 -0.006,0.037 c -2.70339,20.5234 -5.48925,41.2246 -8.82032,62.0293 z m 3475.2266,-69.4961 -7.6211,-8.4121 -23.1817,-23.9512 -22.9765,-22.2363 -15.3516,-13.2598 32.6836,-37.8398 16.4219,14.1855 24.582,23.7891 24.3242,25.1309 8.1719,9.0215 z M 797.09961,1972.3271 747.3418,1967.415 c 3.22161,-32.6334 5.40532,-65.6982 7.88086,-99.0743 l 49.86132,3.6973 c -2.45522,33.1023 -4.65599,66.5743 -7.98437,100.2891 z m 3350.19529,-15.7617 -17.7539,-12.0489 -25.0976,-14.955 -26.0176,-13.4981 -14.2559,-6.3691 20.3965,-45.6524 15.5879,6.9649 28.6211,14.8496 27.625,16.4609 18.9726,12.877 z m -126.9863,-64.1758 c -31.7145,-10.0612 -63.4654,-20.0074 -95.2539,-29.8418 l 14.7773,-47.7656 c 31.8999,9.8689 63.7666,19.851 95.5977,29.9492 z m -142.9785,-44.5313 c -31.811,-9.7481 -63.66,-19.3782 -95.5449,-28.9004 l 14.3066,-47.9082 c 31.994,9.5547 63.9587,19.2193 95.8887,29.0039 z m -3068.50979,-25.6601 -49.85937,-3.7383 3.76367,-50.2109 0.24609,-6.6524 -0.14648,-99.541 50,-0.074 0.14648,100 -25,0.037 24.98242,0.916 -0.29687,8.0996 z m 2925.12499,-17.4512 -29.0762,-8.5625 -2.9472,-0.9141 -36.0899,-11.7129 -2.9355,-0.998 -25.3809,-9.0176 16.7422,-47.1152 25.0567,8.9043 2.2832,0.7754 35.4336,11.5019 2.2929,0.709 28.7481,8.4668 z m -143.8281,-49.168 -1.1133,-0.4316 -2.8867,-1.1621 -34.8887,-14.6172 -2.832,-1.2324 -0.1348,-0.061 c -16.8237,-7.5626 -34.2807,-15.1416 -51.7793,-23.9394 l 22.459,-44.6719 c 15.7561,7.9218 32.4482,15.202 49.5488,22.8867 l 0.061,0.027 2.3164,1.0078 34.25,14.3496 2.2461,0.9043 0.791,0.3066 z m -138.2949,-63.9472 c -16.6384,-8.3758 -32.0577,-17.4321 -47.0371,-25.6739 l -0.1524,-0.084 -2.2617,-1.2852 -0.3731,-0.2305 c -11.8739,-7.3122 -25.3094,-14.3434 -39.1855,-22.9492 l 26.3516,-42.4922 c 11.8103,7.3246 25.198,14.3352 39.0527,22.8672 l -0.7539,-0.4473 1.6328,0.9278 0.094,0.055 c 15.6626,8.6243 30.4771,17.2835 45.1152,24.6523 z m -131.7871,-76.6621 -18.3204,-11.6582 -1.8828,-1.2247 -31.5371,-20.9628 -1.8574,-1.2618 -30.334,-21.0488 28.5039,-41.0801 30.1309,20.9082 1.4433,0.9805 31.1211,20.6875 1.4649,0.9531 18.1113,11.5235 z m -2557.2852,-2.9141 -0.14844,-100 50,-0.074 0.14844,100 z m 2432.123,-83.252 -24.1796,-18.2461 -1.7188,-1.3242 -0.049,-0.037 c -17.9462,-13.9623 -35.855,-28.1085 -53.5801,-42.6133 l 31.666,-38.6953 c 17.2493,14.1154 34.8033,27.9842 52.5235,41.7715 l 0.014,0.012 1.459,1.125 23.9844,18.0977 z m -2432.3437,-66.748 -0.14844,-100 50,-0.074 0.14844,100 z m 2313.9844,-27.5098 c -25.662,-21.596 -51.1301,-43.5726 -76.1387,-66.1953 l 33.543,-37.0801 c 24.4319,22.1011 49.4446,43.6908 74.789,65.0196 z m -113.2344,-100.0039 -2.8848,-2.6504 -0.9941,-0.9258 c -23.4157,-21.7453 -46.3234,-43.8924 -68.9668,-66.1718 l 35.0684,-35.6407 c 22.44,22.0795 45.0097,43.896 67.9414,65.1915 l 0.01,0.01 0.8867,0.8261 2.7676,2.5411 z m -2200.97266,-22.4863 -0.14648,-100 50,-0.074 0.14648,100 z m 2092.46286,-82.5215 c -23.7331,-23.6349 -47.247,-47.5113 -70.4961,-71.6601 l 36.0196,-34.6778 c 22.987,23.8767 46.2562,47.5039 69.7597,70.9102 z m -2092.68356,-67.4785 -0.0195,-13.6426 9.55859,-88.5703 49.71094,5.3652 -9.26563,85.8594 0.0156,10.9141 z M 2749.625,1121.6865 c -23.2232,-24.3154 -45.9256,-48.9298 -68.5156,-73.4571 l 36.7773,-33.873 c 22.5734,24.5091 45.0735,48.9005 67.8965,72.7968 z m -1920.71484,-102.625 -48.64844,-11.5528 19.72656,-83.06048 6.6543,-16.9141 46.52929,18.3047 -5.35546,13.6133 z m 1818.32424,-7.6446 c -22.5868,-24.57648 -45.104,-49.21398 -67.5606,-73.90038 l 36.9864,-33.6445 c 22.4038,24.6285 44.864,49.202 67.3886,73.7109 z M 2546.0371,900.47362 c -22.4273,-24.7261 -44.7787,-49.5119 -67.0723,-74.3399 l 37.2032,-33.4062 c 22.247,24.776 44.5406,49.5005 66.9023,74.1543 z m -1674.56249,-21.1641 -46.5293,-18.3047 12.36524,-31.4316 35.36718,-60.5078 43.16602,25.2324 -33.41797,57.1738 z m 1574.09379,-90.4355 c -22.2663,-24.868 -44.4583,-49.792 -66.5977,-74.754 l 37.4082,-33.1777 c 22.0967,24.9138 44.237,49.7793 66.4414,74.5781 z m -1503.57426,-32.2168 -38.58203,-31.8047 44.66992,-54.1856 25.32031,-22.3222 33.06446,37.5058 -22.33594,19.6914 z m 1403.81446,-80.004 c -19.1055,-21.6036 -38.146,-43.2548 -57.1484,-64.9277 l -7.459,-6.2226 32.0332,-38.3926 10.4297,8.7031 1.2851,1.4668 c 19.399,22.1285 38.8287,44.2167 58.3125,66.248 z m -1301.8359,-23.8671 -33.0645,-37.5059 11.459,-10.1035 74.3457,-47.957 27.1035,42.0156 -71.1953,45.9258 z m 1198.9414,-74.4375 -4.0606,-2.6368 -40.0683,-21.0546 -41.9571,-18.3145 20.002,-45.8242 43.6133,19.0371 43.7109,22.9687 5.9941,3.8926 z m -1077.7071,-0.3614 -21.1855,-45.291 70.1894,-32.832 22.3848,-8.8242 18.3379,46.5156 -20.9414,8.2559 z m 136.2422,-58.7715 -18.3379,-46.5156 34.6211,-13.6484 61.4805,-19.4961 15.1133,47.6621 -59.8496,18.9766 z m 810.0137,-0.164 -21.7422,-8.0352 -68.3711,-21.6972 -2.8535,-0.7852 13.2793,-48.2051 3.7812,1.041 70.4004,22.3418 22.8379,8.4395 z m -141.1719,-43.7988 -26.2226,-7.2247 -69.9883,-16.8828 11.7246,-48.6054 70.7695,17.0703 26.9981,7.4394 z m -529.914,-1.9063 -11.4825,-48.6621 86.1778,-20.3359 13.3632,-2.0118 7.4434,49.4414 -11.3262,1.7071 z m 144.9453,-29.0117 -7.4453,-49.4434 31.0097,-4.6699 70.7363,-4.2832 3.0235,49.9082 -68.5156,4.1504 z m 241.9726,-0.7149 -44.3789,-5.9863 -52.6933,-1.8144 1.7207,-49.9707 55.1855,1.9004 46.8496,6.3183 z"
     id="path2" />
  <path
     fill-rule="evenodd"
     fill="#cccccc"
     stroke="#555555"
     stroke-width="0"
     opacity="0.6"
     d="m 427.95364,1750.7063 -0.88289,-599.0734 2.22213,-41.8752 12.08642,-111.99284 8.19534,-47.64613 23.66056,-99.62796 16.30414,-51.97394 34.96439,-88.88284 11.52946,-26.28756 13.51956,-25.32164 46.30542,-79.2212 16.09936,-25.16884 18.06482,-23.79753 57.67111,-69.95852 19.69964,-22.05166 21.38678,-20.41953 69.94144,-61.66113 21.57855,-17.63414 22.83656,-15.97148 82.63883,-53.30696 45.57,-25.20398 99.52514,-46.5533 21.9105,-9.43281 100.4854,-39.61741 24.8406,-8.82354 96.8662,-30.71555 27.9502,-7.71728 93.2106,-21.994755 31.0933,-5.998928 89.5783,-13.488307 34.0483,-3.587351 86.0532,-5.212047 36.5258,-0.476111 82.7351,2.849333 38.2077,3.22646 79.7232,10.75258 38.8164,7.279334 81.4322,19.642678 11.9802,3.094343 77.2805,21.291031 14.1956,4.20621 68.3715,21.69736 16.9996,5.83486 59.2399,21.89188 20.5637,8.27962 49.8243,21.74815 25.0701,12.03907 40.0703,21.05605 30.6181,17.93659 29.9875,19.47702 36.9392,27.25582 20.5512,17.147 21.438,19.34464 19.8751,20.94721 18.9257,21.56236 0.052,0.0589 24.626,27.9681 0.052,0.0589 24.6698,27.92922 0.052,0.0589 24.7141,27.89085 0.052,0.0588 24.7584,27.85247 0.052,0.0587 24.8026,27.81411 0.052,0.0586 24.8469,27.77574 0.052,0.0585 24.8912,27.73738 0.052,0.0584 24.9223,27.68438 0.056,0.0619 24.9624,27.63607 0.056,0.0619 25.0092,27.59523 0.056,0.0617 25.0561,27.55445 0.056,0.0617 25.103,27.51367 0.056,0.0616 25.1499,27.4729 0.056,0.0615 25.1967,27.43214 0.056,0.0614 25.2437,27.39137 0.056,0.0612 24.559,26.55944 0.2359,0.25335 24.3534,25.97411 0.2398,0.25399 24.52,25.78823 0.2417,0.25241 24.695,25.61152 0.2435,0.25077 24.8704,25.43504 0.2453,0.24911 25.0458,25.2588 0.2471,0.2474 25.2216,25.08278 0.2487,0.24566 25.3976,24.90704 0.2504,0.2438 24.7429,23.9279 0.4566,0.4361 24.5849,23.1814 0.4679,0.4356 24.8448,22.8337 0.4737,0.4298 25.1278,22.5076 0.4793,0.4239 25.4123,22.1829 0.4846,0.4177 25.6982,21.8595 0.4898,0.4112 25.9856,21.5374 0.4946,0.4046 26.2746,21.2162 0.4992,0.3979 25.4677,20.033 0.7747,0.5971 25.2086,19.0429 0.7998,0.5918 25.4916,18.4716 0.8128,0.5768 25.8265,17.9402 0.825,0.561 26.1672,17.4133 0.8363,0.5446 26.514,16.8904 0.8466,0.5275 26.8673,16.3713 0.8557,0.5099 27.2271,15.8555 0.8638,0.4917 26.3128,14.6305 1.1872,0.6393 25.8834,13.4912 1.2289,0.6192 26.0698,12.6887 1.2497,0.587 26.3489,11.9362 1.2678,0.5533 26.6454,11.1928 1.283,0.5182 26.96,10.457 1.2954,0.4819 27.2934,9.7274 1.3045,0.4448 27.6463,9.0024 1.3106,0.4069 33.2479,9.8258 0.5602,0.166 35.8372,10.6502 0.905,0.2701 35.787,10.7309 0.9049,0.2725 35.7481,10.8149 0.9049,0.275 35.7091,10.8989 0.9048,0.2774 35.6702,10.983 0.9047,0.2798 35.6313,11.067 0.9046,0.2822 35.5923,11.151 0.9045,0.2846 32.3351,10.2181 20.5288,7.1304 28.0722,10.6477 20.5026,8.4598 27.0092,12.0664 20.2574,9.7694 26.018,13.4981 19.7911,11.0182 25.0972,14.9561 19.1137,12.1664 24.242,16.4527 18.2458,13.1782 23.4439,17.9983 17.2175,14.0257 22.692,19.6008 16.0655,14.6903 22.9776,22.2355 8.918,8.9174 23.1811,23.9518 8.666,9.2543 22.3155,24.6309 8.3823,9.5649 21.4596,25.319 8.0693,9.846 20.6129,26.0173 7.73,10.0947 19.7741,26.7264 7.3678,10.3088 18.9422,27.4471 6.9866,10.4865 18.1157,28.1797 6.5902,10.6267 17.9273,29.9845 2.4261,4.1156 18.1749,31.2731 2.3767,4.1487 17.7785,31.4847 2.3262,4.18 17.3824,31.6969 2.2745,4.2095 16.9868,31.9097 2.2218,4.2369 16.5915,32.1232 2.1681,4.2624 16.1965,32.3373 2.1134,4.2859 15.8018,32.5521 2.0579,4.3072 15.575,33.124 0.9897,2.1217 15.5364,33.5709 0.9771,2.1282 15.33,33.6604 0.9643,2.1345 15.1235,33.75 0.9515,2.1407 14.9171,33.8395 0.9385,2.1466 14.7107,33.9292 0.9253,2.1522 14.5044,34.0191 0.9122,2.1576 14.298,34.1089 0.8989,2.1628 14.0257,34.0383 1.2853,3.1591 13.6548,33.99 1.2579,3.1719 13.3499,34.1018 1.2302,3.1841 13.0451,34.2138 1.2022,3.1954 12.7404,34.3262 1.1739,3.2061 12.4358,34.4387 1.1452,3.216 12.1314,34.5515 1.1163,3.225 11.827,34.6646 1.0872,3.2334 11.3975,34.4001 1.8008,5.577 10.743,34.1579 1.7182,5.6121 10.2136,34.2926 1.6341,5.6435 9.6846,34.4285 1.5486,5.671 9.156,34.5657 1.462,5.6945 8.6278,34.7042 1.3744,5.7141 8.0999,34.844 1.2859,5.7296 7.5723,34.9851 1.1969,5.7411 6.876,34.2865 2.0316,10.9499 5.7151,33.496 1.723,11.067 4.7231,33.5403 1.4053,11.1571 3.7338,33.5937 1.0809,11.2193 2.7462,33.6561 0.7524,11.2529 1.7594,33.728 0.4223,11.2574 0.7729,33.8092 0.093,11.2332 -0.2143,33.8998 -0.2331,11.1804 -1.1385,32.1754 -1.4382,22.3026 -2.7781,29.6482 -2.8131,22.7237 -4.4533,28.8965 -4.2439,22.9091 -6.1174,28.2247 -5.6865,22.8401 -7.7853,27.6367 -7.093,22.5112 -9.4726,27.1321 -8.4158,21.9312 -11.1943,26.7057 -9.6124,21.1228 -12.9628,26.3481 -10.6488,20.1203 -14.2689,25.1334 -15.0573,24.3643 -15.055,22.4481 -17.4631,23.9861 -16.2291,20.5756 -19.7451,23.0968 -17.4653,18.8687 -21.7667,21.7086 -18.8067,17.3152 -23.4038,19.8828 -20.2888,15.8878 -24.5656,17.7234 -21.9339,14.5478 -25.2078,15.3613 -23.7484,13.251 -25.3358,12.9333 -27.4362,12.7506 -14.1997,6.2543 -29.6943,12.3707 -14.5487,5.7173 -30.0434,11.1075 -14.8306,5.142 -30.4151,9.8555 -15.0405,4.5367 -30.8108,8.6118 -15.175,3.9103 -31.2311,7.3733 -15.2327,3.2724 -31.6765,6.1371 -15.214,2.6322 -32.1462,4.9001 -15.1214,1.9993 -34.0969,3.8226 -5.9584,0.6211 -35.6113,3.4322 -5.9775,0.5291 -35.6302,2.8744 -5.9923,0.4364 -35.6506,2.3166 -6.0027,0.343 -35.6724,1.7592 -6.0088,0.2493 -35.6956,1.2017 -6.0105,0.1554 -35.7202,0.6443 -6.0078,0.061 -35.7463,0.087 -6.0006,-0.032 -34.616,-0.4554 -13.1158,-0.3962 -33.2244,-1.5707 -13.2072,-0.8521 -32.9809,-2.6978 -13.2522,-1.3151 -32.7526,-3.8235 -13.2496,-1.7803 -32.5399,-4.9491 -13.1988,-2.2429 -32.3428,-6.0765 -13.1002,-2.6976 -32.161,-7.2071 -12.9549,-3.1396 -31.9942,-8.3428 -12.7649,-3.5643 -30.5034,-9.0862 -20.6514,-6.7919 -28.1748,-10.1564 -20.6364,-8.1179 -27.15,-11.5938 -20.4024,-9.4257 -26.1971,-13.0437 -19.9473,-10.6745 -25.3147,-14.5192 -19.2811,-11.8246 -24.4977,-16.0327 -18.4243,-12.8407 -23.7379,-17.5945 -17.4068,-13.6948 -23.0246,-19.2121 -16.265,-14.3686 -24.3138,-22.7305 -3.3008,-3.1227 -26.0603,-24.9461 -3.2626,-3.1602 -25.7715,-25.2591 -3.223,-3.1964 -25.4831,-25.5725 -3.1822,-3.2312 -25.1952,-25.8863 -3.1401,-3.2645 -24.9077,-26.2007 -3.0969,-3.2962 -24.6205,-26.5155 -3.0527,-3.3266 -24.3336,-26.8308 -3.0074,-3.3553 -21.6903,-24.4862 -0.701,-0.7748 -21.1139,-22.8551 -0.739,-0.7828 -21.4787,-22.2682 -0.7572,-0.7682 -21.9291,-21.7749 -0.7744,-0.7525 -22.386,-21.2885 -0.7904,-0.7356 -22.8498,-20.8086 -0.8054,-0.7177 -23.3206,-20.3346 -0.8192,-0.6989 -23.7992,-19.866 -0.8318,-0.6793 -22.887,-18.285 -1.191,-0.9225 -22.5132,-16.9008 -1.2493,-0.908 -22.8061,-16.0439 -1.2827,-0.873 -23.2109,-15.2745 -1.3128,-0.8349 -23.6379,-14.5223 -1.3391,-0.7942 -24.0885,-13.7849 -1.3616,-0.7513 -24.5641,-13.0602 -1.38,-0.7065 -25.0655,-12.3457 -1.3942,-0.6602 -24.5158,-11.1488 -2.1804,-0.9298 -21.0968,-8.4115 -2.1979,-0.8172 -21.265,-7.343 -2.2561,-0.7197 -21.3469,-6.2569 -2.3,-0.6151 -21.5203,-5.2095 -2.3286,-0.5052 -21.7907,-4.1873 -2.3414,-0.3925 -22.1603,-3.1761 -2.3381,-0.2791 -22.6279,-2.1621 -2.3192,-0.1673 -22.1265,-1.0794 -2.6289,-0.059 -20.6979,0.08 -2.6737,0.082 -20.163,1.1577 -2.6962,0.2282 -19.7708,2.2131 -2.695,0.3762 -19.5266,3.2696 -2.6699,0.5221 -19.4295,4.3514 -2.6216,0.662 -19.472,5.4815 -2.5516,0.7925 -19.6411,6.6804 -2.4625,0.9103 -21.2531,8.4977 -1.9359,0.8216 -22.0887,9.9286 -1.919,0.9121 -21.4063,10.7373 -1.891,0.9997 -20.7923,11.5679 -1.8521,1.083 -20.2445,12.4293 -1.8027,1.1607 -19.7585,13.3299 -1.7439,1.2315 -19.3284,14.2771 -1.6765,1.2942 -18.9467,15.2766 -1.6021,1.348 -19.9772,17.5371 -0.8295,0.7447 -22.5365,20.6914 -0.8384,0.7878 -21.9199,21.0751 -0.8214,0.8081 -21.4108,21.557 -0.803,0.8273 -20.9099,22.0468 -0.7833,0.8452 -20.4165,22.5451 -0.7624,0.8616 -19.93,23.0525 -0.7404,0.8766 -19.4548,23.5752 -0.7163,0.8886 -20.1712,25.6124 -10.5955,12.8704 -20.8237,24.2068 -11.4757,12.7539 -21.693,23.0548 -12.1439,12.3382 -22.5858,21.938 -12.7511,11.8374 -23.5002,20.8475 -13.2855,11.2593 -24.44,19.7805 -13.7367,10.6143 -25.4081,18.7334 -14.0976,9.9148 -26.4063,17.7016 -14.3636,9.1745 -28.0191,17.0355 -10.8599,6.362 -29.0683,16.3968 -11.1274,6.0377 -29.4952,15.3818 -11.362,5.6888 -29.9333,14.3744 -11.5611,5.3186 -30.3832,13.3734 -11.7227,4.9303 -30.8456,12.3776 -11.8452,4.5282 -31.3208,11.3856 -11.9276,4.1159 -31.8091,10.3964 -11.9699,3.6977 -32.5795,9.4866 -10.3013,2.8451 -33.0139,8.6267 -10.4243,2.5692 -33.1585,7.6835 -10.5241,2.2841 -33.3108,6.743 -10.5997,1.9916 -33.471,5.8046 -10.6506,1.6938 -33.6393,4.8676 -10.6763,1.3928 -33.8159,3.9313 -10.6767,1.0906 -34.0005,2.995 -10.6523,0.7895 -33.5497,2.0193 -14.5722,0.6003 -32.73702,0.7278 -14.72604,0.046 -32.54766,-0.5215 -14.81695,-0.5229 -32.37916,-1.7676 -14.84239,-1.0983 -32.23213,-3.0126 -14.80127,-1.6728 -32.10669,-4.2592 -14.69396,-2.2386 -32.00248,-5.5098 -14.52233,-2.7885 -31.91865,-6.7668 -14.28961,-3.315 -30.39758,-7.6651 -22.84299,-6.5159 -27.83026,-8.8756 -22.9867,-8.1415 -26.66226,-10.405 -22.83803,-9.7728 -25.59155,-11.9421 -22.38585,-11.349 -24.61868,-13.5073 -21.63792,-12.8083 -23.73798,-15.1196 -20.62102,-14.0948 -22.93794,-16.7957 -19.3784,-15.1638 -22.20246,-18.5477 -17.96483,-15.9862 -21.01764,-19.9132 -19.28981,-19.6314 -18.60366,-20.3388 -18.38874,-21.657 -16.60164,-21.0821 -17.08278,-23.4611 -14.72584,-21.9148 -15.41195,-24.9369 -12.95727,-22.8687 -13.45153,-25.9984 -11.26674,-23.9667 -11.30316,-26.593 -9.61871,-25.2195 -9.080554,-26.7087 -7.976332,-26.6243 -6.89373,-26.3734 -6.60889,-29.5183 -3.44775,-17.2357 -5.478403,-31.0574 -2.68345,-17.576 -4.009452,-31.051 -1.879713,-17.8099 -2.550965,-31.0802 -1.051298,-17.9307 -1.097931,-31.1469 -0.214145,-17.9348 0.354915,-31.2514 0.615463,-17.8228 1.812806,-31.3931 1.421768,-17.5987 3.280671,-31.5701 2.190352,-17.2701 4.988279,-33.2832 1.222878,-7.6355 5.911551,-34.6769 1.378983,-7.6251 6.601592,-34.5161 1.534181,-7.6053 7.292021,-34.3584 1.687903,-7.5761 7.98302,-34.2037 1.83958,-7.5378 8.67478,-34.0518 1.98867,-7.4904 9.36745,-33.903 2.13464,-7.4341 10.06123,-33.757 2.27697,-7.3691 11.12549,-34.7676 11.57206,-36.1032 11.58773,-36.092 11.60343,-36.081 11.6191,-36.0699 11.63479,-36.0588 11.65048,-36.0477 11.66616,-36.0366 11.32908,-34.9376 0.088,-0.274 10.89292,-34.2632 0.0871,-0.2767 10.69042,-34.3145 0.0855,-0.2771 10.4907,-34.3744 0.0839,-0.2777 10.29104,-34.4344 0.0822,-0.2782 10.09142,-34.4947 0.0806,-0.2786 9.89186,-34.5551 0.079,-0.279 9.69233,-34.6157 0.0774,-0.2794 9.32867,-34.0768 0.1147,-0.4263 8.94144,-33.8326 0.1117,-0.4304 8.63499,-33.8902 0.10791,-0.4315 8.33178,-33.9601 0.10408,-0.4325 8.02874,-34.0306 0.10023,-0.4335 7.72584,-34.1017 0.0964,-0.4343 7.42308,-34.1734 0.0925,-0.435 7.12043,-34.2459 0.0886,-0.4356 6.57653,-33.1041 0.13997,-0.7331 5.95717,-32.519 0.13074,-0.7455 5.45295,-32.5381 0.11957,-0.7482 4.95639,-32.5982 0.10828,-0.7504 4.46043,-32.6615 0.0969,-0.752 3.96492,-32.728 0.0855,-0.7533 3.4697,-32.7977 0.074,-0.7538 2.9705,-32.8248 0.0633,-0.7651 11.69357,-155.8428 z m 367.0906,1842.3077 2.51672,1.9693 2.92387,2.1409 2.6781,1.8306 2.5883,1.6485 2.81016,1.6635 2.58185,1.4166 2.90731,1.4739 2.95149,1.3773 2.96603,1.2692 3.72039,1.4519 2.98533,1.0573 4.88624,1.5583 2.96667,0.8463 11.76186,2.9659 1.8558,0.4305 17.50771,3.7116 1.88603,0.3622 17.38898,2.9938 1.90832,0.2907 17.35346,2.3021 1.92225,0.2172 17.40455,1.6268 1.9276,0.1426 17.54372,0.9577 1.92429,0.068 17.77052,0.2848 1.91249,-0.01 18.08253,-0.402 1.8925,-0.078 20.93759,-1.2601 1.3834,-0.1026 23.3339,-2.0554 1.3866,-0.1416 23.1371,-2.6898 1.3865,-0.1809 22.9738,-3.3243 1.3831,-0.22 22.8437,-3.9616 1.3766,-0.2586 22.7468,-4.6046 1.3668,-0.2967 22.6823,-5.2559 1.3538,-0.3337 22.6492,-5.9184 1.3379,-0.3695 21.4335,-6.241 1.5545,-0.4803 19.8566,-6.4898 1.5491,-0.5346 19.4307,-7.0634 1.5384,-0.5881 19.0581,-7.6475 1.5224,-0.6403 18.7379,-8.2477 1.5015,-0.6907 18.4686,-8.8689 1.4756,-0.7388 18.2477,-9.5162 1.4451,-0.7842 18.0722,-10.1941 1.4104,-0.8262 15.3576,-9.3374 1.8654,-1.1915 12.166,-8.1555 1.8309,-1.2877 11.482,-8.4656 1.784,-1.3785 10.921,-8.8389 1.7254,-1.4623 10.4753,-9.2928 1.656,-1.5373 10.133,-9.8425 1.5772,-1.6023 9.8797,-10.4999 1.4903,-1.6564 9.6983,-11.2739 1.3974,-1.6986 16.3035,-20.7309 2.7398,-3.4431 1.2542,-1.5579 2.779,-3.4116 23.7663,-28.8387 2.8285,-3.3923 1.2945,-1.5346 2.8672,-3.3596 24.3811,-28.2388 2.9136,-3.3356 1.333,-1.5085 2.9518,-3.3018 24.996,-27.6392 2.9946,-3.2732 1.3697,-1.4799 3.0321,-3.2384 25.6114,-27.04 3.0711,-3.2052 1.4043,-1.4488 3.1079,-3.1696 26.2269,-26.4412 3.1428,-3.1322 1.4367,-1.4154 3.1786,-3.0957 26.8429,-25.8427 3.2093,-3.0542 1.4666,-1.3799 3.2442,-3.0172 27.4592,-25.2444 3.2702,-2.9721 1.4942,-1.3423 3.3041,-2.9343 27.9865,-24.5681 6.1137,-5.2547 2.8037,-2.3591 6.2224,-5.1255 28.7032,-23.1433 6.4021,-5.0509 2.9339,-2.2648 6.5076,-4.9143 29.5075,-21.796 6.6633,-4.8128 3.0517,-2.155 6.7645,-4.6695 30.3138,-20.4509 6.8925,-4.5433 3.1547,-2.0312 6.9884,-4.3944 31.1223,-19.1078 7.0855,-4.2462 3.241,-1.8953 7.175,-4.0932 31.9334,-17.7662 7.239,-3.9267 3.3092,-1.7494 7.3213,-3.7709 32.7471,-16.4258 7.3508,-3.5899 3.3582,-1.5961 7.4255,-3.433 33.5635,-15.0863 7.4199,-3.2418 3.3878,-1.4379 7.4865,-3.085 34.3187,-13.7218 9.4346,-3.6293 4.3093,-1.5931 9.5266,-3.3804 34.5663,-11.7567 9.7828,-3.1822 4.4651,-1.3868 9.8643,-2.9196 34.8721,-9.8167 10.0585,-2.6854 4.5877,-1.1585 10.1275,-2.4124 35.1828,-7.8794 10.2519,-2.15 4.6724,-0.9137 10.3066,-1.8702 35.4993,-5.9442 10.3562,-1.5895 4.7162,-0.6583 10.3955,-1.3071 35.8217,-4.0099 10.3682,-1.0188 4.7182,-0.3992 10.3919,-0.7378 36.1502,-2.0756 10.2892,-0.4528 4.6787,-0.1432 10.2977,-0.1774 36.4842,-0.1404 10.1242,0.094 4.6005,0.1033 10.1182,0.3604 36.8544,1.798 8.9367,0.5402 4.0587,0.2927 8.9218,0.7479 36.4916,3.4867 9.0143,0.9685 4.0916,0.4885 8.989,1.1805 36.0899,5.1726 9.0321,1.4042 4.0973,0.6869 8.9962,1.6181 35.6921,6.8585 8.9884,1.8385 4.075,0.8842 8.942,2.0521 35.2983,8.5447 8.8832,2.2626 4.0249,1.0764 8.8267,2.4735 34.9084,10.232 8.7187,2.668 3.948,1.2595 8.6531,2.8737 34.5222,11.9209 8.4991,3.0468 3.8464,1.43 8.4253,3.2452 34.1393,13.6117 8.2303,3.3923 3.7227,1.585 8.1497,3.5817 33.8423,15.3425 5.3876,2.4927 2.44,1.1519 5.3486,2.5755 33.3352,16.3699 5.3357,2.6717 2.4157,1.2331 5.2936,2.7541 32.7403,17.3572 5.2675,2.8452 2.3841,1.3118 5.2226,2.9268 32.1463,18.3451 5.1834,3.0117 2.3452,1.3872 5.1359,3.0921 31.5534,19.3334 5.0841,3.1698 2.2996,1.4586 5.0341,3.2486 30.9615,20.3222 4.9704,3.318 2.2475,1.5256 4.9183,3.3947 30.3704,21.3118 4.8436,3.4551 2.1894,1.5874 4.7896,3.5295 29.7801,22.3022 4.7047,3.5801 2.1259,1.6436 4.6493,3.652 29.2344,23.3284 3.2174,2.5958 1.456,1.1877 3.1893,2.6302 28.7238,23.9483 3.1697,2.6718 1.4341,1.2221 3.1408,2.7057 28.1678,24.5321 3.1172,2.7446 1.4101,1.2551 3.0874,2.778 27.6123,25.1161 3.0601,2.8138 1.384,1.2865 3.0296,2.8466 27.0569,25.7003 2.9987,2.8793 1.3559,1.316 2.9674,2.9115 26.5019,26.2847 2.9331,2.9406 1.3259,1.3438 2.9012,2.972 25.9472,26.8696 2.8636,2.9975 1.2943,1.3695 2.8312,3.0283 25.3926,27.4545 2.7907,3.05 1.2611,1.3932 2.7577,3.0798 22.9481,25.906 0.3906,0.4358 21.3035,23.4897 0.3964,0.432 21.5456,23.204 0.4022,0.4281 21.789,22.9201 0.4078,0.424 22.034,22.6384 0.4133,0.4196 22.2805,22.3586 0.4186,0.4151 22.5286,22.0807 0.4237,0.4104 22.7784,21.8047 0.4287,0.4055 14.7239,13.7652 2.1124,1.8661 6.1827,5.1589 2.2607,1.7786 5.8122,4.308 2.3928,1.6677 5.6309,3.6852 2.5041,1.5356 5.683,3.2595 2.5906,1.3864 6.0024,2.9886 2.6497,1.2241 6.6094,2.8224 2.6801,1.0543 7.5092,2.7069 2.6821,0.8821 13.7296,4.0897 1.6578,0.4629 19.1307,4.9885 1.6825,0.4078 19.1297,4.2868 1.7013,0.3504 19.1893,3.6052 1.7142,0.2913 19.3115,2.9371 1.7208,0.2313 19.4975,2.276 1.721,0.1708 19.7471,1.6153 1.7152,0.1107 20.0589,0.9483 1.7033,0.051 25.0545,0.3296 0.7793,0 29.7417,-0.072 0.7802,-0.01 29.7108,-0.5359 0.7805,-0.02 29.6856,-0.9994 0.7804,-0.032 29.6662,-1.463 0.7796,-0.044 29.6527,-1.927 0.7782,-0.057 29.645,-2.3915 0.7763,-0.069 29.643,-2.8571 0.7738,-0.081 23.5396,-2.639 1.9638,-0.2597 16.9718,-2.587 1.9758,-0.3418 16.4462,-3.1864 1.9783,-0.425 16.0204,-3.7822 1.9708,-0.5078 15.6962,-4.3872 1.9534,-0.5892 15.4731,-5.0138 1.9261,-0.6678 15.348,-5.6744 1.8894,-0.7425 9.5469,-3.9773 4.3969,-2.0884 4.173,-2.5061 3.9095,-2.9 3.609,-3.2664 3.2743,-3.6019 2.9086,-3.9032 2.5152,-4.1675 2.098,-4.3923 0.7623,-1.8185 1.093,-2.8482 1.7074,-4.8907 0.9212,-2.9236 1.3912,-4.9386 0.7385,-2.9663 1.1545,-5.3266 0.5512,-2.9753 0.9335,-6.0571 0.3653,-2.9511 0.6666,-7.1136 0.1868,-2.8965 0.5454,-15.4145 0.03,-1.452 0.1434,-22.6905 -0.012,-1.4589 -0.5158,-22.5614 -0.055,-1.4621 -1.1721,-22.4703 -0.098,-1.4614 -1.8291,-22.4176 -0.1404,-1.4571 -2.49,-22.4031 -0.1825,-1.4489 -3.158,-22.4261 -0.2237,-1.4372 -3.8365,-22.4854 -0.2639,-1.4221 -5.2044,-25.9512 -0.1554,-0.7456 -6.3308,-29.2494 -0.167,-0.7441 -6.7697,-29.1218 -0.1785,-0.7421 -7.2096,-28.9996 -0.1898,-0.7395 -7.6507,-28.8826 -0.2011,-0.7365 -8.0932,-28.771 -0.2122,-0.7329 -8.5374,-28.6645 -0.2231,-0.7289 -8.9834,-28.563 -0.2339,-0.7243 -9.9394,-29.9994 -0.1412,-0.4199 -10.7252,-31.4353 -0.145,-0.4188 -11.0006,-31.331 -0.1487,-0.4176 -11.2763,-31.2276 -0.1525,-0.4164 -11.5524,-31.1253 -0.1561,-0.415 -11.8289,-31.024 -0.1598,-0.4135 -12.1057,-30.9237 -0.1634,-0.412 -12.383,-30.8243 -0.1669,-0.4103 -12.9298,-31.3789 -0.1168,-0.2808 -13.3925,-31.9487 -0.1184,-0.2802 -13.5856,-31.8641 -0.1202,-0.2795 -13.7788,-31.7798 -0.1219,-0.2788 -13.9721,-31.6959 -0.1236,-0.278 -14.1656,-31.6123 -0.1252,-0.2772 -14.3593,-31.5289 -0.1269,-0.2764 -14.553,-31.446 -0.1286,-0.2755 -14.0612,-29.9047 -0.2672,-0.5594 -13.7161,-28.2554 -0.2744,-0.5566 -14.0557,-28.0631 -0.2816,-0.5536 -14.3965,-27.8734 -0.2885,-0.5503 -14.7386,-27.6864 -0.2954,-0.5467 -15.082,-27.502 -0.3021,-0.5429 -15.4269,-27.3202 -0.3086,-0.5388 -15.7733,-27.1408 -0.3151,-0.5345 -13.4928,-22.5674 -0.8558,-1.3801 -11.3269,-17.6194 -0.9074,-1.3619 -11.7639,-17.0458 -0.9569,-1.3388 -12.2237,-16.5214 -1.0039,-1.311 -12.7112,-16.0439 -1.048,-1.2787 -13.2314,-15.611 -1.0886,-1.2422 -13.7885,-15.2191 -1.1254,-1.2019 -14.3859,-14.8642 -1.1582,-1.1581 -10.6203,-10.2773 -2.0864,-1.9078 -6.0447,-5.2212 -2.236,-1.8216 -5.7021,-4.3776 -2.3696,-1.7115 -5.5482,-3.7654 -2.4823,-1.5801 -5.6274,-3.3535 -2.5703,-1.4309 -5.9738,-3.0992 -2.6309,-1.2688 -6.6078,-2.9521 -2.6627,-1.0986 -7.5348,-2.8579 -2.6661,-0.9261 -21.5177,-6.7997 -0.1174,-0.037 -34.6878,-10.8677 -0.1175,-0.037 -34.7266,-10.7861 -0.1175,-0.036 -34.7654,-10.7044 -0.1175,-0.036 -34.8043,-10.6228 -0.1175,-0.036 -34.8431,-10.5411 -0.1175,-0.035 -34.8821,-10.4595 -0.1175,-0.035 -34.9209,-10.3778 -0.1176,-0.035 -35.3946,-10.4243 -5.0565,-1.527 -2.2936,-0.7098 -5.0351,-1.5962 -35.4344,-11.5015 -5.0346,-1.6726 -2.2832,-0.7761 -5.0111,-1.7418 -35.0388,-12.4504 -5.0009,-1.816 -2.2673,-0.8411 -4.9753,-1.8849 -34.6439,-13.3995 -4.9555,-1.9562 -2.2461,-0.9047 -4.9279,-2.0245 -34.2498,-14.3489 -4.8984,-2.0921 -2.2199,-0.9663 -4.869,-2.1597 -33.8565,-15.2985 -4.8303,-2.2229 -2.1885,-1.0256 -4.7992,-2.2894 -33.4638,-16.2485 -4.7517,-2.3478 -2.1524,-1.082 -4.7189,-2.4129 -33.0719,-17.199 -4.6631,-2.4658 -2.1118,-1.1352 -4.6289,-2.5295 -32.7206,-18.1722 -3.3358,-1.8743 -1.512,-0.8595 -3.317,-1.9075 -32.3514,-18.818 -3.3051,-1.9446 -1.4978,-0.8913 -3.2856,-1.9774 -31.941,-19.441 -3.2702,-2.0128 -1.4818,-0.9223 -3.25,-2.0454 -31.5309,-20.064 -3.2313,-2.079 -1.464,-0.9522 -3.2104,-2.1111 -31.121,-20.6873 -3.1885,-2.1425 -1.4445,-0.9811 -3.167,-2.1743 -30.7113,-21.3107 -3.1421,-2.2035 -1.4231,-1.0087 -3.12,-2.2348 -30.3018,-21.9342 -3.092,-2.2617 -1.4003,-1.035 -3.0694,-2.2924 -29.8926,-22.558 -3.0386,-2.3167 -1.3759,-1.0599 -3.0154,-2.3468 -29.5182,-23.209 -1.9272,-1.5253 -0.8738,-0.6961 -1.9174,-1.5375 -29.236,-23.5975 -1.9096,-1.5513 -0.8657,-0.708 -1.8996,-1.5635 -28.919,-23.9584 -1.891,-1.5768 -0.8572,-0.7195 -1.8809,-1.5889 -28.6021,-24.3193 -1.8714,-1.6015 -0.8482,-0.7307 -1.8611,-1.6134 -28.2853,-24.6805 -1.8509,-1.6254 -0.8389,-0.7415 -1.8404,-1.6373 -27.9685,-25.0415 -1.8294,-1.6486 -0.8292,-0.752 -1.8189,-1.6602 -27.6517,-25.4027 -1.8072,-1.6708 -0.819,-0.7621 -1.7964,-1.6824 -27.3351,-25.7639 -1.784,-1.6923 -0.8084,-0.7718 -1.7732,-1.7036 -27.0444,-26.1503 -0.9659,-0.9372 -0.4382,-0.4267 -0.9626,-0.9406 -26.8844,-26.3617 -0.9594,-0.9441 -0.4353,-0.4298 -0.9562,-0.9475 -26.6983,-26.5479 -0.9528,-0.9508 -0.4323,-0.4329 -0.9495,-0.9541 -26.5123,-26.7343 -0.9461,-0.9574 -0.4293,-0.4359 -0.9427,-0.9606 -26.3262,-26.9206 -0.9393,-0.9638 -0.4261,-0.4388 -0.9358,-0.9671 -26.1403,-27.1069 -0.9322,-0.97 -0.423,-0.4417 -0.9288,-0.9733 -25.9542,-27.2932 -0.9251,-0.9762 -0.4197,-0.4445 -0.9216,-0.9794 -25.7683,-27.4796 -0.9178,-0.9822 -0.4164,-0.4472 -0.9143,-0.9853 -25.8249,-27.9285 -0.3166,-0.3431 -25.7973,-27.9922 -0.316,-0.3437 -25.7495,-28.0339 -0.3155,-0.3442 -25.7016,-28.0757 -0.3149,-0.3447 -25.6538,-28.1174 -0.3144,-0.3454 -25.6059,-28.1591 -0.3138,-0.3459 -25.5581,-28.2008 -0.3133,-0.3465 -25.5102,-28.2426 -0.3125,-0.3467 -25.7616,-28.6174 -25.6992,-28.6385 -25.6535,-28.67823 -25.6078,-28.71785 -25.5622,-28.75752 -25.5165,-28.79718 -25.4711,-28.83709 -12.6136,-14.32549 -3.8291,-3.89705 -4.2314,-3.45602 -4.5832,-2.97372 -4.8803,-2.45591 -25.5199,-11.13936 -2.6706,-1.07529 -40.4068,-14.93216 -2.2077,-0.75778 -52.7461,-16.7387 -1.8436,-0.54626 -64.177,-17.68095 -1.5558,-0.40186 -56.1943,-13.55491 -5.0413,-0.94541 -41.1014,-5.54351 -4.9622,-0.41903 -45.2737,-1.55919 -4.7438,0.0618 -50.695,3.07049 -4.422,0.4659 -56.962,8.57708 -4.0382,0.7791 -63.6654,15.02302 -3.6299,1.00227 -70.464,22.34361 -3.2261,1.14594 -77.1141,30.403 -2.8455,1.22506 -65.073,30.43815 -5.9187,3.27348 -35.6597,23.00263 -3.0655,2.14395 -2.8966,2.36714 -23.857,21.0326 -2.8709,2.74105 -2.6444,2.96015 -17.2179,20.88629 -2.4249,3.19452 -2.1612,3.37859 -14.6817,25.11815 -1.8148,3.39909 -1.5477,3.52878 -13.7279,34.8977 -2.1176,6.7504 -11.7534,49.4902 -1.0644,6.1882 -7.234,67.0298 -0.2886,5.4386 0.8687,589.4391 -0.2585,14.6847 -0.2447,6.6699 -0.8184,14.6642 -12.6485,168.7204 -0.2287,2.9035 -0.109,1.3193 -0.2507,2.9017 -3.3696,37.3568 -0.2729,2.9034 -0.1291,1.3192 -0.295,2.9011 -3.933,37.2822 -0.3172,2.9011 -0.1492,1.3182 -0.3391,2.8987 -4.4966,37.2076 -0.3612,2.8969 -0.1692,1.3162 -0.3832,2.8942 -5.06,37.1332 -0.4051,2.8908 -0.1891,1.3133 -0.427,2.8876 -5.6235,37.0589 -0.4486,2.8827 -0.2089,1.3094 -0.4704,2.8792 -6.1871,36.9848 -0.4917,2.8725 -0.2284,1.3048 -0.5135,2.8687 -6.7506,36.9107 -0.5343,2.8605 -0.2478,1.2992 -0.5559,2.8563 -7.3217,36.8749 -0.3371,1.6779 -0.1549,0.7624 -0.3445,1.6764 -7.6552,36.8367 -0.3521,1.6757 -0.1617,0.7613 -0.3596,1.674 -7.981,36.7605 -0.3672,1.6729 -0.1685,0.76 -0.3746,1.6713 -8.3069,36.6842 -0.382,1.6698 -0.1754,0.7586 -0.3894,1.668 -8.6329,36.608 -0.3968,1.6663 -0.1821,0.7569 -0.4042,1.6645 -8.9588,36.5318 -0.4116,1.6623 -0.1887,0.7552 -0.419,1.6605 -9.2847,36.4556 -0.4262,1.6581 -0.1954,0.7532 -0.4336,1.6561 -9.6105,36.3795 -0.4407,1.6533 -0.202,0.7511 -0.4481,1.6514 -9.9416,36.3219 -0.2962,1.0762 -0.1354,0.489 -0.2994,1.0754 -10.15588,36.2775 -0.30255,1.0748 -0.13824,0.4883 -0.30567,1.0738 -10.36517,36.2146 -0.30883,1.0731 -0.14109,0.4876 -0.31194,1.0722 -10.57443,36.1516 -0.31508,1.0714 -0.14392,0.4868 -0.31819,1.0705 -10.78367,36.0886 -0.3213,1.0696 -0.14675,0.486 -0.3244,1.0687 -10.99293,36.0256 -0.32748,1.0677 -0.14956,0.4851 -0.33058,1.0667 -11.20218,35.9627 -0.33364,1.0656 -0.15235,0.4841 -0.33673,1.0647 -11.41143,35.8997 -0.33975,1.0635 -0.15514,0.4832 -0.34283,1.0625 -11.60125,35.7768 -11.55884,35.705 -11.54335,35.7161 -11.52786,35.7272 -11.51236,35.7384 -11.49688,35.7495 -11.48138,35.7607 -11.46589,35.7718 -9.92357,31.0116 -0.29572,0.957 -7.85498,26.3547 -0.27723,0.9655 -7.30543,26.4401 -0.25827,0.9728 -6.76035,26.537 -0.23891,0.9789 -6.21906,26.6459 -0.21921,0.9839 -5.68084,26.7669 -0.19925,0.9877 -5.14495,26.9002 -0.17909,0.9902 -4.61064,27.0459 -0.15882,0.9916 -3.12471,20.849 -0.28446,2.2429 -1.46803,14.1269 -0.18465,2.2856 -0.78955,13.673 -0.0799,2.3147 -0.15176,13.3627 0.0278,2.3292 0.46545,13.2042 0.13653,2.3286 1.08342,13.2001 0.24412,2.313 1.72363,13.3486 0.34851,2.2826 2.40655,13.6429 0.44776,2.2384 0.28901,1.2909 1.23324,4.5083 1.64881,4.3734 2.04998,4.2004 2.43325,3.9906 2.79524,3.746 3.13281,3.4685 3.44301,3.1609 z"
     id="path3"
     style="fill:#5b5b5b;fill-opacity:1" />
  <path
     fill-rule="evenodd"
     fill="#ffffff"
     stroke="#555555"
     stroke-width="0"
     opacity="0.6"
     d="m 377.0688,1150.344 2.36654,-44.5965 12.40122,-114.90981 8.72806,-50.74328 24.43282,-102.87975 17.36427,-55.35338 35.96544,-91.4276 12.69093,-28.93576 14.88152,-27.87254 47.29789,-80.91915 17.7213,-27.70449 19.88476,-26.19503 58.94061,-71.4985 21.68426,-24.27323 23.54138,-22.47667 71.38784,-62.9363 23.75228,-19.41053 25.13702,-17.58038 84.84754,-54.73171 48.5327,-26.8426 101.76032,-47.59877 23.3335,-10.04549 102.0027,-40.21558 26.4541,-9.396675 98.58,-31.258995 29.7658,-8.218589 95.1283,-22.447279 33.1133,-6.388645 91.6953,-13.8070606 36.2604,-3.8204188 88.3477,-5.35103155 38.8991,-0.50704485 85.1662,2.9330554 40.6904,3.4361083 82.2293,11.0906011 41.3387,7.75235 83.0701,20.03777 12.7582,3.295289 78.1314,21.525432 15.1174,4.479368 69.3861,22.019311 18.1035,6.213804 60.4627,22.34372 21.8993,8.81738 51.3119,22.39749 26.6986,12.8211 41.8903,22.01245 32.6075,19.10196 32.2054,20.91754 39.3401,29.02737 22.441,18.72381 23.5977,21.29343 21.8773,23.05744 19.5652,22.29093 24.626,27.96809 24.6698,27.92922 24.7141,27.89085 24.7584,27.85247 24.8026,27.81411 24.8469,27.77574 24.8912,27.73739 24.9223,27.68438 24.9624,27.63607 25.0092,27.59524 25.0561,27.55445 25.1029,27.51367 25.1499,27.47291 25.1967,27.43213 25.2437,27.39137 24.5589,26.55944 24.3535,25.9741 24.5199,25.78824 24.6951,25.61152 24.8703,25.43504 25.0459,25.2588 25.2216,25.08278 25.3976,24.90699 24.7428,23.92787 24.5849,23.18151 24.8448,22.8336 25.1278,22.5077 25.4123,22.183 25.6982,21.8595 25.9856,21.5373 26.2746,21.2163 25.4677,20.0329 25.2086,19.0429 25.4916,18.4717 25.8264,17.9402 26.1672,17.4133 26.514,16.8904 26.8673,16.3713 27.2271,15.8556 26.3127,14.6306 25.8834,13.4912 26.0697,12.6886 26.3489,11.9362 26.6454,11.1927 26.9601,10.4571 27.2934,9.7274 27.6462,9.0023 33.2662,9.8312 0.5966,0.1768 35.8847,10.6643 0.9638,0.2877 35.8457,10.7484 0.9637,0.2903 35.8069,10.8327 0.9636,0.2928 35.7679,10.9169 0.9636,0.2954 35.7289,11.001 0.9635,0.298 35.69,11.0852 0.9633,0.3005 35.6511,11.1695 0.9632,0.3031 33.0374,10.44 21.8621,7.5935 29.4055,11.1534 21.8343,9.0093 28.3337,12.658 21.573,10.404 27.3192,14.1732 21.0766,11.7339 26.3612,15.7093 20.3551,12.9566 25.4556,17.2763 19.4309,14.0342 24.5957,18.8826 18.3358,14.9366 23.7727,20.5343 17.109,15.6444 23.7799,23.0119 9.4971,9.4966 23.7522,24.5418 9.2288,9.8553 22.8691,25.242 8.9266,10.186 21.994,25.9494 8.5932,10.4854 21.126,26.6648 8.232,10.7503 20.2643,27.389 7.8463,10.9783 19.4083,28.1224 7.4403,11.1674 18.5566,28.8655 7.018,11.3167 18.2153,30.4662 2.5837,4.3828 18.3307,31.5414 2.5311,4.4181 17.9312,31.7552 2.4772,4.4514 17.5319,31.9693 2.4222,4.4828 17.1328,32.184 2.366,4.512 16.7341,32.3992 2.3088,4.5391 16.3355,32.6149 2.2507,4.5641 15.9372,32.8312 2.1916,4.5869 15.6732,33.3331 1.054,2.2594 15.6003,33.7088 1.0406,2.2665 15.393,33.7987 1.0269,2.2732 15.1857,33.8888 1.0132,2.2797 14.9785,33.9787 0.9994,2.286 14.7712,34.0688 0.9855,2.2919 14.564,34.159 0.9714,2.2977 14.3569,34.2492 0.9572,2.3032 14.0968,34.2111 1.3689,3.3642 13.7373,34.1955 1.3397,3.3779 13.4306,34.3082 1.3101,3.3908 13.1241,34.421 1.2802,3.4029 12.8176,34.534 1.25,3.4143 12.5112,34.6472 1.2196,3.4248 12.2048,34.7607 1.1888,3.4344 11.8985,34.8743 1.1578,3.4434 11.4922,34.6859 1.9177,5.9391 10.8573,34.5212 1.8297,5.9765 10.3225,34.6581 1.7402,6.0099 9.7879,34.7959 1.6492,6.0392 9.2538,34.9348 1.5569,6.0643 8.7199,35.0746 1.4636,6.0851 8.1863,35.2156 1.3695,6.1016 7.6528,35.3576 1.2746,6.1139 6.9846,34.8278 2.1636,11.6609 5.837,34.2109 1.8349,11.7857 4.8248,34.262 1.4965,11.8816 3.8145,34.3203 1.1512,11.9479 2.8056,34.3859 0.8013,11.9835 1.7976,34.459 0.4496,11.9885 0.7896,34.5395 0.099,11.9626 -0.2189,34.6277 -0.2482,11.9064 -1.177,33.2637 -1.5317,23.751 -2.9151,31.1113 -2.9958,24.1995 -4.6819,30.3793 -4.5195,24.397 -6.4396,29.7112 -6.0558,24.3236 -8.2004,29.1103 -7.5537,23.9733 -9.9767,28.576 -8.9625,23.3556 -11.7805,28.1044 -10.2368,22.4947 -13.6218,27.6878 -11.3405,21.427 -15.0931,26.5853 -16.0354,25.947 -16.11,24.021 -18.5975,25.5443 -17.4371,22.1071 -21.0278,24.5973 -18.8141,20.3258 -23.1806,23.1189 -20.2751,18.6671 -24.9242,21.1745 -21.8488,17.1094 -26.1615,18.8747 -23.5528,15.6216 -26.8453,16.3592 -25.3925,14.1683 -26.9816,13.7735 -28.7309,13.3523 -15.1219,6.6605 -30.628,12.7596 -15.4934,6.0886 -30.9976,11.4603 -15.7938,5.4759 -31.3852,10.1699 -16.0173,4.8313 -31.792,8.886 -16.1606,4.1643 -32.2187,7.6065 -16.2219,3.4849 -32.6654,6.3286 -16.202,2.8032 -33.1315,5.0502 -16.1034,2.1292 -34.7824,3.8995 -6.3453,0.6614 -35.9988,3.4696 -6.3657,0.5635 -36.0188,2.9057 -6.3815,0.4647 -36.04,2.3419 -6.3926,0.3653 -36.0624,1.7784 -6.3989,0.2655 -36.0859,1.2149 -6.4008,0.1654 -36.1104,0.6514 -6.3979,0.066 -36.1362,0.088 -6.3903,-0.034 -35.2368,-0.4636 -13.9675,-0.4219 -34.0793,-1.6111 -14.0648,-0.9074 -33.8402,-2.7681 -14.1128,-1.4005 -33.6133,-3.9239 -14.11,-1.896 -33.3988,-5.0797 -14.056,-2.3886 -33.1968,-6.2369 -13.9509,-2.8728 -33.0072,-7.3968 -13.7961,-3.3435 -32.8295,-8.5605 -13.5938,-3.7958 -31.5925,-9.4105 -21.9927,-7.2331 -29.5164,-10.64 -21.9767,-8.6452 -28.4836,-12.1632 -21.7274,-10.0379 -27.5082,-13.6965 -21.2429,-11.3678 -26.5891,-15.2502 -20.5334,-12.5926 -25.7226,-16.8343 -19.6209,-13.6747 -24.9017,-18.457 -18.5374,-14.5843 -24.1179,-20.1245 -17.3215,-15.3018 -24.9363,-23.3126 -3.5152,-3.3254 -26.2734,-25.1502 -3.4744,-3.3654 -25.9821,-25.4655 -3.4323,-3.4039 -25.6911,-25.7812 -3.3888,-3.441 -25.4005,-26.0972 -3.344,-3.4765 -25.1102,-26.4137 -3.298,-3.5103 -24.8202,-26.7305 -3.2509,-3.5426 -24.5303,-27.0478 -3.2027,-3.5731 -21.7874,-24.5958 -21.114,-22.855 -21.4786,-22.2681 -21.9292,-21.775 -22.386,-21.2885 -22.8497,-20.8086 -23.3207,-20.3345 -23.7991,-19.8659 -22.887,-18.2851 -22.5132,-16.9008 -22.8061,-16.0439 -23.2109,-15.2745 -23.6379,-14.5222 -24.0884,-13.7849 -24.5641,-13.0602 -25.0655,-12.3456 -24.5157,-11.1488 -21.0968,-8.4115 -21.265,-7.343 -21.3469,-6.257 -21.5203,-5.2094 -21.7907,-4.1873 -22.1603,-3.1761 -22.6279,-2.1621 -22.1264,-1.0794 -20.698,0.08 -20.1631,1.1577 -19.7708,2.2131 -19.5265,3.2696 -19.4295,4.3514 -19.472,5.4815 -19.6412,6.6804 -21.253,8.4977 -22.0888,9.9286 -21.4063,10.7373 -20.7923,11.5678 -20.2446,12.4293 -19.7585,13.3299 -19.3283,14.2771 -18.9468,15.2766 -19.9771,17.5371 -22.5365,20.6914 -21.9199,21.075 -21.4108,21.557 -20.9098,22.0468 -20.4165,22.5451 -19.93,23.0525 -19.4548,23.5753 -20.5061,26.0377 -11.2836,13.7062 -21.54,25.0395 -12.221,13.5822 -22.4601,23.87 -12.9325,13.1395 -23.3943,22.7233 -13.5792,12.6061 -24.3459,21.5977 -14.1482,11.9905 -25.3178,20.491 -14.6289,11.3036 -26.3122,19.4 -15.0132,10.5588 -27.3308,18.3213 -15.2965,9.7704 -28.8411,17.5353 -11.5652,6.7752 -29.7822,16.7994 -11.85,6.4298 -30.2256,15.7627 -12.0998,6.0583 -30.6777,14.7319 -12.3119,5.6639 -31.1394,13.7062 -12.484,5.2506 -31.6109,12.6847 -12.6144,4.8222 -32.0928,11.6663 -12.7022,4.3832 -32.5852,10.6499 -12.7472,3.9379 -33.3032,9.6974 -10.9702,3.0298 -33.687,8.8026 -11.1012,2.736 -33.8388,7.8411 -11.2075,2.4324 -33.9967,6.8819 -11.288,2.1209 -34.1611,5.9243 -11.3422,1.8038 -34.3319,4.9678 -11.3695,1.4832 -34.5093,4.0119 -11.3701,1.1615 -34.6931,3.0559 -11.344,0.8409 -34.3686,2.0685 -15.5185,0.6393 -33.68858,0.749 -15.68236,0.049 -33.50712,-0.5369 -15.77919,-0.5569 -33.3424,-1.8202 -15.80628,-1.1696 -33.19487,-3.1026 -15.76248,-1.7814 -33.0646,-4.3863 -15.64821,-2.384 -32.95131,-5.6732 -15.46543,-2.9695 -32.85434,-6.9651 -15.2176,-3.5304 -31.60745,-7.9702 -24.32668,-6.9391 -29.31974,-9.3506 -24.47975,-8.6703 -28.15158,-10.9862 -24.32143,-10.4076 -27.06127,-12.628 -23.83989,-12.0861 -26.04924,-14.2921 -23.04337,-13.6404 -25.11095,-15.994 -21.96042,-15.0104 -24.2372,-17.7469 -20.63708,-16.1488 -23.4151,-19.5607 -19.13167,-17.0245 -22.23347,-21.0652 -20.54282,-20.9066 -19.82978,-21.6792 -19.58325,-23.0639 -17.7557,-22.5476 -18.19247,-24.9851 -15.78263,-23.4875 -16.4131,-26.5568 -13.89536,-24.5243 -14.325334,-27.6873 -12.07051,-25.6765 -12.0374,-28.3205 -10.279674,-26.9524 -9.670413,-28.4437 -8.493363,-28.3501 -7.341524,-28.0865 -6.927024,-30.9392 -3.671662,-18.3551 -5.677846,-32.1881 -2.857724,-18.7174 -4.1578601,-32.2004 -2.0017901,-18.9665 -2.6462469,-32.2412 -1.1195736,-19.0951 -1.1389959,-32.3118 -0.22805198,-19.0996 0.36810489,-32.4129 0.65543349,-18.9802 1.8792425,-32.5437 1.514103,-18.7416 3.3983589,-32.7026 2.3326018,-18.3916 5.109277,-34.0906 1.302288,-8.1313 5.996024,-35.1725 1.468529,-8.1202 6.696177,-35.0106 1.633806,-8.0992 7.396639,-34.8513 1.797511,-8.0681 8.097559,-34.6944 1.959042,-8.0273 8.799081,-34.5398 2.117813,-7.9768 9.501345,-34.3876 2.273257,-7.9168 10.204489,-34.2377 2.424827,-7.8476 11.205479,-35.0176 11.579425,-36.1261 11.59513,-36.1151 11.61082,-36.104 11.62652,-36.0929 11.64222,-36.0818 11.65792,-36.0707 11.67362,-36.0597 11.33282,-34.9491 10.89292,-34.2633 10.69042,-34.3145 10.4907,-34.3743 10.29103,-34.4344 10.09142,-34.4947 9.89186,-34.5551 9.69233,-34.6157 9.32867,-34.0768 8.94144,-33.8325 8.63499,-33.8902 8.33178,-33.9601 8.02873,-34.0305 7.72584,-34.1017 7.42308,-34.1735 7.12043,-34.2459 6.57653,-33.104 5.95717,-32.519 5.45295,-32.5381 4.95639,-32.5982 4.46044,-32.6615 3.96491,-32.728 3.46971,-32.7977 2.97049,-32.8248 11.69357,-155.8427 z m 39.05117,760.02 -0.0633,0.7651 -2.9705,32.8248 -0.074,0.7538 -3.4697,32.7977 -0.0855,0.7533 -3.96492,32.728 -0.0969,0.752 -4.46043,32.6615 -0.10828,0.7504 -4.95639,32.5982 -0.11957,0.7482 -5.45295,32.5381 -0.13074,0.7455 -5.95717,32.519 -0.13997,0.7331 -6.57653,33.1041 -0.0886,0.4356 -7.12043,34.2459 -0.0925,0.435 -7.42308,34.1734 -0.0964,0.4343 -7.72584,34.1017 -0.10023,0.4335 -8.02874,34.0306 -0.10408,0.4325 -8.33178,33.9601 -0.10791,0.4315 -8.63499,33.8902 -0.1117,0.4304 -8.94144,33.8326 -0.1147,0.4263 -9.32867,34.0768 -0.0774,0.2794 -9.69233,34.6157 -0.079,0.279 -9.89186,34.5551 -0.0806,0.2786 -10.09142,34.4947 -0.0822,0.2782 -10.29104,34.4344 -0.0839,0.2777 -10.4907,34.3744 -0.0855,0.2771 -10.69042,34.3145 -0.0871,0.2767 -10.89292,34.2632 -0.088,0.274 -11.32908,34.9376 -11.66616,36.0366 -11.65048,36.0477 -11.63479,36.0588 -11.6191,36.0699 -11.60343,36.081 -11.58773,36.092 -11.57206,36.1032 -11.12549,34.7676 -2.27697,7.3691 -10.06123,33.757 -2.13464,7.4341 -9.36745,33.903 -1.98867,7.4904 -8.67478,34.0518 -1.83958,7.5378 -7.98302,34.2037 -1.687903,7.5761 -7.292021,34.3584 -1.534181,7.6053 -6.601592,34.5161 -1.378983,7.6251 -5.911551,34.6769 -1.222878,7.6355 -4.988279,33.2832 -2.190352,17.2701 -3.280671,31.5701 -1.421768,17.5987 -1.812806,31.3931 -0.615463,17.8228 -0.354915,31.2514 0.214145,17.9348 1.097931,31.1469 1.051298,17.9307 2.550965,31.0802 1.879713,17.8099 4.009452,31.051 2.68345,17.576 5.478403,31.0574 3.44775,17.2357 6.60889,29.5183 6.89373,26.3734 7.976332,26.6243 9.080554,26.7087 9.61871,25.2195 11.30316,26.593 11.26674,23.9667 13.45153,25.9984 12.95727,22.8687 15.41195,24.9369 14.72584,21.9148 17.08278,23.4611 16.60164,21.0821 18.38874,21.657 18.60366,20.3388 19.28981,19.6314 21.01764,19.9132 17.96483,15.9862 22.20246,18.5477 19.3784,15.1638 22.93794,16.7957 20.62102,14.0948 23.73798,15.1196 21.63792,12.8083 24.61868,13.5073 22.38585,11.349 25.59155,11.9421 22.83803,9.7728 26.66226,10.405 22.9867,8.1415 27.83026,8.8756 22.84299,6.5159 30.39758,7.6651 14.28961,3.315 31.91865,6.7668 14.52233,2.7885 32.00248,5.5098 14.69396,2.2386 32.10669,4.2592 14.80127,1.6728 32.23213,3.0126 14.84239,1.0983 32.37916,1.7676 14.81695,0.5229 32.54766,0.5215 14.72604,-0.046 32.73702,-0.7278 14.5722,-0.6003 33.5497,-2.0193 10.6523,-0.7895 34.0005,-2.995 10.6767,-1.0906 33.8159,-3.9313 10.6763,-1.3928 33.6393,-4.8676 10.6506,-1.6938 33.471,-5.8046 10.5997,-1.9916 33.3108,-6.743 10.5241,-2.2841 33.1585,-7.6835 10.4243,-2.5692 33.0139,-8.6267 10.3013,-2.8451 32.5795,-9.4866 11.9699,-3.6977 31.8091,-10.3964 11.9276,-4.1159 31.3208,-11.3856 11.8452,-4.5282 30.8456,-12.3776 11.7227,-4.9303 30.3832,-13.3734 11.5611,-5.3186 29.9333,-14.3744 11.362,-5.6888 29.4952,-15.3818 11.1274,-6.0377 29.0683,-16.3968 10.8599,-6.362 28.0191,-17.0355 14.3636,-9.1745 26.4063,-17.7016 14.0976,-9.9148 25.4081,-18.7334 13.7367,-10.6143 24.44,-19.7805 13.2855,-11.2593 23.5002,-20.8475 12.7511,-11.8374 22.5858,-21.938 12.1439,-12.3382 21.693,-23.0548 11.4757,-12.7539 20.8237,-24.2068 10.5955,-12.8704 20.1712,-25.6124 0.7163,-0.8886 19.4548,-23.5752 0.7404,-0.8766 19.93,-23.0525 0.7624,-0.8616 20.4165,-22.5451 0.7833,-0.8452 20.9099,-22.0468 0.803,-0.8273 21.4108,-21.557 0.8214,-0.8081 21.9199,-21.0751 0.8384,-0.7878 22.5365,-20.6914 0.8295,-0.7447 19.9772,-17.5371 1.6021,-1.348 18.9467,-15.2766 1.6765,-1.2942 19.3284,-14.2771 1.7439,-1.2315 19.7585,-13.3299 1.8027,-1.1607 20.2445,-12.4293 1.8521,-1.083 20.7923,-11.5679 1.891,-0.9997 21.4063,-10.7373 1.919,-0.9121 22.0887,-9.9286 1.9359,-0.8216 21.2531,-8.4977 2.4625,-0.9103 19.6411,-6.6804 2.5516,-0.7925 19.472,-5.4815 2.6216,-0.662 19.4295,-4.3514 2.6699,-0.5221 19.5266,-3.2696 2.695,-0.3762 19.7708,-2.2131 2.6962,-0.2282 20.163,-1.1577 2.6737,-0.082 20.6979,-0.08 2.6289,0.059 22.1265,1.0794 2.3192,0.1673 22.6279,2.1621 2.3381,0.2791 22.1603,3.1761 2.3414,0.3925 21.7907,4.1873 2.3286,0.5052 21.5203,5.2095 2.3,0.6151 21.3469,6.2569 2.2561,0.7197 21.265,7.343 2.1979,0.8172 21.0968,8.4115 2.1804,0.9298 24.5158,11.1488 1.3942,0.6602 25.0655,12.3457 1.38,0.7065 24.5641,13.0602 1.3616,0.7513 24.0885,13.7849 1.3391,0.7942 23.6379,14.5223 1.3128,0.8349 23.2109,15.2745 1.2827,0.873 22.8061,16.0439 1.2493,0.908 22.5132,16.9008 1.191,0.9225 22.887,18.285 0.8318,0.6793 23.7992,19.866 0.8192,0.6989 23.3206,20.3346 0.8054,0.7177 22.8498,20.8086 0.7904,0.7356 22.386,21.2885 0.7744,0.7525 21.9291,21.7749 0.7572,0.7682 21.4787,22.2682 0.739,0.7828 21.1139,22.8551 0.701,0.7748 21.6903,24.4862 3.0074,3.3553 24.3336,26.8308 3.0527,3.3266 24.6205,26.5155 3.0969,3.2962 24.9077,26.2007 3.1401,3.2645 25.1952,25.8863 3.1822,3.2312 25.4831,25.5725 3.223,3.1964 25.7715,25.2591 3.2626,3.1602 26.0603,24.9461 3.3008,3.1227 24.3138,22.7305 16.265,14.3686 23.0246,19.2121 17.4068,13.6948 23.7379,17.5945 18.4243,12.8407 24.4977,16.0327 19.2811,11.8246 25.3147,14.5192 19.9473,10.6745 26.1971,13.0437 20.4024,9.4257 27.15,11.5938 20.6364,8.1179 28.1748,10.1564 20.6514,6.7919 30.5034,9.0862 12.7649,3.5643 31.9942,8.3428 12.9549,3.1396 32.161,7.2071 13.1002,2.6976 32.3428,6.0765 13.1988,2.2429 32.5399,4.9491 13.2496,1.7803 32.7526,3.8235 13.2522,1.3151 32.9809,2.6978 13.2072,0.8521 33.2244,1.5707 13.1158,0.3962 34.616,0.4554 6.0006,0.032 35.7463,-0.087 6.0078,-0.061 35.7202,-0.6443 6.0105,-0.1554 35.6956,-1.2017 6.0088,-0.2493 35.6724,-1.7592 6.0027,-0.343 35.6506,-2.3166 5.9923,-0.4364 35.6302,-2.8744 5.9775,-0.5291 35.6113,-3.4322 5.9584,-0.6211 34.0969,-3.8226 15.1214,-1.9993 32.1462,-4.9001 15.214,-2.6322 31.6765,-6.1371 15.2327,-3.2724 31.2311,-7.3733 15.175,-3.9103 30.8108,-8.6118 15.0405,-4.5367 30.4151,-9.8555 14.8306,-5.142 30.0434,-11.1075 14.5487,-5.7173 29.6943,-12.3707 14.1997,-6.2543 27.4362,-12.7506 25.3358,-12.9333 23.7484,-13.251 25.2078,-15.3613 21.9339,-14.5478 24.5656,-17.7234 20.2888,-15.8878 23.4038,-19.8828 18.8067,-17.3152 21.7667,-21.7086 17.4653,-18.8687 19.7451,-23.0968 16.2291,-20.5756 17.4631,-23.9861 15.055,-22.4481 15.0573,-24.3643 14.2689,-25.1334 10.6488,-20.1203 12.9628,-26.3481 9.6124,-21.1228 11.1943,-26.7057 8.4158,-21.9312 9.4726,-27.1321 7.093,-22.5112 7.7853,-27.6367 5.6865,-22.8401 6.1174,-28.2247 4.2439,-22.9091 4.4533,-28.8965 2.8131,-22.7237 2.7781,-29.6482 1.4382,-22.3026 1.1385,-32.1754 0.2331,-11.1804 0.2143,-33.8998 -0.093,-11.2332 -0.7729,-33.8092 -0.4223,-11.2574 -1.7594,-33.728 -0.7524,-11.2529 -2.7462,-33.6561 -1.0809,-11.2193 -3.7338,-33.5937 -1.4053,-11.1571 -4.7231,-33.5403 -1.723,-11.067 -5.7151,-33.496 -2.0316,-10.9499 -6.876,-34.2865 -1.1969,-5.7411 -7.5723,-34.9851 -1.2859,-5.7296 -8.0999,-34.844 -1.3744,-5.7141 -8.6278,-34.7042 -1.462,-5.6945 -9.156,-34.5657 -1.5486,-5.671 -9.6846,-34.4285 -1.6341,-5.6435 -10.2136,-34.2926 -1.7182,-5.6121 -10.743,-34.1579 -1.8008,-5.577 -11.3975,-34.4001 -1.0872,-3.2334 -11.827,-34.6646 -1.1163,-3.225 -12.1314,-34.5515 -1.1452,-3.216 -12.4358,-34.4387 -1.1739,-3.2061 -12.7404,-34.3262 -1.2022,-3.1954 -13.0451,-34.2138 -1.2302,-3.1841 -13.3499,-34.1018 -1.2579,-3.1719 -13.6548,-33.99 -1.2853,-3.1591 -14.0257,-34.0383 -0.8989,-2.1628 -14.298,-34.1089 -0.9122,-2.1576 -14.5044,-34.0191 -0.9253,-2.1522 -14.7107,-33.9292 -0.9385,-2.1466 -14.9171,-33.8395 -0.9515,-2.1407 -15.1235,-33.75 -0.9643,-2.1345 -15.33,-33.6604 -0.9771,-2.1282 -15.5364,-33.5709 -0.9897,-2.1217 -15.575,-33.124 -2.0579,-4.3072 -15.8018,-32.5521 -2.1134,-4.2859 -16.1965,-32.3373 -2.1681,-4.2624 -16.5915,-32.1232 -2.2218,-4.2369 -16.9868,-31.9097 -2.2745,-4.2095 -17.3824,-31.6969 -2.3262,-4.18 -17.7785,-31.4847 -2.3767,-4.1487 -18.1749,-31.2731 -2.4261,-4.1156 -17.9273,-29.9845 -6.5902,-10.6267 -18.1157,-28.1797 -6.9866,-10.4865 -18.9422,-27.4471 -7.3678,-10.3088 -19.7741,-26.7264 -7.73,-10.0947 -20.6129,-26.0173 -8.0693,-9.846 -21.4596,-25.319 -8.3823,-9.5649 -22.3155,-24.6309 -8.666,-9.2543 -23.1811,-23.9518 -8.918,-8.9174 -22.9776,-22.2355 -16.0655,-14.6903 -22.692,-19.6008 -17.2175,-14.0257 -23.4439,-17.9983 -18.2458,-13.1782 -24.242,-16.4527 -19.1137,-12.1664 -25.0972,-14.9561 -19.7911,-11.0182 -26.018,-13.4981 -20.2574,-9.7694 -27.0092,-12.0664 -20.5026,-8.4598 -28.0722,-10.6477 -20.5288,-7.1304 -32.3351,-10.2181 -0.9045,-0.2846 -35.5923,-11.151 -0.9046,-0.2822 -35.6313,-11.067 -0.9047,-0.2798 -35.6702,-10.983 -0.9048,-0.2774 -35.7091,-10.8989 -0.9049,-0.275 -35.7481,-10.8149 -0.9049,-0.2725 -35.787,-10.7309 -0.905,-0.2701 -35.8372,-10.6502 -0.5602,-0.166 -33.2479,-9.8258 -1.3106,-0.4069 -27.6463,-9.0024 -1.3045,-0.4448 -27.2934,-9.7274 -1.2954,-0.4819 -26.96,-10.457 -1.283,-0.5182 -26.6454,-11.1928 -1.2678,-0.5533 -26.3489,-11.9362 -1.2497,-0.587 -26.0698,-12.6887 -1.2289,-0.6192 -25.8834,-13.4912 -1.1872,-0.6393 -26.3128,-14.6305 -0.8638,-0.4917 -27.2271,-15.8555 -0.8557,-0.5099 -26.8673,-16.3713 -0.8466,-0.5275 -26.514,-16.8904 -0.8363,-0.5446 -26.1672,-17.4133 -0.825,-0.561 -25.8265,-17.9402 -0.8128,-0.5768 -25.4916,-18.4716 -0.7998,-0.5918 -25.2086,-19.0429 -0.7747,-0.5971 -25.4677,-20.033 -0.4992,-0.3979 -26.2746,-21.2162 -0.4946,-0.4046 -25.9856,-21.5374 -0.4898,-0.4112 -25.6982,-21.8595 -0.4846,-0.4177 -25.4123,-22.1829 -0.4793,-0.4239 -25.1278,-22.5076 -0.4737,-0.4298 -24.8448,-22.8337 -0.4679,-0.4356 -24.5849,-23.1814 -0.4566,-0.4361 -24.7429,-23.9279 -0.2504,-0.2438 -25.3976,-24.90704 -0.2487,-0.24566 -25.2216,-25.08278 -0.2471,-0.2474 -25.0458,-25.2588 -0.2453,-0.24911 -24.8704,-25.43504 -0.2435,-0.25077 -24.695,-25.61152 -0.2417,-0.25241 -24.52,-25.78823 -0.2398,-0.25399 -24.3534,-25.97411 -0.2359,-0.25335 -24.559,-26.55944 -0.056,-0.0612 -25.2437,-27.39137 -0.056,-0.0614 -25.1967,-27.43214 -0.056,-0.0615 -25.1499,-27.4729 -0.056,-0.0616 -25.103,-27.51367 -0.056,-0.0617 -25.0561,-27.55445 -0.056,-0.0617 -25.0092,-27.59523 -0.056,-0.0619 -24.9624,-27.63607 -0.056,-0.0619 -24.9223,-27.68438 -0.052,-0.0584 -24.8912,-27.73738 -0.052,-0.0585 -24.8469,-27.77574 -0.052,-0.0586 -24.8026,-27.81411 -0.052,-0.0587 -24.7584,-27.85247 -0.052,-0.0588 -24.7141,-27.89085 -0.052,-0.0589 -24.6698,-27.92922 -0.052,-0.0589 -24.626,-27.9681 -0.052,-0.0589 -18.9257,-21.56236 -19.8751,-20.94721 -21.438,-19.34464 -20.5512,-17.147 -36.9392,-27.25582 -29.9875,-19.47702 -30.6181,-17.93659 -40.0703,-21.05605 -25.0701,-12.03907 -49.8243,-21.74815 -20.5637,-8.27962 -59.2399,-21.89188 -16.9996,-5.83486 -68.3715,-21.69736 -14.1956,-4.20621 -77.2805,-21.291031 -11.9802,-3.094343 -81.4322,-19.642678 -38.8164,-7.279334 -79.7232,-10.75258 -38.2077,-3.22646 -82.7351,-2.849333 -36.5258,0.476111 -86.0532,5.212047 -34.0483,3.587351 -89.5783,13.488307 -31.0933,5.998928 -93.2106,21.994755 -27.9502,7.71728 -96.8662,30.71555 -24.8406,8.82354 -100.4854,39.61741 -21.9105,9.43281 -99.52514,46.5533 -45.57,25.20398 -82.63883,53.30696 -22.83656,15.97148 -21.57855,17.63414 -69.94144,61.66113 -21.38678,20.41953 -19.69964,22.05166 -57.67111,69.95852 -18.06482,23.79753 -16.09936,25.16884 -46.30542,79.2212 -13.51956,25.32164 -11.52946,26.28756 -34.96439,88.88284 -16.30414,51.97394 -23.66056,99.62796 -8.19534,47.64613 -12.08642,111.99284 -2.22213,41.8752 0.88289,599.0734 -0.1401,3.8149 z"
     id="path4" />
</svg>
