<?xml version='1.0' encoding='utf-8'?>
<svg id="Amoeba" version="1.1" baseProfile="full" width="5156.69276mm" height="3934.12534mm" viewBox="0.00000,0.00000,5156.69276,3934.12534" xmlns="http://www.w3.org/2000/svg" xmlns:ev="http://www.w3.org/2001/xml-events" xmlns:xlink="http://www.w3.org/1999/xlink" xmlns:sodipodi="http://sodipodi.sourceforge.net/DTD/sodipodi-0.dtd" xmlns:inkscape="http://www.inkscape.org/namespaces/inkscape"><sodipodi:namedview id="trackview" pagecolor="#ffffff" bordercolor="#000000" borderopacity="0.25" inkscape:pageopacity="0" inkscape:pagecheckerboard="true" /><path d="M 416.99542787412094,3006.1139092063577 L 429.8789851400894,3064.9043597809555 L 471.3382894571819,3209.557609316624 L 483.8602016810525,3247.226797397251 L 499.48366541012297,3283.7188978780723 L 554.8033392251292,3399.3240589368825 L 579.3616298874484,3444.25194467217 L 608.6131289222333,3486.2754423980373 L 676.7104463852912,3573.6547651673923 L 703.3776501530273,3604.975271336187 L 732.6546887059973,3633.871099357328 L 764.321993810111,3660.1255399513 L 844.9783623104681,3721.301442762148 L 881.1128326787262,3746.1666750394133 L 919.3869330826955,3767.5926630741283 L 959.4742874861671,3785.396700310872 L 1054.388358300637,3822.40425306275 L 1092.6595481039226,3835.478466162599 L 1131.904183358594,3845.2497312223104 L 1171.8377686774245,3851.647213596109 L 1283.6036932625916,3864.701003533962 L 1333.2796410873314,3867.877019330176 L 1383.015192932678,3865.83698225627 L 1513.0889808099196,3853.6505476530956 L 1551.1550604135728,3848.5244372761613 L 1588.6825168297235,3840.339485295724 L 1725.3353381115378,3804.6905423938124 L 1846.9397039763658,3781.174338413387 L 1959.992637539243,3767.566160237102 L 2064.69849697642,3763.1863673278776 L 2161.3851696480006,3767.3339204254103 L 2252.618633886103,3779.6121042091136 L 2335.1208214955122,3799.081630997818 L 2412.64298202533,3825.8091841138375 L 2500.9034098642287,3866.741263376563 L 2548.8625765902184,3885.888795298011 L 2598.6168927149292,3899.716943355377 L 2704.5451054394953,3923.037993974634 L 2757.191334763714,3931.56283649293 L 2810.461368048786,3934.132263632837 L 2920.137805327978,3933.2579279985657 L 2970.0261911908465,3930.2306464965773 L 3019.3203129367007,3921.978068802327 L 3134.139860817697,3896.481556195556 L 3175.8448386050345,3885.2081838645677 L 3216.3530572517775,3870.1922483951053 L 3336.966367697989,3819.1299667808566 L 3369.101099701304,3804.086484219871 L 3400.0232415296387,3786.6862395883745 L 3526.365164313938,3709.24135751868 L 3573.016528929937,3676.6462940935007 L 3704.7079305744414,3572.3580360758906 L 3738.9554382121964,3542.4619931660072 L 3875.5933844774254,3411.147398240627 L 3900.936035885528,3384.844387414066 L 4043.1577361195036,3225.393512361721 L 4044.6808737267825,3223.677531896332 L 4172.528066112756,3078.941130518406 L 4174.4367307251705,3076.7670143286828 L 4286.679737497498,2948.125514324997 L 4289.140977242287,2945.2820478792164 L 4385.756162840187,2832.7656162769717 L 4389.049296705499,2828.8886781491246 L 4469.995025837965,2732.5522309156036 L 4474.624158992601,2726.956633915061 L 4539.8194526736615,2646.9118962073044 L 4546.792924052735,2638.140797876681 L 4596.05573835586,2574.655961472721 L 4607.704842243105,2558.9893621632123 L 4640.516467112237,2512.913663617296 L 4663.482785227704,2477.4199763556558 L 4681.346854270008,2446.915898318053 L 4684.269231952965,2441.8545967938703 L 4702.697399591669,2409.4803104813946 L 4705.559497928956,2404.379430661158 L 4723.581657898401,2371.7914850029756 L 4726.382058072662,2366.6532768620514 L 4743.998355425778,2333.851432121624 L 4746.73572083888,2328.6781998553342 L 4763.9462918027775,2295.6622108577744 L 4766.61937125464,2290.4563077227936 L 4783.424342912662,2257.225924408328 L 4786.031973459208,2251.9897473731335 L 4802.431463467713,2218.544715368914 L 4804.97257294237,2213.2806996022873 L 4820.96668928359,2179.6207608098084 L 4823.440298469894,2174.3313740364597 L 4839.0873018925895,2140.329877718061 L 4840.41031123941,2137.429339739058 L 4855.883246298882,2103.2030651897726 L 4857.1871928722585,2100.2927350948253 L 4872.42771602722,2065.9684696077347 L 4873.712406644675,2063.0487329312787 L 4888.720537827544,2028.6264357057173 L 4889.985786979999,2025.69768208419 L 4904.761545308268,1991.1773119014902 L 4906.007175293275,1988.2399348137615 L 4920.550579056236,1953.6214500641486 L 4921.776420102595,1950.6758465672394 L 4936.087486748238,1915.95920527891 L 4937.293377131623,1913.005775739757 L 4951.3721232553335,1878.190935606406 L 4952.557909404904,1875.2300834297923 L 4966.363358369708,1840.4203619656157 L 4968.290153082854,1835.4818109799553 L 4981.66000074255,1800.6407454397336 L 4983.533060753557,1795.676955912726 L 4996.508260791887,1760.7013186364447 L 4998.326772063641,1755.714101246081 L 5010.907407030186,1720.603700060099 L 5012.670615459887,1715.5948948827163 L 5024.856761511685,1680.3495346959553 L 5026.5639744768805,1675.3210078194768 L 5038.355701225593,1639.9404909846446 L 5040.006288940753,1634.894131034958 L 5051.403659320079,1599.3782577181757 L 5052.997055997295,1594.3159723144079 L 5064.0001261513635,1558.6645408713323 L 5065.535830960442,1553.588253024747 L 5076.078354670547,1518.0246978269058 L 5078.748090978668,1508.668126884653 L 5088.481704996378,1473.1813531350201 L 5090.965960408312,1463.7453870007907 L 5099.956865531572,1428.112610530944 L 5102.251122476575,1418.6087378309207 L 5110.499757891817,1382.8287314688387 L 5112.600196206951,1373.2687682644269 L 5120.106926027635,1337.3402741692453 L 5122.010452790193,1327.736291080832 L 5128.775563308887,1291.658028587247 L 5130.479835129173,1282.0222748052856 L 5136.503532884485,1245.7929485376485 L 5138.006970290689,1236.1377738329447 L 5143.28938097928,1199.7560819695282 L 5144.591174689137,1190.0938578586354 L 5149.06250952444,1154.1203357263728 L 5151.149285683925,1133.7547821886078 L 5153.996881823589,1098.4830013019723 L 5155.214351642637,1077.7729481328358 L 5156.510281101123,1042.64923312632 L 5156.8208929884,1021.7070332376231 L 5156.568351125215,986.719144344482 L 5155.949332983559,965.6644784697432 L 5154.149885254941,930.7995745312946 L 5152.594489930276,909.756158563604 L 5149.247979102201,875.00116093833 L 5146.765981939537,854.0931621418475 L 5141.870517656066,819.4351369208215 L 5138.487912776934,798.7835369705921 L 5132.039945189543,764.210069775036 L 5127.797862185248,743.9292204698246 L 5119.983020525003,710.250539866107 L 5110.389273162609,675.0910050675254 L 5100.551574307449,643.8155117478088 L 5087.711771983237,608.0593747933192 L 5075.703469884351,578.4046054822118 L 5059.536619483623,542.7737430054508 L 5045.356351919382,514.6598654246586 L 5025.977364921969,479.9352074683368 L 5009.602242324419,453.28018311160463 L 4987.332288088884,420.22437314351475 L 4968.718569916765,394.95244430088553 L 4944.061022983805,364.2293702768038 L 4923.148349565554,340.2788629153097 L 4896.733873279297,312.3888921201034 L 4873.452136077666,289.71753458893465 L 4845.966241911763,264.9626034336686 L 4820.015978535781,243.36006201569057 L 4796.677496646371,225.1327772613172 L 4769.510605871803,205.24710500951278 L 4744.559983609388,188.1759569859102 L 4716.487421955201,170.25302484794946 L 4690.1616499217325,154.61622080830483 L 4661.155196821816,138.62878850207443 L 4633.75166097127,124.66189355453173 L 4603.7775207225795,110.58814816108418 L 4575.637910424624,98.46742918562813 L 4544.658684803131,86.29245917118169 L 4516.148010682627,76.12393212438832 L 4484.12503952023,65.84050449417231 L 4455.608699290314,57.65623654795502 L 4422.504436707994,49.26478767958963 L 4394.3265659177905,43.02658137768407 L 4359.164552871744,36.355747684835876 L 4349.642186570281,34.64946204069105 L 4313.402816213727,28.536039938980082 L 4303.827713224112,27.0210838612511 L 4267.503976765488,21.65335483988565 L 4257.887899842302,20.332590949148255 L 4221.478548031409,15.710291287087841 L 4211.833458082815,14.585863530365998 L 4175.337224693108,10.70880611451031 L 4165.67520663398,9.78212332545479 L 4129.090816353116,6.650198981707831 L 4119.424003511217,5.921926068214134 L 4082.750179926298,3.535104081146301 L 4073.090678102175,3.0051609687212135 L 4036.3261516632137,1.3634887846165498 L 4026.6859639483537,1.0310570858345045 L 3990.0665523924918,0.14042512601270118 L 3975.9525232641067,0.006924597441695823 L 3939.7055283061027,0.2026477553643531 L 3925.4994783850884,0.49188095261933995 L 3889.3920526273732,1.7675248664409082 L 3875.1315080081317,2.4860813359885583 L 3839.159644346817,4.841128998414035 L 3824.8831297816105,5.992203575091651 L 3789.0427426020783,9.426502127933588 L 3774.7892719694123,11.009783056070091 L 3739.076251924533,15.523551521068157 L 3724.8847996935683,17.53518639281606 L 3689.2950696173903,23.129015052701334 L 3675.204039844592,25.561656834139 L 3639.7336100388725,32.23649820943791 L 3625.7803196887544,35.079430101800654 L 3591.1471886904023,42.67820292170859 L 3563.8074637595946,49.53289940449787 L 3530.905485660587,58.82796740519399 L 3503.397063086222,67.50947031491393 L 3471.5191641305078,78.64510212505007 L 3444.1598783345844,89.16018579156452 L 3413.2718748491675,102.13888769565409 L 3386.390050131101,114.43188114122779 L 3356.4576340347094,129.2628305999575 L 3330.3734135027025,143.21504478967586 L 3301.3641413921264,159.91383855059826 L 3276.370809100591,175.34897870624894 L 3248.2559592840835,193.93676678923924 L 3224.6037298458195,210.63180116420318 L 3197.35978487313,231.13391640242781 L 3175.2441014605824,248.83388499307785 L 3148.090890007337,271.92690008884483 L 3141.655039668104,277.50056703024603 L 3114.1420645302633,301.76264103770865 L 3107.807129641635,307.45077873079333 L 3080.728798974434,332.20631081241515 L 3074.500783909362,338.0033320463412 L 3047.856482280323,363.2529265557941 L 3041.741071515664,369.1529407673538 L 3015.530218553871,394.8972324537581 L 3009.5327509127937,400.89407545437615 L 2983.75480386849,427.13372622513015 L 2977.88024968117,433.2209919180667 L 2952.5347056662667,459.95668741130646 L 2946.7876470707474,466.12776112387434 L 2921.8740449589536,493.36020713182694 L 2916.2586595130288,499.60830016691904 L 2895.037587353978,523.64460161273 L 2875.956995201096,544.2964913997503 L 2856.515157256564,564.3914872838861 L 2836.6484501890463,584.0000354226648 L 2816.3462530158827,603.1336253354134 L 2795.597154817526,621.8030031027738 L 2774.3890454393754,640.0180854834293 L 2752.709215266536,657.7878851983918 L 2732.6909740456617,673.441902881075 L 2714.13271212092,686.9542451523985 L 2695.3883208042002,699.6222509223637 L 2676.3391140692534,711.5410416589585 L 2656.9406035674942,722.7444923827162 L 2637.1446487967196,733.261762339305 L 2616.9003383464687,743.1167285331398 L 2596.1549562086648,752.3275830667031 L 2578.4955362408577,759.4403007162515 L 2564.0998980042364,764.3990258462971 L 2550.261503138015,768.3598504077873 L 2536.6258903720823,771.4822855969995 L 2523.0072014084244,773.8348667048854 L 2509.2083029428973,775.4556846808413 L 2495.029220557498,776.3504841212659 L 2480.2757444290346,776.4930706392977 L 2465.537584362051,775.8609653870445 L 2451.900767887111,774.526626577428 L 2439.0143357428037,772.535326074782 L 2426.6381679704655,769.9000295375538 L 2414.542959121932,766.5962363721669 L 2402.5047037817467,762.5602845856831 L 2390.3153401776144,757.6923521826682 L 2377.7920206770473,751.8622403942079 L 2362.3850795950125,743.6363788631468 L 2345.404386780786,733.6340101946433 L 2328.9403372563006,722.9913660915419 L 2313.074083781318,711.7680515748515 L 2297.725970252291,699.9154884637107 L 2282.8227545809305,687.3752477743104 L 2268.2995069674944,674.0805891312033 L 2254.1004506039785,659.957665028887 L 2233.7596495312737,637.9953104300091 L 2232.127003100067,636.2414052473721 L 2206.549452588058,608.9027697332433 L 2204.559044040034,606.7883086734453 L 2178.8381318352867,579.6311460059671 L 2176.8313529824472,577.5252622935654 L 2150.96706345676,550.5495418403684 L 2148.944065916643,548.4525257817161 L 2122.9363827804946,521.6582170636709 L 2120.897324436469,519.570357420633 L 2094.7462307427736,492.9574301305986 L 2092.6912757019813,490.879013939047 L 2066.396753851218,464.44743796134924 L 2064.3260723962176,462.3787503497667 L 2037.8881041413306,436.12849577875085 L 2035.8018726755126,434.0698197872552 L 2009.9638585281195,408.7299437610954 L 1993.3726858325258,393.21918911617826 L 1967.3424150782664,370.025070229778 L 1949.8132190061679,355.1509244715887 L 1922.8519284621639,333.3732631624887 L 1904.4838553789912,319.26261994177713 L 1876.5800244048423,298.888717053809 L 1857.4923773909566,285.6550462055428 L 1828.6325485819816,266.67385914979 L 1808.9610243599875,254.41279031416389 L 1779.1302560709444,236.8153489621659 L 1759.0221635166397,225.6012472039908 L 1728.2045702523105,209.38094901646826 L 1707.8134184228743,199.26476469973147 L 1675.9927542329106,184.41752688814574 L 1655.4726634554027,175.42605504395425 L 1622.2598581287575,161.7972410098917 L 1608.9511216693088,156.56866236839943 L 1575.0599003742564,143.83933461359476 L 1561.5257559840147,138.98842060954553 L 1527.3524667355196,127.32054743216327 L 1513.6276430699245,122.86604098697512 L 1479.1685229903649,112.25780867471599 L 1465.2897122739073,108.21536779596653 L 1430.540816799001,98.66530194445585 L 1416.5461905834177,95.0472397013994 L 1381.5034465949695,86.55422872841729 L 1367.432133063037,83.369328029396 L 1332.0913952116473,75.93263843782006 L 1317.9829346264205,73.18604802764219 L 1282.3400430359854,66.80533093054044 L 1268.2338389075803,64.49854538557634 L 1232.424958507844,59.194612477818964 L 1215.683618538501,57.01820466631045 L 1180.02814694833,53.0258711194557 L 1163.0821162113875,51.43527945178545 L 1127.4481154433918,48.73367087542471 L 1110.3601685313556,47.74741529774434 L 1074.7408769860517,46.33493119400788 L 1057.5765129547233,45.96478734659871 L 1021.964946205951,45.840559731232986 L 1004.7911575640771,46.09118070653068 L 969.1802419687875,47.25510223382463 L 952.0642164810025,48.12386607138086 L 916.4469268287253,50.576593725458395 L 899.454740272674,52.0536862784665 L 863.8242352734336,55.7966203929181 L 847.0195940306576,57.86534840506931 L 811.9688524337715,62.815913717597255 L 784.1170572853009,67.59867216594267 L 750.5649509870991,74.39353238243513 L 722.3589882044362,81.00713537853665 L 689.7284412983846,89.71605205281332 L 661.4880346801906,98.20057313740756 L 629.7442375956454,108.82253470948729 L 601.8077401837252,119.15532210869713 L 570.9149112869757,131.69614833119402 L 543.6202837927865,143.7887860763301 L 513.5437445067873,158.26112710015627 L 487.20861042560387,171.96262469198774 L 457.9168166503076,188.3853004984424 L 432.8202560736895,203.49134299401567 L 404.2865149286115,221.8881010048308 L 380.6549785150526,238.1550713066904 L 353.2321211324028,258.27887150743027 L 324.51304864983615,281.1114263553738 L 299.73440152615524,302.4237680138246 L 271.83042503520846,328.4454578605882 L 249.3600231193384,351.1545141610749 L 222.96624208440272,380.1274474187977 L 202.73188976035652,404.2687663169587 L 178.5091269896223,435.75459967437723 L 160.4462474237559,461.3838021509066 L 138.94707089374833,494.7699994420674 L 123.00596000126461,521.9583185642715 L 104.61414819738695,556.5157298913514 L 90.76496185981205,585.3427929775689 L 75.66312162944422,620.3024979277357 L 63.897473484043246,650.8479921465155 L 52.06870754733421,685.4793766200238 L 42.249108113891964,718.3127747766667 L 35.73216193086091,742.3886951973491 L 27.586049772673846,775.9541088312585 L 22.273890386485675,800.7018820661259 L 15.973785340348968,834.4050018205006 L 11.957165925870072,859.6299472675599 L 7.495098184340236,893.4922690946486 L 4.833652283895958,918.9819607739626 L 2.2051442579335117,953.0264008781485 L 0.923810987816239,978.559395135765 L 0.12812904184067975,1012.8093218267959 L 0.21600379496447886,1038.164674750506 L 1.2561443316370173,1072.6429060871315 L 2.6678759195948487,1097.6095414851634 L 5.550291579281918,1132.3374071495764 L 8.209799440434551,1156.722431645453 L 13.038985371980289,1192.4218556536894 L 14.556861939624525,1202.7817813037084 L 20.278201639737574,1239.040677959547 L 22.02867445190799,1249.3901859215089 L 28.54273919382041,1285.4746202024025 L 30.524620145406857,1295.7983907124299 L 37.83158890992212,1331.7099739009413 L 40.04266502419722,1341.9927314187205 L 48.14282424267617,1377.7330642026366 L 50.57986875257865,1387.959689979632 L 59.47361048496822,1423.5303506711634 L 62.132406335081384,1433.6859936965395 L 71.82022515814691,1469.0885267226388 L 74.69560052908275,1479.158711152477 L 85.17808919194329,1514.3946160115017 L 88.2639532764756,1524.3653087982775 L 99.68986033317452,1559.8964709834222 L 111.24561994921807,1595.8731250955962 L 122.78760172343304,1631.848623440845 L 134.3158057850025,1667.8229662891188 L 145.83023218180548,1703.7961536572902 L 157.33088096268423,1739.768185565292 L 168.81775217618505,1775.7390620321871 L 180.2908513239099,1811.7088001731697 L 191.29954043117058,1846.2629258810514 L 201.73999044716234,1879.7873619021723 L 211.9575004208805,1913.368852968502 L 221.9541604511816,1947.0140899594437 L 231.73007609696054,1980.7234150199665 L 241.2853461837305,2014.4971723325752 L 250.6200627406059,2048.335707896074 L 259.7329697536851,2082.234380269785 L 297.0227747654925,2224.671431544205 L 416.99542787412094,3006.1139092063577 z M 953.3317309501916,1002.6153039888935 L 958.8252353839652,1001.5027778662586 L 971.4950294175254,999.7132966740836 L 990.2219444739827,997.7460607557393 L 1008.7797036857725,996.4681103653294 L 1027.2401405973267,995.8647420001686 L 1045.6770199187408,995.9290573269567 L 1064.1646149019048,996.6621834756569 L 1082.7762620216051,998.07323428093 L 1101.582958072442,1000.1790149704204 L 1121.9700519218802,1003.1987066433935 L 1143.5021868352735,1007.0533451210376 L 1164.7496310501965,1011.5244076072017 L 1185.7560632655152,1016.6155574146118 L 1206.5650096504994,1022.3344962632052 L 1227.219237945499,1028.692895766092 L 1247.7601660759485,1035.706237169345 L 1268.2273042568618,1043.3935644521114 L 1284.4589983308679,1050.0542104835667 L 1295.8088624825104,1055.3499557635091 L 1306.3621339277754,1060.9044845752771 L 1316.2893951452147,1066.7606661984644 L 1325.7574438347683,1072.9878272956053 L 1334.9231672713465,1079.68015421544 L 1343.9278682042025,1086.9535941416711 L 1352.892513357427,1094.94148821397 L 1369.5741161514177,1111.3014818383256 L 1393.9336168359475,1135.4880262817906 L 1418.165310040034,1159.8460215945474 L 1442.2693873562464,1184.375781784439 L 1466.2460335808978,1209.0776230673991 L 1490.0954266576018,1233.951863667615 L 1513.8177376271165,1258.9988236167533 L 1537.4131305842923,1284.2188245533557 L 1561.966980499237,1310.7864093515075 L 1568.6449464564153,1317.8651793350318 L 1570.065951697226,1319.3408894441818 L 1576.8875355277482,1326.2813654975816 L 1603.4752499688689,1352.7838667170927 L 1610.5151224627953,1359.6573005504138 L 1612.0120277029264,1361.0888353714863 L 1619.1927549902466,1367.8149823383508 L 1646.7270778033999,1393.075974686545 L 1654.1017802312513,1399.7013978410928 L 1655.6687350405148,1401.0798708773764 L 1663.1801033006657,1407.5499415675233 L 1691.6610344858516,1431.5694250444005 L 1699.33759978238,1437.9070275393299 L 1700.9675214166707,1439.2241794602057 L 1708.775211645905,1445.3995202135975 L 1738.2027512031236,1468.1774948191578 L 1746.1430156818515,1474.191476762609 L 1747.8277408319827,1475.4399129779595 L 1755.8923652795004,1481.2860750803384 L 1786.2665132087516,1502.8225408145818 L 1794.4280524740489,1508.4821082195672 L 1796.1585392784332,1509.6555036146192 L 1804.436624654786,1515.143192462627 L 1835.75738095607,1535.4381493255535 L 1844.094635263743,1540.7182967022864 L 1845.861204101116,1541.8115545219403 L 1854.306353748489,1546.9173564319208 L 1886.5737184218056,1565.9708044235304 L 1895.039238561839,1570.8528382359493 L 1896.8318368257385,1571.8621939155876 L 1905.3960001927526,1576.5690390597324 L 1938.6099732381017,1594.380978180025 L 1950.1223837176183,1600.353916814469 L 1952.5627629228081,1601.5780577980072 L 1964.2339548925943,1607.2344585071783 L 1997.9910873706526,1623.0293093930463 L 2010.0457834478661,1628.46642605677 L 2012.5990546849666,1629.5755368348925 L 2024.8004353602082,1634.6749725633322 L 2059.1007272709758,1648.4527352147757 L 2071.606439489971,1653.272279721438 L 2074.2530097959147,1654.2495800589675 L 2086.889715483387,1658.7143887588322 L 2121.733166826864,1670.4750631758511 L 2134.5818419782986,1674.6094638780926 L 2137.298645462203,1675.441260154507 L 2150.2596034078547,1679.2089240782052 L 2185.6462141840407,1688.9525102607995 L 2198.7174038235817,1692.3524566479182 L 2201.4788521918554,1693.0289714038472 L 2214.6414220509146,1696.0559151980544 L 2250.57119225981,1703.7824131462241 L 2263.737596765275,1706.4196373966654 L 2266.5167644592448,1706.9355559938824 L 2279.7524530464907,1709.199558417001 L 2316.225382688095,1714.9089681307462 L 2329.3589696962244,1716.7773770942622 L 2332.128888433478,1717.1320433657852 L 2345.3095294292602,1718.6329639817377 L 2382.325618503574,1722.3252854610582 L 2395.303642570382,1723.4403427204425 L 2398.038562934885,1723.637588480889 L 2411.0422823308527,1724.3963659457472 L 2448.6015308378755,1726.0715991906432 L 2461.0535977598383,1726.4634527012986 L 2463.6757164489336,1726.511558945996 L 2476.133777073374,1726.5767147599672 L 2513.3762771848346,1726.2830762027716 L 2526.0344262450853,1726.0145300178767 L 2528.6980729906154,1725.9224914316753 L 2541.344568012899,1725.3166710476555 L 2578.2703197287974,1723.0541606883683 L 2591.0300946975153,1722.0996821618726 L 2593.713169567789,1721.8625980550412 L 2606.4426058666704,1720.5647775666412 L 2643.0516091870068,1716.3333954052623 L 2655.8023974876937,1714.6844596390506 L 2658.481584602723,1714.301052767848 L 2671.183073894817,1712.3076232576354 L 2707.475328819591,1706.107369294165 L 2720.104999318616,1703.7735337744875 L 2722.7567493745983,1703.2463464528514 L 2735.318704407403,1700.5719024169855 L 2771.294210936615,1692.4027766514234 L 2783.6939832343273,1689.4114771469735 L 2786.295536256665,1688.7467961516809 L 2798.610517671161,1685.4236262008492 L 2834.2692758048106,1675.2856286331955 L 2846.3383364445945,1671.6806960732492 L 2848.868682914357,1670.8882103762771 L 2860.8379137373204,1666.9645288149886 L 2896.179923475408,1654.8576594452434 L 2907.829341115197,1650.6967334816159 L 2910.2700287889743,1649.7889654967967 L 2921.8071440500657,1645.3260956046413 L 2956.832405392591,1631.2503544328044 L 2964.5053038043384,1628.0886869878584 L 2966.114713292284,1627.409013187046 L 2973.7312050160185,1624.113779524273 L 3008.107971548678,1608.8829822930757 L 3015.7159152987883,1605.4318934445596 L 3017.311074979643,1604.6913203995273 L 3024.8571481976496,1601.1069653202358 L 3058.585419920443,1584.721112029678 L 3066.098541533179,1580.9887292924823 L 3067.6731894411278,1580.1890587609469 L 3075.1192229539092,1576.3245714485595 L 3108.198999866837,1558.7836620986411 L 3115.5880992630123,1554.7813745377796 L 3117.136124452546,1553.9250938086127 L 3124.4532643569414,1549.792714442388 L 3156.884546460003,1531.096749033109 L 3164.1216506504907,1526.8390445301886 L 3165.637210279715,1525.929289771397 L 3172.7979225668596,1521.544324065795 L 3204.5807098600553,1501.6933025971557 L 3211.63959978755,1497.197507195243 L 3213.1172288552975,1496.2380063185697 L 3220.0958150714005,1491.6185433920873 L 3251.2301075547302,1470.6124658640874 L 3258.0867891052535,1465.8983960400974 L 3259.5214980677497,1464.8933934926554 L 3266.2945516609425,1460.059939115948 L 3296.7803493344063,1437.8988055285877 L 3303.4134489878925,1432.988349435409 L 3304.8008052351233,1431.9425164011368 L 3311.3475899303276,1426.9175586687297 L 3341.1848927939254,1403.6013690220088 L 3345.4590119811046,1400.2217196539573 L 3346.3547160700036,1399.5050769969716 L 3350.58978572736,1396.0766211236594 L 3379.8306835840126,1372.126033165562 L 3384.0392861380556,1368.6382048192372 L 3384.921053644394,1367.8988516609243 L 3389.0892424005665,1364.3628250032752 L 3417.733735250274,1339.7778387338012 L 3421.8695352291056,1336.1865472592006 L 3422.7358418558365,1335.4254909372437 L 3426.8299548309465,1331.7867473532524 L 3454.878042673709,1306.5673627724018 L 3458.934054766816,1302.8778498861723 L 3459.78344063229,1302.0962079152207 L 3463.7965942611845,1298.3601220774099 L 3491.248277097002,1272.5063391851827 L 3495.2178750331964,1268.7243348261316 L 3496.0489568594935,1267.9233268093728 L 3499.9746362731235,1264.095755009219 L 3526.8299141019957,1237.6075738056152 L 3530.706884609491,1233.7392517899007 L 3531.5183669548337,1232.9201899322156 L 3535.3504787280885,1229.0074242999217 L 3561.6093515500156,1201.8848447849414 L 3565.387942848015,1197.9367725576906 L 3566.1786281712516,1197.1010509518844 L 3569.911547444003,1193.1097679239783 L 3595.574015258985,1165.3527900976214 L 3599.2489791979815,1161.3318735347175 L 3600.0177765734766,1160.4809564240823 L 3603.646387701686,1156.418160435945 L 3625.6397456535333,1131.5071202408926 L 3644.8718893261034,1110.4849367834256 L 3664.4063411560273,1089.879060048442 L 3684.2479429695272,1069.6820792173544 L 3704.40197509186,1049.886795089409 L 3724.8741363949275,1030.4862576374835 L 3745.670520773673,1011.4738019954759 L 3766.797590269103,992.8430824498488 L 3779.9140592512817,981.6879077947193 L 3784.264552227195,978.4139946949583 L 3788.0408681028716,975.9173297762541 L 3791.489940105993,973.931918290328 L 3794.9133459997656,972.2356850285773 L 3798.6517415179687,970.664864141651 L 3803.0653615139395,969.1230922923437 L 3808.5131345542477,967.5840534932281 L 3822.4193350772794,964.5329271435016 L 3843.8646056821076,960.4973465113632 L 3865.3099617312832,957.1266649402315 L 3886.7972950560547,954.410880964629 L 3908.3694158992366,952.3437966158365 L 3930.0694724055584,950.9231121655985 L 3951.9403635283547,950.1504326248896 L 3974.024163858945,950.0311865702955 L 3998.7657710713343,950.6329348012057 L 4025.8794421217985,951.8436605709612 L 4052.8890907706405,953.6015144557289 L 4079.8080472926363,955.9059982695154 L 4106.649714023193,958.7574345243313 L 4133.427481741836,962.1569695481761 L 4160.154645827467,966.1065680286258 L 4186.844323406871,970.6089990365629 L 4203.070106791855,973.6873069353644 L 4204.271475103598,973.9918363214214 L 4204.630802388326,976.5357368333192 L 4205.956605942023,990.3047941373479 L 4206.669132910098,1004.1102433873651 L 4206.770034249802,1018.0894103190939 L 4206.242872670626,1032.3771270988407 L 4205.054096897745,1047.1019112774413 L 4202.446950779325,1068.0773541927274 L 4198.56708000438,1094.799294481994 L 4194.147266831824,1121.382111212688 L 4189.18619144671,1147.8394735129784 L 4183.681685193691,1174.1849828269726 L 4177.630742000795,1200.4320861403696 L 4171.029538676709,1226.5939907822765 L 4163.873463763777,1252.6835820593317 L 4155.467408883859,1281.04009373893 L 4146.028918876061,1311.6220744704403 L 4136.253579036989,1342.0834633520997 L 4126.140799853351,1372.426377649423 L 4115.689920521232,1402.6529156182967 L 4104.900210118241,1432.7651525552208 L 4093.7708689954748,1462.7651369164653 L 4082.3010303820074,1492.654886526123 L 4070.060680599229,1523.518291812607 L 4057.1777841829353,1555.3759569233105 L 4044.0825958216346,1587.143047958469 L 4030.774941264255,1618.8200091332026 L 4017.2546373058367,1650.407281153907 L 4003.521491910084,1681.9053009202876 L 3989.5753043424447,1713.3145012303553 L 3975.41586531243,1744.6353104913273 L 3961.655782004329,1774.5364621241451 L 3948.169086191579,1802.9194840982937 L 3934.3440400124955,1831.1142091586137 L 3920.17950965361,1859.1233473394848 L 3905.6742597230523,1886.949569555979 L 3890.826955845731,1914.5955014357396 L 3875.636167637177,1942.0637173146679 L 3860.1003720415406,1969.3567344266282 L 3854.405684847926,1979.080789015893 L 3839.5312942220344,1999.9681404124262 L 3799.6890472884365,2051.312720788647 L 3740.325399635774,2124.1975463249637 L 3663.351812492764,2215.8066033518307 L 3569.6185652117465,2324.966777720734 L 3459.562828348481,2451.1014517750277 L 3333.4327752912873,2593.893871728929 L 3204.1400225794887,2738.849546734267 L 3097.0870432129323,2841.7317914204323 L 3005.583139037668,2914.195009588684 L 2933.859119568104,2958.160291317602 L 2885.895886322071,2978.465779278079 L 2862.377516684399,2983.6882036737848 L 2856.472165039268,2983.7352808719897 L 2853.5335278913085,2983.088313421898 L 2792.6043422880116,2954.8315021238645 L 2770.3265154757437,2945.183702625231 L 2765.587621476892,2943.2737286045303 L 2742.845955300066,2934.7767749065083 L 2624.6090329903323,2894.011868462853 L 2601.911987217344,2886.8177585412327 L 2597.098716026003,2885.423882235148 L 2574.0696854812477,2879.3761672489636 L 2450.534572770578,2850.223362263321 L 2428.126623713643,2845.5025200685027 L 2423.387951700242,2844.622917876684 L 2400.778516629871,2840.9875392492245 L 2271.9452135182655,2823.446835721595 L 2250.4365418484417,2821.0161626334257 L 2245.8990947836246,2820.6078537486487 L 2224.302019337683,2819.1595924314356 L 2090.170525825142,2813.2309903618193 L 2070.0109613499953,2812.7683802111396 L 2065.7666879178532,2812.761098616993 L 2045.6056547876499,2813.1545336232816 L 1906.1759708741731,2818.8380330116784 L 1887.6383263485488,2819.957023673317 L 1883.7417601453822,2820.26878851694 L 1865.262025740923,2822.1115638697183 L 1720.5341514265106,2839.407164716128 L 1703.7332607289854,2841.719853592563 L 1700.206048715153,2842.2697129807007 L 1683.4984252812715,2845.180688291571 L 1533.4723605659233,2874.088390595994 L 1518.4024286358767,2877.246276523544 L 1515.2414184994564,2877.9623338083384 L 1500.2817541335078,2881.6069920863365 L 1386.136577467456,2911.3843127982523 L 1374.9790452235654,2912.4296466755995 L 1373.6035550921256,2909.55519447417 L 1351.4177627263991,2832.1480355242584 L 1232.6734144639745,2058.70612763756 L 1228.3063486369447,2034.468528525792 L 1227.255347102032,2029.393131493684 L 1221.6378983473871,2005.414458800427 L 1178.4501757836435,1840.4447239528813 L 1178.0540253722347,1838.941540800336 L 1177.9701076791505,1838.625218506032 L 1177.5690400062601,1837.123339862689 L 1167.7335544044624,1800.532689185008 L 1167.3274642593829,1799.0317289988664 L 1167.2414546236573,1798.715878158269 L 1166.830453229344,1797.2162553587384 L 1156.7567537065804,1760.6948950806088 L 1156.340769161901,1759.1963525904887 L 1156.252677239267,1758.881014173073 L 1155.8317885189244,1757.3838416977428 L 1145.5198750751952,1720.9317718191646 L 1145.0940453091462,1719.4358409329473 L 1145.0038815641876,1719.1210557328616 L 1144.5731557531317,1717.6265272182632 L 1134.0230283884366,1681.2437477392364 L 1133.587406394537,1679.7506214174864 L 1133.49518209452,1679.4364300271832 L 1133.054673238257,1677.9447381410553 L 1122.2663319525961,1641.6312490615799 L 1121.820974506346,1640.1411191918403 L 1121.7267017141855,1639.8275619759113 L 1121.2764676349111,1638.3388982943238 L 1110.2499124282845,1602.0946996143998 L 1109.794880050787,1600.607756889979 L 1109.6985716171625,1600.2948739592284 L 1109.2386738752275,1598.8094288415195 L 1097.973904747635,1562.634520561147 L 1097.5092616640623,1561.1509543573256 L 1097.4109312186904,1560.8387855431306 L 1096.94143507123,1559.3567480120996 L 1085.3896419145149,1523.098014289921 L 1073.8188487779669,1486.8220815592451 L 1062.2342016344162,1450.5451112960957 L 1050.635700543756,1414.267103523826 L 1039.0233455658727,1377.988058265703 L 1027.3971367606428,1341.7079755448958 L 1015.7570741879349,1305.426855384483 L 1004.1031580681005,1269.144698306533 L 994.2504017885409,1238.505565710536 L 986.7492668076926,1213.291202306899 L 979.8291397484315,1188.0027414846338 L 973.4837915808001,1162.624421151983 L 967.7080292487817,1137.1400248260168 L 962.4977361229381,1111.532980228547 L 957.8499046739572,1085.7864801377018 L 953.7626556034194,1059.883606086651 L 951.2799905423847,1041.5306758121392 L 950.4469788352654,1031.4943999667396 L 950.1664214192003,1022.1945763820897 L 950.3705655703415,1013.4072433951469 L 951.0279490607436,1004.8928113890729 L 951.255022581054,1003.1695662326636 L 953.3317309501916,1002.6153039888935 z" id="road" style="fill:#232f3e;fill-opacity:0.7;stroke:none;" /><path d="M 763.174373289384,2130.786987344837 L 886.4944690487115,2934.0330494990803 L 927.953773365804,3078.686299034749 L 983.2734471808102,3194.291460093559 L 1051.3707646438681,3281.670782862914 L 1132.0271331442252,3342.846685673762 L 1226.941203958695,3379.85423842564 L 1338.7071285438622,3392.908028363493 L 1468.7809164211037,3380.7215937603187 L 1620.1833545421275,3341.224883621742 L 1623.344364678548,3340.508826336947 L 1773.370429393896,3311.6011240325242 L 1776.8976414077285,3311.0512646443867 L 1921.625515722141,3293.755663797977 L 1925.5220819253077,3293.443898954354 L 2064.9517658387845,3287.7603995659574 L 2069.1960392709266,3287.767681160104 L 2203.3275327834676,3293.6962832297204 L 2207.8649798482847,3294.1045921144973 L 2336.69828295989,3311.6452956421267 L 2341.436954973291,3312.5248978339455 L 2464.9720676839606,3341.677702819588 L 2469.785338875302,3343.0715791256725 L 2588.022261185036,3383.836485569328 L 2592.7611551838877,3385.7464595900287 L 2700.7465969683526,3435.826305910399 L 2806.6748096929186,3459.1473565296556 L 2916.351246972111,3458.2730208953844 L 3031.170794853107,3432.7765082886135 L 3151.7841052993185,3381.714226674365 L 3278.1260280836177,3304.2693446046706 L 3409.817429728122,3199.9810865870604 L 3546.455375993351,3068.66649166168 L 3688.677076227327,2909.215616609335 L 3816.5242686133,2764.4792152314094 L 3928.7672753856273,2635.8377152277235 L 4025.3824609835283,2523.3212836254793 L 4106.328190115994,2426.984836391958 L 4171.523483797055,2346.9400986842015 L 4220.78629810018,2283.4552622802416 L 4253.597922969311,2237.3795637343255 L 4271.461992011616,2206.875485696723 L 4289.89015965032,2174.5011993842472 L 4307.912319619765,2141.9132537260652 L 4325.528616972881,2109.111408985638 L 4342.739187936778,2076.095419988078 L 4359.5441595948,2042.8650366736124 L 4375.943649603305,2009.4200046693927 L 4391.937765944525,1975.7600658769134 L 4407.584769367221,1941.7585695585149 L 4423.057704426694,1907.5322950092295 L 4438.298227581656,1873.208029522139 L 4453.306358764525,1838.7857322965779 L 4468.082117092794,1804.265362113878 L 4482.625520855754,1769.646877364265 L 4496.936587501397,1734.9302360759357 L 4511.015333625108,1700.1153959425847 L 4524.820782589912,1665.305674478408 L 4538.190630249608,1630.4646089381863 L 4551.165830287938,1595.488971661905 L 4563.746465254482,1560.378570475923 L 4575.932611306281,1525.133210289162 L 4587.7243380549935,1489.7526934543298 L 4599.12170843432,1454.2368201375475 L 4610.124778588388,1418.585388694472 L 4620.667302298493,1383.0218334966307 L 4630.400916316203,1347.5350597469978 L 4639.391821439463,1311.9022832771511 L 4647.640456854705,1276.122276915069 L 4655.147186675389,1240.1937828198875 L 4661.912297194083,1204.1155203263024 L 4667.9359949493955,1167.8861940586653 L 4673.2184056379865,1131.5045021952487 L 4677.68974047329,1095.5309800629861 L 4680.537336612954,1060.2591991763506 L 4681.83326607144,1025.1354841698349 L 4681.580724208255,990.1475952766937 L 4679.781276479637,955.2826913382451 L 4676.434765651562,920.5276937129711 L 4671.539301368091,885.869668491945 L 4665.091333780701,851.296201296389 L 4657.276492120455,817.6175206926714 L 4647.438793265295,786.3420273729548 L 4635.430491166409,756.6872580618474 L 4621.250223602168,728.5733804810552 L 4604.875101004619,701.918356124323 L 4586.2613828325,676.6464272816938 L 4565.348709414249,652.6959199201997 L 4542.066972212619,630.024562389031 L 4516.1167088366365,608.4220209710529 L 4488.9498180620685,588.5363487192485 L 4460.877256407882,570.6134165812878 L 4431.870803307966,554.6259842750574 L 4401.896663059275,540.5522388816098 L 4370.917437437782,528.3772688671634 L 4338.894466275385,518.0938412369474 L 4305.7902036930645,509.70239236858197 L 4270.628190647018,503.0315586757338 L 4234.388820290464,496.9181365740228 L 4198.06508383184,491.55040755265736 L 4161.655732020947,486.92810789059695 L 4125.159498631239,483.05105047474126 L 4088.575108350374,479.9191261309943 L 4051.901284765455,477.53230414392647 L 4015.1367583264937,475.8906319598218 L 3978.517346770632,475.0 L 3942.2703518126277,475.19572315792266 L 3906.1629260549125,476.4713670717442 L 3870.191062393598,478.8264147341697 L 3834.3506752140656,482.26071328701164 L 3798.6376551691865,486.7744817520097 L 3763.0479250930084,492.368310411895 L 3727.577495287289,499.0431517871939 L 3692.944364288937,506.6419246071018 L 3660.0423861899294,515.936992607798 L 3628.1644872342154,527.0726244179341 L 3597.2764837487985,540.0513263220237 L 3567.344067652407,554.8822757807534 L 3538.3347955418308,571.5810695416758 L 3510.219945725323,590.1688576246661 L 3482.976000752634,610.6709728628907 L 3455.822789299388,633.7639879586577 L 3428.3098141615474,658.0260619661203 L 3401.2314834943463,682.7815940477421 L 3374.5871818653072,708.031188557195 L 3348.376328903514,733.7754802435993 L 3322.5983818592103,760.0151310143533 L 3297.252837844307,786.750826507593 L 3272.3392357325133,813.9832725155457 L 3247.5658114822013,842.0431880873184 L 3246.7970141067062,842.8941051979536 L 3221.1345462917243,870.6510830243105 L 3220.3438609684877,871.4868046301167 L 3194.0849881465606,898.609384145097 L 3193.273505801218,899.428446002782 L 3166.418227972346,925.9166272063858 L 3165.587146146049,926.7176352231445 L 3138.1354633102314,952.5714181153717 L 3137.2860774447577,953.3530600863232 L 3109.237989601995,978.5724446671738 L 3108.3716829752643,979.3335009891307 L 3079.7271901255567,1003.9184872586047 L 3078.8454226192184,1004.6578404169177 L 3049.6045247625657,1028.6084283750151 L 3048.708820673667,1029.3250710320008 L 3018.8715178100692,1052.6412606787217 L 3017.4841615628384,1053.6870937129938 L 2986.9983638893746,1075.8482273003542 L 2985.5636549268784,1076.8532298477962 L 2954.4293624435486,1097.859307375796 L 2952.9517333758013,1098.8188082524694 L 2921.1689460826055,1118.6698297211087 L 2919.6533864533812,1119.5795844799004 L 2887.2221043503196,1138.2755498891793 L 2885.674079160786,1139.1318306183462 L 2852.594302247858,1156.6727399682645 L 2851.0196543399093,1157.4724104998 L 2817.2913826171157,1173.8582637903578 L 2815.696222936261,1174.59883683539 L 2781.3194564036016,1189.8296340665875 L 2779.710046915656,1190.5093078674 L 2744.6847855731307,1204.5850490392368 L 2742.2440978993536,1205.492817024056 L 2706.902088161266,1217.5996863938012 L 2704.3717416915033,1218.3921720907733 L 2668.7129835578535,1228.530169658427 L 2666.111430535516,1229.1948506537196 L 2630.135924006304,1237.3639764192817 L 2627.4841739503217,1237.8911637409178 L 2591.1919190255476,1244.0914177043883 L 2588.512731910518,1244.474824575591 L 2551.903728590182,1248.7062067369698 L 2549.220653719908,1248.9432908438012 L 2512.2949020040096,1251.2058012030884 L 2509.6312552584795,1251.2978397892898 L 2472.388755147019,1251.5914783464855 L 2469.7666364579236,1251.543372101788 L 2432.2073879509007,1249.868138856892 L 2429.472467586398,1249.6708930964455 L 2392.4563785120845,1245.978571617125 L 2389.686459774831,1245.623905345602 L 2353.2135301332264,1239.9144956318569 L 2350.434362439257,1239.3985770346399 L 2314.5045922303616,1231.6720790864701 L 2311.743143862088,1230.9955643305411 L 2276.356533085902,1221.2519781479468 L 2273.6397296019977,1220.4201818715323 L 2238.796278258521,1208.6595074545135 L 2236.149707952577,1207.682207116984 L 2201.8494160418095,1193.9044444655406 L 2199.296144804709,1192.795333687418 L 2165.5390123266507,1177.0004828015499 L 2163.098633121461,1175.7763418180116 L 2129.8846600761117,1157.964402697719 L 2128.0920618122123,1156.9550470180807 L 2095.8246971388958,1137.901599026471 L 2094.0581283015226,1136.8083412068172 L 2062.737372000239,1116.5133843438907 L 2061.0068851958545,1115.3399889488387 L 2030.6327372666033,1093.8035232145953 L 2028.948012116472,1092.5550869992448 L 1999.5204725592534,1069.7771123936845 L 1997.8905509249628,1068.4599604728087 L 1969.4096197397769,1044.4404769959315 L 1967.8426649305134,1043.0620039596479 L 1940.30834211736,1017.8010116114538 L 1938.811436877229,1016.3694767903812 L 1912.2237224361083,989.8669755708702 L 1910.8027171952976,988.3912654617202 L 1885.2651593313865,960.7592958749788 L 1859.6876088193774,933.42066036085 L 1833.9666966146299,906.2634976933718 L 1808.1024070889428,879.2877772401748 L 1782.0947239527943,852.4934685221297 L 1755.943630259099,825.8805412320953 L 1729.6491084083357,799.4489652543975 L 1703.2111401534487,773.1987106833817 L 1677.3731260060556,747.8588346572219 L 1651.3428552517962,724.6647157708217 L 1624.3815647077922,702.8870544617216 L 1596.4777337336434,682.5131515737535 L 1567.6179049246684,663.5319645180007 L 1537.7871366356253,645.9345231660027 L 1506.9695433712961,629.7142249784802 L 1475.1488791813324,614.8669871668944 L 1441.9360738546873,601.2381731328319 L 1408.0448525596348,588.5088453780272 L 1373.8715633111399,576.840972200645 L 1339.4124432315803,566.2327398883858 L 1304.663547756674,556.6826740368751 L 1269.6208037682259,548.189663063893 L 1234.280065916836,540.7529734723171 L 1198.637174326401,534.3722563752153 L 1162.8282939266646,529.068323467458 L 1127.1728223364937,525.0759899206032 L 1091.538821568498,522.3743813442425 L 1055.919530023194,520.961897240506 L 1020.3079632744217,520.8376696251403 L 984.6970476791321,522.0015911524342 L 949.0797580268548,524.4543188065118 L 913.4492530276144,528.1972529209634 L 878.3985114307284,533.1478182334913 L 844.8464051325266,539.9426784499838 L 812.215858226475,548.6515951242604 L 780.4720611419298,559.2735566963402 L 749.5792322451803,571.814382918837 L 719.5026929591811,586.2867239426632 L 690.2108991838849,602.7093997491179 L 661.6771580388069,621.106157759933 L 634.254300656157,641.2299579606729 L 609.4756535324761,662.5422996191237 L 587.0052516166061,685.2513559196104 L 566.7708992925599,709.3926748177714 L 548.7080197266935,735.0218772943008 L 532.7669088342097,762.2101964165049 L 518.9177224966348,791.0372595027225 L 507.15207435123386,821.5827537215023 L 497.3324749177916,854.4161518781452 L 489.18636275960455,887.9815655120547 L 482.88625771346784,921.6846852664294 L 478.424189971938,955.547007093518 L 475.79568194597556,989.5914471977039 L 475.0,1023.8413738887348 L 476.04014053667254,1058.3196052253602 L 478.9225561963596,1093.0474708897732 L 483.75174212790535,1128.7468948980095 L 489.4730818280184,1165.0057915538482 L 495.9871465699308,1201.090225834742 L 503.2941153344461,1237.0018090232534 L 511.394274552925,1272.7421418071694 L 520.2880162853146,1308.3128024987009 L 529.9758351083801,1343.7153355248001 L 540.4583237712407,1378.9512403838248 L 551.9087875733354,1414.5587667209857 L 563.5136159957815,1450.6881872054532 L 575.1046286701733,1486.8165112181377 L 586.6818255908088,1522.943738756841 L 598.2452067519857,1559.0698698193573 L 609.7947721480007,1595.1949044034723 L 621.3305217731496,1631.318842506962 L 632.8524556217276,1667.4416841275943 L 644.3554386702858,1703.5473020084155 L 644.4537691156578,1703.8594708226105 L 655.7185382432502,1740.0343791029832 L 655.8148466768747,1740.3472620337338 L 666.8414018835014,1776.5914607136579 L 666.9356746756619,1776.9050179295868 L 677.7240159613227,1813.2185070090623 L 677.8162402613398,1813.5326983993655 L 688.3663676260348,1849.9154778783923 L 688.4565313709933,1850.230263078478 L 698.7684448147226,1886.6823329570561 L 698.8565367373565,1886.9976713744718 L 708.93023626012,1923.5190316526014 L 709.0162458958455,1923.8348824931986 L 718.8517314976432,1960.4255331708796 L 718.9356491907274,1960.7418554651836 L 762.123371754471,2125.711590312729 L 763.174373289384,2130.786987344837 z" id="cl" style="fill:none;stroke:#ffffff;stroke-width:50;stroke-opacity:1;" /></svg>