<?xml version="1.0" encoding="UTF-8" standalone="no"?>
<svg
   id="Amoeba"
   version="1.1"
   width="5156.69276mm"
   height="3934.12534mm"
   viewBox="0.00000,0.00000,5156.69276,3934.12534"
   sodipodi:docname="Amoeba.svg"
   inkscape:version="1.1.2 (0a00cf5339, 2022-02-04)"
   xmlns:inkscape="http://www.inkscape.org/namespaces/inkscape"
   xmlns:sodipodi="http://sodipodi.sourceforge.net/DTD/sodipodi-0.dtd"
   xmlns="http://www.w3.org/2000/svg"
   xmlns:svg="http://www.w3.org/2000/svg">
  <defs
     id="defs833" />
  <sodipodi:namedview
     id="trackview"
     pagecolor="#00c389"
     bordercolor="#000000"
     borderopacity="0.25"
     inkscape:pageshadow="2"
     inkscape:pageopacity="0.0"
     inkscape:pagecheckerboard="0"
     inkscape:document-units="mm"
     showgrid="false"
     inkscape:zoom="0.058712226"
     inkscape:cx="9750.9504"
     inkscape:cy="7434.5674"
     inkscape:window-width="2490"
     inkscape:window-height="1376"
     inkscape:window-x="2630"
     inkscape:window-y="27"
     inkscape:window-maximized="1"
     inkscape:current-layer="Amoeba" />
  <path
     d="M 416.99543,928.02528 C 476.81806,608.97447 651.10206,285.20657 959.47429,148.74249 1207.6339,30.507917 1494.8914,58.095067 1750.8076,134.37455 c 257.2808,59.0866 538.2995,52.51857 774.1906,-76.596399 333.3881,-127.195334 711.6662,-35.210792 996.6812,164.247409 350.5469,240.81965 603.1084,589.85872 884.0598,903.08824 180.8584,198.6205 329.2911,424.258 434.6711,671.596 176.5743,402.3895 355.5746,834.7257 306.3557,1283.3362 -27.7542,339.7851 -265.9485,641.4643 -583.2013,760.3706 -309.8491,106.801 -652.5931,120.8245 -972.4175,51.0444 -317.68,-65.2488 -545.184,-312.5144 -754.4987,-541.3218 -120.6561,-115.3868 -303.0343,-256.3181 -474.2634,-159.6364 -168.1383,110.8548 -277.5336,290.3227 -439.5332,410.2631 C 1582.6564,3855.6577 1122.9027,3946.652 709.82562,3849.787 360.32183,3764.647 67.065592,3469.3671 17.506727,3107.9348 -62.733549,2662.6621 166.14387,2248.462 266.30368,1826.8065 338.9523,1532.3183 364.25574,1226.7644 416.99543,928.02528 Z m 536.3363,2003.49862 c 176.46447,25.8159 372.72427,-28.5714 483.01757,-175.7356 205.8964,-238.0444 464.1021,-449.097 778.2921,-517.7047 430.1447,-105.8845 883.4095,65.9551 1203.0923,356.2782 139.9834,111.3183 237.7626,270.0071 385.3317,370.6548 130.9043,30.6999 274.1188,21.8372 401.5654,-7.4126 0.4371,-259.4719 -117.8645,-501.556 -215.0555,-736.7788 -75.6727,-192.452 -195.6083,-360.7506 -334.6743,-512.3338 -212.225,-232.9487 -399.027,-494.0281 -649.3179,-688.5467 -62.9709,-39.25306 -142.2864,-102.17474 -212.9788,-40.63654 -447.6688,191.16654 -956.2008,169.64144 -1417.6253,42.40454 -64.0187,252.8489 -83.679,515.7711 -129.8605,772.6626 -54.7674,352.5346 -196.2892,683.7515 -282.61946,1028.2341 -4.27668,35.014 -18.33334,75.9411 -9.16731,108.9145 z"
     id="road"
     style="fill:#232f3e;fill-opacity:1;stroke:none" />
  <path
     d="m 924.90029,3001.1866 c -78.58866,-36.6387 -43.7304,-135.6767 -34.28303,-201.4646 54.47847,-231.7372 145.58484,-453.2242 204.26194,-684.0148 45.6866,-153.3496 77.0135,-309.8902 96.9683,-468.5915 33.6273,-198.6456 55.1094,-399.9068 96.392,-596.9067 5.6047,-55.85052 46.1191,-120.10103 110.9035,-101.31773 419.7522,117.58503 879.8705,143.49023 1293.719,-11.62366 76.4826,-18.23541 148.1634,-92.55612 229.7257,-47.50028 219.7296,96.33669 368.9538,294.31937 525.9902,467.55007 161.6367,187.6013 332.4293,368.8709 476.7026,570.3676 137.4973,247.8569 249.772,511.3872 324.4096,785.0563 17.2684,92.7788 50.7783,193.0454 19.1244,285.6096 -43.9684,56.6058 -127.1419,41.9665 -190.6728,55.3038 -110.1523,7.194 -229.1,14.4816 -331.4639,-32.865 -156.0923,-122.3802 -268.5242,-290.972 -427.0598,-411.1431 -267.7896,-224.2357 -621.5819,-366.5542 -974.3842,-318.6418 -316.6675,36.3321 -597.022,223.0674 -801.0021,461.0939 -87.6964,87.1681 -167.5716,195.7772 -294.946,225.0331 -103.8601,32.3934 -217.2068,49.5997 -324.38541,24.0548 z m 28.43144,-69.6627 c 129.98377,19.1354 270.18957,-6.9803 381.59147,-77.0646 165.4219,-151.0173 300.6986,-337.6338 496.68,-453.0662 340.1783,-225.9168 795.6981,-255.1865 1164.3253,-81.5326 268.7588,116.5266 488.5714,318.3796 679.8207,535.9462 55.6062,50.6625 105.6525,123.4245 189.5608,121.2063 112.1386,13.8398 232.2703,6.3212 339.3208,-19.409 5.2653,-187.0717 -67.6709,-365.8934 -131.2803,-538.6875 -88.2809,-209.0366 -169.5593,-428.559 -324.7691,-598.8379 -188.7163,-223.2049 -378.6219,-446.1679 -579.4515,-658.4346 -91.1347,-85.3581 -187.243,-183.08571 -312.6577,-211.23962 -397.6112,189.11672 -858.1862,208.56522 -1284.2266,117.12062 -66.735,-7.8118 -135.4649,-39.253 -198.642,-42.9378 -47.3669,168.6266 -58.262,345.2457 -89.73,517.3564 -29.5391,188.9345 -50.9699,379.7012 -108.4054,562.8908 -59.3296,236.4615 -149.9271,463.8824 -209.37246,700.0983 -5.64638,40.6538 -22.20777,87.7962 -12.76401,126.5912 z"
     id="il"
     style="fill:#ffffff;fill-opacity:1;stroke:none" />
  <path
     d="M 416.99543,928.02528 C 476.81806,608.97447 651.10206,285.20657 959.47429,148.74249 1207.6339,30.507917 1494.8914,58.095067 1750.8076,134.37455 c 257.2808,59.0866 538.2995,52.51857 774.1906,-76.596399 333.3881,-127.195334 711.6662,-35.210792 996.6812,164.247409 350.5469,240.81965 603.1084,589.85872 884.0598,903.08824 180.8584,198.6205 329.2911,424.258 434.6711,671.596 176.5743,402.3895 355.5746,834.7257 306.3557,1283.3362 -27.7542,339.7851 -265.9485,641.4643 -583.2013,760.3706 -309.8491,106.801 -652.5931,120.8245 -972.4175,51.0444 -317.68,-65.2488 -545.184,-312.5144 -754.4987,-541.3218 -120.6561,-115.3868 -303.0343,-256.3181 -474.2634,-159.6364 -168.1383,110.8548 -277.5336,290.3227 -439.5332,410.2631 C 1582.6564,3855.6577 1122.9027,3946.652 709.82562,3849.787 360.32183,3764.647 67.065592,3469.3671 17.506727,3107.9348 -62.733549,2662.6621 166.14387,2248.462 266.30368,1826.8065 338.9523,1532.3183 364.25574,1226.7644 416.99543,928.02528 Z m -84.70765,942.87422 c -96.69621,400.531 -312.516281,792.8893 -242.405678,1216.045 42.567948,333.9376 310.733718,608.3541 632.844728,688.6605 389.64987,93.2242 823.75807,8.6515 1147.07877,-228.6642 167.9957,-122.3122 278.1308,-310.439 454.5142,-421.0602 177.7096,-107.7032 386.9502,5.8823 521.4426,130.7025 207.7025,200.6216 392.1791,451.807 681.2929,538.8671 321.146,95.0312 673.0316,81.2886 991.2829,-17.8431 300.3082,-105.706 529.0851,-387.3173 554.0487,-707.2273 46.3789,-434.7147 -129.8229,-852.732 -300.2656,-1242.6595 C 4670.435,1589.4935 4528.4121,1371.4188 4353.9749,1180.094 4113.903,910.86535 3894.2396,619.10469 3616.0607,387.24975 3343.1995,153.01276 2962.1312,-0.26662332 2604.2365,110.70358 2450.0943,170.73398 2295.7758,244.95891 2125.719,243.40461 1909.5355,261.11812 1700.7722,194.03247 1491.6673,153.81013 1188.0246,101.38972 852.65093,217.53797 679.05082,479.4915 466.58939,773.25532 470.68537,1150.5424 406.12025,1493.0974 c -19.08524,127.2708 -35.32471,254.5153 -73.83247,377.8021 z"
     id="ol"
     style="fill:#ffffff;fill-opacity:1;stroke:none"
     inkscape:original-d="m 416.99543,928.02528 12.88356,-58.79045 41.4593,-144.65325 12.52191,-37.66919 15.62347,-36.4921 55.31967,-115.60516 24.55829,-44.92789 29.2515,-42.02349 68.09732,-87.37933 26.6672,-31.3205 29.27704,-28.89583 31.6673,-26.25444 80.65637,-61.1759 36.13447,-24.86524 38.2741,-21.42598 40.08736,-17.80404 94.91411,-37.00755 38.2711,-13.074218 39.2447,-9.771265 39.9336,-6.397482 111.7659,-13.05379 49.6759,-3.176016 49.7356,2.040037 130.0738,12.186435 38.0661,5.12611 37.5274,8.184952 136.6528,35.648947 121.6044,23.5162 113.0529,13.60818 104.7059,4.37979 96.6867,-4.14755 91.2334,-12.27819 82.5022,-19.46952 77.5222,-26.72756 88.2604,-40.932075 47.9592,-19.147532 49.7543,-13.828148 105.9282,-23.321051 52.6462,-8.5248423 53.2701,-2.5694271 109.6764,0.87433563 49.8884,3.02728147 49.2941,8.2525773 114.8196,25.496513 41.7049,11.273372 40.5083,15.015936 120.6133,51.06228 32.1347,15.04348 30.9221,17.40025 126.342,77.44488 46.6513,32.59506 131.6914,104.28826 34.2475,29.89605 136.638,131.31459 25.3426,26.30301 142.2217,159.45088 1.5232,1.71598 127.8472,144.7364 1.9086,2.17411 112.243,128.6415 2.4613,2.84347 96.6152,112.51646 3.2931,3.8769 80.9457,96.3365 4.6292,5.5956 65.1953,80.0447 6.9734,8.7711 49.2628,63.4848 11.6491,15.6666 32.8117,46.0757 22.9663,35.4937 17.8641,30.5041 2.9223,5.0613 18.4282,32.3743 2.8621,5.1009 18.0222,32.5879 2.8004,5.1382 17.6163,32.8019 2.7373,5.1732 17.2106,33.016 2.6731,5.2059 16.8049,33.2304 2.6077,5.2361 16.3995,33.4451 2.5411,5.264 15.9941,33.6599 2.4736,5.2894 15.647,34.0015 1.323,2.9005 15.4729,34.2263 1.304,2.9104 15.2405,34.3242 1.2847,2.9198 15.0081,34.4223 1.2653,2.9287 14.7757,34.5204 1.2457,2.9374 14.5434,34.6184 1.2258,2.9456 14.3111,34.7167 1.2059,2.9534 14.0787,34.8149 1.1858,2.9608 13.8055,34.8097 1.9268,4.9386 13.3698,34.841 1.8731,4.9638 12.9752,34.9757 1.8185,4.9872 12.5806,35.1104 1.7632,5.0088 12.1862,35.2454 1.7072,5.0285 11.7917,35.3805 1.6506,5.0464 11.3974,35.5158 1.5934,5.0623 11.003,35.6514 1.5357,5.0763 10.5426,35.5636 2.6697,9.3566 9.7336,35.4867 2.4843,9.436 8.9909,35.6328 2.2942,9.5039 8.2487,35.78 2.1004,9.5599 7.5067,35.9285 1.9036,9.604 6.7651,36.0783 1.7042,9.6357 6.0237,36.2293 1.5035,9.6552 5.2824,36.3817 1.3018,9.6622 4.4713,35.9736 2.0868,20.3655 2.8476,35.2718 1.2175,20.71 1.2959,35.1238 0.3106,20.9422 -0.2525,34.9878 -0.6191,21.0547 -1.7994,34.8649 -1.5554,21.0434 -3.3465,34.755 -2.482,20.908 -4.8955,34.6581 -3.3826,20.6516 -6.448,34.5734 -4.242,20.2809 -7.8149,33.6786 -9.5937,35.1596 -9.8377,31.2755 -12.8398,35.7561 -12.0083,29.6548 -16.1669,35.6308 -14.1802,28.1139 -19.379,34.7247 -16.3752,26.655 -22.2699,33.0558 -18.6137,25.2719 -24.6576,30.7231 -20.9127,23.9505 -26.4144,27.89 -23.2818,22.6714 -27.4859,24.7549 -25.9502,21.6025 -23.3385,18.2273 -27.1669,19.8857 -24.9506,17.0711 -28.0726,17.923 -26.3258,15.6368 -29.0064,15.9874 -27.4035,13.9669 -29.9742,14.0737 -28.1396,12.1208 -30.9792,12.1749 -28.5107,10.1686 -32.023,10.2834 -28.5163,8.1843 -33.1043,8.3914 -28.1778,6.2382 -35.162,6.6708 -9.5224,1.7063 -36.2394,6.1134 -9.5751,1.515 -36.3237,5.3677 -9.6161,1.3208 -36.4094,4.6223 -9.645,1.1244 -36.4963,3.8771 -9.662,0.9267 -36.5844,3.1319 -9.6668,0.7283 -36.6738,2.3868 -9.6595,0.5299 -36.7645,1.6417 -9.6402,0.3324 -36.6194,0.8907 -14.1141,0.1335 -36.247,-0.1958 -14.206,-0.2892 -36.1074,-1.2756 -14.2606,-0.7186 -35.9719,-2.355 -14.2765,-1.1511 -35.8404,-3.4343 -14.2534,-1.5833 -35.713,-4.5138 -14.1915,-2.0116 -35.5897,-5.5938 -14.0911,-2.4327 -35.4704,-6.6748 -13.9533,-2.8429 -34.6331,-7.5988 -27.3397,-6.8547 -32.902,-9.2951 -27.5084,-8.6815 -31.8779,-11.1356 -27.3593,-10.5151 -30.888,-12.9787 -26.8818,-12.293 -29.9325,-14.8309 -26.0842,-13.9523 -29.0093,-16.6988 -24.9933,-15.4351 -28.1148,-18.5878 -23.6523,-16.695 -27.2439,-20.5021 -22.1157,-17.7 -27.1532,-23.093 -6.4359,-5.5737 -27.5129,-24.2621 -6.335,-5.6881 -27.0783,-24.7555 -6.228,-5.797 -26.6443,-25.2496 -6.1154,-5.9001 -26.2109,-25.7442 -5.9974,-5.9969 -25.778,-26.2396 -5.8746,-6.0873 -25.3455,-26.7357 -5.7471,-6.1711 -24.9136,-27.2324 -5.6153,-6.2481 -21.2211,-24.0363 -19.0806,-20.6519 -19.4418,-20.095 -19.8667,-19.6085 -20.3022,-19.1336 -20.7491,-18.6694 -21.2082,-18.2151 -21.6798,-17.7698 -20.0182,-15.654 -18.5583,-13.5124 -18.7444,-12.668 -19.0492,-11.9188 -19.3985,-11.2034 -19.796,-10.5173 -20.2443,-9.8549 -20.7453,-9.2109 -17.6595,-7.1127 -14.3956,-4.9587 -13.8384,-3.9609 -13.6356,-3.1224 -13.6187,-2.3526 -13.7989,-1.6208 -14.1791,-0.8948 -14.7535,-0.1426 -14.7381,0.6321 -13.6368,1.3344 -12.8865,1.9913 -12.3761,2.6353 -12.0952,3.3038 -12.0383,4.0359 -12.1894,4.8679 -12.5233,5.8301 -15.4069,8.2259 -16.9807,10.0024 -16.4641,10.6426 -15.8662,11.2233 -15.3481,11.8526 -14.9032,12.5402 -14.5233,13.2947 -14.199,14.1229 -20.3409,21.9624 -1.6326,1.7539 -25.5775,27.3386 -1.9905,2.1145 -25.7209,27.1571 -2.0067,2.1059 -25.8643,26.9757 -2.023,2.0971 -26.0077,26.7943 -2.0391,2.0878 -26.1511,26.613 -2.0549,2.0784 -26.2945,26.4316 -2.0707,2.0686 -26.438,26.2503 -2.0862,2.0587 -25.838,25.3398 -16.5912,15.5108 -26.0303,23.1941 -17.5292,14.8742 -26.9613,21.7776 -18.368,14.1107 -27.9039,20.3739 -19.0876,13.2336 -28.8599,18.9812 -19.6715,12.2611 -29.8307,17.5974 -20.1081,11.2141 -30.8176,16.2203 -20.3912,10.1162 -31.8206,14.8473 -20.5201,8.9914 -33.2128,13.6288 -13.3088,5.2286 -33.8912,12.7294 -13.5341,4.8509 -34.1733,11.6678 -13.7249,4.4545 -34.4591,10.6083 -13.8788,4.0424 -34.7489,9.5501 -13.9946,3.618 -35.0428,8.4931 -14.0713,3.1849 -35.3407,7.4366 -14.1085,2.7466 -35.6429,6.3808 -14.1062,2.3067 -35.8088,5.304 -16.7414,2.1764 -35.6555,3.9923 -16.946,1.5906 -35.634,2.7016 -17.0879,0.9863 -35.6193,1.4125 -17.1644,0.3701 -35.6116,0.1242 -17.1737,-0.2506 -35.61096,-1.1639 -17.11602,-0.8688 -35.61729,-2.4527 -16.99219,-1.4771 -35.6305,-3.7429 -16.80465,-2.0688 -35.05074,-4.9505 -27.85179,-4.7828 -33.55211,-6.7948 -28.20596,-6.6136 -32.63055,-8.709 -28.24041,-8.4845 -31.74379,-10.6219 -27.9365,-10.3328 -30.89283,-12.5409 -27.29463,-12.0926 -30.07654,-14.4723 -26.33513,-13.7015 -29.29179,-16.4227 -25.09656,-15.1061 -28.53375,-18.3967 -23.63153,-16.267 -27.42286,-20.1238 -28.71907,-22.8325 -24.77865,-21.3124 -27.90397,-26.0217 -22.47041,-22.709 -26.39378,-28.973 -20.23435,-24.1413 -24.22276,-31.4858 -18.06288,-25.6292 -21.49918,-33.3862 -15.94111,-27.1883 -18.39181,-34.5574 -13.849188,-28.8271 -15.10184,-34.9597 -11.765649,-30.5455 -11.828765,-34.6314 -9.8196,-32.8334 -6.516946,-24.0759 -8.146112,-33.5654 -5.31216,-24.7478 -6.300105,-33.7031 -4.016619,-25.225 -4.4620678,-33.8623 -2.6614459,-25.4897 -2.628508,-34.0444 -1.28133331,-25.533 -0.79568195,-34.2499 0.0878748,-25.3554 1.04014046,-34.4782 1.4117316,-24.9667 2.8824157,-34.7278 2.6595078,-24.385 4.8291856,-35.6995 1.517877,-10.3599 5.72134,-36.2589 1.750472,-10.3495 6.514065,-36.0844 1.981881,-10.3238 7.306969,-35.9116 2.211076,-10.2827 8.100159,-35.7404 2.437045,-10.2266 8.893741,-35.5707 2.658796,-10.1556 9.687819,-35.4025 2.875376,-10.0702 10.482488,-35.2359 3.085864,-9.9707 11.425907,-35.5312 11.55576,-35.9766 11.54198,-35.9755 11.52821,-35.9744 11.51442,-35.9732 11.50065,-35.972 11.48687,-35.9709 11.4731,-35.9697 11.00869,-34.5541 10.44045,-33.5245 10.21751,-33.5815 9.99666,-33.6452 9.77592,-33.7093 9.55527,-33.7738 9.33471,-33.8385 9.11291,-33.8987 37.2898,-142.437 z m -84.70765,942.87422 -0.12631,0.4761 -9.1129,33.8987 -0.12903,0.4738 -9.33472,33.8385 -0.13215,0.473 -9.55527,33.7737 -0.13526,0.4722 -9.77591,33.7093 -0.13835,0.4713 -9.99666,33.6453 -0.14143,0.4703 -10.21751,33.5815 -0.14447,0.4693 -10.44045,33.5244 -0.14687,0.4663 -11.0164,34.5783 -11.48081,35.9939 -11.49459,35.995 -11.50838,35.9962 -11.52216,35.9974 -11.53594,35.9984 -11.54973,35.9997 -11.56351,36.0007 -11.29977,35.139 -2.84224,9.1835 -10.24713,34.4447 -2.64836,9.2752 -9.46932,34.6041 -2.44889,9.3538 -8.69256,34.766 -2.24464,9.4193 -7.91666,34.9307 -2.03651,9.4709 -7.14145,35.0981 -1.82541,9.5087 -6.366734,35.2683 -1.612274,9.5324 -5.592336,35.4414 -1.398041,9.542 -4.643957,34.3301 -2.449512,22.4596 -2.720648,32.7788 -1.30026,22.9953 -0.980184,32.4908 -0.08094,23.3532 0.74899,32.2401 1.180157,23.5169 2.472921,32.0293 2.451294,23.477 4.198136,31.8593 3.69946,23.2332 5.931186,31.7295 4.892712,22.7937 7.67817,31.6373 6.00237,22.1749 9.12336,30.5054 10.89457,31.8963 10.70568,27.7936 13.90911,32.1986 12.52851,26.0781 16.93921,31.8281 14.36602,24.5019 19.80113,30.7493 16.25574,23.0651 22.3096,28.999 18.2324,21.7528 24.30918,26.6846 20.32202,20.5379 25.70014,23.9665 22.53795,19.3851 26.45093,21.0293 25.3416,18.5965 21.76546,14.9825 26.60971,17.1562 23.11478,13.9132 27.2606,15.2839 24.25553,12.6195 27.9582,13.453 25.13925,11.1377 28.71098,11.6552 25.73044,9.5168 29.52444,9.8793 26.01036,7.8146 30.4005,8.1137 25.97865,6.0913 31.33746,6.3464 25.65248,4.4051 33.28412,4.701 15.47786,1.9054 34.29612,3.6028 15.65059,1.3605 34.27059,2.3599 15.76465,0.8002 34.25704,1.1197 15.8179,0.2308 34.2557,-0.1195 15.8092,-0.3409 34.2669,-1.3589 15.7388,-0.9083 34.2902,-2.5998 15.6081,-1.465 34.3254,-3.8434 15.4196,-2.0046 34.5914,-5.1236 12.9925,-2.1246 34.529,-6.1813 12.9945,-2.5298 34.2282,-7.2025 12.9604,-2.9335 33.9346,-8.2245 12.8898,-3.3324 33.6484,-9.2476 12.7831,-3.7233 33.3693,-10.2727 12.6412,-4.1028 33.0971,-11.3005 12.4656,-4.4679 32.8315,-12.3313 12.258,-4.8158 31.8723,-13.0787 18.8999,-8.2815 30.2048,-14.0933 18.7811,-9.3174 29.218,-15.3784 18.5203,-10.3287 28.2597,-16.6706 18.1183,-11.2929 27.3291,-17.9745 17.5805,-12.1887 26.4247,-19.294 16.9178,-12.9965 25.5439,-20.6327 16.1451,-13.6997 24.6832,-21.9938 15.2811,-14.2861 25.1152,-24.631 1.9216,-1.8961 26.2739,-26.0874 1.9072,-1.9053 26.1316,-26.2679 1.8927,-1.9143 25.9895,-26.4485 1.8781,-1.923 25.8474,-26.6292 1.8632,-1.9314 25.7053,-26.8098 1.8483,-1.9397 25.5631,-26.9905 1.8333,-1.9476 25.4346,-27.1858 1.5038,-1.6155 20.2765,-21.8929 2.1352,-2.2127 14.199,-14.1229 2.2489,-2.1459 14.5232,-13.2947 2.3534,-2.0657 14.9033,-12.5402 2.4472,-1.9731 15.3481,-11.8526 2.5288,-1.8695 15.8662,-11.2233 2.5967,-1.7566 16.464,-10.6426 2.6501,-1.636 16.9807,-10.0024 2.7417,-1.5385 15.4069,-8.2259 3.6701,-1.8323 12.5233,-5.8301 3.8377,-1.6581 12.1894,-4.8679 3.9754,-1.4589 12.0383,-4.036 4.0782,-1.2395 12.0952,-3.3038 4.1424,-1.0059 12.3761,-2.6353 4.1663,-0.7648 12.8864,-1.9913 4.1498,-0.5233 13.6368,-1.3343 4.0901,-0.2876 14.7381,-0.6321 3.9386,-0.065 14.7534,0.1426 3.9988,0.1454 14.1791,0.8948 4.0257,0.3632 13.7989,1.6208 4.0176,0.5825 13.6187,2.3526 3.9741,0.7977 13.6356,3.1224 3.8968,1.0031 13.8384,3.9608 3.7882,1.1937 14.3957,4.9587 3.5944,1.3419 17.6594,7.1127 2.4142,1.0218 20.7454,9.2109 2.3925,1.113 20.2443,9.855 2.3612,1.2015 19.796,10.5172 2.3209,1.2863 19.3985,11.2034 2.2719,1.3662 19.0492,11.9188 2.2147,1.4406 18.7444,12.668 2.1499,1.5085 18.5583,13.5124 2.0545,1.5505 20.0183,15.654 1.3433,1.0756 21.6799,17.7698 1.3223,1.1095 21.2081,18.2151 1.2992,1.1421 20.7491,18.6694 1.2736,1.1729 20.3022,19.1336 1.2462,1.2019 19.8667,19.6085 1.2167,1.2289 19.4419,20.095 1.1854,1.2539 19.0806,20.6519 1.136,1.2577 21.0016,23.7877 5.1721,5.7549 24.4651,26.7421 5.2933,5.6839 24.8868,26.2518 5.4107,5.6067 25.3093,25.7626 5.524,5.5234 25.7327,25.2746 5.6326,5.4342 26.1571,24.7879 5.7363,5.3393 26.5824,24.3021 5.8348,5.2391 27.0088,23.8175 5.9278,5.1336 26.0452,22.1508 20.3693,16.3023 25.437,19.1423 21.7845,15.3767 26.1938,17.3177 23.0197,14.2163 26.9919,15.5375 24.0244,12.8504 27.8401,13.7943 24.7591,11.3222 28.7451,12.0783 25.1989,9.6848 29.7101,10.3784 25.3362,7.9959 30.7351,8.6829 25.1808,6.3134 32.9971,7.2399 12.8516,2.6184 34.3633,6.4665 12.9785,2.2406 34.4731,5.4183 13.071,1.8528 34.59,4.3719 13.1282,1.4583 34.714,3.3263 13.1493,1.0602 34.8452,2.2813 13.1347,0.6618 34.9835,1.236 13.0845,0.2664 35.1289,0.1896 12.9997,-0.1229 35.6817,-0.8678 8.8791,-0.3062 36.0027,-1.6077 8.8969,-0.4881 35.9109,-2.3371 8.9036,-0.6708 35.8213,-3.0666 8.8992,-0.8535 35.7341,-3.7961 8.8836,-1.0357 35.649,-4.5258 8.8569,-1.2165 35.5661,-5.2557 8.8192,-1.3954 35.4854,-5.9862 8.7706,-1.5716 33.6673,-6.3873 25.9528,-5.7456 30.8643,-7.8236 26.2645,-7.538 29.7697,-9.5598 26.2593,-9.3656 28.741,-11.2953 25.9174,-11.1636 27.7798,-13.0434 25.2396,-12.864 26.884,-14.8176 24.2469,-14.402 26.0475,-16.63 22.9803,-15.7231 25.2603,-18.49 21.4955,-16.788 23.929,-19.9199 25.3152,-22.7999 21.1484,-20.594 24.3283,-25.6872 18.8917,-21.636 22.7101,-28.2966 16.7577,-22.7519 20.511,-30.445 14.7292,-23.9758 17.8483,-31.982 12.7772,-25.3322 14.89,-32.8167 10.8653,-26.832 11.8257,-32.9321 8.9557,-28.4716 8.8361,-32.3827 7.3046,-31.48 3.9072,-18.6795 6.1465,-32.9572 3.1155,-19.021 4.6637,-33.017 2.286,-19.2572 3.187,-33.0984 1.4326,-19.3819 1.7137,-33.2025 0.5701,-19.3922 0.2406,-33.3295 -0.2861,-19.2887 -1.2353,-33.479 -1.1213,-19.0748 -2.7166,-33.6499 -1.9221,-18.7575 -4.3241,-34.7896 -1.1991,-8.8994 -5.1716,-35.6191 -1.3848,-8.8929 -5.8971,-35.4678 -1.5697,-8.875 -6.6227,-35.3187 -1.7532,-8.8458 -7.3487,-35.1719 -1.9346,-8.8053 -8.0751,-35.0274 -2.1132,-8.7535 -8.8022,-34.8851 -2.2881,-8.691 -9.5302,-34.7449 -2.4589,-8.6179 -10.3739,-34.9946 -1.4144,-4.6755 -10.8796,-35.2512 -1.4676,-4.6627 -11.2693,-35.1168 -1.5203,-4.648 -11.6592,-34.9828 -1.5724,-4.6315 -12.0492,-34.8492 -1.624,-4.6133 -12.4392,-34.7158 -1.6749,-4.5935 -12.8295,-34.5829 -1.7252,-4.5719 -13.2199,-34.4501 -1.7746,-4.5487 -13.6819,-34.4982 -1.0922,-2.7271 -13.9843,-34.5814 -1.1107,-2.7202 -14.2151,-34.4838 -1.1291,-2.7131 -14.4458,-34.3862 -1.1473,-2.7055 -14.6766,-34.2888 -1.1654,-2.6975 -14.9075,-34.1915 -1.1832,-2.6892 -15.1384,-34.0941 -1.201,-2.6806 -15.3692,-33.9969 -1.2186,-2.6715 -15.498,-33.6778 -2.2783,-4.8718 -15.7962,-33.2434 -2.3405,-4.8484 -16.1962,-33.0305 -2.4018,-4.8228 -16.5965,-32.8182 -2.4621,-4.7949 -16.997,-32.6063 -2.5212,-4.7648 -17.3977,-32.3948 -2.5793,-4.7326 -17.7987,-32.1837 -2.6361,-4.6982 -18.1998,-31.9731 -2.6917,-4.6618 -16.9037,-28.8642 -21.1523,-32.6902 -31.3961,-44.0879 -10.7293,-14.4296 -48.5192,-62.5265 -6.4229,-8.0786 -64.7349,-79.4795 -4.2637,-5.1538 -80.6321,-95.9633 -3.0332,-3.5708 -96.3876,-112.2515 -2.267,-2.619 -112.0703,-128.44358 -1.758,-2.00247 -127.7116,-144.58293 -1.4029,-1.58051 -141.2013,-158.30691 -23.3412,-24.22569 -134.3034,-129.07102 -31.5422,-27.53448 -128.5211,-101.77765 -42.9651,-30.01946 -123.2304,-75.53759 -27.2582,-15.33849 -28.3271,-13.26098 -117.7518,-49.85088 -35.7071,-13.23619 -36.762,-9.93722 -111.2265,-24.698668 -43.45,-7.27417 -43.9737,-2.668373 -105.5954,-0.841802 -46.9534,2.264752 -46.4036,7.513993 -101.8784,22.429448 -43.8551,12.18858 -42.2728,16.87727 -86.4098,40.07383 -7.1084,2.86496 -77.5221,26.72755 -7.2199,2.09082 -82.5022,19.46952 -7.2227,1.33492 -91.2334,12.27819 -6.789,0.60119 -96.6867,4.14755 -6.3488,0.003 -104.7058,-4.37979 -5.8286,-0.47197 -113.0529,-13.60818 -5.2769,-0.82674 -121.6044,-23.5162 -4.6919,-1.06452 -135.1851,-35.26607 -33.0804,-7.21502 -33.5552,-4.51865 -126.6059,-11.86154 -43.8391,-1.79818 -43.7865,2.79948 -108.2266,12.64041 -35.2011,5.63931 -33.0424,8.22704 -33.7357,11.52478 -91.81201,35.79804 -35.33594,15.69379 -32.22437,18.03933 -31.85158,21.91804 -77.98178,59.14729 -27.9143,23.14293 -24.65001,24.32905 -23.50677,27.60859 -65.85542,84.50263 -25.78331,37.041 -21.64654,39.60102 -53.76997,112.36663 -13.77197,32.16752 -11.03797,33.20511 -40.37217,140.86021 -11.86541,54.14443 -119.61178,779.09182 -1.57662,7.6136 z" />
  <path
     style="color:#000000;fill:#ff9900;stroke-dasharray:50, 50;-inkscape-stroke:none"
     d="m 2805.3652,462.48047 -22.0293,4.84961 5.375,24.41601 19.2735,-4.24218 27.4433,0.21875 0.1993,-25 z m 80.2618,0.64062 -0.1993,25 29.5039,0.23438 17.4278,3.87109 5.4199,-24.40625 -20.0078,-4.44336 z m -151.1211,14.96094 -37.7793,8.31641 -12.7422,5.91015 10.5176,22.67969 10.2656,-4.76172 35.1133,-7.73047 z m 252.0839,0.57617 -5.4179,24.40625 46.1758,10.25391 0.3847,0.16211 9.7461,-23.02149 -2.4844,-1.05078 z m 96.9336,31.29492 -9.748,23.02149 46.0449,19.49219 9.7461,-23.02149 z m -444.8984,3.39063 -45.3594,21.03711 10.5176,22.67969 45.3594,-21.03711 z m -1300.0605,15.31836 -18.8946,2.20703 2.9004,24.83203 16.2813,-1.90234 30.8418,2.89062 2.332,-24.89062 z m 83.2441,7.80078 -2.332,24.89063 47.1289,4.41601 0.6172,0.16016 6.3105,-24.19141 -2.5781,-0.67187 z m -151.8008,0.20703 -46.1113,5.38477 -6.3223,2.46679 9.0821,23.29102 3.33,-1.29883 42.9219,-5.01172 z m 1277.5059,14.37695 -47.2696,16.29688 8.1485,23.63477 47.2695,-16.29688 z m 628.3496,1.47657 -13.0645,21.31445 42.6289,26.13086 13.0645,-21.31445 z m -1653.9492,1.83593 -6.3106,24.19141 48.3809,12.62109 6.3105,-24.1914 z m -350.9239,8.32422 -45.1289,17.59571 -4.0234,3.05273 15.1074,19.91797 1.2461,-0.94531 41.8789,-16.32813 z m 447.9493,16.99024 -6.8399,24.04687 c 17.9904,5.11713 34.9621,5.74369 48.9043,9.83789 l 7.0449,-23.98632 c -17.9781,-5.27937 -35.0196,-5.89079 -49.1093,-9.89844 z m 834.9277,2.56445 -48.6641,11.48438 5.7422,24.33203 48.6641,-11.48438 z m -737.8789,16.51367 -4.7305,24.54883 49.0977,9.45899 4.7304,-24.54883 z m 1545.1328,6.03321 -13.0645,21.31445 22.8965,14.03516 16.9668,13.43554 15.5215,-19.59765 -18.1426,-14.36719 z m -904.5801,0.42187 -17.6816,4.17188 -4.1465,0.76953 -26.1699,3.56445 3.373,24.77148 26.7676,-3.64453 5.3301,-0.99023 18.2676,-4.31055 z m -1274.539,8.33984 -39.4864,29.94922 -2.2793,2.92578 19.7188,15.36719 0.2715,-0.34765 36.8828,-27.97461 z m 731.7109,1.35157 -2.9649,24.82422 49.6465,5.93164 2.9668,-24.82227 z m 445.2871,5.55859 -49.543,6.74609 3.3731,24.77149 49.5429,-6.74609 z m -345.5801,6.36328 -3.7929,24.71094 c 17.9905,2.76124 35.2124,2.20631 51.0742,3.10742 l 1.4179,-24.96094 c -17.3083,-0.98329 -33.7061,-0.55624 -48.6992,-2.85742 z m 247.2617,2.9961 -49.9511,2.20703 1.1035,24.97656 49.9512,-2.20898 z m -148.8046,1.88867 -1.0176,24.97851 49.959,2.03711 1.0175,-24.97851 z m 1330.7617,33.30859 -15.5215,19.59766 39.1973,31.04101 15.5214,-19.59765 z m -2333.1387,20.8457 -30.73438,39.4375 19.71875,15.36719 30.73443,-39.4375 z m 2412.1563,42.33985 -17.3223,18.02539 36.0508,34.64648 17.3222,-18.02539 z m -2467.48247,43.50195 -21.58203,45.10156 22.55078,10.79102 21.58203,-45.10156 z m 2539.58397,25.79102 -17.3223,18.02539 36.0508,34.64648 17.3223,-18.02539 z m -2581.43944,67.14258 -13.77539,48.06445 24.03125,6.88867 13.77734,-48.06445 z m 2653.38284,3.63671 -18.6563,16.64063 33.2813,37.31445 18.6582,-16.64062 z m 66.5644,74.62696 -18.6562,16.64258 33.2812,37.3125 18.6563,-16.64063 z m -2747.49802,17.86718 -10.50781,36.66016 -2.04102,13.29492 24.71094,3.793 1.79883,-11.7266 10.07031,-35.13476 z m 2814.09762,56.81058 -18.7382,16.5508 33.1015,37.4726 18.7383,-16.5488 z m -2834.23434,42.5644 -7.58789,49.4219 24.71094,3.793 7.58789,-49.42 z m 2900.43554,32.3828 -18.7363,16.5508 33.1015,37.4746 18.7364,-16.5508 z m -2915.60937,66.459 -7.58789,49.4219 24.71094,3.793 7.58594,-49.42 z m 2981.82617,8.5801 -18.8379,16.4355 32.8731,37.6758 18.8359,-16.4375 z m 65.7441,75.3496 -18.8378,16.4356 32.873,37.6757 18.8379,-16.4355 z m -3062.74605,14.9121 -7.58789,49.4219 24.71094,3.793 7.58789,-49.42 z m 3128.33205,60.7071 -18.9668,16.2851 32.5723,37.9356 18.9667,-16.2872 z m -3143.50783,38.1347 -7.58594,49.4219 24.70899,3.793 7.58789,-49.42 z m 3208.65433,37.7324 -18.9668,16.2871 7.0625,8.2247 25.1035,29.8789 19.1406,-16.084 -25.1894,-29.9785 z m -3223.82816,61.1094 -7.58789,49.4219 24.71094,3.793 7.58789,-49.42 z m 3288.33396,15.4785 -19.1406,16.0821 23.5723,28.0546 8.3144,10.209 19.3848,-15.789 -8.4375,-10.3555 z m 63.7051,77.3262 -19.3828,15.7871 25.1504,30.8789 6.0566,7.8067 19.752,-15.3282 -6.2383,-8.0371 z m -3367.21484,6.0371 -7.58594,49.4219 24.70899,3.793 7.58789,-49.42 z m 3429.44334,72.6094 -19.7519,15.3281 12.3066,15.8574 17.0606,23.959 20.3652,-14.5019 -17.3613,-24.377 z m -3444.61717,26.2344 -7.58789,49.4199 24.71094,3.793 7.58594,-49.42 z m 3502.47847,57.1875 -21.5722,12.6347 6.1484,10.4981 18.3516,32.2422 0.207,0.373 21.877,-12.0996 -0.2813,-0.5078 -18.5039,-32.5078 z m -3517.65425,41.6543 -7.54102,49.1113 -0.91601,4.4297 -6.92578,26.457 24.18359,6.3301 7.0918,-27.084 1.11523,-5.3926 -12.24023,-2.5351 12.35547,1.8984 7.58789,-49.4219 z m 3566.79495,45.9628 -22.0254,11.8282 11.3047,21.0488 11.9961,23.0156 22.1699,-11.5566 -12.0684,-23.1524 z m -3594.84183,82.4043 -12.6621,48.3692 24.18554,6.332 12.66211,-48.3691 z m 3641.09573,6.7715 -22.4473,11.0059 15.6777,31.9746 6.1094,12.8574 22.5821,-10.7304 -6.1758,-12.9961 z m -3666.44924,89.8985 c -4.29773,16.099 -8.59182,32.1508 -13.05859,48.1074 l 24.07421,6.7402 c 4.519,-16.1431 8.83901,-32.2941 13.13868,-48.4004 z m 3709.59374,0.6504 -22.7109,10.4511 4.3242,9.3946 15.4375,34.1504 0.8164,1.8398 22.8496,-10.1465 -0.8516,-1.916 -15.5078,-34.3027 z m 40.9512,91.5039 -22.916,9.9922 9.1972,21.0917 10.586,24.7344 22.9843,-9.8359 -10.6211,-24.8125 z m -3777.09377,4.1113 c -4.0373,14.4744 -8.49478,29.0367 -12.67383,43.8828 l -0.0469,0.1602 -1.125,3.7832 23.96484,7.1191 1.13672,-3.8223 0.11719,-0.4004 0.0176,-0.066 c 4.07689,-14.4832 8.54022,-29.0638 12.68945,-43.9394 z m 3816.42967,88.0996 -23.1133,9.5273 13.5899,32.9688 5.3457,13.2168 23.1758,-9.3731 -5.375,-13.2929 z m -3844.6035,7.5898 c -4.77621,15.8954 -9.6879,31.7646 -14.67773,47.627 l 23.84765,7.502 c 5.0126,-15.9348 9.95731,-31.9074 14.77344,-47.9356 z m 3882.2109,85.2481 -23.2382,9.2168 3.9199,9.8848 13.3203,34.7109 0.6621,1.7891 23.4395,-8.6954 -0.711,-1.9199 -13.4199,-34.9707 z m -3911.98629,9.9922 -11.08594,34.7519 -4.11132,12.8789 23.81445,7.6055 4.11328,-12.8828 11.08594,-34.7559 z m 3947.37499,83.9804 -23.5351,8.4317 7.6074,21.2324 8.9238,25.8086 23.627,-8.1699 -8.9688,-25.9414 z m -3977.791,11.2735 -3.75196,11.7402 -11.48437,35.877 23.81055,7.6211 11.48437,-35.8809 3.75391,-11.7441 z m 4010.3867,83.7031 -23.8027,7.6387 10.5215,32.793 4.5488,14.7343 23.8887,-7.373 -4.5899,-14.8672 z m -4040.8828,11.5195 -7.98437,24.8868 -7.29688,22.7168 23.80274,7.6464 7.29883,-22.7226 7.98437,-24.8887 z m 4070.5234,84.2754 -23.9687,7.1055 2.4961,8.4219 9.666,35.2402 1.0176,4.0352 24.2402,-6.1172 -1.0801,-4.2832 -9.8027,-35.7344 z m -4101.10543,10.9258 -0.49805,1.5469 -10.56054,35.5 -3.13672,11.4668 24.11328,6.5976 3.06445,-11.2011 10.4043,-34.9707 0.41406,-1.2871 z m 4126.49803,86.5762 -24.3594,5.6152 4.2793,18.5625 6.2774,30.0449 24.4707,-5.1132 -6.3301,-30.2969 z m -4153.42576,10.5703 -2.85157,11.4082 -8.1621,36.0098 -0.37305,1.834 24.49805,4.9843 0.31835,-1.5625 8.03907,-35.4707 2.78515,-11.1386 z m 1982.00196,23.0488 -0.1973,24.9981 25.4766,0.2011 2.3301,0.08 21.4843,1.3164 1.5274,-24.9531 -21.8164,-1.3359 -2.9961,-0.1035 z m -50.4707,1.5567 c -16.291,0.5308 -29.5331,4.6882 -40.3555,3.9902 l -1.2012,-0.078 -4.1347,0.5293 -5.5528,0.8691 3.8653,24.6992 5.209,-0.8144 2.1406,-0.2735 c 16.2098,0.6373 29.7571,-3.5743 40.8437,-3.9355 z m 151.5137,4.9941 -2.8711,24.834 4.6504,0.5371 2.1679,0.3105 c 15.3132,4.2469 29.49,4.4042 40.9492,7.1954 l 5.9161,-24.2911 c -15.6855,-3.8204 -29.9235,-3.9073 -41.2325,-7.2246 l -0.8613,-0.2519 -3.7344,-0.5332 z m -252.6758,9.1309 -20.752,4.4609 -3.1074,0.7617 -25.3418,6.9785 6.6367,24.1036 25,-6.8848 2.416,-0.5918 20.4043,-4.3867 z m 352.5137,11.4121 -6.8379,24.0488 22.6621,6.4414 2.2148,0.6934 22.1895,7.6015 8.1035,-23.6504 -22.5039,-7.7089 -2.8477,-0.8907 z m -449.9708,16.334 -0.3671,0.125 -2.9766,1.0996 -34.625,13.9082 -2.873,1.248 -6.6973,3.1328 10.5957,22.6446 6.3808,-2.9864 2.2344,-0.9707 33.9746,-13.6465 2.3164,-0.8554 0.033,-0.012 z m 545.5801,16.9394 -9.3222,23.1973 3.6914,1.4824 1.3359,0.5645 c 13.9818,7.1182 27.8244,11.8055 39.707,17.7929 l 11.25,-22.3261 c -14.2218,-7.1662 -28.2473,-11.8707 -40.1992,-18.0235 l -0.4219,-0.2168 -2.1464,-0.9062 z m 1894.8809,4.7754 -24.6621,4.1016 4.7871,28.791 2.9531,20.3418 24.7402,-3.5918 -2.9902,-20.5957 z m -4194.45314,10.3906 -3.85938,21.375 -4.44921,28.2071 24.69335,3.8964 4.40821,-27.9335 3.80859,-21.1036 z m 1661.00974,9.8125 -18.1523,9.7344 -2.0156,1.1348 -23.7696,14.0351 12.7129,21.5274 23.5469,-13.9043 1.5684,-0.8828 17.9238,-9.6133 z m 730.166,18.2188 -11.7128,22.0859 19.2519,10.209 1.3535,0.748 22.7168,13.0958 12.4863,-21.6583 -22.9082,-13.207 -1.7421,-0.9629 z m -816.9589,33.914 -1.4434,0.9786 -0.207,0.1523 c -12.4759,9.2306 -26.3768,17.9547 -39.7305,28.7227 l 15.6934,19.4609 c 11.7081,-9.441 25.1336,-17.9401 38.4863,-27.7891 l 0.01,-0.01 1.2226,-0.8262 z m 904.0586,16.918 -13.2442,21.2031 0.1992,0.125 1.3848,0.8985 c 13.3987,9.4425 26.8629,17.5711 38.8008,26.5605 l 15.039,-19.9707 c -13.4539,-10.131 -27.2995,-18.4338 -39.8164,-27.2812 l -0.2011,-0.1426 -1.7774,-1.1524 z m 1730.5253,10.2168 -24.8086,3.084 0.254,2.0449 2.8046,34.7305 0.4414,12.0019 24.9844,-0.9218 -0.4629,-12.5469 -2.8925,-35.8125 z m -4223.81246,10.9707 -2.4375,29.3887 -0.63867,21.1582 24.98828,0.7539 0.61914,-20.5 2.38477,-28.7324 z m 1508.64646,23.2109 -13.3886,11.293 -1.7637,1.5508 -22.5918,20.7246 16.9023,18.4219 22.3985,-20.5488 1.3711,-1.2071 13.1894,-11.123 z m 1067.0235,14.5098 -15.3946,19.6992 14.6856,11.4746 0.7832,0.627 23.2656,19.0547 15.8399,-19.3399 -23.3731,-19.1445 -1.0078,-0.8066 z m 1627.4746,52.6035 -0.055,7.5762 -1.7715,34.3105 -0.668,6.9258 24.8848,2.3965 0.7207,-7.4785 1.8281,-35.4199 0.059,-8.1309 z m -2768.5352,2.3164 -24.4922,26.502 -9.4531,10.1055 18.2559,17.08 9.5058,-10.1601 24.5449,-26.5586 z m -1412.18358,7.3008 -24.92578,1.9238 2.49219,32.3008 2.38867,18.1211 24.78516,-3.2656 -2.29883,-17.4531 z m 2630.89058,2.1485 -16.7343,18.5722 c 12.4918,11.2562 24.9715,22.1019 36.6465,33.375 l 17.3652,-17.9844 c -12.3075,-11.8839 -25.0121,-22.9108 -37.2774,-33.9628 z m -1286.8867,63.5136 c -11.4218,12.0855 -22.8863,24.1044 -34.4453,36.0059 l 17.9336,17.418 c 11.6647,-12.0103 23.2079,-24.1117 34.6817,-36.252 z m 1360.1446,5.1309 -17.3321,18.0156 c 11.6892,11.2451 22.9763,23.3317 34.7051,35.4024 l 17.9297,-17.4219 c -11.4946,-11.8296 -22.9666,-24.1285 -35.3027,-35.9961 z m 1468.3671,17.5058 -1.7343,12.2832 -6.3477,34.0352 -0.4238,1.8281 24.3535,5.6504 0.5469,-2.3594 6.5469,-35.1113 1.8125,-12.8301 z m -4159.55464,9.4024 -24.57422,4.5937 0.1543,0.8204 8.30078,34.2089 4.38086,14.6465 23.95117,-7.164 -4.19141,-14.0157 -7.99023,-32.9238 z m 1261.76174,39.7324 -16.0879,16.3711 -19.0215,19.1191 17.7246,17.6329 19.0742,-19.1758 16.1426,-16.4258 z m 1498.9785,6.5957 -18.7422,16.5449 19.6621,22.2715 13.8457,15.1348 18.4453,-16.875 -13.6953,-14.9707 z m 1377.957,39.8418 -4.414,14.0332 -11.627,28.7129 -1.0254,2.0352 22.3203,11.2578 1.4903,-2.9551 12.3906,-30.5957 4.7148,-14.9883 z m -4110.23044,7.1641 -23.33008,8.9863 0.91601,2.375 14.28907,29.7441 8.33984,14.2247 21.56641,-12.6446 -7.81836,-13.3359 -13.40821,-27.9102 z m 1162.84764,17.0449 -23.8613,23.4004 -11.9317,10.6308 16.6329,18.6661 12.3769,-11.0293 24.2891,-23.8203 z m 1636.6719,9.3496 -18.1445,17.1992 2.3808,2.5098 25.9336,26.3984 7.1211,6.9942 17.5176,-17.836 -6.961,-6.8379 -25.621,-26.08 z m 1270.0801,54.082 -4.9473,8.0528 -17.9961,24.4316 -5.3398,6.1152 18.832,16.4434 6.0215,-6.8965 19.2344,-26.1133 5.496,-8.9472 z m -4021.10355,1.9161 -19.16016,16.0605 18.57227,22.1582 15.55859,15.7227 17.76953,-17.584 -14.83007,-14.9883 z m 1040.70705,0.3964 -2.2871,1.8457 -27.4102,20.0157 -9.9433,6.539 13.7382,20.8867 10.4532,-6.875 28.3964,-20.7343 2.7618,-2.2285 z m 1780.9238,13.4551 -17.1973,18.1465 9.9375,9.416 26.9629,24.6504 16.8692,-18.4512 -26.7989,-24.5 z m -1862.5351,40.9512 -5.7422,3.3887 -30.2852,15.9394 -7.1621,3.3418 10.5703,22.6563 7.7051,-3.5957 31.3516,-16.502 6.2656,-3.6953 z m -890.16997,13.0605 -14.78906,20.1543 22.10547,16.2227 19.61328,12.6445 13.54687,-21.0117 -18.97851,-12.2344 z m 3890.12887,4.2578 -3.7031,3.6055 -25.2754,21.041 -8.2226,6.0176 14.7656,20.1738 8.8516,-6.4785 26.625,-22.164 4.4003,-4.2852 z m -1063.5371,8.0938 -16.1953,19.043 17.4961,14.8808 22.1953,16.7031 15.0313,-19.9765 -21.5977,-16.2539 z m -2024.8183,17.166 -11.6778,4.791 -33.539,12.5957 -0.7539,0.2578 8.0781,23.6602 1.1133,-0.3809 34.2441,-12.8613 12.0254,-4.9355 z m -719.2305,22.4668 -10.83984,22.5274 25.54101,12.291 20.79297,8.4414 9.4043,-23.1641 -20.06641,-8.1465 z m 3729.7266,10.6074 -5.0489,3.2246 -28.2988,15.5977 -9.125,4.2832 10.625,22.6309 9.8594,-4.6289 29.7129,-16.377 5.7285,-3.6582 z m -3103.5625,0.1797 -20.0606,6.1758 -27.6074,7.5879 6.625,24.1055 27.9746,-7.6875 20.4238,-6.2872 z m 2196.9179,6.7871 -12.4726,21.668 21.0234,12.1016 23.7656,11.7753 11.0977,-22.4023 -23.0664,-11.4277 z m -2732.39841,18.2442 -6.44726,24.1543 27.94336,7.4589 21.40625,4.334 4.96289,-24.5019 -20.66016,-4.1836 z m 439.96871,0.3437 -28.5742,6.0117 -20.1035,3.5996 4.4063,24.6075 20.4765,-3.6641 28.9414,-6.0918 z m 3111.3848,16.8613 -5.1328,2.0176 -31.2715,10.043 -9.7539,2.4726 6.1426,24.2325 10.5097,-2.6641 32.7754,-10.5254 5.875,-2.3086 z m -3209.0762,0.4786 -1.5566,0.2304 -35.2129,3.9414 -12.0664,0.9161 1.8906,24.9277 12.5137,-0.9473 36.0977,-4.0429 1.998,-0.295 z m -246.19918,1.2578 -2.61133,24.8633 34.0332,3.5761 16.18946,1.1153 1.71679,-24.9414 -15.74023,-1.084 z m 2724.41988,4.6074 -8.2441,23.6016 23.5293,8.2187 24.8613,7.0234 6.7969,-24.0585 -24.1309,-6.8165 z m -2576.5175,2.0195 -8.8262,0.3496 -35.1602,0.1231 -5.0996,-0.166 -0.8183,24.9863 5.5527,0.1816 36.0645,-0.1269 9.2773,-0.3672 z m 3213.1425,16.7305 -9.1953,1.7441 -35.9883,6.0723 -3.5937,0.5313 3.6543,24.7304 3.8457,-0.5683 36.4922,-6.1563 9.4453,-1.791 z m -542.0214,6.8281 -4.6231,24.5684 29.9473,5.6347 19.6621,3.0918 3.8828,-24.6972 -19.293,-3.0332 z m 443.9863,8.4492 -19.375,2.459 -30.0449,3.1914 2.6406,24.8594 30.2988,-3.2168 19.6289,-2.4922 z m -345.9551,6.8516 -3.1348,24.8027 2.4766,0.3145 36.2148,3.4687 11.8516,0.7774 1.6328,-24.9473 -11.4746,-0.7519 -35.4648,-3.3985 z m 247.2285,3.0078 -29.6406,1.9297 -20.0234,0.8945 1.1152,24.9746 20.2773,-0.9043 29.8946,-1.9472 z m -148.6289,3.8867 -0.8828,24.9844 10.6699,0.377 36.6192,0.1972 3.4472,-0.084 -0.6074,-24.9921 -3.0762,0.074 -35.873,-0.1934 z"
     id="cl" />
  <path
     style="color:#000000;fill:#ffffff;-inkscape-stroke:none"
     d="m 1221.1191,1997.4727 -933.46676,178.0839 18.74024,98.2286 933.46682,-178.084 z"
     id="start_line"
     transform="matrix(1,0,0,-1,0,3934.1392)" />
</svg>
