<?xml version='1.0' encoding='utf-8'?>
<svg id="Bean" version="1.1" baseProfile="full" width="3518.86878mm" height="4568.34310mm" viewBox="0.00000,0.00000,3518.86878,4568.34310" xmlns="http://www.w3.org/2000/svg" xmlns:ev="http://www.w3.org/2001/xml-events" xmlns:xlink="http://www.w3.org/1999/xlink" xmlns:sodipodi="http://sodipodi.sourceforge.net/DTD/sodipodi-0.dtd" xmlns:inkscape="http://www.inkscape.org/namespaces/inkscape"><sodipodi:namedview id="trackview" pagecolor="#00c389" bordercolor="#000000" borderopacity="0.25" /><path d="M 33.950121115297975,2487.974852342282 L 26.82446667648783,2591.0150888834805 L 18.55917281074204,2698.898094926304 L 18.410714282852098,2700.8908803357313 L 10.524099050890698,2809.847356377915 L 10.036223007663125,2817.429156002549 L 3.900082346213935,2926.3771741901637 L 3.3443092681290523,2939.449761352522 L 0.19582182415018679,3049.0644902061335 L 0.022347510426300232,3067.309955643556 L 1.0986919308772372,3178.2665636837282 L 1.8714866484854156,3201.131766712146 L 8.412753977594775,3314.0399739247678 L 10.830152061157776,3341.717846119189 L 24.145853538405902,3455.6273346126873 L 29.37351516446995,3489.622390942543 L 50.84396260371898,3601.9917845261925 L 60.78006569093009,3643.6887482479524 L 91.78875941268973,3751.9050173580517 L 109.4297131098939,3802.4987195836784 L 151.36015343467375,3903.9488346565217 L 181.0724724292457,3963.599017771591 L 235.30815967755547,4055.6699492434755 L 257.40756942968824,4089.7626329211953 L 282.33956090518006,4121.842077941453 L 350.2639953975298,4201.920796248676 L 381.62788888243665,4235.465072942057 L 416.0844654952628,4265.8238713626 L 498.5539184871903,4331.685927280145 L 532.1238365634722,4356.169976373529 L 567.7049856570455,4377.626674368243 L 662.5286115657607,4429.293416127507 L 725.5076107841978,4457.874995777051 L 829.402337830229,4496.172768248705 L 885.1016788247844,4512.909928488972 L 994.783035085449,4538.666108482479 L 1044.3769790398758,4547.56702139846 L 1156.5604925924893,4561.608985723282 L 1201.4072067441473,4565.076076373702 L 1313.0935104788757,4568.404273223123 L 1348.6839392098768,4568.130833938769 L 1459.1678715821022,4563.138396981889 L 1481.9156579309586,4561.562624017906 L 1591.5983949773436,4551.314283359715 L 1601.108496456353,4550.329052373027 L 1708.512673633209,4538.10841972178 L 1807.3946799700657,4527.6571244966235 L 1894.271573100763,4521.638542070336 L 1978.7803158461782,4520.888428009113 L 2073.800696650709,4524.724056805399 L 2181.124561346632,4531.153444678079 L 2185.7468368969903,4531.407750186638 L 2298.116825696,4537.040967241481 L 2316.521340812735,4537.606265098867 L 2429.1256279944387,4538.881224744644 L 2462.550926575174,4538.082882409077 L 2574.823241839767,4531.441918462637 L 2632.0982047612865,4524.544803534001 L 2741.0264182877313,4504.654936379212 L 2784.3953340380003,4494.615501725173 L 2826.633960139104,4480.560197864432 L 2928.2259760223583,4441.377144992376 L 2980.13113794144,4417.684976319849 L 3028.821089197376,4387.940172791363 L 3119.1746632749946,4324.992793843891 L 3159.8051867998693,4293.278165851635 L 3196.7601849998528,4257.3478836563645 L 3272.5063705628745,4175.249144767515 L 3301.443045896475,4140.736877844583 L 3326.980977321165,4103.6391446783955 L 3384.9463146818557,4010.245442056721 L 3406.3066153749305,3971.999126820909 L 3424.052561524289,3931.947604127262 L 3462.442827084769,3833.248038235795 L 3475.8164157664073,3793.835174222477 L 3485.6885836669153,3753.4029219366826 L 3505.999354170467,3650.9220868996713 L 3511.7715105731177,3614.3921515422353 L 3514.684132948453,3577.5238643884522 L 3518.8911306854943,3472.134760732849 L 3517.2563105992967,3409.506280329143 L 3507.3352578602407,3302.081908581894 L 3499.828073421331,3251.1417921539014 L 3477.7546924965895,3142.5551528419537 L 3467.714675649295,3102.2721826686234 L 3435.4646888292846,2993.396276318926 L 3424.995087480453,2962.089725222287 L 3384.5442170555903,2853.797552361792 L 3375.2260105684695,2830.7154425343797 L 3328.7505265004324,2723.75403297712 L 3323.711703876468,2712.55569320385 L 3274.9556962228776,2607.8385000948206 L 3230.7624207766016,2511.8856436157403 L 3197.1034566877997,2431.4183374022346 L 3175.9808495597213,2368.942593434568 L 3166.8346097927893,2327.3323862410452 L 3165.351195054582,2304.080631576725 L 3168.315919240019,2278.7884308731523 L 3180.9910493082625,2231.6420283489497 L 3207.384732382093,2161.31840924522 L 3246.652244251952,2071.3727422198767 L 3293.196770816864,1968.6965851429773 L 3297.416760559869,1959.1075539633916 L 3343.217326646883,1851.842285221593 L 3353.343866540878,1826.0705638422542 L 3392.593421740849,1716.9384711699527 L 3405.9017986455574,1673.5207956651093 L 3434.263656575152,1562.2646706193468 L 3444.6533952368104,1508.9244077328765 L 3459.9734717650003,1396.250409430562 L 3464.2095007263842,1341.7417855818408 L 3466.455946832305,1229.2927955579844 L 3464.3116376043836,1173.7391328260865 L 3453.540284947454,1063.1967335392987 L 3444.4996634175277,1006.362687457455 L 3420.7663436571684,899.408461366346 L 3403.92125074893,841.2884597777783 L 3367.281795544558,739.6039893409569 L 3341.4180815355007,680.6826827810697 L 3291.9283225465365,585.9495504571468 L 3255.7755961348894,527.4872823281288 L 3193.491365020751,441.3870705757139 L 3170.9227345466984,412.59256455689837 L 3146.204903924664,385.62043991529157 L 3071.183040657628,309.83486533650597 L 3043.576102826389,284.0797405076562 L 3014.010843952065,260.5985791423889 L 2926.8950176916583,196.88742867981006 L 2895.7236676402376,175.93050387689118 L 2862.9938761296225,157.50208807696282 L 2765.9995736159053,107.83425949504414 L 2731.148144766349,91.73100293230164 L 2695.1100697627767,78.4949115599182 L 2590.71318330627,44.873771930320515 L 2554.8433303595725,34.85569859936487 L 2518.298863564849,27.67864555710355 L 2409.03395930389,10.637929311917787 L 2356.986720307527,5.435548397998389 L 2245.5895015657275,0.47100653582907626 L 2216.8184575067553,0.06117454721908189 L 2105.851482420273,1.8422785292383992 L 2089.6108418265967,2.3809347600748083 L 1979.6357225466918,7.913017053442502 L 1970.815628602171,8.438978133263674 L 1861.310934313235,15.991692107962479 L 1860.026543355017,16.082027827602246 L 1753.581790931184,23.713655925161248 L 1653.3472353494826,29.57362389163339 L 1556.8605117321852,32.44130798600444 L 1454.0391535605831,32.0363753615813 L 1342.6522266173142,30.745196331649367 L 1331.2648194765484,30.749702501524553 L 1218.4579751654671,32.14663257240932 L 1191.6648851902276,33.23537967428797 L 1080.225994561516,40.91934392293024 L 1037.4664805727123,45.822249252229255 L 928.365911323531,63.37110455411408 L 870.6094218676335,76.39871431606707 L 764.8859877136052,107.28271181651485 L 701.1620190844549,130.96600797696493 L 601.2330168915432,176.48825032606163 L 568.543991795988,192.92825474759462 L 537.217422439038,211.83571780856812 L 446.7779150989026,271.2904991198885 L 413.4375599816998,295.3370905265036 L 382.3011442379653,322.1762680893724 L 305.09446088009685,394.7820018937909 L 272.25438946412146,428.90599667000646 L 242.97561995160908,466.1305982921423 L 182.74508970549965,551.105698120535 L 154.52619114527982,596.0432027187542 L 131.495577079145,643.8477670531743 L 91.50306895409273,740.297187615306 L 75.98856556109598,783.5056149017771 L 64.71779566026129,828.0099714294704 L 43.2916702270781,933.8760580560769 L 34.88282392564213,996.8296342582555 L 27.457641313026784,1109.3727917144508 L 26.49537207574582,1148.6910437112251 L 28.468932810474655,1265.1630141524424 L 29.18522483632603,1284.403412493774 L 35.955329445174925,1402.055938075445 L 36.02340397216011,1403.214283516947 L 42.52699906874393,1511.6175016032444 L 45.1719375839441,1607.6898648015247 L 44.43280337170508,1703.1425489365301 L 41.608244546134834,1804.3940610981704 L 38.314313360618144,1910.3192258417967 L 38.15458324564372,1916.9421161855564 L 36.29841974187195,2025.2278864544048 L 36.26628895415797,2039.3483047015648 L 37.67124064418954,2150.9465674831963 L 38.36197158445532,2171.261946645435 L 43.53485734257967,2264.5635799930137 L 33.950121115297975,2487.974852342282 z M 987.4679938390452,2128.8225337185504 L 986.2799006865808,2034.4497999238392 L 987.9582746558626,1936.5360020856851 L 991.1728518173683,1833.1626781647828 L 991.2176324777959,1831.64451177615 L 994.1967956150582,1724.8509233780983 L 994.3672731379665,1715.2832916164125 L 995.208320714917,1606.669392576377 L 995.0426526269123,1589.919233414218 L 991.9554027087318,1477.7807493932182 L 991.2827689010157,1462.4066425529118 L 984.353064565416,1346.9009508224804 L 978.1694492338981,1239.440578640384 L 976.6924732097681,1152.2751295119588 L 980.7266252661494,1091.1296690202287 L 986.7002676319768,1061.6140133712786 L 988.6262650450865,1056.9691100329396 L 990.5382423526908,1054.2716331566874 L 1003.08500454165,1042.4725655633238 L 1028.4347306781617,1025.8076978735887 L 1063.9790431145686,1009.6156338145632 L 1108.5194287123843,996.604467761559 L 1167.0664180836477,987.1871690993432 L 1243.6332015782402,981.9077157264074 L 1337.3344524401946,980.7473774879968 L 1444.8451521570066,981.9936239262198 L 1448.480266873412,982.0218502721752 L 1561.1119154577498,982.4654179303484 L 1577.0938077239389,982.2594472329292 L 1688.3796087804556,978.9519194233529 L 1701.9907312772668,978.3519043759854 L 1812.1508222408195,971.9116642763134 L 1818.3966984412268,971.5052059160363 L 1927.3209156964042,963.6958109202233 L 2031.7757523522946,956.491393706344 L 2129.2226658080426,951.5895181912119 L 2217.6729816646903,950.1698236410059 L 2288.5238302793778,953.3273710904904 L 2335.0257393680054,960.5797074467843 L 2367.2577773517114,970.9600730532638 L 2396.4844623034974,985.9261683865207 L 2422.6630808361197,1005.0715978203042 L 2445.2646421167865,1027.9032396036612 L 2465.8610890754,1056.3752687635663 L 2484.46311535043,1091.9832056904463 L 2499.8934728535596,1134.8066516888825 L 2510.8141308136696,1184.0206062608916 L 2516.0892958693207,1238.157669678857 L 2514.9459274336177,1295.390569894478 L 2506.9817280902594,1353.9645712476467 L 2490.9581326243347,1416.8209308438722 L 2464.089194258044,1491.5291270732805 L 2425.784762867777,1581.2383922223792 L 2380.0325010513798,1682.166831452122 L 2377.3336806609677,1688.2327478605152 L 2331.740423208651,1792.6680878687666 L 2322.353886190467,1815.8094847177467 L 2283.518948259888,1919.2817199229517 L 2269.5171312311113,1962.8662275311397 L 2241.8769562918633,2065.6765976424535 L 2228.818764998643,2133.6991386984355 L 2216.8097177165473,2236.1488827958788 L 2213.7462676170176,2278.8691971941485 L 2214.543378636835,2321.6917917304604 L 2221.0748978234724,2424.0699586728924 L 2224.7611713348374,2460.128824982029 L 2231.186326407651,2495.8016134094996 L 2253.7280815812173,2598.353823626964 L 2267.674995495008,2648.513972610212 L 2302.485789389632,2751.476179570957 L 2314.2557247585364,2782.641450541261 L 2357.5943601083454,2886.249607713537 L 2364.3632633387942,2901.6590903476063 L 2412.488542877916,3006.1491511996605 L 2413.3142920289174,3007.9323090461503 L 2459.8932258988725,3107.973625954787 L 2498.9600726271824,3197.884362266865 L 2529.275291265829,3279.0420941682833 L 2550.933690130471,3352.1608157241017 L 2563.73198321994,3415.1200715015916 L 2568.394960814855,3465.610422856476 L 2566.918652413035,3502.593285437353 L 2561.9288632818307,3527.7699648122198 L 2554.6006938171577,3546.6103436005064 L 2543.641438754895,3564.267886105109 L 2533.645325821374,3575.1023361771827 L 2532.8415853760634,3575.662284744828 L 2526.4450073211674,3578.129382714547 L 2489.8810277740145,3584.8058228423997 L 2423.154586721076,3588.7527254092747 L 2336.484743168742,3587.771407949694 L 2235.623289896199,3582.715124997069 L 2125.9891043606735,3576.1473340876537 L 2116.7429090433448,3575.683807302742 L 2005.4144771609429,3571.189881520105 L 1982.04003392165,3570.822071384301 L 1871.5167291982136,3571.803095149092 L 1842.9047860051155,3572.9201368875442 L 1733.1758110277317,3580.521846118327 L 1716.0769296389592,3582.017264650245 L 1606.771671289995,3593.570241445389 L 1602.9986799820397,3593.98427591268 L 1498.4589269793998,3605.87898943759 L 1404.8911752515812,3614.6216067368123 L 1323.5901412905528,3618.2953561939926 L 1252.2097067020181,3616.1682543957977 L 1187.4007275036417,3608.0561410824193 L 1130.6429298024286,3594.7278590163833 L 1086.617233974686,3578.49906541293 L 1058.8305799303243,3563.3588947528656 L 1044.9317463327197,3552.258957474469 L 1033.1710852378042,3538.393863506958 L 1016.5668128183489,3510.206319370697 L 997.6447169033067,3464.424572431447 L 979.9371600613456,3402.627524362074 L 965.7227396362603,3328.233834718233 L 956.0186704958817,3245.2201419004136 L 950.9430036510004,3157.609528386149 L 950.0661645311487,3067.219228880607 L 952.764812308728,2973.2656877996474 L 958.3194132954058,2874.642986217284 L 965.8596390265179,2770.472007912786 L 974.1832250195514,2661.8281420599446 L 974.439418450437,2658.312998835723 L 982.1154468825457,2547.314101522715 L 982.8106522395965,2534.9037768465014 L 993.6628830019415,2281.9483876786403 L 993.3710453217207,2235.2939252824285 L 987.4679938390452,2128.8225337185504 z" id="road" style="fill:#232f3e;fill-opacity:1;stroke:none;" /><path d="M 918.6528234252916,2280.5747907333234 L 907.9006094085267,2531.1988827369823 L 907.2602910340606,2542.6294030036574 L 899.6277116984155,2653.000006422321 L 899.3917441342994,2656.237637384486 L 891.0787857854683,2764.742785579816 L 891.0553449652753,2765.0574359076204 L 883.515119234163,2869.2284142121184 L 883.4380861747061,2870.4255404686396 L 877.8834851880283,2969.048242051003 L 877.7957315441201,2971.1123347608486 L 875.0970837665409,3065.065875841808 L 875.0696930854266,3067.946738805612 L 875.9465322052782,3158.337038311154 L 876.0685524238479,3161.9473335261673 L 881.1442192687292,3249.557947040432 L 881.525913702976,3253.9281373869194 L 891.2299828433546,3336.941830204739 L 892.0554031001016,3342.309470677874 L 906.2698235251869,3416.7031603217147 L 907.8386819073781,3423.2868914356773 L 925.5462387493393,3485.0839395050502 L 928.3316524910031,3493.072418803833 L 947.2537484060452,3538.8541657430833 L 951.9451671946617,3548.2726157086204 L 968.549439614117,3576.460159844881 L 972.038820101296,3581.843215162416 L 975.9754503342687,3586.908390691931 L 987.7361114291842,3600.7734846594417 L 992.6883051373272,3606.0699494005016 L 998.128817234089,3610.8634438879553 L 1012.0276508316936,3621.963381166352 L 1017.3281642121591,3625.829283654781 L 1022.9462403848287,3629.217183338157 L 1050.7328944291903,3644.3573539982217 L 1060.676946937365,3648.8702349955183 L 1104.7026427651076,3665.0990285989715 L 1113.4972755537212,3667.7417381105925 L 1170.2550732549344,3681.0700201766285 L 1178.0856959845808,3682.4754274791517 L 1242.8946751829571,3690.58754079253 L 1249.9757353121663,3691.134976158386 L 1321.356169900701,3693.262077956581 L 1326.9757112792804,3693.2189033327354 L 1408.2767452403089,3689.545153875555 L 1411.8685009796018,3689.2963476180844 L 1505.4362527074204,3680.553730318862 L 1506.9378476777902,3680.3981675314903 L 1611.3287327065161,3668.520392461588 L 1614.8038550909048,3668.1390450563717 L 1723.2862807220322,3656.6730372455113 L 1739.0351402394733,3655.2956877076394 L 1846.9603149948405,3647.8189405919316 L 1873.3129073146397,3646.7901063971003 L 1981.7828275334498,3645.827308824535 L 2003.3116405476353,3646.1660769208434 L 2113.3527430506297,3650.608037876607 L 2121.868958248484,3651.0349695728128 L 2231.138349366203,3657.5809069568027 L 2231.8681823478387,3657.621060458154 L 2332.729635620382,3662.677343410779 L 2335.635611691445,3662.7666009672084 L 2422.305455243779,3663.747918426789 L 2427.583133967053,3663.621864373805 L 2494.3095750199914,3659.67496180693 L 2503.3529902181253,3658.585943660303 L 2539.9169697652783,3651.9095035324503 L 2546.764693304795,3650.3243296397077 L 2553.433950057601,3648.1050711353796 L 2559.830528112497,3645.6379731656607 L 2568.026079994461,3641.897104427892 L 2575.7139670348743,3637.2005565023387 L 2576.517707480185,3636.6406079346934 L 2582.9330532998993,3631.6330350938124 L 2588.7680530156836,3625.9598326419296 L 2598.764165949204,3615.125382569856 L 2603.333114686088,3609.676077266236 L 2607.36541964788,3603.818540450523 L 2618.324674710143,3586.1609979459204 L 2621.697353766945,3580.1221060665807 L 2624.4993452642125,3573.798181430741 L 2631.8275147288855,3554.957802642454 L 2633.9391339944073,3548.7347188508784 L 2635.497897347119,3542.3506790162796 L 2640.487686478323,3517.173999641413 L 2641.399079594531,3511.4061151112915 L 2641.858967338005,3505.584806613326 L 2643.335275739825,3468.6019440324485 L 2643.077146252531,3458.7132366002847 L 2638.414168657616,3408.2228852454004 L 2637.228823746209,3400.179708967296 L 2624.43053065674,3337.220453189806 L 2622.845264838746,3330.8599842150693 L 2601.186865974104,3257.741262659251 L 2599.5337710242884,3252.7981230124137 L 2569.218552385642,3171.6403911109956 L 2567.747256624518,3167.9958474540354 L 2528.680409896208,3078.0851111419574 L 2527.884806324003,3076.3169522303883 L 2481.338613377617,2976.3459556326416 L 2480.5780550187583,2974.7035735561135 L 2432.7631750053756,2870.887455082027 L 2426.5287008110386,2856.694606025176 L 2383.9540737137063,2754.912936615254 L 2373.113629605735,2726.2088386338887 L 2339.382856684458,2626.44108174275 L 2326.5378429021,2580.2439223569822 L 2304.744896135595,2481.0983659950975 L 2299.081076683742,2449.652551737285 L 2295.831600619442,2417.866407107459 L 2289.498907694739,2318.604738433692 L 2288.796271458849,2280.857541508804 L 2291.4966368951004,2243.2005023278507 L 2302.9900182524552,2145.149928355107 L 2315.0159260046216,2082.504743777981 L 2341.4758714343425,1984.0843543002009 L 2354.3716394040284,1943.9427286788214 L 2392.224802347752,1843.0863455329172 L 2400.8701689096542,1821.7722167838047 L 2445.964094856424,1718.4806392192254 L 2448.4498478775436,1712.893616795803 L 2494.0939052041736,1612.2038741864294 L 2494.7602193741213,1610.689816631758 L 2533.0646507643883,1520.9805514826594 L 2534.6635781160717,1516.9113323175006 L 2561.5325164823626,1442.2031360880924 L 2563.6338391515274,1435.347713639959 L 2579.657434617452,1372.4913540437335 L 2581.2979196692927,1364.0692072721858 L 2589.262119012651,1305.495205919017 L 2589.9309656907644,1296.888581100798 L 2591.0743341264674,1239.6556808851772 L 2590.7357589852163,1230.8840499275084 L 2585.460593929565,1176.746986509543 L 2584.0331273722086,1167.7731897597787 L 2573.1124694120986,1118.5592351877697 L 2570.4527179002716,1109.38239283168 L 2555.022360397142,1066.5589468332437 L 2550.9386160799227,1057.2555826395771 L 2532.3365898048924,1021.6476457126971 L 2526.628264582001,1012.4167612712738 L 2506.0318176233877,983.9447321113687 L 2502.4683496538,979.3982311610291 L 2498.565534292426,975.1394746386696 L 2475.963973011759,952.3078328553127 L 2471.6049828278797,948.2412341981261 L 2466.9367840582495,944.5336824036104 L 2440.758165525627,925.3882529698269 L 2435.836373412245,922.0792648430502 L 2430.6685115947794,919.1695149799035 L 2401.4418266429934,904.2034196466467 L 2395.9389694562215,901.6608001893716 L 2390.248747087236,899.570891025311 L 2358.01670910353,889.1905254188314 L 2352.3530481119465,887.6087243665753 L 2346.5828691443585,886.4755054651656 L 2300.080960055731,879.2231691088717 L 2291.862974951042,878.401740543516 L 2221.0121263363544,875.2441930940315 L 2216.4693299059904,875.1794827800405 L 2128.019014049343,876.5991773302466 L 2125.4547023766568,876.6842283140628 L 2028.007788920909,881.5861038291948 L 2026.6151425086164,881.6691503154824 L 1922.160305852726,888.8735675293617 L 1921.9575072803757,888.8878310640416 L 1813.2797293843694,896.6795574242951 L 1807.5269540247257,897.0539266184157 L 1698.1504276711282,903.4483575309531 L 1685.6139227353176,904.0010005333687 L 1575.496397610873,907.273805987551 L 1560.7763229809163,907.463514689568 L 1448.9191258234282,907.0229969876913 L 1445.5709948983392,906.9969990456266 L 1338.203781763084,905.752415880377 L 1336.4057701092786,905.7531273808836 L 1242.7045192473242,906.9134656192942 L 1238.474031356497,907.085373056433 L 1161.9072478619046,912.3648264293688 L 1155.155745653146,913.1389693761002 L 1096.6087562818825,922.556268038316 L 1087.4893105783199,924.6132590533613 L 1042.9489249805042,937.6244251063655 L 1032.88724572327,941.3638929211733 L 997.3429332868632,957.5559569801987 L 992.1815082717752,960.1517471520199 L 987.2352078469935,963.1371360563842 L 961.8854817104818,979.8020037461192 L 956.621215113029,983.5988339682161 L 951.704938942966,987.8365988465636 L 939.1581767540067,999.6356664399271 L 933.9729023199053,1005.0236656151191 L 929.3499387126665,1010.9012342922985 L 927.4379614050622,1013.5987111685507 L 922.9823458429219,1020.694106631428 L 919.3459330956372,1028.2421957368633 L 917.4199356825275,1032.8870990752023 L 914.9702772520545,1039.7094823309606 L 913.1906820045544,1046.7364859932275 L 907.2170396387271,1076.2521416421775 L 905.8893270648161,1086.1921799898898 L 901.8551750084348,1147.33764048162 L 901.703237760443,1153.5457855337422 L 903.1802137845731,1240.7112346621675 L 903.293312525497,1243.7491922950094 L 909.476927857015,1351.2095644771057 L 909.4876764665389,1351.3924611257642 L 916.3809999855154,1466.2917501604559 L 917.0005276402147,1480.4520320918887 L 920.0528607488906,1591.3222293889535 L 920.205448760559,1606.7499047636436 L 919.3724465032752,1714.324821513051 L 919.2154280735779,1723.137094764767 L 916.2484702715957,1829.4931604451556 L 916.2072249287256,1830.8914715159424 L 912.9945112339774,1934.2048706806343 L 912.9692906895077,1935.2505902085966 L 911.2909167202259,2033.1643880467507 L 911.2858434379552,2035.3939277699862 L 912.4739365904196,2129.7666615646976 L 912.5829993704616,2132.974353011367 L 918.3840394710422,2237.605798940539 L 918.6528234252916,2280.5747907333234 z M 987.4679938390452,2128.8225337185504 L 986.2799006865808,2034.4497999238392 L 987.9582746558626,1936.5360020856851 L 991.1728518173683,1833.1626781647828 L 991.2176324777959,1831.64451177615 L 994.1967956150582,1724.8509233780983 L 994.3672731379665,1715.2832916164125 L 995.208320714917,1606.669392576377 L 995.0426526269123,1589.919233414218 L 991.9554027087318,1477.7807493932182 L 991.2827689010157,1462.4066425529118 L 984.353064565416,1346.9009508224804 L 978.1694492338981,1239.440578640384 L 976.6924732097681,1152.2751295119588 L 980.7266252661494,1091.1296690202287 L 986.7002676319768,1061.6140133712786 L 988.6262650450865,1056.9691100329396 L 990.5382423526908,1054.2716331566874 L 1003.08500454165,1042.4725655633238 L 1028.4347306781617,1025.8076978735887 L 1063.9790431145686,1009.6156338145632 L 1108.5194287123843,996.604467761559 L 1167.0664180836477,987.1871690993432 L 1243.6332015782402,981.9077157264074 L 1337.3344524401946,980.7473774879968 L 1444.8451521570066,981.9936239262198 L 1448.480266873412,982.0218502721752 L 1561.1119154577498,982.4654179303484 L 1577.0938077239389,982.2594472329292 L 1688.3796087804556,978.9519194233529 L 1701.9907312772668,978.3519043759854 L 1812.1508222408195,971.9116642763134 L 1818.3966984412268,971.5052059160363 L 1927.3209156964042,963.6958109202233 L 2031.7757523522946,956.491393706344 L 2129.2226658080426,951.5895181912119 L 2217.6729816646903,950.1698236410059 L 2288.5238302793778,953.3273710904904 L 2335.0257393680054,960.5797074467843 L 2367.2577773517114,970.9600730532638 L 2396.4844623034974,985.9261683865207 L 2422.6630808361197,1005.0715978203042 L 2445.2646421167865,1027.9032396036612 L 2465.8610890754,1056.3752687635663 L 2484.46311535043,1091.9832056904463 L 2499.8934728535596,1134.8066516888825 L 2510.8141308136696,1184.0206062608916 L 2516.0892958693207,1238.157669678857 L 2514.9459274336177,1295.390569894478 L 2506.9817280902594,1353.9645712476467 L 2490.9581326243347,1416.8209308438722 L 2464.089194258044,1491.5291270732805 L 2425.784762867777,1581.2383922223792 L 2380.0325010513798,1682.166831452122 L 2377.3336806609677,1688.2327478605152 L 2331.740423208651,1792.6680878687666 L 2322.353886190467,1815.8094847177467 L 2283.518948259888,1919.2817199229517 L 2269.5171312311113,1962.8662275311397 L 2241.8769562918633,2065.6765976424535 L 2228.818764998643,2133.6991386984355 L 2216.8097177165473,2236.1488827958788 L 2213.7462676170176,2278.8691971941485 L 2214.543378636835,2321.6917917304604 L 2221.0748978234724,2424.0699586728924 L 2224.7611713348374,2460.128824982029 L 2231.186326407651,2495.8016134094996 L 2253.7280815812173,2598.353823626964 L 2267.674995495008,2648.513972610212 L 2302.485789389632,2751.476179570957 L 2314.2557247585364,2782.641450541261 L 2357.5943601083454,2886.249607713537 L 2364.3632633387942,2901.6590903476063 L 2412.488542877916,3006.1491511996605 L 2413.3142920289174,3007.9323090461503 L 2459.8932258988725,3107.973625954787 L 2498.9600726271824,3197.884362266865 L 2529.275291265829,3279.0420941682833 L 2550.933690130471,3352.1608157241017 L 2563.73198321994,3415.1200715015916 L 2568.394960814855,3465.610422856476 L 2566.918652413035,3502.593285437353 L 2561.9288632818307,3527.7699648122198 L 2554.6006938171577,3546.6103436005064 L 2543.641438754895,3564.267886105109 L 2533.645325821374,3575.1023361771827 L 2532.8415853760634,3575.662284744828 L 2526.4450073211674,3578.129382714547 L 2489.8810277740145,3584.8058228423997 L 2423.154586721076,3588.7527254092747 L 2336.484743168742,3587.771407949694 L 2235.623289896199,3582.715124997069 L 2125.9891043606735,3576.1473340876537 L 2116.7429090433448,3575.683807302742 L 2005.4144771609429,3571.189881520105 L 1982.04003392165,3570.822071384301 L 1871.5167291982136,3571.803095149092 L 1842.9047860051155,3572.9201368875442 L 1733.1758110277317,3580.521846118327 L 1716.0769296389592,3582.017264650245 L 1606.771671289995,3593.570241445389 L 1602.9986799820397,3593.98427591268 L 1498.4589269793998,3605.87898943759 L 1404.8911752515812,3614.6216067368123 L 1323.5901412905528,3618.2953561939926 L 1252.2097067020181,3616.1682543957977 L 1187.4007275036417,3608.0561410824193 L 1130.6429298024286,3594.7278590163833 L 1086.617233974686,3578.49906541293 L 1058.8305799303243,3563.3588947528656 L 1044.9317463327197,3552.258957474469 L 1033.1710852378042,3538.393863506958 L 1016.5668128183489,3510.206319370697 L 997.6447169033067,3464.424572431447 L 979.9371600613456,3402.627524362074 L 965.7227396362603,3328.233834718233 L 956.0186704958817,3245.2201419004136 L 950.9430036510004,3157.609528386149 L 950.0661645311487,3067.219228880607 L 952.764812308728,2973.2656877996474 L 958.3194132954058,2874.642986217284 L 965.8596390265179,2770.472007912786 L 974.1832250195514,2661.8281420599446 L 974.439418450437,2658.312998835723 L 982.1154468825457,2547.314101522715 L 982.8106522395965,2534.9037768465014 L 993.6628830019415,2281.9483876786403 L 993.3710453217207,2235.2939252824285 L 987.4679938390452,2128.8225337185504 z" id="il" style="fill:#ffffff;fill-opacity:1;stroke:none;" /><path d="M 33.950121115297975,2487.974852342282 L 26.82446667648783,2591.0150888834805 L 18.55917281074204,2698.898094926304 L 18.410714282852098,2700.8908803357313 L 10.524099050890698,2809.847356377915 L 10.036223007663125,2817.429156002549 L 3.900082346213935,2926.3771741901637 L 3.3443092681290523,2939.449761352522 L 0.19582182415018679,3049.0644902061335 L 0.022347510426300232,3067.309955643556 L 1.0986919308772372,3178.2665636837282 L 1.8714866484854156,3201.131766712146 L 8.412753977594775,3314.0399739247678 L 10.830152061157776,3341.717846119189 L 24.145853538405902,3455.6273346126873 L 29.37351516446995,3489.622390942543 L 50.84396260371898,3601.9917845261925 L 60.78006569093009,3643.6887482479524 L 91.78875941268973,3751.9050173580517 L 109.4297131098939,3802.4987195836784 L 151.36015343467375,3903.9488346565217 L 181.0724724292457,3963.599017771591 L 235.30815967755547,4055.6699492434755 L 257.40756942968824,4089.7626329211953 L 282.33956090518006,4121.842077941453 L 350.2639953975298,4201.920796248676 L 381.62788888243665,4235.465072942057 L 416.0844654952628,4265.8238713626 L 498.5539184871903,4331.685927280145 L 532.1238365634722,4356.169976373529 L 567.7049856570455,4377.626674368243 L 662.5286115657607,4429.293416127507 L 725.5076107841978,4457.874995777051 L 829.402337830229,4496.172768248705 L 885.1016788247844,4512.909928488972 L 994.783035085449,4538.666108482479 L 1044.3769790398758,4547.56702139846 L 1156.5604925924893,4561.608985723282 L 1201.4072067441473,4565.076076373702 L 1313.0935104788757,4568.404273223123 L 1348.6839392098768,4568.130833938769 L 1459.1678715821022,4563.138396981889 L 1481.9156579309586,4561.562624017906 L 1591.5983949773436,4551.314283359715 L 1601.108496456353,4550.329052373027 L 1708.512673633209,4538.10841972178 L 1807.3946799700657,4527.6571244966235 L 1894.271573100763,4521.638542070336 L 1978.7803158461782,4520.888428009113 L 2073.800696650709,4524.724056805399 L 2181.124561346632,4531.153444678079 L 2185.7468368969903,4531.407750186638 L 2298.116825696,4537.040967241481 L 2316.521340812735,4537.606265098867 L 2429.1256279944387,4538.881224744644 L 2462.550926575174,4538.082882409077 L 2574.823241839767,4531.441918462637 L 2632.0982047612865,4524.544803534001 L 2741.0264182877313,4504.654936379212 L 2784.3953340380003,4494.615501725173 L 2826.633960139104,4480.560197864432 L 2928.2259760223583,4441.377144992376 L 2980.13113794144,4417.684976319849 L 3028.821089197376,4387.940172791363 L 3119.1746632749946,4324.992793843891 L 3159.8051867998693,4293.278165851635 L 3196.7601849998528,4257.3478836563645 L 3272.5063705628745,4175.249144767515 L 3301.443045896475,4140.736877844583 L 3326.980977321165,4103.6391446783955 L 3384.9463146818557,4010.245442056721 L 3406.3066153749305,3971.999126820909 L 3424.052561524289,3931.947604127262 L 3462.442827084769,3833.248038235795 L 3475.8164157664073,3793.835174222477 L 3485.6885836669153,3753.4029219366826 L 3505.999354170467,3650.9220868996713 L 3511.7715105731177,3614.3921515422353 L 3514.684132948453,3577.5238643884522 L 3518.8911306854943,3472.134760732849 L 3517.2563105992967,3409.506280329143 L 3507.3352578602407,3302.081908581894 L 3499.828073421331,3251.1417921539014 L 3477.7546924965895,3142.5551528419537 L 3467.714675649295,3102.2721826686234 L 3435.4646888292846,2993.396276318926 L 3424.995087480453,2962.089725222287 L 3384.5442170555903,2853.797552361792 L 3375.2260105684695,2830.7154425343797 L 3328.7505265004324,2723.75403297712 L 3323.711703876468,2712.55569320385 L 3274.9556962228776,2607.8385000948206 L 3230.7624207766016,2511.8856436157403 L 3197.1034566877997,2431.4183374022346 L 3175.9808495597213,2368.942593434568 L 3166.8346097927893,2327.3323862410452 L 3165.351195054582,2304.080631576725 L 3168.315919240019,2278.7884308731523 L 3180.9910493082625,2231.6420283489497 L 3207.384732382093,2161.31840924522 L 3246.652244251952,2071.3727422198767 L 3293.196770816864,1968.6965851429773 L 3297.416760559869,1959.1075539633916 L 3343.217326646883,1851.842285221593 L 3353.343866540878,1826.0705638422542 L 3392.593421740849,1716.9384711699527 L 3405.9017986455574,1673.5207956651093 L 3434.263656575152,1562.2646706193468 L 3444.6533952368104,1508.9244077328765 L 3459.9734717650003,1396.250409430562 L 3464.2095007263842,1341.7417855818408 L 3466.455946832305,1229.2927955579844 L 3464.3116376043836,1173.7391328260865 L 3453.540284947454,1063.1967335392987 L 3444.4996634175277,1006.362687457455 L 3420.7663436571684,899.408461366346 L 3403.92125074893,841.2884597777783 L 3367.281795544558,739.6039893409569 L 3341.4180815355007,680.6826827810697 L 3291.9283225465365,585.9495504571468 L 3255.7755961348894,527.4872823281288 L 3193.491365020751,441.3870705757139 L 3170.9227345466984,412.59256455689837 L 3146.204903924664,385.62043991529157 L 3071.183040657628,309.83486533650597 L 3043.576102826389,284.0797405076562 L 3014.010843952065,260.5985791423889 L 2926.8950176916583,196.88742867981006 L 2895.7236676402376,175.93050387689118 L 2862.9938761296225,157.50208807696282 L 2765.9995736159053,107.83425949504414 L 2731.148144766349,91.73100293230164 L 2695.1100697627767,78.4949115599182 L 2590.71318330627,44.873771930320515 L 2554.8433303595725,34.85569859936487 L 2518.298863564849,27.67864555710355 L 2409.03395930389,10.637929311917787 L 2356.986720307527,5.435548397998389 L 2245.5895015657275,0.47100653582907626 L 2216.8184575067553,0.06117454721908189 L 2105.851482420273,1.8422785292383992 L 2089.6108418265967,2.3809347600748083 L 1979.6357225466918,7.913017053442502 L 1970.815628602171,8.438978133263674 L 1861.310934313235,15.991692107962479 L 1860.026543355017,16.082027827602246 L 1753.581790931184,23.713655925161248 L 1653.3472353494826,29.57362389163339 L 1556.8605117321852,32.44130798600444 L 1454.0391535605831,32.0363753615813 L 1342.6522266173142,30.745196331649367 L 1331.2648194765484,30.749702501524553 L 1218.4579751654671,32.14663257240932 L 1191.6648851902276,33.23537967428797 L 1080.225994561516,40.91934392293024 L 1037.4664805727123,45.822249252229255 L 928.365911323531,63.37110455411408 L 870.6094218676335,76.39871431606707 L 764.8859877136052,107.28271181651485 L 701.1620190844549,130.96600797696493 L 601.2330168915432,176.48825032606163 L 568.543991795988,192.92825474759462 L 537.217422439038,211.83571780856812 L 446.7779150989026,271.2904991198885 L 413.4375599816998,295.3370905265036 L 382.3011442379653,322.1762680893724 L 305.09446088009685,394.7820018937909 L 272.25438946412146,428.90599667000646 L 242.97561995160908,466.1305982921423 L 182.74508970549965,551.105698120535 L 154.52619114527982,596.0432027187542 L 131.495577079145,643.8477670531743 L 91.50306895409273,740.297187615306 L 75.98856556109598,783.5056149017771 L 64.71779566026129,828.0099714294704 L 43.2916702270781,933.8760580560769 L 34.88282392564213,996.8296342582555 L 27.457641313026784,1109.3727917144508 L 26.49537207574582,1148.6910437112251 L 28.468932810474655,1265.1630141524424 L 29.18522483632603,1284.403412493774 L 35.955329445174925,1402.055938075445 L 36.02340397216011,1403.214283516947 L 42.52699906874393,1511.6175016032444 L 45.1719375839441,1607.6898648015247 L 44.43280337170508,1703.1425489365301 L 41.608244546134834,1804.3940610981704 L 38.314313360618144,1910.3192258417967 L 38.15458324564372,1916.9421161855564 L 36.29841974187195,2025.2278864544048 L 36.26628895415797,2039.3483047015648 L 37.67124064418954,2150.9465674831963 L 38.36197158445532,2171.261946645435 L 43.53485734257967,2264.5635799930137 L 33.950121115297975,2487.974852342282 z M 113.2913893077049,2167.9113749371877 L 112.65519600041839,2149.200025112564 L 111.26736317698719,2038.9615498502815 L 111.2969571834468,2025.9559630424255 L 113.139085253573,1918.4889987355955 L 113.28620494300091,1912.3889745125796 L 116.5720079680201,1806.725192503221 L 116.57907859861396,1806.4854820208054 L 119.40363742418421,1705.2339698591652 L 119.43055492780132,1703.7232911599517 L 120.16968914004035,1608.2706070249462 L 120.1435310208817,1605.6258450519738 L 117.49859250568153,1509.5534818536935 L 117.3923871676211,1507.1259912999608 L 110.89153507060462,1398.7684940766467 L 110.8288348503854,1397.7015969935733 L 104.10502754022434,1280.8536371362063 L 103.445290693006,1263.1323736252136 L 101.51092140182729,1148.9733315749972 L 102.39718943534834,1112.7604833111059 L 109.55488823461688,1004.271565931286 L 117.29913478491247,946.2935749137504 L 137.8676882429949,844.6647354407503 L 147.80246082900413,805.435768379985 L 161.47792970561352,767.3491156786098 L 199.97299954591026,674.5110478838667 L 220.27275093104413,632.3749255782825 L 245.14558426018664,592.7659004523077 L 303.08219943442407,511.0271271419398 L 328.89014963500085,478.2152747008788 L 357.8372311482682,448.13647110044263 L 432.4985811501493,377.9243875352361 L 459.94490939374407,354.2660164741144 L 489.3339803078839,333.0692722400462 L 577.2095861300234,275.2999955111746 L 604.82413473204,258.6329595619524 L 633.6396957967697,244.14100240115212 L 729.8086108585704,200.3316521442402 L 788.4952826659731,178.52048973571985 L 889.3939777803128,149.04589810289616 L 942.5863079945865,137.04778452486013 L 1047.698917074953,120.14039366659674 L 1087.080945965985,115.62475863437896 L 1195.7678575140853,108.1305495847442 L 1220.4452820527672,107.12777332888315 L 1331.7440171737687,105.74951874786485 L 1342.23238619256,105.74536834102263 L 1453.1698242376938,107.03133696920108 L 1453.7437897192315,107.03579376066773 L 1556.5651478908335,107.44072638509087 L 1559.0886045644424,107.40820469602468 L 1655.57532818174,104.54052060165363 L 1657.7244527864996,104.44578138364824 L 1757.959008368201,98.5858134171761 L 1758.9451993472126,98.52163578134287 L 1865.339256984198,90.89364228061365 L 1866.522248609657,90.81043833159026 L 1975.6282774764386,83.28522094892969 L 1983.7520331553133,82.8007840102825 L 2092.738137959316,77.31845214688337 L 2107.6965289213763,76.82232451887971 L 2216.88618064094,75.06974792281181 L 2243.3853053083662,75.44721733047791 L 2351.5833233458357,80.26918322888874 L 2399.5184508996153,85.06053811150798 L 2505.288633138427,101.55622512944085 L 2537.5026915018607,107.88281916293883 L 2569.122075711338,116.71378120119749 L 2670.6760024810105,149.41934233188866 L 2702.4435032875194,161.08693399169655 L 2733.164977560948,175.28192680953092 L 2827.489593930897,223.58269041629353 L 2856.340961708443,239.8273707904057 L 2883.818560646539,258.30093622021604 L 2968.5337008150514,320.2563727169203 L 2994.5955039149762,340.95503822363787 L 3018.93104520038,363.6582046311051 L 3091.88765291531,437.357499666136 L 3113.676561345346,461.1335811097717 L 3133.5709376079662,486.5161021135702 L 3193.416016921236,569.2444895246642 L 3226.7108353129074,623.0852587645124 L 3273.7650973326545,713.156370877127 L 3297.5845917778606,767.4206476092321 L 3332.5514613653722,864.4632372712974 L 3348.065326855968,917.9901540933051 L 3370.788100817002,1020.3903546630048 L 3379.1143330797054,1072.733378485003 L 3389.4521618931244,1178.826683276787 L 3391.427038361173,1229.990769041354 L 3389.267603866253,1338.0842716348054 L 3385.366275610973,1388.286013954334 L 3370.626447476854,1496.692480926226 L 3361.057623433707,1545.8182199459588 L 3333.6691504286605,1653.256011399048 L 3321.4120357340453,1693.2440153642922 L 3283.1394716759037,1799.659616415557 L 3273.8125653281163,1823.3962958976483 L 3228.603703172489,1929.275789601313 L 3224.7168806443233,1938.1077689855942 L 3178.343101915556,2040.4072602558263 L 3177.9169723802274,2041.365036530836 L 3138.649460510368,2131.3107035561793 L 3137.1673757180233,2134.964608321808 L 3110.773692644193,2205.2882274255376 L 3108.562879429123,2212.169991784725 L 3095.8877493608793,2259.3163943089276 L 3093.825929683003,2270.056795528292 L 3090.861205497566,2295.3489962318645 L 3090.3775028502714,2302.0943090315923 L 3090.50336248498,2308.8557713268006 L 3091.986777223187,2332.107525991121 L 3092.5688204091916,2337.801031197826 L 3093.583318578583,2343.433576739005 L 3102.729558345515,2385.0437839325277 L 3104.931702647693,2392.9638074561985 L 3126.0543097757713,2455.439551423865 L 3127.912720623493,2460.3603836823345 L 3161.571684712295,2540.82768989584 L 3162.6404589065764,2543.2607661012194 L 3206.8337343528524,2639.2136225802997 L 3206.964115797747,2639.495173819219 L 3255.5155167943135,2743.772916779515 L 3260.1565210142803,2754.0871401651916 L 3306.047187985652,2859.702617297069 L 3314.629620283801,2880.962142417704 L 3354.2805045305413,2987.1126495840535 L 3363.9233087525367,3015.946884339753 L 3395.3374520574507,3122.0009842564577 L 3404.584457207833,3159.1022001539036 L 3425.9260487429547,3264.088912894844 L 3432.8401248156188,3311.004483306036 L 3442.3464523866282,3413.938243845287 L 3443.8520670966077,3471.6169830261742 L 3439.8020695231608,3573.073090386272 L 3437.2345809891553,3605.572636272252 L 3432.146401517009,3637.773923666195 L 3412.4390976034883,3737.2098835689776 L 3403.736938424204,3772.8502716695343 L 3391.948332448416,3807.5920852014733 L 3354.781093372547,3903.1473075635963 L 3339.1385055136243,3938.451678339097 L 3320.309958561428,3972.164805907542 L 3264.195042298296,4062.5771116189408 L 3241.6841762053805,4095.2775715648613 L 3216.1774265483177,4125.699026080708 L 3143.018125246162,4204.993928262932 L 3110.4447555072074,4236.664079089026 L 3074.631654981497,4264.618411494485 L 2987.798360970393,4325.1132875320245 L 2944.883013022359,4351.330372580252 L 2899.1337767508408,4372.212662169751 L 2801.2854031611755,4409.951828603995 L 2764.053302901224,4422.341163457704 L 2725.8248857288922,4431.19062832187 L 2620.86846010081,4450.35526248965 L 2568.1193809595648,4456.707365444572 L 2459.440280731812,4463.135788913378 L 2428.6546391733973,4463.871084693139 L 2318.0973306087767,4462.6193019192015 L 2301.1459400156964,4462.098637032286 L 2189.6844505240088,4456.510963933147 L 2185.4270936307303,4456.276735294446 L 2078.285637180705,4449.858274845666 L 2076.825711604285,4449.785086405943 L 1981.805330799754,4445.949457609657 L 1978.1146292356548,4445.891382325056 L 1893.6058864902395,4446.641496386279 L 1889.088211249224,4446.817871397614 L 1802.2113181185268,4452.836453823901 L 1799.5114947413524,4453.072572539467 L 1700.6294884044958,4463.523867764623 L 1700.033752934819,4463.589241627879 L 1593.0045735801223,4475.767206379701 L 1584.2452885990203,4476.674654003016 L 1475.8346485680518,4486.8041347210265 L 1454.8829988219209,4488.2554866334485 L 1346.7023567203082,4493.143844823195 L 1313.9226853230916,4493.395689215291 L 1205.4169335146455,4490.162271246954 L 1164.1127359685513,4486.969051858554 L 1055.6669357704627,4473.394935579479 L 1009.9910605608022,4465.197221197739 L 904.484412387248,4440.421376756032 L 853.1865157864887,4425.00681169898 L 754.0128531037135,4388.449322434652 L 696.012485605501,4362.127181023619 L 605.0302337207803,4312.553496535647 L 573.6660046720461,4293.639751260982 L 544.0746444570354,4272.057443118377 L 464.3046902501821,4208.351270785379 L 433.9324770609769,4181.591099333709 L 406.2863510377477,4152.023045186684 L 340.57308344674846,4074.5511562590023 L 318.5958175918993,4046.273491701831 L 299.1154401886171,4016.221180251811 L 247.03090134940868,3927.802055326665 L 219.6671845263026,3872.8669047076446 L 179.5513057148318,3775.807095887397 L 163.30416823209487,3729.210814873934 L 133.34486175460617,3624.65676944361 L 124.19358751225931,3586.25334843018 L 103.29573875125291,3476.880751556193 L 98.48092258684531,3445.570395524184 L 85.45027100267339,3334.09937319568 L 83.22376096160991,3308.6070636024992 L 76.79817778163824,3197.695669732749 L 76.08640202175062,3176.635876116524 L 75.02580610434627,3067.302726559118 L 75.18558381424673,3050.497825469846 L 78.29856021156908,2942.119415267593 L 78.81045438667864,2930.0789234087897 L 84.90068566846607,2821.9460325473456 L 85.35004456608954,2814.962805621939 L 93.2093136110197,2706.3841271626825 L 93.34605171584796,2704.5486670911905 L 101.60531991753743,2596.7443112164506 L 101.64577151188776,2596.1892886020996 L 108.7714259506979,2493.149052060901 L 108.88119521760065,2491.189527112025 L 118.46593144488234,2267.778254762757 L 118.41985181116328,2260.411760700197 L 113.2913893077049,2167.9113749371877 z" id="ol" style="fill:#ffffff;fill-opacity:1;stroke:none;" /><path d="M 519.0994136873578,2261.5887808035986 L 508.2471829250129,2514.5441699714597 L 500.57115449290404,2625.5430672844677 L 492.17124333738946,2735.183169701781 L 484.28462810542806,2844.1396457439646 L 478.14848744397887,2953.0876639315793 L 475.0,3062.702392785191 L 476.07634442045094,3173.6590008253634 L 482.6176117495603,3286.567208037985 L 495.9333132268084,3400.4766965314834 L 517.4037606660575,3512.846090115133 L 548.4124543878171,3621.0623592252323 L 590.342894712597,3722.5124742980756 L 644.5785819609067,3814.58340576996 L 712.5030164532565,3894.6621240771838 L 794.972469445184,3960.524179994728 L 889.7960953538991,4012.1909217539924 L 993.6908223999303,4050.488694225647 L 1103.372178660595,4076.2448742191546 L 1215.5556922132084,4090.286838543976 L 1327.2419959479369,4093.615035393397 L 1437.7259283201622,4088.6225984365174 L 1547.4086653665472,4078.374257778326 L 1656.6985110718454,4065.939070507381 L 1766.0037694208095,4054.386093712237 L 1875.7327443981933,4046.7843844814543 L 1986.2560491216298,4045.8033607166635 L 2097.5844810040317,4050.2972864993008 L 2209.529184703274,4057.0034922664317 L 2321.8991735022837,4062.636709321275 L 2434.503460683987,4063.911668967052 L 2546.7757759485803,4057.270705020612 L 2655.703989475025,4037.3808378658223 L 2757.296005358279,3998.1977849937666 L 2847.649579435898,3935.2504060462957 L 2923.3957649989197,3853.151667157446 L 2981.3611023596104,3759.7579645357714 L 3019.75136792009,3661.0583986443044 L 3040.062138423642,3558.577563607293 L 3044.269136160683,3453.1884599516898 L 3034.348083421627,3345.7640882044407 L 3012.2747024968858,3237.177448892493 L 2980.0247156768755,3128.3015425427957 L 2939.5738452520127,3020.0093696823005 L 2893.0983611839756,2913.047960125041 L 2843.92763472141,2807.4400421249593 L 2795.802355182288,2702.949981272905 L 2752.463719832479,2599.341824100629 L 2717.652925937855,2496.379617139884 L 2695.1111707642885,2393.8274069224194 L 2688.579651577651,2291.4492399799874 L 2700.5886988597467,2188.999495882544 L 2728.2288737989948,2086.1891257712305 L 2767.063811729574,1982.7168905660255 L 2812.6570691818906,1878.2815505577742 L 2860.572202686353,1772.5818660373252 L 2906.372768773367,1665.3165972955267 L 2945.622323973338,1556.1845046232252 L 2973.9841819029325,1444.9283795774627 L 2989.3042584311224,1332.2543812751483 L 2991.550704537043,1219.805391251292 L 2980.7793518801136,1109.2629919645042 L 2957.0460321197543,1002.3087658733951 L 2920.406576915382,900.6242954365738 L 2870.916817926418,805.8911631126508 L 2808.6325868122794,719.7909513602359 L 2733.6107235452437,644.0053767814503 L 2646.494897284837,580.2942263188714 L 2549.5005947711197,530.6263977369528 L 2445.103708314613,497.0052581073551 L 2335.838804053654,479.9645418621693 L 2224.4415853118544,475.0 L 2113.474610225372,476.7811039820193 L 2003.4994909454674,482.313186275387 L 1893.9947966565314,489.8659002500858 L 1784.4284451397125,497.7213334935527 L 1674.2683541761598,504.1615735932247 L 1562.9825531196432,507.469101402801 L 1450.3509045353053,507.02553374462786 L 1337.1464742390156,505.7132865132413 L 1224.3396299279343,507.1102165841261 L 1112.9007392992228,514.7941808327683 L 1003.8001700500415,532.3430361346532 L 898.0767358960132,563.227033635101 L 798.1477337031017,608.7492759841977 L 707.7082263629663,668.204057295518 L 630.5015430050979,740.8097910999365 L 570.2710127589885,825.7848909283292 L 530.2785046339362,922.234311490461 L 508.85237920075303,1028.1003981170675 L 501.4271965881377,1140.6435555732628 L 503.4007573228665,1257.11552601448 L 510.1708619317154,1374.768051596151 L 517.1353109414604,1490.8528744737077 L 520.2225608596409,1602.9913584947076 L 519.3815132826904,1711.605257534743 L 516.402350145428,1818.3988459327948 L 513.0848150325584,1925.0830580737847 L 511.2286515287866,2033.3688283426332 L 512.6336032188182,2144.9670911242647 L 519.0994136873578,2261.5887808035986 z" id="cl" style="fill:none;stroke:#ff9900;stroke-width:25;stroke-opacity:1;stroke-dasharray:50,50;stroke-dashoffset:0;" /><polyline points="993.5169641618311,2258.6211564805335 43.53485734257967,2264.5635799930137" id="start_line" style="fill:none;stroke:#ffffff;stroke-width:100;stroke-opacity:1;" /></svg>