<?xml version='1.0' encoding='utf-8'?>
<svg id="Trapezoid" version="1.1" baseProfile="full" width="5160.00000mm" height="4058.76515mm" viewBox="0.00000,0.00000,5160.00000,4058.76515" xmlns="http://www.w3.org/2000/svg" xmlns:ev="http://www.w3.org/2001/xml-events" xmlns:xlink="http://www.w3.org/1999/xlink" xmlns:sodipodi="http://sodipodi.sourceforge.net/DTD/sodipodi-0.dtd" xmlns:inkscape="http://www.inkscape.org/namespaces/inkscape"><sodipodi:namedview id="trackview" pagecolor="#00c389" bordercolor="#000000" borderopacity="0.25" /><path d="M 0.0,1031.4028646637403 L 0.0,3028.1055260542753 L 1.0895014833623122,3056.86024938581 L 8.675420136703394,3156.8224081415456 L 11.937677147410113,3185.4122456113782 L 17.353983191501868,3213.673256849338 L 39.50998121636184,3309.494800183739 L 47.04927801242076,3337.264930381062 L 56.66833358653747,3364.3849395480484 L 93.03071783566423,3455.7656455377883 L 104.67437442301485,3482.080021620668 L 118.27586475452728,3507.437872241672 L 168.01179146728458,3592.2847579210375 L 183.49312162773657,3616.5406756282364 L 200.7655182898958,3639.555571693619 L 262.73583619505916,3715.9253046655044 L 281.7002556653227,3737.5672066501093 L 302.2479518218795,3757.712015162805 L 375.0332932493244,3823.855423668526 L 397.0464411161631,3842.387623979014 L 420.3988124972078,3859.2009484045143 L 502.33210256377026,3913.6030843399026 L 526.8897898629166,3928.601121607247 L 552.5119739394265,3941.6978696961714 L 641.7166132188236,3983.1127069709546 L 668.256370875024,3994.2330662684594 L 695.561517345994,4003.313270206385 L 789.9943634872035,4030.7922437158713 L 817.9083251014488,4037.780224422324 L 846.2710371085225,4042.635911290224 L 943.7692009519909,4055.54964284295 L 972.4180253687158,4058.2451923036374 L 1001.188683580888,4058.7651474879763 L 1099.5190679547195,4056.8178610788123 L 1128.2465827265532,4055.1592404502517 L 1156.766224216167,4051.3315549016083 L 1253.676670776018,4034.567851163035 L 1281.8249011323176,4028.5930494789563 L 1309.4403122567392,4020.5053924767985 L 1402.71118490271,3989.3092271463765 L 1429.635423998497,3979.155091217196 L 1455.714101600211,3966.992702393399 L 1545.976488673405,3920.6580122353016 L 1555.155309214782,3915.78650922235 L 4652.69470198912,2217.1358744751324 L 4680.275448855381,2200.451682490358 L 4719.490571307173,2174.395726083197 L 4741.988976428552,2158.234730385994 L 4779.4380154461505,2129.2080705179296 L 4800.699321806271,2111.4510193327765 L 4835.934281140003,2079.773343483865 L 4855.8455040344115,2060.514599553396 L 4888.679141592983,2026.3542460553845 L 4907.13447079558,2005.6961522673503 L 4937.392305351367,1969.2346526487997 L 4954.293667400418,1947.286988175838 L 4981.814905800036,1908.7181024855731 L 4997.072485170417,1885.5974994076416 L 5021.710876805683,1845.1261865543893 L 5035.2435931975115,1820.9555100642892 L 5056.868207195696,1778.7968386446855 L 5068.604146403146,1753.704534130152 L 5087.100067406775,1710.0825395326294 L 5096.976863477338,1684.2019500047354 L 5112.245802315803,1639.3484438632454 L 5120.210968969195,1612.8171013583046 L 5132.171784977273,1566.970439682025 L 5138.182994522769,1539.9293344026255 L 5146.772126730182,1493.3331509284262 L 5150.7974350001705,1465.925982007479 L 5155.969239900953,1418.8278935058565 L 5157.987256005465,1391.2003053749097 L 5159.747496366029,1342.9390695356244 L 5160.0,1329.088473745813 L 5160.0,1031.4028646637344 L 5159.4021897067705,1010.0960947136022 L 5155.236838319899,935.9251415012717 L 5150.465635650058,893.5795465956021 L 5138.257322024525,821.7265589815364 L 5128.774917326735,780.1814294959005 L 5108.59838490017,710.1471358256765 L 5094.524024915318,669.9249258683768 L 5066.63300528968,602.5900480197505 L 5048.143683260717,564.1965752184929 L 5012.888922190547,500.40788834901514 L 4990.217152069745,464.32597290068765 L 4948.041998630788,404.8856567587947 L 4921.4728910818685,371.56904968535446 L 4872.907722299222,317.22460073462196 L 4842.7753992653825,287.0922777007823 L 4788.430950314639,238.52710891812677 L 4755.114343241201,211.958001369209 L 4695.674027099313,169.7828479302554 L 4659.592111650981,147.11107780944963 L 4595.803424781504,111.85631673928145 L 4557.409951980248,93.36699471031886 L 4490.0750741316215,65.47597508468203 L 4449.852864174329,51.401615099832725 L 4379.818570504108,31.225082673267423 L 4338.273441018465,21.7426779754756 L 4266.420453404395,9.53436434994211 L 4224.074858498729,4.763161680101632 L 4149.903905286394,0.5978102932297702 L 4128.59713533626,0.0 L 1031.4028646637403,0.0 L 1010.0960947136076,0.5978102932296565 L 935.9251415012708,4.763161680101518 L 893.5795465956037,9.53436434994228 L 821.7265589815346,21.742677975475715 L 780.1814294958912,31.225082673267536 L 710.1471358256701,51.401615099833066 L 669.924925868379,65.47597508468203 L 602.5900480197531,93.36699471031858 L 564.1965752184966,111.85631673928094 L 500.407888349019,147.11107780944934 L 464.32597290068406,169.7828479302567 L 404.88565675879545,211.95800136921144 L 371.5690496853597,238.52710891812762 L 317.22460073462025,287.09227770077916 L 287.09227770077865,317.224600734621 L 238.527108918127,371.56904968536077 L 211.95800136921162,404.88565675879534 L 169.78284793025705,464.3259729006835 L 147.11107780944928,500.407888349019 L 111.85631673928094,564.1965752184965 L 93.36699471031818,602.5900480197538 L 65.47597508468152,669.9249258683802 L 51.40161509983295,710.1471358256708 L 31.225082673267536,780.1814294958915 L 21.742677975475715,821.7265589815348 L 9.53436434994228,893.5795465956039 L 4.763161680101518,935.9251415012709 L 0.5978102932296565,1010.0960947136075 L 0.0,1031.4028646637403 z M 762.3709785591487,999.8454513516691 L 767.4300119139876,970.0701136486687 L 775.791015215664,941.0484290386657 L 787.3488439964925,913.1453620444031 L 801.9581518535435,886.7118099230762 L 819.435218264,862.0801899297082 L 839.5602589773181,839.5602589773185 L 862.0801899297084,819.435218264 L 886.7118099230757,801.9581518535439 L 913.1453620444039,787.3488439964922 L 941.048429038665,775.7910152156641 L 970.0701136486688,767.4300119139875 L 999.8454513516689,762.3709785591487 L 1042.0646361081663,760.0 L 4117.935363891833,760.0 L 4160.154548648328,762.3709785591487 L 4189.929886351333,767.4300119139882 L 4218.951570961333,775.7910152156637 L 4246.854637955596,787.3488439964925 L 4273.2881900769235,801.9581518535439 L 4297.919810070291,819.4352182639992 L 4320.439741022686,839.5602589773222 L 4340.564781735996,862.0801899297032 L 4358.041848146456,886.7118099230764 L 4372.651156003511,913.1453620444094 L 4384.208984784335,941.0484290386628 L 4392.569988086012,970.0701136486697 L 4397.629021440852,999.8454513516713 L 4400.0,1042.0646361081635 L 4400.0,1322.1608742139972 L 4398.997438437348,1349.648518005469 L 4396.851315417707,1369.1926218248377 L 4393.287117869131,1388.5284521393826 L 4388.323786293205,1407.553256416534 L 4381.9876963293755,1426.1659349472588 L 4374.312518592234,1444.2675780997636 L 4365.339039742461,1461.7619919353158 L 4355.114945742436,1478.5562093924243 L 4343.694568448336,1494.5609843229722 L 4331.138596885139,1509.6912657553053 L 4317.5137547391605,1523.8666498634764 L 4302.89244578166,1537.0118072412815 L 4287.352369108063,1549.0568832101521 L 4273.117405771326,1558.5151115917033 L 1194.27862791205,3246.9105704177578 L 1134.2936393764965,3277.702863288077 L 1095.7192377040499,3290.6047840909773 L 1055.6396031321146,3297.5378149846 L 1014.9727192932636,3298.343161884307 L 974.6500201726108,3293.0023791310905 L 935.5950565512245,3281.6377919708007 L 898.7023430063416,3264.5096948176815 L 864.8168699565801,3242.010389473169 L 834.7147500080997,3214.6551998485484 L 809.0854418776117,3183.0706689901635 L 788.515959035402,3147.9802087424614 L 773.4774247534538,3110.187530728826 L 764.3142815017668,3070.558238146941 L 760.0,3013.7075240667664 L 760.0,1042.0646361081663 L 762.3709785591487,999.8454513516691 z" id="road" style="fill:#232f3e;fill-opacity:1;stroke:none;" /><path d="M 685.0,1042.0646361081663 L 685.0,3013.7075240667664 L 685.2150331875057,3019.3827984085165 L 689.5293146892725,3076.2335124886913 L 690.1731812045435,3081.876243568264 L 691.2421889764038,3087.454074733651 L 700.4053322280907,3127.0833673155357 L 701.8933513325761,3132.5643140650072 L 703.791849143257,3137.916947453228 L 718.8303834252052,3175.7096254668636 L 721.1284735411298,3180.903252325327 L 723.812978211823,3185.9080912636828 L 744.3824610540327,3220.998551511385 L 747.4379867435955,3225.785903690437 L 750.8470124006005,3230.328317387552 L 776.4763205310885,3261.912848245937 L 780.2192980581144,3266.1842762692145 L 784.2747644048035,3270.160225317773 L 814.3768843532839,3297.515414942394 L 818.7215845901596,3301.1730860563057 L 823.3306052574708,3304.491505350812 L 857.2160783072322,3326.9908106953244 L 862.0629902741696,3329.950949629669 L 867.1200002892707,3332.5358341209044 L 904.0127138341536,3349.6639312740235 L 909.2508238978771,3351.85873903011 L 914.6399975434632,3353.650884544174 L 953.6949611648495,3365.015471704464 L 959.2042956939765,3366.3946784228424 L 964.8021993795828,3367.353037673086 L 1005.1248985002356,3372.6938204263024 L 1010.7792717403789,3373.2258367672275 L 1016.4576911243604,3373.3284595009786 L 1057.1245749632114,3372.523112601272 L 1062.7944791944947,3372.1957532666875 L 1068.423355804287,3371.4402890136657 L 1108.5029903762222,3364.507258120043 L 1114.0585621570704,3363.328020945554 L 1119.5089722474163,3361.731772853023 L 1158.0833739198629,3348.8298520501226 L 1163.397368478242,3346.8257462746265 L 1168.5444758996332,3344.4252747962455 L 1228.5294644351868,3313.6329819259263 L 1230.341073752564,3312.671501068107 L 4309.17985161184,1624.2760422420522 L 4314.6234200722865,1620.9831096134783 L 4328.858383409023,1611.524881231927 L 4333.298858104034,1608.3352110285307 L 4348.838934777631,1596.29013505966 L 4353.035245243442,1592.785453904697 L 4367.656554200942,1579.640296526892 L 4371.586400824839,1575.8392286458784 L 4385.211242970818,1561.6638445377073 L 4388.853742155541,1557.5865891848055 L 4401.409713718738,1542.4563077524724 L 4404.745508859998,1538.1245318696501 L 4416.165886154098,1522.1197569391022 L 4419.177250503515,1517.5564800158268 L 4429.40134450354,1500.7622625587182 L 4432.072275370348,1495.9917343040938 L 4441.04575422012,1478.4973204685416 L 4443.362058011065,1473.5448919459368 L 4451.0372357482065,1455.443248793432 L 4452.986603393712,1450.335237702399 L 4459.3226933575415,1431.722559171674 L 4460.894765723343,1426.4861099930677 L 4465.8580972992695,1407.4613057159163 L 4467.04452023588,1402.124245463404 L 4470.608717784456,1382.788415148859 L 4471.403186521954,1377.3791054934093 L 4473.549309541595,1357.8350016740405 L 4473.947602193802,1352.3821882271413 L 4474.950163756454,1324.8945444356696 L 4475.0,1322.1608742139972 L 4475.0,1042.0646361081635 L 4474.882011126337,1037.8593525653748 L 4472.5110325671885,995.6401678088824 L 4471.569347829719,987.2824846038143 L 4466.510314474879,957.5071469008127 L 4464.638787231895,949.3074502918076 L 4456.277783930218,920.2857656818007 L 4453.499949722682,912.347171611281 L 4441.942120941857,884.4441046170276 L 4438.292912646667,876.8664455115155 L 4423.683604789612,850.4328933901826 L 4419.208913318401,843.3114627095916 L 4401.731846907941,818.6798427162184 L 4396.487944102233,812.1041965833031 L 4376.362903388923,789.584265630922 L 4370.415734369086,783.637096611085 L 4347.895803416691,763.512055897762 L 4341.320157283775,758.2681530920539 L 4316.688537290408,740.7910866815986 L 4309.567106609817,736.3163952103877 L 4283.13355448849,721.7070873533363 L 4275.555895382978,718.057879058146 L 4247.652828388715,706.5000502773172 L 4239.714234318198,703.7222160697813 L 4210.6925497081975,695.3612127681058 L 4202.492853099188,693.4896855251204 L 4172.717515396183,688.430652170281 L 4164.359832191118,687.4889674328125 L 4122.140647434622,685.1179888736638 L 4117.935363891833,685.0 L 1042.0646361081663,685.0 L 1037.8593525653769,685.1179888736638 L 995.6401678088796,687.4889674328125 L 987.2824846038137,688.4306521702811 L 957.5071469008136,693.4896855251199 L 949.3074502918049,695.3612127681051 L 920.2857656818011,703.7222160697817 L 912.347171611283,706.5000502773177 L 884.4441046170219,718.0578790581458 L 876.8664455115108,721.7070873533357 L 850.4328933901827,736.3163952103874 L 843.3114627095904,740.7910866815994 L 818.679842716223,758.2681530920555 L 812.1041965833081,763.5120558977626 L 789.5842656309178,783.6370966110811 L 783.6370966110808,789.5842656309181 L 763.5120558977627,812.1041965833078 L 758.2681530920554,818.679842716223 L 740.7910866815989,843.311462709591 L 736.3163952103871,850.4328933901832 L 721.7070873533361,876.86644551151 L 718.0578790581459,884.4441046170216 L 706.5000502773173,912.3471716112842 L 703.7222160697816,920.2857656818019 L 695.3612127681052,949.3074502918048 L 693.48968552512,957.5071469008134 L 688.4306521702811,987.2824846038138 L 687.4889674328125,995.6401678088797 L 685.1179888736638,1037.8593525653769 L 685.0,1042.0646361081663 z M 762.3709785591487,999.8454513516691 L 767.4300119139876,970.0701136486687 L 775.791015215664,941.0484290386657 L 787.3488439964925,913.1453620444031 L 801.9581518535435,886.7118099230762 L 819.435218264,862.0801899297082 L 839.5602589773181,839.5602589773185 L 862.0801899297084,819.435218264 L 886.7118099230757,801.9581518535439 L 913.1453620444039,787.3488439964922 L 941.048429038665,775.7910152156641 L 970.0701136486688,767.4300119139875 L 999.8454513516689,762.3709785591487 L 1042.0646361081663,760.0 L 4117.935363891833,760.0 L 4160.154548648328,762.3709785591487 L 4189.929886351333,767.4300119139882 L 4218.951570961333,775.7910152156637 L 4246.854637955596,787.3488439964925 L 4273.2881900769235,801.9581518535439 L 4297.919810070291,819.4352182639992 L 4320.439741022686,839.5602589773222 L 4340.564781735996,862.0801899297032 L 4358.041848146456,886.7118099230764 L 4372.651156003511,913.1453620444094 L 4384.208984784335,941.0484290386628 L 4392.569988086012,970.0701136486697 L 4397.629021440852,999.8454513516713 L 4400.0,1042.0646361081635 L 4400.0,1322.1608742139972 L 4398.997438437348,1349.648518005469 L 4396.851315417707,1369.1926218248377 L 4393.287117869131,1388.5284521393826 L 4388.323786293205,1407.553256416534 L 4381.9876963293755,1426.1659349472588 L 4374.312518592234,1444.2675780997636 L 4365.339039742461,1461.7619919353158 L 4355.114945742436,1478.5562093924243 L 4343.694568448336,1494.5609843229722 L 4331.138596885139,1509.6912657553053 L 4317.5137547391605,1523.8666498634764 L 4302.89244578166,1537.0118072412815 L 4287.352369108063,1549.0568832101521 L 4273.117405771326,1558.5151115917033 L 1194.27862791205,3246.9105704177578 L 1134.2936393764965,3277.702863288077 L 1095.7192377040499,3290.6047840909773 L 1055.6396031321146,3297.5378149846 L 1014.9727192932636,3298.343161884307 L 974.6500201726108,3293.0023791310905 L 935.5950565512245,3281.6377919708007 L 898.7023430063416,3264.5096948176815 L 864.8168699565801,3242.010389473169 L 834.7147500080997,3214.6551998485484 L 809.0854418776117,3183.0706689901635 L 788.515959035402,3147.9802087424614 L 773.4774247534538,3110.187530728826 L 764.3142815017668,3070.558238146941 L 760.0,3013.7075240667664 L 760.0,1042.0646361081663 L 762.3709785591487,999.8454513516691 z" id="il" style="fill:#ffffff;fill-opacity:1;stroke:none;" /><path d="M 0.0,1031.4028646637403 L 0.0,3028.1055260542753 L 1.0895014833623122,3056.86024938581 L 8.675420136703394,3156.8224081415456 L 11.937677147410113,3185.4122456113782 L 17.353983191501868,3213.673256849338 L 39.50998121636184,3309.494800183739 L 47.04927801242076,3337.264930381062 L 56.66833358653747,3364.3849395480484 L 93.03071783566423,3455.7656455377883 L 104.67437442301485,3482.080021620668 L 118.27586475452728,3507.437872241672 L 168.01179146728458,3592.2847579210375 L 183.49312162773657,3616.5406756282364 L 200.7655182898958,3639.555571693619 L 262.73583619505916,3715.9253046655044 L 281.7002556653227,3737.5672066501093 L 302.2479518218795,3757.712015162805 L 375.0332932493244,3823.855423668526 L 397.0464411161631,3842.387623979014 L 420.3988124972078,3859.2009484045143 L 502.33210256377026,3913.6030843399026 L 526.8897898629166,3928.601121607247 L 552.5119739394265,3941.6978696961714 L 641.7166132188236,3983.1127069709546 L 668.256370875024,3994.2330662684594 L 695.561517345994,4003.313270206385 L 789.9943634872035,4030.7922437158713 L 817.9083251014488,4037.780224422324 L 846.2710371085225,4042.635911290224 L 943.7692009519909,4055.54964284295 L 972.4180253687158,4058.2451923036374 L 1001.188683580888,4058.7651474879763 L 1099.5190679547195,4056.8178610788123 L 1128.2465827265532,4055.1592404502517 L 1156.766224216167,4051.3315549016083 L 1253.676670776018,4034.567851163035 L 1281.8249011323176,4028.5930494789563 L 1309.4403122567392,4020.5053924767985 L 1402.71118490271,3989.3092271463765 L 1429.635423998497,3979.155091217196 L 1455.714101600211,3966.992702393399 L 1545.976488673405,3920.6580122353016 L 1555.155309214782,3915.78650922235 L 4652.69470198912,2217.1358744751324 L 4680.275448855381,2200.451682490358 L 4719.490571307173,2174.395726083197 L 4741.988976428552,2158.234730385994 L 4779.4380154461505,2129.2080705179296 L 4800.699321806271,2111.4510193327765 L 4835.934281140003,2079.773343483865 L 4855.8455040344115,2060.514599553396 L 4888.679141592983,2026.3542460553845 L 4907.13447079558,2005.6961522673503 L 4937.392305351367,1969.2346526487997 L 4954.293667400418,1947.286988175838 L 4981.814905800036,1908.7181024855731 L 4997.072485170417,1885.5974994076416 L 5021.710876805683,1845.1261865543893 L 5035.2435931975115,1820.9555100642892 L 5056.868207195696,1778.7968386446855 L 5068.604146403146,1753.704534130152 L 5087.100067406775,1710.0825395326294 L 5096.976863477338,1684.2019500047354 L 5112.245802315803,1639.3484438632454 L 5120.210968969195,1612.8171013583046 L 5132.171784977273,1566.970439682025 L 5138.182994522769,1539.9293344026255 L 5146.772126730182,1493.3331509284262 L 5150.7974350001705,1465.925982007479 L 5155.969239900953,1418.8278935058565 L 5157.987256005465,1391.2003053749097 L 5159.747496366029,1342.9390695356244 L 5160.0,1329.088473745813 L 5160.0,1031.4028646637344 L 5159.4021897067705,1010.0960947136022 L 5155.236838319899,935.9251415012717 L 5150.465635650058,893.5795465956021 L 5138.257322024525,821.7265589815364 L 5128.774917326735,780.1814294959005 L 5108.59838490017,710.1471358256765 L 5094.524024915318,669.9249258683768 L 5066.63300528968,602.5900480197505 L 5048.143683260717,564.1965752184929 L 5012.888922190547,500.40788834901514 L 4990.217152069745,464.32597290068765 L 4948.041998630788,404.8856567587947 L 4921.4728910818685,371.56904968535446 L 4872.907722299222,317.22460073462196 L 4842.7753992653825,287.0922777007823 L 4788.430950314639,238.52710891812677 L 4755.114343241201,211.958001369209 L 4695.674027099313,169.7828479302554 L 4659.592111650981,147.11107780944963 L 4595.803424781504,111.85631673928145 L 4557.409951980248,93.36699471031886 L 4490.0750741316215,65.47597508468203 L 4449.852864174329,51.401615099832725 L 4379.818570504108,31.225082673267423 L 4338.273441018465,21.7426779754756 L 4266.420453404395,9.53436434994211 L 4224.074858498729,4.763161680101632 L 4149.903905286394,0.5978102932297702 L 4128.59713533626,0.0 L 1031.4028646637403,0.0 L 1010.0960947136076,0.5978102932296565 L 935.9251415012708,4.763161680101518 L 893.5795465956037,9.53436434994228 L 821.7265589815346,21.742677975475715 L 780.1814294958912,31.225082673267536 L 710.1471358256701,51.401615099833066 L 669.924925868379,65.47597508468203 L 602.5900480197531,93.36699471031858 L 564.1965752184966,111.85631673928094 L 500.407888349019,147.11107780944934 L 464.32597290068406,169.7828479302567 L 404.88565675879545,211.95800136921144 L 371.5690496853597,238.52710891812762 L 317.22460073462025,287.09227770077916 L 287.09227770077865,317.224600734621 L 238.527108918127,371.56904968536077 L 211.95800136921162,404.88565675879534 L 169.78284793025705,464.3259729006835 L 147.11107780944928,500.407888349019 L 111.85631673928094,564.1965752184965 L 93.36699471031818,602.5900480197538 L 65.47597508468152,669.9249258683802 L 51.40161509983295,710.1471358256708 L 31.225082673267536,780.1814294958915 L 21.742677975475715,821.7265589815348 L 9.53436434994228,893.5795465956039 L 4.763161680101518,935.9251415012709 L 0.5978102932296565,1010.0960947136075 L 0.0,1031.4028646637403 z M 79.52718393277402,942.2314115912392 L 83.8271735812562,904.0679479211316 L 95.33052152189711,836.3640911517178 L 103.87642595411968,798.9220374191558 L 122.88787011074584,732.9318546161336 L 135.57221962002382,696.6820663711924 L 161.8526800516688,633.2354223717053 L 178.51596158329335,598.6337617341784 L 211.73494625175005,538.5285348991227 L 232.16760937219877,506.01013782788044 L 271.9073702711592,450.0021862585688 L 295.852462386384,419.9759904643971 L 341.61324896499644,368.76964664838533 L 368.7696466483844,341.6132489649971 L 419.97599046439615,295.85246238638456 L 450.0021862585688,271.9073702711591 L 506.01013782788095,232.16760937219846 L 538.5285348991223,211.73494625175036 L 598.633761734179,178.51596158329315 L 633.2354223717044,161.85268005166932 L 696.6820663711916,135.57221962002419 L 732.9318546161331,122.88787011074588 L 798.9220374191559,103.87642595411955 L 836.364091151717,95.3305215218972 L 904.0679479211313,83.8271735812562 L 942.2314115912391,79.52718393277402 L 1013.251091641624,75.53880425068759 L 1032.4548061771043,75.0 L 4127.545193822896,75.0 L 4146.748908358378,75.5388042506877 L 4217.768588408761,79.52718393277415 L 4255.932052078866,83.82717358125586 L 4323.635908848281,95.33052152189701 L 4361.077962580845,103.87642595411995 L 4427.068145383865,122.88787011074544 L 4463.317933628807,135.57221962002353 L 4526.764577628296,161.85268005166958 L 4561.366238265823,178.51596158329426 L 4621.471465100874,211.73494625174894 L 4653.989862172116,232.167609372197 L 4709.997813741433,271.90737027116063 L 4740.024009535603,295.85246238638376 L 4791.23035335162,341.61324896500156 L 4818.386751035006,368.769646648387 L 4864.147537613611,419.9759904643901 L 4888.092629728837,450.00218625856303 L 4927.832390627801,506.0101378278813 L 4948.265053748246,538.5285348991181 L 4981.48403841671,598.6337617341853 L 4998.147319948326,633.2354223716947 L 5024.427780379975,696.6820663711892 L 5037.1121298892585,732.9318546161443 L 5056.123574045882,798.9220374191635 L 5064.669478478102,836.3640911517111 L 5076.172826418746,904.0679479211434 L 5080.472816067226,942.2314115912257 L 5084.461195749313,1013.2510916416338 L 5085.0,1032.4548061770981 L 5085.0,1328.404885848416 L 5084.772416557855,1340.888532978666 L 5083.0869284925575,1387.1002543128673 L 5081.26812490084,1412.0005295934782 L 5076.39480779179,1456.3803785827115 L 5072.766865912209,1481.081993778348 L 5064.6734506072435,1524.9889049046656 L 5059.255649685106,1549.3605931663262 L 5047.98514540109,1592.561240720917 L 5040.806276171329,1616.4734884642678 L 5026.418575493139,1658.7382998934295 L 5017.516787183481,1682.0640350468664 L 5000.0883477887755,1723.1684109235766 L 4989.510945390947,1745.7836782019372 L 4969.13438374648,1785.5091857694933 L 4956.937576632735,1807.29380538485 L 4933.721175821211,1845.42933933037 L 4919.96977904209,1866.2675456394527 L 4894.036913335042,1902.6104499285984 L 4878.804003185792,1922.3915066228617 L 4850.2924824203465,1956.7486514342938 L 4833.659008106148,1975.3674400037892 L 4802.720345349897,2007.55624804018 L 4784.774698813712,2024.913826383806 L 4751.573305208993,2054.7632431060083 L 4732.410851407969,2070.7673713196987 L 4697.123162474803,2098.118773947459 L 4676.845732601348,2112.6844044962604 L 4640.0947819582,2137.1030753561245 L 4615.237044496754,2152.1400598919286 L 1519.5424578072061,3849.7790267861965 L 1511.2694842635121,3854.169766899536 L 1422.7268504369306,3899.6216504267218 L 1400.5108115488763,3909.982609184207 L 1377.5744513576776,3918.6327670688365 L 1286.9975767150365,3948.927875030248 L 1263.4724173177976,3955.8176301480958 L 1239.4933571148163,3960.9074751390554 L 1145.3820325330223,3977.186982867457 L 1121.0865726909574,3980.447731449061 L 1096.614028681036,3981.8606857770146 L 1001.1237791923757,3983.7517275564305 L 976.6144819251434,3983.30878544212 L 952.208973062333,3981.01248681234 L 857.5269065842391,3968.471750236844 L 833.3651326421978,3964.3352625692937 L 809.5856425080444,3958.3823053873957 L 717.8803563406748,3931.6970233881134 L 694.619506802693,3923.9617322480776 L 672.0106806507446,3914.48846299817 L 585.3825919416446,3874.2698350625096 L 563.5554331211654,3863.112909496947 L 542.6351033264259,3850.336303862851 L 463.06834113276915,3797.5054971262794 L 443.17480210242127,3783.182475269917 L 424.42212773268284,3767.395168525802 L 353.73908854511075,3703.162219367078 L 336.23481076516805,3686.001155598989 L 320.07930292556995,3667.564740093398 L 259.8989105134073,3593.400839470949 L 245.18481182340074,3573.794790659657 L 231.9964961374543,3553.131533907206 L 183.69712173151527,3470.7353312130595 L 172.11021373122225,3449.1333541451486 L 162.19115527686347,3426.716527214713 L 126.87904736573087,3337.9752244223178 L 118.68471650414963,3314.872090609328 L 112.26210131760256,3291.2151283272556 L 90.74604814098709,3198.1612555324027 L 86.1319773072251,3174.0861189680772 L 83.35290891581536,3149.730860210969 L 75.98194632923888,3052.601248632887 L 75.0,3026.6851801787693 L 75.0,1032.4548061771043 L 75.53880425068759,1013.2510916416239 L 79.52718393277402,942.2314115912392 z" id="ol" style="fill:#ffffff;fill-opacity:1;stroke:none;" /><path d="M 380.0,1031.4028646637403 L 380.0,3028.1055260542753 L 387.5859186533411,3128.0676848100106 L 409.74191667820105,3223.8892281444114 L 446.1043009273278,3315.269934134151 L 495.8402276400851,3400.1168198135165 L 557.8105455452485,3476.4865527854017 L 630.5958869726934,3542.6299612911225 L 712.5291770392558,3597.032097226511 L 801.7338163186529,3638.4469345012935 L 896.1666624598623,3665.92590801078 L 993.6648263033308,3678.839639563506 L 1091.9952106771623,3676.892353154342 L 1188.9056572370132,3660.1286494157685 L 1282.1765298829841,3628.9324840853465 L 1372.438916956178,3582.597793927249 L 4469.978309730516,1883.9471591800313 L 4509.193432182308,1857.8912027728704 L 4546.642471199907,1828.864542904806 L 4581.877430533639,1797.1868670558947 L 4614.711068092211,1763.0265135578834 L 4644.968902647998,1726.5650139393329 L 4672.490141047617,1687.9961282490683 L 4697.128532682883,1647.524815395816 L 4718.753146681068,1605.3661439762122 L 4737.249067684697,1561.7441493786896 L 4752.5180065231625,1516.8906432371996 L 4764.47882253124,1471.04398156092 L 4773.0679547386535,1424.4477980867207 L 4778.239759639436,1377.3497095850983 L 4780.0,1329.088473745813 L 4780.0,1031.4028646637344 L 4775.834648613129,957.2319114514039 L 4763.626334987595,885.3789238373382 L 4743.44980256103,815.3446301671142 L 4715.558782935393,748.0097523184879 L 4680.304021865223,684.2210654490102 L 4638.128868426266,624.7807493071173 L 4589.563699643621,570.4363003563848 L 4535.219250692877,521.8711315737293 L 4475.778934550989,479.69597813477566 L 4411.990247681512,444.4412170646075 L 4344.655369832886,416.55019743897066 L 4274.621076162665,396.37366501240535 L 4202.768088548595,384.16535138687186 L 4128.59713533626,380.0 L 1031.4028646637403,380.0 L 957.2319114514034,384.16535138687186 L 885.3789238373344,396.3736650124053 L 815.3446301671133,416.5501974389708 L 748.0097523184876,444.4412170646074 L 684.22106544901,479.69597813477577 L 624.7807493071214,521.8711315737305 L 570.4363003563819,570.436300356382 L 521.8711315737303,624.7807493071218 L 479.6959781347757,684.22106544901 L 444.4412170646074,748.0097523184875 L 416.5501974389707,815.3446301671139 L 396.3736650124053,885.3789238373346 L 384.16535138687186,957.2319114514037 L 380.0,1031.4028646637403 z" id="cl" style="fill:none;stroke:#ff9900;stroke-width:25;stroke-opacity:1;stroke-dasharray:50,50;stroke-dashoffset:0;" /><polyline points="760.0,2333.0531793302935 0.0,2333.053179330293" id="start_line" style="fill:none;stroke:#ffffff;stroke-width:100;stroke-opacity:1;" /></svg>