<?xml version="1.0" encoding="UTF-8" standalone="no"?>
<svg
   id="Trapezoid_narrow"
   version="1.1"
   width="4750.00000mm"
   height="2549.13864mm"
   viewBox="0.00000,0.00000,4750.00000,2549.13864"
   sodipodi:docname="Trapezoid_narrow_raw.svg"
   inkscape:version="1.1.2 (0a00cf5339, 2022-02-04)"
   xmlns:inkscape="http://www.inkscape.org/namespaces/inkscape"
   xmlns:sodipodi="http://sodipodi.sourceforge.net/DTD/sodipodi-0.dtd"
   xmlns="http://www.w3.org/2000/svg"
   xmlns:svg="http://www.w3.org/2000/svg">
  <defs
     id="defs9" />
  <sodipodi:namedview
     id="trackview"
     pagecolor="#00c389"
     bordercolor="#000000"
     borderopacity="0.25"
     inkscape:pageshadow="2"
     inkscape:pageopacity="0.0"
     inkscape:pagecheckerboard="0"
     inkscape:document-units="mm"
     showgrid="false"
     inkscape:zoom="0.074528947"
     inkscape:cx="8969.6692"
     inkscape:cy="4823.6291"
     inkscape:window-width="2490"
     inkscape:window-height="1376"
     inkscape:window-x="2630"
     inkscape:window-y="27"
     inkscape:window-maximized="1"
     inkscape:current-layer="Trapezoid_narrow" />
  <path
     d="m 1.7486832,950.48584 4.7901769,-75.64172 5.9715109,-46.95901 14.291013,-74.41764 11.847614,-45.83058 23.564518,-72.02036 17.534424,-43.96989 32.46153,-68.47239 22.94108,-41.40669 40.83989,-63.83042 27.9812,-38.18193 48.56575,-58.1686 32.57426,-34.34713 55.51565,-51.57742 36.64688,-29.96355 61.57857,-44.16218 40.13398,-25.10123 66.65763,-36.04134 42.97984,-19.837866 70.67169,-27.344666 45.139,-14.257547 73.55661,-18.211095 46.57698,-8.449433 75.26629,-8.7865607 47.27077,-2.5063201 75.77346,0.7783585 47.2093,3.4768369 75.1,10.3349794 1.9062,0.267316 2799.9722,399.996037 39.3119,7.78193 56.8648,14.45681 35.0395,10.75896 55.1813,19.94731 33.82,14.13281 52.967,25.24616 32.2763,17.37128 50.2453,30.30316 30.4236,20.44334 47.0423,35.06988 28.2794,23.31956 43.3886,39.50064 25.8642,25.97239 39.3193,43.55301 23.2014,28.37642 34.8733,47.18816 20.3162,30.50862 30.0933,50.37127 17.2365,32.34856 25.0249,53.07186 13.9916,33.87857 19.717,55.2641 10.6127,35.0841 14.2199,56.9268 7.1322,35.9536 8.5868,58.0442 3.5832,36.4786 2.8721,58.6179 0.4487,18.3271 v 199.9737 l -0.5892,20.9984 -3.7703,67.1367 -4.7021,41.7326 -11.2612,66.2786 -9.3451,40.9437 -18.6113,64.601 -13.8706,39.64 -25.7272,62.111 -18.2217,37.8377 -32.5196,58.8399 -22.3437,35.5596 -38.9031,54.8289 -26.1845,32.8344 -44.7975,50.1283 -29.6961,29.6962 -50.1284,44.7974 -32.8343,26.1845 -54.8289,38.9032 -35.5596,22.3436 -58.8399,32.5196 -37.8378,18.2217 -62.1109,25.7272 -39.64,13.8707 -64.601,18.6112 -40.9438,9.3451 -66.2785,11.2612 -41.7327,4.7022 -67.1366,3.7703 -20.9984,0.5891 H 1075.014 l -20.9984,-0.5891 -78.33307,-4.3991 -41.73265,-4.7022 -77.3342,-13.1396 -40.94378,-9.3451 -75.37676,-21.7157 -39.64001,-13.8706 -72.47143,-30.0187 -37.83774,-18.2217 -68.65472,-37.9441 -35.55964,-22.3436 -63.97464,-45.3924 -32.83436,-26.1845 -58.49005,-52.2699 -29.69616,-29.6962 -52.2699,-58.4901 -26.18453,-32.8343 -45.39243,-63.9747 -22.3436,-35.5596 -37.94413,-68.6547 -18.22169,-37.8378 -30.018649,-72.4714 -13.870638,-39.64 L 33.17515,1733.4667 23.830001,1692.523 10.690392,1615.1888 5.9882511,1573.4561 1.5891576,1495.123 1,1474.1246 V 974.15445 Z M 749,1463.6172 l 0.002,0.056 2.63069,46.8438 0.0126,0.1114 6.0938,35.8656 0.0249,0.1093 10.07115,34.9577 0.037,0.1059 13.92185,33.6103 0.0487,0.101 17.59747,31.8402 0.0597,0.095 21.05179,29.6697 0.0699,0.088 24.24137,27.1261 0.0793,0.079 27.12611,24.2413 0.0877,0.07 29.66972,21.0518 0.0949,0.06 31.84022,17.5975 0.10103,0.049 33.6103,13.9219 0.10585,0.037 34.95768,10.0712 0.1094,0.025 35.8655,6.0938 0.1114,0.013 46.8438,2.6307 0.056,0 h 2678.957 l 0.056,-0 35.6473,-2.0019 0.1115,-0.013 24.8098,-4.2154 0.1094,-0.025 24.1819,-6.9667 0.1058,-0.037 23.2499,-9.6304 0.101,-0.049 22.0254,-12.173 0.095,-0.06 20.524,-14.5625 0.088,-0.07 18.7645,-16.7689 0.079,-0.079 16.7689,-18.7644 0.07,-0.088 14.5625,-20.5239 0.06,-0.095 12.173,-22.0254 0.049,-0.101 9.6304,-23.2498 0.037,-0.1059 6.9666,-24.1819 0.025,-0.1093 4.2154,-24.8099 0.013,-0.1114 2.0019,-35.6474 0,-0.056 v -180.2973 l -0,-0.049 -1.5254,-31.1328 -0.01,-0.097 -3.2163,-21.7412 -0.019,-0.096 -5.3263,-21.3227 -0.028,-0.094 -7.3852,-20.6998 -0.037,-0.09 -9.3734,-19.8787 -0.046,-0.086 -11.2719,-18.8672 -0.054,-0.081 -13.0622,-17.6749 -0.062,-0.076 -14.7275,-16.3133 -0.069,-0.069 -16.2517,-14.7955 -0.076,-0.062 -17.6202,-13.1359 -0.081,-0.055 -18.82,-11.3504 -0.086,-0.046 -19.8394,-9.4563 -0.09,-0.038 -20.6689,-7.4715 -0.093,-0.029 -19.6339,-4.9916 -0.105,-0.021 -2779.155,-397.02211 -0.01,-7.1e-4 -50.65186,-6.97053 -0.12606,-0.009 -28.34382,-0.29116 -0.12622,0.007 -28.15411,3.2867 -0.12438,0.0226 -27.51458,6.81204 -0.12054,0.0381 -26.43545,10.22855 -0.11477,0.053 -24.93396,13.48163 -0.10716,0.067 -23.03409,16.5193 -0.0978,0.08 -20.76619,19.29306 -0.087,0.0917 -18.16651,21.75856 -0.0747,0.10195 -15.27657,23.87641 -0.0613,0.11057 -12.14256,25.61278 -0.0468,0.11741 -8.81455,26.93994 -0.0316,0.12238 -5.3457,27.83666 -0.0159,0.1254 -2.54262,40.1506 -0.002,0.0632 z"
     id="road"
     style="fill:#232f3e;fill-opacity:1;stroke:none" />
  <path
     d="m 675.14994,981.26056 2.54262,-40.15061 1.1959,-9.40435 5.3457,-27.83667 2.37269,-9.17836 8.81454,-26.93994 3.51157,-8.80573 12.14256,-25.61279 4.59435,-8.2924 15.27657,-23.87641 5.60372,-7.64659 18.16651,-21.75856 6.52356,-6.8786 20.76619,-19.29306 7.33917,-6.00072 23.03408,-16.5193 8.03752,-5.02696 24.93396,-13.48163 8.60746,-3.97287 26.43545,-10.22855 9.03987,-2.85532 27.51459,-6.81204 9.32784,-1.69215 28.15412,-3.2867 9.46678,-0.50193 28.34382,0.29115 9.45452,0.6963 50.6519,6.97052 0.3817,0.0535 2779.155,397.02217 7.8729,1.5584 19.6339,4.9916 7.0172,2.1547 20.6689,7.4715 6.773,2.8303 19.8395,9.4563 6.4639,3.4789 18.82,11.3504 6.0928,4.0941 17.6203,13.1359 5.6634,4.6701 16.2518,14.7955 5.1797,5.2014 14.7276,16.3133 4.6464,5.6829 13.0623,17.6749 4.0686,6.1099 11.2719,18.8672 3.4519,6.4783 9.3734,19.8788 2.802,6.7848 7.3853,20.6998 2.1253,7.0262 5.3263,21.3226 1.4283,7.2004 3.2164,21.7412 0.7176,7.3054 1.5253,31.1328 0.09,3.6703 v 180.2973 l -0.118,4.2052 -2.0019,35.6474 -0.9417,8.3577 -4.2154,24.8098 -1.8715,8.1997 -6.9667,24.1819 -2.7778,7.9386 -9.6304,23.2499 -3.6492,7.5776 -12.173,22.0254 -4.4747,7.1214 -14.5625,20.524 -5.2439,6.5756 -16.7689,18.7644 -5.9472,5.9472 -18.7644,16.7689 -6.5757,5.2439 -20.5239,14.5625 -7.1214,4.4747 -22.0254,12.173 -7.5777,3.6492 -23.2498,9.6304 -7.9386,2.7779 -24.1819,6.9667 -8.1997,1.8715 -24.8099,4.2154 -8.3577,0.9416 -35.6473,2.0019 -4.2053,0.118 h -2678.957 l -4.2053,-0.118 -46.8438,-2.6306 -8.3577,-0.9417 -35.86549,-6.0938 -8.1997,-1.8716 -34.95772,-10.0711 -7.93859,-2.7778 -33.6103,-13.9219 -7.57766,-3.6492 -31.84022,-17.5974 -7.12143,-4.4747 -29.66972,-21.0518 -6.57565,-5.2439 -27.12611,-24.2414 -5.94717,-5.9472 -24.24137,-27.1261 -5.2439,-6.5756 -21.05179,-29.6698 -4.47469,-7.1214 -17.59747,-31.8402 -3.64921,-7.5777 -13.92184,-33.6103 -2.77784,-7.9386 -10.07114,-34.9577 -1.87153,-8.1997 -6.0938,-35.8655 -0.94168,-8.3577 -2.63069,-46.8438 L 675,1463.6172 V 986.0006 Z M 750,1463.6172 l 2.63069,46.8437 6.0938,35.8656 10.07114,34.9577 13.92185,33.6103 17.59746,31.8402 21.05179,29.6697 24.24138,27.1261 27.12611,24.2414 29.66972,21.0518 31.84022,17.5975 33.6103,13.9218 34.95774,10.0712 35.8655,6.0937 46.8438,2.6307 h 2678.957 l 35.6474,-2.0019 24.8098,-4.2153 24.1819,-6.9667 23.2499,-9.6304 22.0254,-12.173 20.5239,-14.5625 18.7644,-16.7689 16.7689,-18.7645 14.5625,-20.5239 12.173,-22.0254 9.6304,-23.2498 6.9667,-24.1819 4.2154,-24.8099 2.0019,-35.6473 v -180.2973 l -1.5254,-31.1328 -3.2163,-21.7412 -5.3263,-21.3226 -7.3852,-20.6999 -9.3734,-19.8787 -11.2718,-18.8672 -13.0623,-17.6749 -14.7275,-16.3133 -16.2517,-14.7955 -17.6203,-13.1359 -18.82,-11.3504 -19.8395,-9.4563 -20.6688,-7.4715 -19.6339,-4.9915 -2779.155,-397.02216 -50.65189,-6.97053 -28.34382,-0.29115 -28.15411,3.2867 -27.51459,6.81205 -26.43546,10.22854 -24.93395,13.48163 -23.03409,16.51931 -20.76619,19.29305 -18.1665,21.75856 -15.27657,23.87641 -12.14256,25.61278 -8.81455,26.93994 L 752.54262,945.85 750,986.0006 Z"
     id="il"
     style="fill:#ffffff;fill-opacity:1;stroke:none" />
  <path
     d="M 0.74968303,950.43842 5.5428584,874.74935 11.52235,827.72758 25.825294,753.24781 37.688741,707.35598 61.272933,635.2755 78.83079,591.24684 l 32.48863,-68.52955 22.97174,-41.46203 40.87399,-63.88371 28.0186,-38.23295 48.60629,-58.21718 32.6178,-34.39302 55.56199,-51.62049 36.69586,-30.00359 61.62998,-44.19905 L 478.48328,135.5705 545.19656,99.499064 588.23384,79.634687 658.96453,52.267192 704.16387,37.99059 777.78188,19.764291 824.42111,11.303566 899.75024,2.5096697 947.08418,0 l 75.83672,0.7790084 47.2724,3.4814835 75.1326,10.3394671 1.9087,0.267673 2800,399.999998 39.3645,7.79234 56.9144,14.46943 35.0864,10.77334 55.2273,19.96395 33.8652,14.1517 53.0112,25.26722 32.3194,17.39449 50.2873,30.32845 30.4642,20.47065 47.0815,35.09914 28.3172,23.35071 43.4248,39.53361 25.8988,26.00709 39.3521,43.58936 23.2323,28.41432 34.9025,47.22755 20.3433,30.54937 30.1184,50.41331 17.2595,32.39177 25.0459,53.11615 14.0103,33.92382 19.7333,55.3102 10.6269,35.131 14.2319,56.9743 7.1416,36.0016 8.594,58.0927 3.588,36.5273 2.8739,58.6546 0.4493,18.3515 v 200 l -0.5899,21.0265 -3.7727,67.1786 -4.7084,41.7885 -11.2706,66.3338 -9.3577,40.9985 -18.6267,64.6549 -13.8892,39.693 -25.7487,62.1628 -18.246,37.8883 -32.5468,58.889 -22.3735,35.6071 -38.9356,54.8747 -26.2195,32.8782 -44.8348,50.1702 -29.7359,29.7358 -50.1702,44.8348 -32.8782,26.2196 -54.8746,38.9356 -35.6072,22.3734 -58.889,32.5468 -37.8883,18.2461 -62.1628,25.7487 -39.6929,13.8891 -64.6549,18.6268 -40.9985,9.3576 -66.3339,11.2706 -41.7884,4.7084 -67.1787,3.7727 -21.0264,0.5899 H 1075 l -21.0264,-0.5899 -78.37515,-4.4015 -41.78842,-4.7084 -77.38952,-13.149 -40.99848,-9.3576 -75.43069,-21.7312 -39.69297,-13.8892 -72.52327,-30.0401 -37.8883,-18.2461 -68.70384,-37.9712 -35.60715,-22.3735 -64.02041,-45.4249 -32.87823,-26.2195 -58.53188,-52.3073 -29.73585,-29.7358 -52.30729,-58.5319 -26.21951,-32.8783 -45.42491,-64.0204 -22.37345,-35.6071 -37.97127,-68.7039 -18.246042,-37.8883 -30.040124,-72.5232 -13.889171,-39.693 L 32.206466,1733.7166 22.84883,1692.7181 9.6998211,1615.3286 4.9913974,1573.5402 0.58994437,1495.1651 0,1474.1386 V 974.13864 Z M 75,1473.0867 l 0.530938,18.9234 4.224482,75.2238 4.23721,37.6063 12.444043,73.2404 8.421137,36.8954 20.56612,71.3866 12.49916,35.7205 28.42956,68.6351 16.42,34.0965 35.9355,65.0203 20.13435,32.0437 42.98951,60.588 23.59549,29.5878 49.50291,55.3938 26.75992,26.7599 55.39378,49.5029 29.58782,23.5955 60.58805,42.9895 32.04363,20.1344 65.02038,35.9355 34.09648,16.42 68.63504,28.4296 35.72055,12.4991 71.38658,20.5661 36.8954,8.4212 73.24039,12.444 37.60629,4.2372 75.22388,4.2245 18.9233,0.5309 h 2697.8962 l 18.9233,-0.5309 64.0274,-3.5957 37.6063,-4.2372 62.1848,-10.5656 36.8954,-8.4212 60.6107,-17.4616 35.7206,-12.4992 58.2746,-24.1381 34.0964,-16.42 55.2056,-30.511 32.0436,-20.1344 51.4423,-36.5002 29.5878,-23.5955 47.0321,-42.0305 26.7599,-26.7599 42.0304,-47.0321 23.5955,-29.5878 36.5003,-51.4422 20.1343,-32.0437 30.5111,-55.2055 16.42,-34.0965 24.1381,-58.2746 12.4991,-35.7205 17.4617,-60.6108 8.4211,-36.8954 10.5656,-62.1847 4.2373,-37.6063 3.5957,-64.0274 0.5309,-18.9234 v -198.0301 l -0.4044,-16.5161 -2.739,-55.9036 -3.229,-32.8724 -8.0566,-54.4597 -6.427,-32.3993 -13.3419,-53.4113 -9.5635,-31.6158 -18.4993,-51.8512 -12.6084,-30.5294 -23.4796,-49.79444 -15.5325,-29.15065 -28.2349,-47.26059 -18.3078,-27.49261 -32.7197,-44.27405 -20.9077,-25.57119 -36.8912,-40.86339 -23.3073,-23.40482 -40.7092,-37.06127 -25.4837,-21.01424 -44.1372,-32.90414 -27.416,-18.42236 -47.1423,-28.43178 -29.0856,-15.654 -49.696,-23.68707 -30.4766,-12.73568 -51.7736,-18.71546 -31.5756,-9.69536 -53.1889,-13.52227 -35.4252,-7.01254 -2797.9169,-399.702417 -1.7179,-0.240906 -72.6868,-10.002897 -42.5405,-3.132987 -71.09212,-0.730271 -42.59582,2.258451 -70.61635,8.243728 -41.97063,7.613806 -69.01229,17.086013 -40.67487,12.84752 -66.3056,25.65531 -38.72925,17.87595 -62.53953,33.81472 -36.16483,22.61878 -57.77425,41.43384 -33.0226,27.00023 -52.0859,48.39098 -29.35275,30.95028 -45.56536,54.57496 -25.21394,34.40584 -38.3168,59.88697 -20.67227,37.31168 -30.45606,64.24217 -15.80031,39.62139 -22.10871,67.57095 -10.675915,41.29805 -13.408116,69.82013 -5.380944,42.31488 -4.568289,72.1379 L 75,975.32454 Z"
     id="ol"
     style="fill:#ffffff;fill-opacity:1;stroke:none" />
  <path
     d="M 375,1174.1386 V 974.13864 l 4.79318,-75.68908 14.30294,-74.47977 23.58419,-72.08048 32.48863,-68.52955 40.87399,-63.88371 48.60629,-58.21717 55.562,-51.62049 61.62998,-44.19905 66.71328,-36.07143 70.73069,-27.3675 73.61802,-18.2263 75.32913,-8.79389 75.83668,0.77901 75.1326,10.33946 2800,400 56.9145,14.46943 55.2273,19.96395 53.0112,25.26723 50.2872,30.32845 47.0815,35.09914 43.4248,39.53361 39.3521,43.58935 34.9025,47.22755 30.1184,50.4133 25.0458,53.1162 19.7334,55.3101 14.2318,56.9743 8.5941,58.0928 2.8738,58.6545 v 200 l -3.7727,67.1787 -11.2706,66.3339 -18.6267,64.6549 -25.7487,62.1628 -32.5468,58.889 -38.9356,54.8746 -44.8348,50.1702 -50.1702,44.8348 -54.8747,38.9357 -58.889,32.5468 -62.1628,25.7486 -64.6548,18.6268 -66.3339,11.2706 -67.1787,3.7726 H 1075 l -78.37513,-4.4014 -77.38952,-13.149 -75.43069,-21.7312 -72.52328,-30.0402 -68.70383,-37.9712 -64.02041,-45.4249 -58.53189,-52.3073 -52.30729,-58.5319 -45.4249,-64.0204 -37.97127,-68.7038 -30.04012,-72.5233 -21.73121,-75.4307 -13.14901,-77.3895 L 375,1474.1386 Z"
     id="cl"
     style="fill:none;stroke:#ff9900;stroke-width:25;stroke-dasharray:50, 50;stroke-dashoffset:0;stroke-opacity:1" />
  <polyline
     points="750.0,1374.9999999999995 0.0,1375.0"
     id="start_line"
     style="fill:none;stroke:#ffffff;stroke-width:100;stroke-opacity:1"
     transform="matrix(1,0,0,-1,0,2549.1386)" />
</svg>
