<?xml version="1.0" encoding="UTF-8" standalone="no"?>
<svg
   xmlns:dc="http://purl.org/dc/elements/1.1/"
   xmlns:cc="http://creativecommons.org/ns#"
   xmlns:rdf="http://www.w3.org/1999/02/22-rdf-syntax-ns#"
   xmlns:svg="http://www.w3.org/2000/svg"
   xmlns="http://www.w3.org/2000/svg"
   xmlns:sodipodi="http://sodipodi.sourceforge.net/DTD/sodipodi-0.dtd"
   xmlns:inkscape="http://www.inkscape.org/namespaces/inkscape"
   id="Trapezoid"
   version="1.1"
   width="5150.00000mm"
   height="4048.84126mm"
   viewBox="0.00000,0.00000,5150.00000,4048.84126"
   sodipodi:docname="Trapezoid_iconography.svg"
   inkscape:version="1.0.2-2 (e86c870879, 2021-01-15)">
  <metadata
     id="metadata871">
    <rdf:RDF>
      <cc:Work
         rdf:about="">
        <dc:format>image/svg+xml</dc:format>
        <dc:type
           rdf:resource="http://purl.org/dc/dcmitype/StillImage" />
      </cc:Work>
    </rdf:RDF>
  </metadata>
  <defs
     id="defs869" />
  <sodipodi:namedview
     id="trackview"
     pagecolor="#ffffff"
     bordercolor="#000000"
     borderopacity="0.25"
     inkscape:pageopacity="0"
     inkscape:pagecheckerboard="true"
     inkscape:document-rotation="0"
     showgrid="false"
     inkscape:zoom="0.078221453"
     inkscape:cx="9732.2835"
     inkscape:cy="7651.3537"
     inkscape:window-width="2560"
     inkscape:window-height="1369"
     inkscape:window-x="2552"
     inkscape:window-y="-8"
     inkscape:window-maximized="1"
     inkscape:current-layer="Trapezoid" />
  <path
     d="m 0.93181048,999.2484 8.01639722,-105.63472 2.7900883,-24.45183 4.632367,-24.1706 23.865584,-103.21526 6.448083,-23.75077 8.226824,-23.19475 39.168154,-98.43176 9.958392,-22.50572 11.63285,-21.68763 53.57362,-91.39379 13.24061,-20.74519 14.77244,-19.68379 66.75203,-82.26252 16.21957,-18.50953 17.57369,-17.22911 78.40156,-71.24712 18.82703,-15.84991 19.97242,-14.37981 88.25537,-58.59988 21.00329,-12.82727 21.91371,-11.20117 96.08779,-44.610458 22.69847,-9.510833 23.35309,-7.765964 101.71941,-29.599288 23.87378,-5.976562 24.25758,-4.15289 L 943.18727,2.7501027 967.68955,0.44469851 992.29603,0 l 105.91767,2.0975416 24.5696,1.4185571 24.3918,3.2736785 104.3882,18.0572128 24.0741,5.110028 23.6185,6.917075 100.4678,33.603303 23.0273,8.684458 22.3041,10.402044 94.2463,48.379742 7.8503,4.16642 3100,1700.00004 23.5888,14.2693 42.5019,28.2399 19.2421,13.8219 40.3318,31.2611 18.184,15.1869 37.9473,34.1162 17.0293,16.4713 35.3611,36.7899 15.7842,17.6682 32.587,39.2682 14.4551,18.771 29.6398,41.5379 13.0493,19.7742 26.535,43.5867 11.574,20.6723 23.2892,45.4039 10.0374,21.4606 19.9197,46.9799 8.4472,22.1347 16.4443,48.3063 6.8123,22.6912 12.8816,49.3759 5.1411,23.1273 9.2504,50.183 3.4427,23.4404 5.5699,50.7236 1.7259,23.6288 1.8599,50.9947 0.216,11.8459 v 300 l -0.5113,18.2229 -4.4014,78.3751 -4.0807,36.2166 -13.149,77.3895 -8.1099,35.5321 -21.7312,75.4306 -12.0373,34.4006 -30.0401,72.5233 -15.8133,32.8365 -37.9712,68.7038 -19.3904,30.8596 -45.4249,64.0204 -22.7236,28.4945 -52.3072,58.5318 -25.7711,25.7711 -58.5319,52.3073 -28.4945,22.7236 -64.0204,45.4249 -30.8595,19.3903 -68.7038,37.9713 -32.8366,15.8132 -72.5232,30.0401 -34.4006,12.0373 -75.4307,21.7312 -35.532,8.11 -77.3895,13.149 -36.2167,4.0806 -78.3751,4.4015 -18.2229,0.5113 H 1025 l -18.2229,-0.5113 -78.37513,-4.4015 -36.21663,-4.0806 -77.38952,-13.149 -35.53201,-8.11 -75.43069,-21.7312 -34.40058,-12.0373 -72.52327,-30.0401 -32.83653,-15.8132 -68.70383,-37.9713 -30.85953,-19.3903 -64.02041,-45.4249 -28.49447,-22.7236 -58.53188,-52.3073 -25.77107,-25.7711 -52.30729,-58.5318 -22.72358,-28.4945 -45.4249,-64.0204 -19.39033,-30.8596 -37.97127,-68.7038 L 94.060944,3451.932 64.020821,3379.4087 51.983539,3345.0081 30.252332,3269.5775 22.14238,3234.0454 8.9933721,3156.6559 4.9127382,3120.4393 0.51128512,3042.0642 0,3023.8413 v -2000 z M 650,3014.7226 l 2.86679,51.048 7.03449,41.4021 11.62583,40.3541 16.07094,38.7987 20.31397,36.7553 24.30154,34.2498 27.9835,31.3136 31.31355,27.9835 34.24981,24.3015 36.75537,20.314 38.79869,16.071 40.35412,11.6258 41.40206,7.0345 51.04794,2.8668 h 3081.7628 l 51.0479,-2.8668 41.4021,-7.0345 40.3541,-11.6258 38.7987,-16.071 36.7554,-20.314 34.2498,-24.3015 31.3135,-27.9835 27.9835,-31.3136 24.3016,-34.2498 20.3139,-36.7553 16.071,-38.7987 11.6258,-40.3541 7.0345,-41.4021 2.8668,-51.048 v -284.9564 l -1.2119,-33.2277 -2.9822,-27.1577 -4.9527,-26.8683 -6.8968,-26.4361 -8.8044,-25.8635 -10.6651,-25.1533 -12.4692,-24.3095 -14.207,-23.3366 -15.8693,-22.2396 -17.4473,-21.0244 -18.9325,-19.6976 -20.3172,-18.266 -21.5938,-16.7373 -21.1374,-14.0445 -3084.0061,-1691.2291 -68.3511,-35.0869 -53.6879,-17.95691 -55.7829,-9.6494 -56.6002,-1.12088 -56.12117,7.43331 -54.35675,15.81724 -51.34732,23.83891 -47.16185,31.31456 -41.89616,38.07299 -35.67091,43.95939 -28.62863,48.83894 -20.93065,52.5999 -12.75327,55.1561 L 650,1036.1553 Z"
     id="road"
     style="fill:#a9a9a9;fill-opacity:0.6;stroke:none"
     inkscape:export-xdpi="2.5153399"
     inkscape:export-ydpi="2.5153399" />
  <path
     d="m 325,1723.8413 v -700 l 8.0164,-105.63476 23.86558,-103.21526 39.16816,-98.43176 53.57361,-91.39379 66.75203,-82.26252 78.40156,-71.24712 88.25537,-58.59988 96.08779,-44.61046 101.7194,-29.59929 105.02126,-13.91017 105.91764,2.09754 104.3882,18.05721 100.4678,33.60331 94.2463,48.37974 3100,1700.00001 42.5019,28.2399 40.3318,31.261 37.9473,34.1162 35.3611,36.79 32.5871,39.2682 29.6397,41.5378 26.535,43.5868 23.2893,45.4039 19.9197,46.98 16.4443,48.3062 12.8815,49.3759 9.2503,50.183 5.57,50.7237 1.8599,50.9946 v 300 l -4.4015,78.3751 -13.149,77.3895 -21.7312,75.4307 -30.0401,72.5233 -37.9713,68.7038 -45.4249,64.0204 -52.3073,58.5319 -58.5318,52.3073 -64.0204,45.4249 -68.7039,37.9713 -72.5233,30.0401 -75.4306,21.7312 -77.3896,13.149 -78.3751,4.4015 H 1025 l -78.37513,-4.4015 -77.38952,-13.149 -75.43069,-21.7312 -72.52328,-30.0401 -68.70383,-37.9713 -64.02041,-45.4249 -58.53189,-52.3073 -52.30729,-58.5319 -45.4249,-64.0204 -37.97127,-68.7038 -30.04012,-72.5233 -21.73121,-75.4307 -13.14901,-77.3895 L 325,3023.8413 Z"
     id="cl"
     style="fill:none;stroke:#ffffff;stroke-width:50;stroke-opacity:1"
     inkscape:export-xdpi="2.5153399"
     inkscape:export-ydpi="2.5153399" />
</svg>
