<?xml version="1.0" encoding="UTF-8" standalone="no"?>
<svg
   inkscape:version="1.1.2 (0a00cf5339, 2022-02-04)"
   sodipodi:docname="Trapezoid_narrow_print.svg"
   viewBox="0 0 5200 2850"
   height="2850mm"
   width="5200mm"
   version="1.1"
   id="Trapezoid_narrow"
   xmlns:inkscape="http://www.inkscape.org/namespaces/inkscape"
   xmlns:sodipodi="http://sodipodi.sourceforge.net/DTD/sodipodi-0.dtd"
   xmlns="http://www.w3.org/2000/svg"
   xmlns:svg="http://www.w3.org/2000/svg">
  <defs
     id="defs894" />
  <sodipodi:namedview
     id="trackview"
     pagecolor="#ffffff"
     bordercolor="#000000"
     borderopacity="0.25"
     inkscape:pageshadow="2"
     inkscape:pageopacity="0"
     inkscape:pagecheckerboard="0"
     inkscape:document-units="mm"
     showgrid="false"
     inkscape:zoom="0.040738655"
     inkscape:cx="11991.068"
     inkscape:cy="6001.6709"
     inkscape:window-width="2490"
     inkscape:window-height="1376"
     inkscape:window-x="2630"
     inkscape:window-y="27"
     inkscape:window-maximized="1"
     inkscape:current-layer="Trapezoid_narrow"
     fit-margin-top="0"
     fit-margin-left="0"
     fit-margin-right="0"
     fit-margin-bottom="0" />
  <rect
     style="fill:#00c389;fill-opacity:1;stroke-width:0.25607"
     id="rect1661"
     width="5200"
     height="2850"
     x="0"
     y="0" />
  <g
     id="g1108"
     transform="translate(-2062.1634,-1406.9646)">
    <path
       d="m 2288.9121,2507.8811 4.7902,-75.6417 5.9715,-46.959 14.291,-74.4176 11.8476,-45.8306 23.5645,-72.0204 17.5344,-43.9699 32.4616,-68.4723 22.9411,-41.4067 40.8398,-63.8305 27.9812,-38.1819 48.5658,-58.1686 32.5743,-34.3471 55.5156,-51.5774 36.6469,-29.9636 61.5786,-44.1622 40.1339,-25.1012 66.6577,-36.0413 42.9798,-19.8379 70.6717,-27.3447 45.139,-14.2575 73.5566,-18.2111 46.577,-8.4494 75.2663,-8.7866 47.2707,-2.5063 75.7735,0.7783 47.2093,3.4769 75.1,10.3349 1.9062,0.2674 2799.9722,399.996 39.3119,7.7819 56.8648,14.4568 35.0395,10.759 55.1813,19.9473 33.82,14.1328 52.967,25.2462 32.2763,17.3713 50.2453,30.3031 30.4236,20.4434 47.0423,35.0698 28.2794,23.3196 43.3886,39.5006 25.8642,25.9724 39.3193,43.553 23.2014,28.3765 34.8733,47.1881 20.3162,30.5086 30.0933,50.3713 17.2365,32.3486 25.0249,53.0718 13.9916,33.8786 19.717,55.2641 10.6127,35.0841 14.2199,56.9268 7.1322,35.9536 8.5868,58.0442 3.5832,36.4786 2.8721,58.6179 0.4487,18.3271 v 199.9737 l -0.5892,20.9984 -3.7703,67.1367 -4.7021,41.7326 -11.2612,66.2786 -9.3451,40.9437 -18.6113,64.601 -13.8706,39.64 -25.7272,62.111 -18.2217,37.8377 -32.5196,58.8399 -22.3437,35.5596 -38.9031,54.8289 -26.1845,32.8344 -44.7975,50.1283 -29.6961,29.6962 -50.1284,44.7974 -32.8343,26.1845 -54.8289,38.9032 -35.5596,22.3436 -58.8399,32.5196 -37.8378,18.2217 -62.1109,25.7272 -39.64,13.8707 -64.601,18.6112 -40.9438,9.3451 -66.2785,11.2612 -41.7327,4.7022 -67.1366,3.7703 -20.9984,0.5891 h -2699.972 l -20.9984,-0.5891 -78.3331,-4.3991 -41.7326,-4.7022 -77.3342,-13.1396 -40.9438,-9.3451 -75.3768,-21.7157 -39.64,-13.8706 -72.4714,-30.0187 -37.8377,-18.2217 -68.6548,-37.9441 -35.5596,-22.3436 -63.9746,-45.3924 -32.8344,-26.1845 -58.49,-52.2699 -29.6962,-29.6962 -52.2699,-58.4901 -26.1845,-32.8343 -45.3925,-63.9747 -22.3436,-35.5596 -37.9441,-68.6547 -18.2217,-37.8378 -30.0186,-72.4714 -13.8707,-39.64 -21.7156,-75.3768 -9.3452,-40.9437 -13.1396,-77.3342 -4.7021,-41.7327 -4.3991,-78.3331 -0.5892,-20.9984 v -499.9701 z m 747.2513,513.1314 v 0.056 l 2.6307,46.8438 0.013,0.1114 6.0938,35.8656 0.025,0.1093 10.0711,34.9577 0.037,0.1059 13.9219,33.6103 0.049,0.101 17.5975,31.8402 0.06,0.095 21.0517,29.6697 0.07,0.088 24.2413,27.1261 0.079,0.079 27.1261,24.2413 0.088,0.07 29.6698,21.0518 0.095,0.06 31.8402,17.5975 0.101,0.049 33.6103,13.9219 0.1059,0.037 34.9576,10.0712 0.1094,0.025 35.8655,6.0938 0.1114,0.013 46.8438,2.6307 h 0.056 2678.957 0.056 l 35.6473,-2.0019 0.1115,-0.013 24.8098,-4.2154 0.1094,-0.025 24.1819,-6.9667 0.1058,-0.037 23.2499,-9.6304 0.101,-0.049 22.0254,-12.173 0.095,-0.06 20.524,-14.5625 0.088,-0.07 18.7645,-16.7689 0.079,-0.079 16.7689,-18.7644 0.07,-0.088 14.5625,-20.5239 0.06,-0.095 12.173,-22.0254 0.049,-0.101 9.6304,-23.2498 0.037,-0.1059 6.9666,-24.1819 0.025,-0.1093 4.2154,-24.8099 0.013,-0.1114 2.0019,-35.6474 v -0.056 -180.2973 -0.049 l -1.5254,-31.1328 -0.01,-0.097 -3.2163,-21.7412 -0.019,-0.096 -5.3263,-21.3227 -0.028,-0.094 -7.3852,-20.6998 -0.037,-0.09 -9.3734,-19.8787 -0.046,-0.086 -11.2719,-18.8672 -0.054,-0.081 -13.0622,-17.6749 -0.062,-0.076 -14.7275,-16.3133 -0.069,-0.069 -16.2517,-14.7955 -0.076,-0.062 -17.6202,-13.1359 -0.081,-0.055 -18.82,-11.3504 -0.086,-0.046 -19.8394,-9.4563 -0.09,-0.038 -20.6689,-7.4715 -0.093,-0.029 -19.6339,-4.9916 -0.105,-0.021 -2779.155,-397.0221 -0.01,-7e-4 -50.6518,-6.9705 -0.1261,-0.01 -28.3438,-0.2912 -0.1262,0.01 -28.1541,3.2867 -0.1244,0.023 -27.5146,6.812 -0.1205,0.038 -26.4355,10.2286 -0.1148,0.053 -24.9339,13.4816 -0.1072,0.067 -23.0341,16.5193 -0.098,0.08 -20.7662,19.2931 -0.087,0.092 -18.1665,21.7585 -0.075,0.102 -15.2765,23.8764 -0.061,0.1106 -12.1426,25.6127 -0.047,0.1175 -8.8145,26.9399 -0.032,0.1224 -5.3457,27.8366 -0.016,0.1254 -2.5427,40.1506 v 0.063 z"
       id="road"
       style="fill:#232f3e;fill-opacity:1;stroke:none" />
    <path
       d="m 2962.3133,2538.6559 2.5427,-40.1506 1.1959,-9.4044 5.3457,-27.8367 2.3727,-9.1783 8.8145,-26.94 3.5116,-8.8057 12.1425,-25.6128 4.5944,-8.2924 15.2765,-23.8764 5.6038,-7.6466 18.1665,-21.7585 6.5235,-6.8786 20.7662,-19.2931 7.3392,-6.0007 23.0341,-16.5193 8.0375,-5.027 24.9339,-13.4816 8.6075,-3.9729 26.4355,-10.2285 9.0398,-2.8554 27.5146,-6.812 9.3279,-1.6922 28.1541,-3.2866 9.4668,-0.502 28.3438,0.2912 9.4545,0.6963 50.6519,6.9705 0.3817,0.053 2779.155,397.0222 7.8729,1.5584 19.6339,4.9916 7.0172,2.1547 20.6689,7.4715 6.773,2.8303 19.8395,9.4563 6.4639,3.4789 18.82,11.3504 6.0928,4.0941 17.6203,13.1359 5.6634,4.6701 16.2518,14.7955 5.1797,5.2014 14.7276,16.3133 4.6464,5.6829 13.0623,17.6749 4.0686,6.1099 11.2719,18.8672 3.4519,6.4783 9.3734,19.8788 2.802,6.7848 7.3853,20.6998 2.1253,7.0262 5.3263,21.3226 1.4283,7.2004 3.2164,21.7412 0.7176,7.3054 1.5253,31.1328 0.09,3.6703 v 180.2973 l -0.118,4.2052 -2.0019,35.6474 -0.9417,8.3577 -4.2154,24.8098 -1.8715,8.1997 -6.9667,24.1819 -2.7778,7.9386 -9.6304,23.2499 -3.6492,7.5776 -12.173,22.0254 -4.4747,7.1214 -14.5625,20.524 -5.2439,6.5756 -16.7689,18.7644 -5.9472,5.9472 -18.7644,16.7689 -6.5757,5.2439 -20.5239,14.5625 -7.1214,4.4747 -22.0254,12.173 -7.5777,3.6492 -23.2498,9.6304 -7.9386,2.7779 -24.1819,6.9667 -8.1997,1.8715 -24.8099,4.2154 -8.3577,0.9416 -35.6473,2.0019 -4.2053,0.118 H 3372.685 l -4.2053,-0.118 -46.8438,-2.6306 -8.3577,-0.9417 -35.8655,-6.0938 -8.1997,-1.8716 -34.9577,-10.0711 -7.9386,-2.7778 -33.6103,-13.9219 -7.5777,-3.6492 -31.8402,-17.5974 -7.1214,-4.4747 -29.6697,-21.0518 -6.5757,-5.2439 -27.1261,-24.2414 -5.9472,-5.9472 -24.2413,-27.1261 -5.2439,-6.5756 -21.0518,-29.6698 -4.4747,-7.1214 -17.5975,-31.8402 -3.6492,-7.5777 -13.9218,-33.6103 -2.7779,-7.9386 -10.0711,-34.9577 -1.8715,-8.1997 -6.0938,-35.8655 -0.9417,-8.3577 -2.6307,-46.8438 -0.1181,-4.2052 v -477.6166 z m 74.8501,482.3566 2.6307,46.8437 6.0938,35.8656 10.0711,34.9577 13.9219,33.6103 17.5974,31.8402 21.0518,29.6697 24.2414,27.1261 27.1261,24.2414 29.6697,21.0518 31.8403,17.5975 33.6103,13.9218 34.9577,10.0712 35.8655,6.0937 46.8438,2.6307 h 2678.957 l 35.6474,-2.0019 24.8098,-4.2153 24.1819,-6.9667 23.2499,-9.6304 22.0254,-12.173 20.5239,-14.5625 18.7644,-16.7689 16.7689,-18.7645 14.5625,-20.5239 12.173,-22.0254 9.6304,-23.2498 6.9667,-24.1819 4.2154,-24.8099 2.0019,-35.6473 v -180.2973 l -1.5254,-31.1328 -3.2163,-21.7412 -5.3263,-21.3226 -7.3852,-20.6999 -9.3734,-19.8787 -11.2718,-18.8672 -13.0623,-17.6749 -14.7275,-16.3133 -16.2517,-14.7955 -17.6203,-13.1359 -18.82,-11.3504 -19.8395,-9.4563 -20.6688,-7.4715 -19.6339,-4.9915 -2779.155,-397.0222 -50.6519,-6.9705 -28.3438,-0.2911 -28.1541,3.2867 -27.5146,6.812 -26.4355,10.2285 -24.9339,13.4817 -23.0341,16.5193 -20.7662,19.293 -18.1665,21.7586 -15.2766,23.8764 -12.1425,25.6128 -8.8146,26.9399 -5.3457,27.8367 -2.5426,40.1506 z"
       id="il"
       style="fill:#ffffff;fill-opacity:1;stroke:none" />
    <path
       d="m 2287.9131,2507.8337 4.7932,-75.689 5.9795,-47.0218 14.3029,-74.4798 11.8634,-45.8918 23.5842,-72.0805 17.5579,-44.0287 32.4886,-68.5295 22.9718,-41.462 40.874,-63.8838 28.0186,-38.2329 48.6062,-58.2172 32.6178,-34.393 55.562,-51.6205 36.6959,-30.0036 61.63,-44.199 40.1876,-25.1348 66.7133,-36.0714 43.0372,-19.8644 70.7307,-27.3675 45.1994,-14.2766 73.618,-18.2263 46.6392,-8.4607 75.3291,-8.7939 47.334,-2.5097 75.8367,0.779 47.2724,3.4815 75.1326,10.3395 1.9087,0.2676 2800,400 39.3645,7.7924 56.9144,14.4694 35.0864,10.7733 55.2273,19.964 33.8652,14.1517 53.0112,25.2672 32.3194,17.3945 50.2873,30.3285 30.4642,20.4706 47.0815,35.0991 28.3172,23.3508 43.4248,39.5336 25.8988,26.0071 39.3521,43.5893 23.2323,28.4143 34.9025,47.2276 20.3433,30.5493 30.1184,50.4134 17.2595,32.3917 25.0459,53.1162 14.0103,33.9238 19.7333,55.3102 10.6269,35.131 14.2319,56.9743 7.1416,36.0016 8.594,58.0927 3.588,36.5273 2.8739,58.6546 0.4493,18.3515 v 200 l -0.5899,21.0265 -3.7727,67.1786 -4.7084,41.7885 -11.2706,66.3338 -9.3577,40.9985 -18.6267,64.6549 -13.8892,39.693 -25.7487,62.1628 -18.246,37.8883 -32.5468,58.889 -22.3735,35.6071 -38.9356,54.8747 -26.2195,32.8782 -44.8348,50.1702 -29.7359,29.7358 -50.1702,44.8348 -32.8782,26.2196 -54.8746,38.9356 -35.6072,22.3734 -58.889,32.5468 -37.8883,18.2461 -62.1628,25.7487 -39.6929,13.8891 -64.6549,18.6268 -40.9985,9.3576 -66.3339,11.2706 -41.7884,4.7084 -67.1787,3.7727 -21.0264,0.5899 h -2700 l -21.0264,-0.5899 -78.3752,-4.4015 -41.7884,-4.7084 -77.3895,-13.149 -40.9985,-9.3576 -75.4307,-21.7312 -39.6929,-13.8892 -72.5233,-30.0401 -37.8883,-18.2461 -68.7038,-37.9712 -35.6072,-22.3735 -64.0204,-45.4249 -32.8782,-26.2195 -58.5319,-52.3073 -29.7359,-29.7358 -52.3072,-58.5319 -26.2196,-32.8783 -45.4249,-64.0204 -22.3734,-35.6071 -37.9713,-68.7039 -18.246,-37.8883 -30.0402,-72.5232 -13.8891,-39.693 -21.7312,-75.4307 -9.3577,-40.9985 -13.149,-77.3895 -4.7084,-41.7884 -4.4015,-78.3751 -0.5899,-21.0265 v -500 z m 74.2503,522.6483 0.5309,18.9234 4.2245,75.2238 4.2372,37.6063 12.4441,73.2404 8.4211,36.8954 20.5661,71.3866 12.4992,35.7205 28.4296,68.6351 16.42,34.0965 35.9355,65.0203 20.1343,32.0437 42.9895,60.588 23.5955,29.5878 49.5029,55.3938 26.7599,26.7599 55.3938,49.5029 29.5878,23.5955 60.5881,42.9895 32.0436,20.1344 65.0204,35.9355 34.0965,16.42 68.635,28.4296 35.7206,12.4991 71.3865,20.5661 36.8954,8.4212 73.2404,12.444 37.6063,4.2372 75.2239,4.2245 18.9233,0.5309 h 2697.8962 l 18.9233,-0.5309 64.0274,-3.5957 37.6063,-4.2372 62.1848,-10.5656 36.8954,-8.4212 60.6107,-17.4616 35.7206,-12.4992 58.2746,-24.1381 34.0964,-16.42 55.2056,-30.511 32.0436,-20.1344 51.4423,-36.5002 29.5878,-23.5955 47.0321,-42.0305 26.7599,-26.7599 42.0304,-47.0321 23.5955,-29.5878 36.5003,-51.4422 20.1343,-32.0437 30.5111,-55.2055 16.42,-34.0965 24.1381,-58.2746 12.4991,-35.7205 17.4617,-60.6108 8.4211,-36.8954 10.5656,-62.1847 4.2373,-37.6063 3.5957,-64.0274 0.5309,-18.9234 v -198.0301 l -0.4044,-16.5161 -2.739,-55.9036 -3.229,-32.8724 -8.0566,-54.4597 -6.427,-32.3993 -13.3419,-53.4113 -9.5635,-31.6158 -18.4993,-51.8512 -12.6084,-30.5294 -23.4796,-49.7944 -15.5325,-29.1507 -28.2349,-47.2606 -18.3078,-27.4926 -32.7197,-44.274 -20.9077,-25.5712 -36.8912,-40.8634 -23.3073,-23.4048 -40.7092,-37.0613 -25.4837,-21.0142 -44.1372,-32.9042 -27.416,-18.4224 -47.1423,-28.4317 -29.0856,-15.654 -49.696,-23.6871 -30.4766,-12.7357 -51.7736,-18.7154 -31.5756,-9.6954 -53.1889,-13.5223 -35.4252,-7.0125 -2797.9169,-399.7024 -1.7179,-0.2409 -72.6868,-10.0029 -42.5405,-3.133 -71.0921,-0.7303 -42.5958,2.2585 -70.6164,8.2437 -41.9706,7.6138 -69.0123,17.086 -40.6749,12.8475 -66.3056,25.6553 -38.7292,17.876 -62.5396,33.8147 -36.1648,22.6188 -57.7742,41.4338 -33.0226,27.0003 -52.0859,48.3909 -29.3528,30.9503 -45.5654,54.575 -25.2139,34.4058 -38.3168,59.887 -20.6723,37.3117 -30.456,64.2421 -15.8003,39.6214 -22.1087,67.571 -10.676,41.298 -13.4081,69.8202 -5.3809,42.3148 -4.5683,72.1379 -0.6747,21.3296 z"
       id="ol"
       style="fill:#ffffff;fill-opacity:1;stroke:none" />
    <path
       d="m 2662.1634,2731.5339 v -200 l 4.7932,-75.689 14.3029,-74.4798 23.5842,-72.0805 32.4886,-68.5295 40.874,-63.8837 48.6063,-58.2172 55.562,-51.6205 61.63,-44.1991 66.7133,-36.0714 70.7307,-27.3675 73.618,-18.2263 75.3291,-8.7939 75.8367,0.779 75.1326,10.3395 2800,400 56.9145,14.4694 55.2273,19.964 53.0112,25.2672 50.2872,30.3285 47.0815,35.0991 43.4248,39.5336 39.3521,43.5894 34.9025,47.2275 30.1184,50.4133 25.0458,53.1162 19.7334,55.3101 14.2318,56.9743 8.5941,58.0928 2.8738,58.6545 v 200 l -3.7727,67.1787 -11.2706,66.3339 -18.6267,64.6549 -25.7487,62.1628 -32.5468,58.889 -38.9356,54.8746 -44.8348,50.1702 -50.1702,44.8348 -54.8747,38.9357 -58.889,32.5468 -62.1628,25.7486 -64.6548,18.6268 -66.3339,11.2706 -67.1787,3.7726 h -2700 l -78.3751,-4.4014 -77.3896,-13.149 -75.4306,-21.7312 -72.5233,-30.0402 -68.7038,-37.9712 -64.0205,-45.4249 -58.5318,-52.3073 -52.3073,-58.5319 -45.4249,-64.0204 -37.9713,-68.7038 -30.0401,-72.5233 -21.7312,-75.4307 -13.149,-77.3895 -4.4015,-78.3752 z"
       id="cl"
       style="fill:none;stroke:#ff9900;stroke-width:25;stroke-dasharray:50, 50;stroke-dashoffset:0;stroke-opacity:1" />
  </g>
</svg>
