<?xml version="1.0" encoding="UTF-8" standalone="no"?>
<svg
   id="Trapezoid"
   version="1.1"
   width="5160.00000mm"
   height="4058.76515mm"
   viewBox="0.00000,0.00000,5160.00000,4058.76515"
   sodipodi:docname="Trapezoid.svg"
   inkscape:version="1.1.2 (0a00cf5339, 2022-02-04)"
   xmlns:inkscape="http://www.inkscape.org/namespaces/inkscape"
   xmlns:sodipodi="http://sodipodi.sourceforge.net/DTD/sodipodi-0.dtd"
   xmlns="http://www.w3.org/2000/svg"
   xmlns:svg="http://www.w3.org/2000/svg">
  <defs
     id="defs9" />
  <sodipodi:namedview
     id="trackview"
     pagecolor="#00c389"
     bordercolor="#000000"
     borderopacity="0.25"
     inkscape:pageshadow="2"
     inkscape:pageopacity="0.0"
     inkscape:pagecheckerboard="0"
     inkscape:document-units="mm"
     showgrid="false"
     inkscape:zoom="0.056909243"
     inkscape:cx="9743.5842"
     inkscape:cy="7670.1073"
     inkscape:window-width="2490"
     inkscape:window-height="1376"
     inkscape:window-x="2630"
     inkscape:window-y="27"
     inkscape:window-maximized="1"
     inkscape:current-layer="Trapezoid" />
  <path
     d="M 0,3027.3623 C 2.7298091,2339.1629 -5.4494867,1650.6044 4.0701539,962.62786 24.048808,480.25624 430.69327,52.346279 911.35261,7.5091146 1180.0746,-31.860067 1445.183,65.449958 1670.2807,206.11193 2676.836,759.98361 3686.7557,1308.144 4691.2115,1865.5798 c 318.5777,200.6216 495.9582,583.5748 468.7885,956.0069 12.1185,260.9826 -10.7017,536.2912 -161.0822,759.0056 -199.5162,323.9397 -585.9535,505.115 -962.2307,478.1728 -1026.3126,-2.3528 -2052.8674,4.7115 -3079.02835,-3.5426 C 478.60539,4031.1368 56.799507,3629.0724 8.0642717,3152.1382 2.8758271,3110.77 1.66393,3068.9883 0,3027.3623 Z m 762.37098,31.5574 c 13.61108,160.6681 179.72089,263.3061 332.21362,239.8454 1021.8344,-1.5819 2043.8463,3.163 3065.5699,-2.3709 160.6681,-13.6112 263.3062,-179.7209 239.8455,-332.2137 -5.8313,-154.3112 38.7612,-352.4823 -112.6476,-454.4722 C 3237.547,1931.5521 2186.7901,1354.4371 1134.2936,781.06228 959.58542,699.9152 744.91833,854.45983 760,1045.0576 c 1.58426,671.2616 -3.16626,1342.713 2.37098,2013.8621 z"
     id="road"
     style="fill:#232f3e;fill-opacity:1;stroke:none" />
  <path
     d="m 685,3016.7005 c 1.55545,-668.3445 -3.10725,-1336.9137 2.3247,-2005.1181 2.98778,-206.89499 221.62175,-370.62622 421.1783,-317.32451 147.485,49.94528 276.0971,143.6501 415.1824,212.70201 934.7625,513.9184 1871.8859,1023.9047 2805.173,1540.2804 118.3843,78.7658 160.0878,228.1637 146.1418,363.7102 -3.6825,151.9979 27.6622,329.8742 -90.8972,449.5694 -90.0061,107.465 -237.721,121.7546 -368.3934,113.2452 -1001.8802,-1.1207 -2003.8818,2.2415 -3005.6861,-1.6811 C 827.16714,3365.6606 677.69163,3198.405 685,3016.7005 Z m 77.37098,42.2192 c 13.13936,149.074 161.91615,257.099 307.57342,239.8454 1028.3491,-1.3867 2056.8539,2.7753 3085.1056,-2.0842 151.2376,-9.8065 262.6194,-160.5181 244.95,-307.8602 -9.3128,-124.1494 22.7409,-256.0756 -25.6875,-374.3231 C 4314.8261,2485.404 4162.8124,2452.1668 4053.1091,2379.6003 3079.8855,1847.2915 2108.9569,1310.6585 1134.2936,781.06228 971.50262,705.88178 763.2443,836.19927 762.20461,1016.0068 c -4.79893,669.8187 -1.42833,1340.0387 -1.68353,2009.9723 0.61663,10.9802 1.23327,21.9604 1.8499,32.9406 z"
     id="il"
     style="fill:#ffffff;fill-opacity:1;stroke:none" />
  <path
     d="M 0,3027.3623 C 2.7298091,2339.1629 -5.4494867,1650.6044 4.0701539,962.62786 24.048808,480.25624 430.69327,52.346279 911.35261,7.5091146 1180.0746,-31.860067 1445.183,65.449958 1670.2807,206.11193 2676.836,759.98361 3686.7557,1308.144 4691.2115,1865.5798 c 318.5777,200.6216 495.9582,583.5748 468.7885,956.0069 12.1185,260.9826 -10.7017,536.2912 -161.0822,759.0056 -199.5162,323.9397 -585.9535,505.115 -962.2307,478.1728 -1026.3126,-2.3528 -2052.8674,4.7115 -3079.02835,-3.5426 C 478.60539,4031.1368 56.799507,3629.0724 8.0642717,3152.1382 2.8758271,3110.77 1.66393,3068.9883 0,3027.3623 Z m 79.527184,89.1714 c 33.489166,454.65 433.051766,844.6056 888.922906,864.1767 1059.27401,6.7694 2118.90711,1.736 3178.29881,2.5159 452.5361,0.084 868.6145,-363.4229 926.718,-812.6031 17.2745,-200.7399 20.6179,-405.5252 -3.0802,-605.8525 -51.101,-323.8738 -285.9691,-596.1565 -581.7876,-727.5922 C 3466.2049,1278.6559 2447.346,713.47706 1422.7269,159.1435 1026.8996,-27.33777 515.9148,105.8649 262.16666,462.56963 99.749178,672.2693 60.420949,944.63292 75,1202.7699 c 2.969322,637.8655 -5.970802,1276.1048 4.527184,1913.7638 z"
     id="ol"
     style="fill:#ffffff;fill-opacity:1;stroke:none" />
  <path
     style="color:#000000;fill:#ff9900;stroke-dasharray:50, 50;-inkscape-stroke:none"
     d="m 1011.8105,367.7832 -0.496,24.99414 49.9902,0.99024 0.4941,-24.9961 z m -51.60738,3.96485 -49.56835,6.5664 3.2832,24.78321 49.5664,-6.56641 z m 153.18748,1.14062 -4.2617,24.63281 49.2695,8.52344 4.2598,-24.63476 z m -253.12107,17.37891 -48.00976,13.96875 6.98437,24.0039 48.00977,-13.96875 z m 352.70707,3.24023 -7.9297,23.70899 47.4179,15.85937 7.9297,-23.70898 z m -448.61527,30.37891 -45.34961,21.05469 10.52734,22.67578 45.34961,-21.05469 z m 543.85347,5.26172 -11.4179,22.24023 44.4824,22.83399 11.416,-22.24024 z m -633.46675,42.66601 -41.65235,27.65625 13.82813,20.82813 41.65429,-27.65821 z m 722.45705,3.67774 -12.0196,21.92187 43.8399,24.04102 12.0215,-21.91992 z m 87.6816,48.08398 -12.0215,21.91992 43.8418,24.04297 12.0196,-21.92187 z m -891.33787,9.33594 -37.00391,33.62695 16.8125,18.50196 37.00391,-33.62696 z m 979.01957,38.74805 -12.0215,21.91992 43.8418,24.04101 12.0195,-21.91992 z m -1049.88871,34.07421 -31.50586,38.82618 19.41211,15.7539 31.50586,-38.82617 z m 1137.57031,14.00782 -12.0215,21.91992 43.8399,24.04297 12.0214,-21.91992 z m 87.6797,48.08398 -12.0195,21.91992 43.8398,24.04102 12.0215,-21.91992 z m -1284.11329,20.73633 -25.28516,43.13477 21.56641,12.64257 25.28711,-43.13476 z m 1371.79489,27.34766 -12.0195,21.91992 43.8398,24.04101 12.0215,-21.91992 z m 87.6817,48.08203 -12.0215,21.91992 43.8418,24.04297 12.0195,-21.92188 z m -1504.94144,15.43945 -18.48633,46.45703 23.22852,9.24414 18.48633,-46.45703 z m 1592.62304,32.64453 -12.0215,21.91992 43.8418,24.04102 12.0196,-21.91992 z m 87.6817,48.08203 -12.0215,21.92188 43.8398,24.04101 12.0215,-21.91992 z m -1711.29888,16.03907 -11.26367,48.71484 24.35742,5.63281 11.26367,-48.71484 z m 1798.97848,32.04492 -12.0195,21.91992 43.8399,24.04297 12.0214,-21.92188 z m 87.6817,48.08398 -12.0196,21.91992 43.8399,24.04101 12.0215,-21.91991 z m -1902.44924,20.24219 -3.7832,49.85744 24.92773,1.8926 3.78516,-49.85746 z m 1990.13084,27.83984 -12.0215,21.9199 43.8418,24.043 12.0196,-21.9199 z m 87.6817,48.084 -12.0215,21.9199 43.8418,24.041 12.0195,-21.9199 z M 367.5,1077.3613 v 50 h 25 v -50 z m 2169.5625,23.2149 -12.0215,21.9199 43.8399,24.041 12.0214,-21.9199 z m 87.6797,48.082 -12.0195,21.9199 43.8398,24.043 12.0215,-21.9219 z M 367.5,1177.3613 v 50 h 25 v -50 z m 2344.9238,19.3809 -12.0195,21.9199 43.8398,24.041 12.0215,-21.9199 z m 87.6817,48.082 -12.0215,21.9219 43.8418,24.041 12.0195,-21.9199 z M 367.5,1277.3613 v 50 h 25 v -50 z m 2520.2871,15.5469 -12.0215,21.9199 43.8418,24.043 12.0196,-21.9219 z m 87.6817,48.084 -12.0215,21.9199 43.8398,24.041 12.0215,-21.9199 z M 367.5,1377.3613 v 50 h 25 v -50 z m 2695.6484,11.7129 -12.0195,21.9219 43.8399,24.041 12.0214,-21.9199 z m 87.6817,48.084 -12.0196,21.9199 43.8399,24.041 12.0215,-21.9199 z M 367.5,1477.3613 v 50 h 25 v -50 z m 2871.0117,7.8809 -12.0215,21.9199 43.8418,24.041 12.0196,-21.9199 z m 87.6817,48.082 -12.0215,21.9199 43.8398,24.043 12.0215,-21.9199 z M 367.5,1577.3613 v 50 h 25 v -50 z m 3046.375,4.0469 -12.0215,21.9199 43.8399,24.041 12.0214,-21.9199 z m 87.6797,48.082 -12.0195,21.9219 43.8398,24.041 12.0215,-21.9199 z M 367.5,1677.3613 v 50 h 25 v -50 z m 3221.7363,0.2129 -12.0215,21.9199 43.8418,24.043 12.0215,-21.9219 z m 87.6817,48.084 -12.0215,21.9199 43.8418,24.041 12.0195,-21.9199 z m 87.6816,48.082 -12.0215,21.9219 43.8399,24.041 12.0215,-21.9199 z M 367.5,1777.3613 v 50 h 25 v -50 z m 3484.7813,44.4629 -12.0215,21.9199 43.8398,24.043 12.0215,-21.9219 z m 87.6796,48.084 -12.0195,21.9199 43.8399,24.041 12.0214,-21.9199 z M 367.5,1877.3613 v 50 h 25 v -50 z m 3660.1426,40.6289 -12.0215,21.92 43.8418,24.0429 12.0215,-21.9199 z m 87.6816,48.084 -12.0215,21.9199 43.8418,24.0411 12.0196,-21.92 z M 367.5,1977.3613 v 50 h 25 v -50 z m 3835.5059,36.7969 -12.0215,21.9199 43.8398,24.041 12.0215,-21.9199 z m 87.6816,48.082 -12.0215,21.92 43.8399,24.0429 12.0214,-21.9218 z M 367.5,2077.3613 v 50 h 25 v -50 z m 4010.8672,32.9629 -12.0195,21.9199 43.8398,24.0411 12.0215,-21.92 z m 87.6816,48.0821 -12.0215,21.9218 9.4747,5.1953 31.7617,21.1036 13.8359,-20.8223 -32.6465,-21.6914 z M 367.5,2177.3613 v 50 h 25 v -50 z m 4182.2168,39.1075 -15.3164,19.7578 4.2246,3.2754 32.5293,29.246 16.7148,-18.5917 -33.2089,-29.8555 z M 367.5,2277.3613 v 50 h 25 v -50 z m 4255.834,9.3106 -18.0254,17.3242 0.074,0.076 29.6758,35.7597 0.9297,1.3028 20.3496,-14.5215 -1.459,-2.0449 -30.8398,-37.1641 z m 62.2637,81.5918 -21.3536,13 21.9707,36.0879 3.1211,6.0839 22.2442,-11.4101 -3.5371,-6.8965 z M 367.5,2377.3613 v 50 h 25 v -50 z m 4366.6309,80.2852 -23.0157,9.7598 14.4473,34.0742 3.8926,11.4316 23.666,-8.0566 -4.1856,-12.295 z M 367.5,2477.3613 v 50 h 25 v -50 z m 4400.9375,76.0176 -24.1895,6.3106 8.0196,30.746 3.1386,17.0274 24.586,-4.5332 -3.3027,-17.9219 z M 367.5,2577.3613 v 50 h 25 v -50 z m 4420.2187,75.8575 -24.8515,2.7304 2.8984,26.377 0.8203,22.5371 24.9844,-0.9121 -0.8555,-23.4473 z M 367.5,2677.3613 v 50 h 25 v -50 z m 4400,77.0293 v 50 h 25 v -50 z m -4400,22.9707 v 50 h 25 v -50 z m 4400,77.0293 v 50 h 25 v -50 z m -4400,22.9707 v 50 h 25 v -50 z m 4400,77.0293 v 50 h 25 v -50 z m -4400,22.9707 v 50 h 12.51758 l -12.49805,0.7012 0.92578,16.4785 24.96094,-1.4023 -0.90625,-16.1289 v -49.6485 z m 4398.5039,76.2852 -2.6094,46.4844 -0.3418,2.0097 24.6465,4.1875 0.5762,-3.3926 2.6894,-47.8867 z m -4369.79492,39.414 -24.96093,1.4004 0.47656,8.4746 7.18945,42.3106 24.64649,-4.1875 -6.95508,-40.9277 z m 4358.46872,58.375 -3.2578,19.1641 -8.0703,28.0176 24.0234,6.9199 8.459,-29.3652 3.4922,-20.5489 z m -4340.94137,37.0665 -24.02149,6.9218 13.8418,48.045 24.02148,-6.92 z m 4315.49607,56.5781 -19.1347,46.1953 23.0976,9.5664 19.1328,-46.1934 z m -4283.3574,36.4707 -23.09766,9.5664 10.38477,25.0703 11.73828,21.2402 21.88086,-12.0918 -11.06055,-20.0117 z m 4242.252,52.9961 -18.4239,33.3359 -6.0801,8.5703 20.3887,14.4668 6.8926,-9.7148 19.1035,-34.5645 z m -4197.83989,33.3222 -20.38867,14.4668 28.93164,40.7774 20.39062,-14.4668 z m 4144.40239,49.3614 -6.3497,8.9472 -25.0703,28.0547 18.6407,16.6602 26.0078,-29.1016 7.1601,-10.0937 z m -4084.9727,29.1543 -18.64063,16.6582 30.50781,34.1386 4.19141,3.7461 16.6582,-18.6425 -3.14453,-2.8086 z m 4020.0019,42.914 -37.2812,33.3184 16.6582,18.6406 37.2813,-33.3183 z m -3950.00386,26.3047 -16.6582,18.6406 13.91797,12.4375 26.69922,18.9454 14.46679,-20.3887 -25.55468,-18.1328 z m 3873.56056,35.7246 -24.1582,17.1407 -16.6074,9.1796 12.0918,21.8809 17.8379,-9.8594 25.3027,-17.9531 z m -3794.9961,21.2285 -12.09375,21.8809 43.76172,24.1855 12.09179,-21.8808 z m 3710.4687,29.2774 -2.1894,1.2109 -42.5859,17.6387 9.5683,23.0977 43.8809,-18.1778 3.4199,-1.8887 z m -3622.44527,14.8223 -9.5664,23.0957 34.47265,14.2793 13.53907,3.9023 6.92187,-24.0234 -12.18945,-3.5118 z m 3531.91407,20.1679 -46.3809,13.3613 -0.3242,0.055 4.1875,24.6465 1.707,-0.289 47.7305,-13.752 z m -3438.50196,10.9278 -6.91992,24.0234 9.79883,2.8223 40.625,6.9023 4.1875,-24.6465 -39.24219,-6.668 z m 3342.50386,10.8632 -20.8515,3.543 -27.4024,1.5391 1.4004,24.9609 28.8047,-1.6172 22.2363,-3.7773 z m -3246.69136,4.4922 -1.40234,24.961 49.9219,2.8027 1.4023,-24.9609 z m 99.21096,3.1582 v 25 h 50 v -25 z m 100,0 v 25 h 50 v -25 z m 100,0 v 25 h 50 v -25 z m 100,0 v 25 h 50 v -25 z m 100,0 v 25 h 50 v -25 z m 100,0 v 25 h 50 v -25 z m 100,0 v 25 h 50 v -25 z m 100,0 v 25 h 50 v -25 z m 100,0 v 25 h 50 v -25 z m 100,0 v 25 h 50 v -25 z m 100,0 v 25 h 50 v -25 z m 100,0 v 25 h 50 v -25 z m 100,0 v 25 h 50 v -25 z m 100,0 v 25 h 50 v -25 z m 100,0 v 25 h 50 v -25 z m 100,0 v 25 h 50 v -25 z m 100,0 v 25 h 50 v -25 z m 100,0 v 25 h 50 v -25 z m 100,0 v 25 h 50 v -25 z m 100,0 v 25 h 50 v -25 z m 100,0 v 25 h 50 v -25 z m 100,0 v 25 h 50 v -25 z m 100,0 v 25 h 50 v -25 z m 100,0 v 25 h 50 v -25 z m 100,0 v 25 h 50 v -25 z m 100,0 v 25 h 50 v -25 z m 100,0 v 25 h 50 v -25 z m 100,0 v 25 h 50 v -25 z m 100,0 v 25 h 50 v -25 z m 100,0 v 25 h 50 v -25 z m 100,0 v 25 h 50 v -25 z"
     id="cl" />
  <path
     style="color:#000000;fill:#ffffff;-inkscape-stroke:none"
     d="m 0,2283.0527 v 100 h 760 v -100 z"
     id="start_line"
     transform="matrix(1,0,0,-1,0,4058.7651)" />
</svg>
