<?xml version="1.0" encoding="UTF-8" standalone="no"?>
<svg
   id="Trapezoid"
   version="1.1"
   width="5160.00000mm"
   height="4058.76515mm"
   viewBox="0.00000,0.00000,5160.00000,4058.76515"
   sodipodi:docname="Trapezoid_iconography.svg"
   inkscape:version="1.1.2 (0a00cf5339, 2022-02-04)"
   xmlns:inkscape="http://www.inkscape.org/namespaces/inkscape"
   xmlns:sodipodi="http://sodipodi.sourceforge.net/DTD/sodipodi-0.dtd"
   xmlns="http://www.w3.org/2000/svg"
   xmlns:svg="http://www.w3.org/2000/svg">
  <defs
     id="defs970" />
  <sodipodi:namedview
     id="trackview"
     pagecolor="#ffffff"
     bordercolor="#000000"
     borderopacity="0.25"
     inkscape:pageopacity="0"
     inkscape:pagecheckerboard="true"
     inkscape:pageshadow="2"
     inkscape:document-units="mm"
     showgrid="false"
     inkscape:zoom="0.056909243"
     inkscape:cx="9743.5842"
     inkscape:cy="7670.1073"
     inkscape:window-width="2490"
     inkscape:window-height="1376"
     inkscape:window-x="2630"
     inkscape:window-y="27"
     inkscape:window-maximized="1"
     inkscape:current-layer="Trapezoid" />
  <path
     d="M 0,3027.3623 V 1030.6596 l 1.0895015,-28.7547 7.5859186,-99.96216 3.2622569,-28.58984 5.416306,-28.26101 22.155998,-95.82154 7.539297,-27.77013 9.619056,-27.12001 36.362384,-91.38071 11.643652,-26.31437 13.60149,-25.35785 49.73593,-84.84689 15.48133,-24.25592 17.2724,-23.01489 61.97032,-76.36974 18.96442,-21.6419 20.54769,-20.14481 72.78534,-66.14341 22.01315,-18.5322 23.35237,-16.81332 81.93329,-54.40214 24.55769,-14.99803 25.62218,-13.09675 89.20464,-41.414839 26.53976,-11.12036 27.30515,-9.080204 94.43284,-27.478973 27.91397,-6.987981 28.36271,-4.855687 L 943.7692,3.2155046 972.41803,0.51995518 1001.1887,0 l 98.3304,1.9472864 28.7275,1.6586206 28.5196,3.8276856 96.9105,16.7637034 28.1482,5.974802 27.6154,8.087657 93.2709,31.196165 26.9242,10.154136 26.0787,12.162389 90.2624,46.334695 9.1788,4.8715 3097.5394,1698.65066 27.5807,16.6842 39.2152,26.0559 22.4984,16.161 37.449,29.0267 21.2613,17.757 35.235,31.6777 19.9112,19.2587 32.8336,34.1604 18.4554,20.6581 30.2578,36.4615 16.9014,21.9477 27.5212,38.5688 15.2576,23.1206 24.6384,40.4714 13.5327,24.1706 21.6246,42.1587 11.7359,25.0923 18.496,43.622 9.8768,25.8806 15.2689,44.8535 7.9652,26.5313 11.9608,45.8467 6.0112,27.0411 8.5891,46.5962 4.0253,27.4072 5.1718,47.0981 2.0181,27.6275 1.7602,48.2613 0.2525,13.8506 v 297.6856 l -0.5978,21.3068 -4.1654,74.1709 -4.7712,42.3456 -12.2083,71.853 -9.4824,41.5451 -20.1765,70.0343 -14.0744,40.2222 -27.891,67.3349 -18.4893,38.3935 -35.2548,63.7887 -22.6717,36.0819 -42.1752,59.4403 -26.5691,33.3166 -48.5652,54.3444 -30.1323,30.1324 -54.3444,48.5651 -33.3167,26.5691 -59.4403,42.1752 -36.0819,22.6718 -63.7887,35.2547 -38.3934,18.4894 -67.3349,27.891 -40.2222,14.0743 -70.0343,20.1766 -41.5452,9.4824 -71.8529,12.2083 -42.3456,4.7712 -74.171,4.1653 -21.3068,0.5978 H 1031.4029 l -21.3068,-0.5978 -74.17096,-4.1653 -42.34559,-4.7712 -71.85299,-12.2083 -41.54513,-9.4824 -70.03429,-20.1766 -40.22221,-14.0743 -67.33488,-27.891 -38.39347,-18.4894 -63.78869,-35.2547 -36.08192,-22.6718 -59.44031,-42.1752 -33.31661,-26.5691 -54.34445,-48.5651 -30.13232,-30.1324 -48.56517,-54.3444 -26.56911,-33.3166 -42.17515,-59.4403 -22.67177,-36.0819 -35.25476,-63.7887 -18.489325,-38.3935 -27.89102,-67.3349 -14.07436,-40.2222 -20.176532,-70.0343 -9.482405,-41.5451 -12.2083137,-71.853 -4.7712026,-42.3456 -4.16535141,-74.1709 z m 762.37098,31.5574 5.05903,29.7753 8.36101,29.0217 11.55782,27.9031 14.60931,26.4335 17.47707,24.6317 20.12504,22.5199 22.51993,20.125 24.63162,17.4771 26.43355,14.6093 27.90307,11.5578 29.02168,8.361 29.77534,5.0591 42.21915,2.3709 h 3075.8708 l 42.2191,-2.3709 29.7754,-5.0591 29.0217,-8.361 27.903,-11.5578 26.4336,-14.6093 24.6316,-17.4771 22.5199,-20.125 20.1251,-22.5199 17.477,-24.6317 14.6094,-26.4335 11.5578,-27.9031 8.361,-29.0217 5.059,-29.7753 2.371,-42.2192 v -280.0962 l -1.0026,-27.4877 -2.1461,-19.5441 -3.5642,-19.3358 -4.9633,-19.0248 -6.3361,-18.6127 -7.6752,-18.1016 -8.9735,-17.4944 -10.2241,-16.7943 -11.4203,-16.0047 -12.556,-15.1303 -13.6248,-14.1754 -14.6214,-13.1452 -15.54,-12.045 -14.235,-9.4583 -3078.8388,-1688.39542 -59.985,-30.7923 -38.5744,-12.90192 -40.0796,-6.93303 -40.6669,-0.80534 -40.32268,5.34078 -39.05496,11.36459 -36.89272,17.12809 -33.88547,22.49931 -30.10212,27.35519 -25.62931,31.58453 -20.56948,35.09046 -15.03854,37.79268 -9.16314,39.62929 L 760,1045.0576 v 1971.6429 z"
     id="road"
     style="fill:#a9a9a9;fill-opacity:0.6;stroke:none"
     inkscape:export-filename="/home/ludvigse/deepracer-custom-tracks/tracks/Trapezoid/track_iconography/Trapezoid.png"
     inkscape:export-xdpi="2.51"
     inkscape:export-ydpi="2.51" />
  <path
     d="M 380,3027.3623 V 1030.6596 l 7.58592,-99.96214 22.156,-95.82154 36.36238,-91.38071 49.73593,-84.84688 61.97032,-76.36974 72.78534,-66.1434 81.93329,-54.40214 89.20464,-41.41484 94.43284,-27.47897 97.49817,-12.91373 98.33037,1.94728 96.9105,16.76371 93.2708,31.19616 90.2624,46.33469 3097.5394,1698.65065 39.2151,26.0559 37.4491,29.0267 35.2349,31.6777 32.8337,34.1603 30.2578,36.4615 27.5212,38.5689 24.6384,40.4713 21.6246,42.1587 18.496,43.622 15.2689,44.8535 11.9608,45.8467 8.5892,46.5961 5.1718,47.0981 1.7602,48.2613 v 297.6856 l -4.1654,74.1709 -12.2083,71.853 -20.1765,70.0343 -27.891,67.3349 -35.2548,63.7887 -42.1751,59.4403 -48.5652,54.3444 -54.3444,48.5652 -59.4404,42.1752 -63.7887,35.2547 -67.3348,27.8911 -70.0343,20.1765 -71.853,12.2083 -74.171,4.1653 H 1031.4029 l -74.17099,-4.1653 -71.85299,-12.2083 -70.03429,-20.1765 -67.33488,-27.8911 -63.78868,-35.2547 -59.44032,-42.1752 -54.34445,-48.5652 -48.56517,-54.3444 -42.17515,-59.4403 -35.25476,-63.7887 -27.89102,-67.3349 -20.17653,-70.0343 -12.20832,-71.853 z"
     id="cl"
     style="fill:none;stroke:#ffffff;stroke-width:50;stroke-opacity:1"
     inkscape:export-filename="/home/ludvigse/deepracer-custom-tracks/tracks/Trapezoid/track_iconography/Trapezoid.png"
     inkscape:export-xdpi="2.51"
     inkscape:export-ydpi="2.51" />
</svg>
