<?xml version="1.0" encoding="UTF-8" standalone="no"?>
<svg
   id="Trapezoid"
   version="1.1"
   width="5150.00000mm"
   height="4048.84126mm"
   viewBox="0.00000,0.00000,5150.00000,4048.84126"
   sodipodi:docname="Trapezoid.svg"
   inkscape:version="1.1.2 (0a00cf5339, 2022-02-04)"
   xmlns:inkscape="http://www.inkscape.org/namespaces/inkscape"
   xmlns:sodipodi="http://sodipodi.sourceforge.net/DTD/sodipodi-0.dtd"
   xmlns="http://www.w3.org/2000/svg"
   xmlns:svg="http://www.w3.org/2000/svg">
  <defs
     id="defs886" />
  <sodipodi:namedview
     id="trackview"
     pagecolor="#00c389"
     bordercolor="#000000"
     borderopacity="0.25"
     inkscape:pageshadow="2"
     inkscape:pageopacity="0.0"
     inkscape:pagecheckerboard="0"
     inkscape:document-units="mm"
     showgrid="false"
     inkscape:zoom="0.076261016"
     inkscape:cx="9736.2984"
     inkscape:cy="7651.3537"
     inkscape:window-width="2490"
     inkscape:window-height="1376"
     inkscape:window-x="2630"
     inkscape:window-y="27"
     inkscape:window-maximized="1"
     inkscape:current-layer="Trapezoid" />
  <path
     d="M 0.93181048,999.2484 C 5.6088751,550.65882 338.93643,132.33154 776.37671,30.764045 1066.8153,-47.493724 1377.8978,26.506392 1627.5677,186.20915 2645.21,746.00384 3665.9429,1300.562 4681.6532,1863.6302 c 322.4437,201.601 497.9424,589.7735 468.3468,965.0271 13.9585,269.1153 -18.0547,553.8351 -182.3993,777.0456 -204.9504,307.8085 -582.8154,470.2744 -947.4167,443.1384 -1021.8809,-2.2993 -2044.001,4.5991 -3065.73246,-3.4499 C 471.35247,4022.205 47.636085,3612.1099 6.0594521,3130.6167 -7.9083447,2588.8007 3.9125095,2046.1492 0,1504.009 0.61906926,1335.7632 -1.2400492,1167.4639 0.93181048,999.2484 Z M 650,3014.7226 c -10.24895,223.5176 203.88799,410.8552 423.4246,384.1187 1031.1414,-1.912 2062.4974,3.8235 3093.5047,-2.8668 209.6923,-18.38 359.8718,-229.3657 333.0707,-433.6599 -2.0388,-172.8195 30.6416,-378.8684 -114.4384,-507.8627 C 4221.253,2331.7434 4027.5309,2252.4378 3851.5052,2147.1094 2957.397,1658.3817 2065.9048,1164.7248 1170.156,679.0881 943.40518,574.33029 653.35245,756.12446 652.24399,1006.5856 647.0042,1675.7694 651.49882,2345.3993 650,3014.7226 Z"
     id="road"
     style="fill:#232f3e;fill-opacity:1;stroke:none" />
  <path
     d="m 575.21503,1030.4801 c -6.53854,-238.3532 200.71789,-456.21099 440.23257,-454.90888 189.3683,-5.66495 338.9848,129.41848 501.671,205.85359 954.1173,524.70679 1910.9116,1044.95879 2863.358,1572.44619 149.1294,97.5332 211.2823,283.0457 194.5236,454.9312 -0.1741,167.0237 20.5544,354.482 -96.0465,491.9288 -101.6937,136.2407 -278.2028,187.4678 -442.1081,173.1103 -1012.1586,-1.1868 -2024.446,2.3734 -3036.5242,-1.7798 C 761.58465,3465.6123 561.7863,3242.1132 575,3004.8431 c 0.14353,-658.1196 -0.28694,-1316.2502 0.21503,-1974.363 z M 650,3014.7226 c -8.9519,210.9317 183.62438,397.794 393.9981,384.1187 1037.0924,-1.4741 2074.3503,2.9503 3111.3391,-2.2158 204.5524,-10.7778 364.5797,-210.1145 344.6628,-411.5414 -7.6367,-169.8359 36.3124,-366.859 -90.6768,-505.1154 -101.5368,-107.857 -249.4993,-153.2264 -372.6713,-231.3273 C 3080.8269,1726.0719 2127.6219,1198.5659 1170.156,679.0881 966.28957,586.98072 703.09321,720.5402 661.29467,941.11277 637.21375,1125.8848 655.91907,1314.2617 650,1500.4916 c 0,504.7437 0,1009.4873 0,1514.231 z"
     id="il"
     style="fill:#ffffff;fill-opacity:1;stroke:none" />
  <path
     d="M 0.93181048,999.2484 C 5.6088751,550.65882 338.93643,132.33154 776.37671,30.764045 1066.8153,-47.493724 1377.8978,26.506392 1627.5677,186.20915 2645.21,746.00384 3665.9429,1300.562 4681.6532,1863.6302 c 322.4437,201.601 497.9424,589.7735 468.3468,965.0271 13.9585,269.1153 -18.0547,553.8351 -182.3993,777.0456 -204.9504,307.8085 -582.8154,470.2744 -947.4167,443.1384 -1021.8809,-2.2993 -2044.001,4.5991 -3065.73246,-3.4499 C 471.35247,4022.205 47.636085,3612.1099 6.0594521,3130.6167 -7.9083447,2588.8007 3.9125095,2046.1492 0,1504.009 0.61906926,1335.7632 -1.2400492,1167.4639 0.93181048,999.2484 Z M 75,3022.7893 c -7.715955,450.5729 346.42685,872.0893 793.18401,936.9057 282.51609,30.419 568.40659,6.5684 852.27409,14.1463 828.3023,-2.7501 1656.8968,5.5008 2485.0168,-4.1255 458.5826,-29.5049 852.7357,-435.218 867.0522,-894.827 4.9197,-277.8078 29.5897,-576.9228 -123.912,-824.1836 C 4832.3706,2032.8977 4617.6317,1899.4655 4402.91,1793.7082 3405.5091,1248.9711 2411.7733,697.33233 1412.0678,156.93495 1019.941,-25.242845 515.49242,105.70471 263.56354,457.69771 100.25356,665.95987 60.361275,938.06632 75,1195.5876 c 0,609.0673 0,1218.1345 0,1827.2017 z"
     id="ol"
     style="fill:#ffffff;fill-opacity:1;stroke:none" />
  <path
     style="color:#000000;fill:#ff9900;stroke-dasharray:50, 50;-inkscape-stroke:none"
     d="m 1026.7168,313.24219 -0.4961,24.99609 49.9902,0.99024 0.4961,-24.9961 z m -51.80078,0.53515 -49.56641,6.56446 3.2832,24.7832 49.56641,-6.56445 z m 153.16208,6.84961 -4.2597,24.63477 49.2675,8.52148 4.2618,-24.63281 z m -254.03904,7.17969 -48.00976,13.9707 6.98632,24.00391 48.00782,-13.9707 z m 353.34764,14.54492 -7.9297,23.70899 47.418,15.86132 7.9297,-23.70898 z m -449.36522,13.39649 -3.30468,0.96093 -43.95118,20.4043 10.5293,22.67578 42.22852,-19.60547 1.48242,-0.43164 z m 544.60552,22.23828 -11.4161,22.24023 44.4805,22.83399 11.418,-22.24024 z m -637.21098,20.18164 -8.50782,3.94922 -35.41992,23.51953 13.82813,20.82617 33.83984,-22.46875 6.78711,-3.15039 z m 726.25978,26.05273 -12.0215,21.92188 43.8418,24.04101 12.0195,-21.91992 z m -811.84182,29.07422 -12.76171,8.47266 -27.07032,24.59961 16.8125,18.50195 25.66797,-23.32422 11.17969,-7.42383 z m 899.52342,19.00977 -12.0215,21.91992 43.8418,24.04297 12.0196,-21.92188 z m -976.35935,47.68945 -15.73047,14.29688 -19.30664,23.79296 19.41211,15.75196 18.11132,-22.32032 14.32618,-13.01953 z m 1064.04105,0.39453 -12.0215,21.91992 43.8398,24.04102 12.0215,-21.91992 z m 87.6797,48.08203 -12.0196,21.92188 43.8399,24.04101 12.0214,-21.91992 z m -1218.26372,28.4375 -17.13477,21.11719 -12.49219,21.3125 21.56641,12.64258 11.5332,-19.67578 15.93946,-19.64258 z m 1305.94532,19.64649 -12.0195,21.91992 43.8398,24.04101 12.0215,-21.91992 z m 87.6816,48.08398 -12.0215,21.91992 43.8418,24.04102 12.0196,-21.91992 z m -1448.53903,17.83399 -16.75586,28.58398 -6.9375,17.43359 23.22851,9.24414 6.23633,-15.67187 15.79492,-26.94727 z m 1536.22073,30.24804 -12.0215,21.91992 43.8418,24.04297 12.0195,-21.91992 z m 87.6816,48.08399 -12.0215,21.91992 43.8399,24.04101 12.0215,-21.91992 z m -1666.08202,14.14258 -14.44531,36.30468 -2.89063,12.49414 24.35743,5.63282 2.46289,-10.64649 13.74414,-34.54101 z m 1753.76172,33.93945 -12.0195,21.92187 43.8398,24.04102 12.0215,-21.91992 z m 87.6816,48.08398 -12.0195,21.91992 43.8399,24.04297 12.0214,-21.92187 z m -1870.04293,15.49024 -10.14062,43.85351 -0.51953,6.86719 24.92773,1.89258 0.37695,-4.97656 9.71289,-42.00391 z m 1957.72463,32.59375 -12.0215,21.91992 43.8418,24.04101 12.0195,-21.91992 z m 87.6816,48.08203 -12.0215,21.92187 43.8418,24.04102 12.0196,-21.91992 z m -2059.84959,19.90234 -3.78515,49.85544 24.92968,1.8926 3.78321,-49.85741 z m 2147.53129,28.18164 -12.0215,21.9199 43.8398,24.041 12.0215,-21.9199 z m 87.6797,48.084 -12.0196,21.9199 43.8399,24.041 12.0214,-21.9199 z M 312.5,1073.8418 v 50 h 25 v -50 z m 2326.7129,23.5449 -12.0195,21.9199 43.8398,24.043 12.0215,-21.9199 z m 87.6816,48.084 -12.0215,21.9199 43.8418,24.041 12.0196,-21.9199 z M 312.5,1173.8418 v 50 h 25 v -50 z m 2502.0762,19.7109 -12.0215,21.9219 43.8418,24.041 12.0195,-21.9199 z m 87.6816,48.084 -12.0215,21.9199 43.8399,24.043 12.0215,-21.9219 z M 312.5,1273.8418 v 50 h 25 v -50 z m 2677.4375,15.8789 -12.0195,21.9199 43.8398,24.041 12.0215,-21.9199 z m 87.6816,48.082 -12.0195,21.9219 43.8399,24.041 12.0214,-21.9199 z M 312.5,1373.8418 v 50 h 25 v -50 z m 2852.8008,12.0449 -12.0215,21.9199 43.8418,24.043 12.0195,-21.9219 z m 87.6816,48.084 -12.0215,21.9199 43.8418,24.041 12.0196,-21.9199 z M 312.5,1473.8418 v 50 h 25 v -50 z m 3028.1641,8.2109 -12.0215,21.92 43.8398,24.0429 12.0215,-21.9199 z m 87.6797,48.084 -12.0196,21.9199 43.8399,24.0411 12.0214,-21.92 z M 312.5,1573.8418 v 50 h 25 v -50 z m 3203.5254,4.3789 -12.0195,21.9199 43.8398,24.041 12.0215,-21.9199 z m 87.6816,48.082 -12.0215,21.92 43.8418,24.0429 12.0196,-21.9218 z M 312.5,1673.8418 v 50 31.0332 h 25 v -31.0332 -50 z m 3378.8887,0.5449 -12.0215,21.9199 43.8398,24.0411 12.0215,-21.92 z m 87.6816,48.0821 -12.0215,21.9218 43.8399,24.041 12.0215,-21.9199 z m 87.6797,48.0839 -12.0195,21.92 43.8398,24.0429 12.0215,-21.9218 z M 312.5,1804.875 v 50 h 25 v -50 z m 3641.9316,13.7617 -12.0214,21.9199 43.8418,24.0411 12.0214,-21.92 z m 87.6817,48.0821 -12.0215,21.9218 43.8418,24.041 12.0195,-21.9199 z M 312.5,1904.875 v 50 h 25 v -50 z m 3817.2949,9.9277 -12.0215,21.92 43.8399,24.041 12.0215,-21.9199 z m 87.6817,48.084 -12.0215,21.9199 43.8398,24.0411 12.0215,-21.92 z M 312.5,2004.875 v 50 h 25 v -50 z m 3992.6562,6.0938 -12.0195,21.9199 43.8399,24.0429 12.0214,-21.9199 z m 87.6817,48.0839 -12.0215,21.92 43.8418,24.041 12.0215,-21.9199 z M 312.5,2104.875 v 50 h 25 v -50 z m 4168.0195,2.2598 -12.0215,21.9218 15.9082,8.7227 25.6504,17.043 13.836,-20.8223 -26.5352,-17.6309 z m 84.4688,56.8613 -15.3145,19.7598 16.0235,12.4199 21.4277,19.2637 16.7148,-18.5899 -22.1074,-19.875 z M 312.5,2204.875 v 50 h 25 v -50 z m 4327.7461,27.5156 -18.0254,17.3242 15.4746,16.0997 17.0879,20.5918 19.2383,-15.9649 -17.6699,-21.293 z M 312.5,2304.875 v 50 h 25 v -50 z m 4392.4941,5.9297 -20.3496,14.5195 14.166,19.8516 12.8438,21.0996 21.3535,-13 -13.3183,-21.877 z m 52.9258,86.832 -22.2441,11.4102 12.0683,23.5312 8.8399,20.8457 23.0156,-9.7578 -9.1953,-21.6875 z M 312.5,2404.875 v 50 h 25 v -50 z m 4485.4395,86.248 -23.6661,8.0567 9.1856,26.9805 5.1953,19.9199 24.1914,-6.3106 -5.4277,-20.8027 z M 312.5,2504.875 v 50 h 25 v -50 z m 4511.7402,84.4824 -24.5859,4.5313 5.541,30.0527 2.0215,18.418 24.8516,-2.7285 -2.1231,-19.3262 z M 312.5,2604.875 v 50 h 25 v -50 z m 4523.7871,85.4609 -24.9844,0.9121 1.1973,32.8204 v 16.7011 h 25 v -17.1562 z M 312.5,2704.875 v 50 h 25 v -50 z m 4500,85.8945 v 50 h 25 v -50 z m -4500,14.1055 v 50 h 25 v -50 z m 4500,85.8945 v 50 h 25 v -50 z m -4500,14.1055 v 50 h 25 v -50 z m 4500,85.8945 v 32.7207 l -0.9297,16.5528 24.9609,1.4004 0.9688,-17.252 v -33.4219 z m -4500,14.1055 v 19.3164 l 1.75977,31.334 24.96093,-1.4004 -1.7207,-30.6348 v -18.6152 z m 4496.2676,85.0879 -0.6094,10.8516 -6.3203,37.1953 24.6465,4.1875 6.5547,-38.5782 0.6894,-12.2539 z m -4466.61916,12.6582 -24.64649,4.1875 8.375,49.293 24.64844,-4.1875 z m 4450.54106,83.0684 -13.8418,48.0449 24.0214,6.9219 13.8418,-48.0469 z m -4431.4727,13.5527 -24.02344,6.9199 13.8418,48.0469 24.02343,-6.9219 z m 4400.9238,80.0508 -17.7422,42.834 -1.08,1.955 21.8808,12.0918 1.7598,-3.1816 18.2793,-44.1328 z m -4368.88474,13.0312 -23.0957,9.5664 12.88086,31.1016 8.58203,15.5273 21.88086,-12.0937 -7.90235,-14.2988 z m 4325.87694,75.5176 -12.0273,21.7617 -13.7325,19.3555 20.3887,14.4668 14.5469,-20.502 12.7051,-22.9883 z m -4281.44335,12.3457 -21.88086,12.0918 5.88282,10.6445 22.70898,32.0039 20.38867,-14.4668 -21.89453,-30.8574 z m 4226.75005,69.5488 -1.9454,2.7422 -30.1425,33.7285 18.6406,16.6582 31.0781,-34.7754 2.7578,-3.8867 z m -4170.71098,9.7051 -18.64063,16.6602 33.31836,37.2812 18.64062,-16.6582 z m 4104.91408,61.6738 -37.2813,33.3184 16.6582,18.6406 37.2813,-33.3183 z m -4036.7676,9.3985 -16.66016,18.6406 35.53711,31.7578 3.05469,2.168 14.4668,-20.3906 -1.91016,-1.3536 z m 3960.5762,52.9492 -31.6895,22.4844 -8.5234,4.7109 12.0918,21.8809 9.7539,-5.3907 32.834,-23.2968 z m -3883.40042,8.1601 -14.4668,20.3907 21.33204,15.1347 22.09765,12.2129 12.09375,-21.8808 -20.86914,-11.5332 z m 3799.42582,43.2208 -15.1895,8.3964 -28.8633,11.9551 9.5684,23.0957 30.1582,-12.4922 16.4199,-9.0742 z m -3714.60941,6.8222 -12.0918,21.8809 4.07422,2.2519 43.18945,17.8907 9.56836,-23.0977 -41.89453,-17.3516 z m 3625.55861,31.836 -48.0449,13.8418 6.9199,24.0214 48.0469,-13.8418 z m -3535.29885,3.9043 -6.91992,24.0234 48.04492,13.8418 6.92188,-24.0235 z m 3439.95115,20.7402 -49.2929,8.375 4.1875,24.6465 49.2929,-8.375 z m -3344.25193,2.3613 -4.1875,24.6465 39.58399,6.7266 11.23632,0.6308 1.40039,-24.9609 -9.83203,-0.5528 z m 3246.47463,9.0567 -31.6524,1.7773 h -17.5957 v 25 h 18.2989 l 32.3515,-1.8164 z m -3148.5196,0.791 -1.4023,24.959 18.2695,1.0273 h 32.4043 v -25 h -31.7011 z m 99.2715,0.9863 v 25 h 50 v -25 z m 100,0 v 25 h 50 v -25 z m 100,0 v 25 h 50 v -25 z m 100,0 v 25 h 50 v -25 z m 100,0 v 25 h 50 v -25 z m 100,0 v 25 h 50 v -25 z m 100,0 v 25 h 50 v -25 z m 100,0 v 25 h 50 v -25 z m 100,0 v 25 h 50 v -25 z m 100,0 v 25 h 50 v -25 z m 100,0 v 25 h 50 v -25 z m 100,0 v 25 h 50 v -25 z m 100,0 v 25 h 50 v -25 z m 100,0 v 25 h 50 v -25 z m 100,0 v 25 h 50 v -25 z m 100,0 v 25 h 50 v -25 z m 100,0 v 25 h 50 v -25 z m 100,0 v 25 h 50 v -25 z m 100,0 v 25 h 50 v -25 z m 100,0 v 25 h 50 v -25 z m 100,0 v 25 h 50 v -25 z m 100,0 v 25 h 50 v -25 z m 100,0 v 25 h 50 v -25 z m 100,0 v 25 h 50 v -25 z m 100,0 v 25 h 50 v -25 z m 100,0 v 25 h 50 v -25 z m 100,0 v 25 h 50 v -25 z m 100,0 v 25 h 50 v -25 z m 100,0 v 25 h 50 v -25 z m 100,0 v 25 h 50 v -25 z"
     id="cl" />
  <path
     style="color:#000000;fill:#ffffff;-inkscape-stroke:none"
     d="m 0,2275 v 100 h 650 v -100 z"
     id="start_line"
     transform="matrix(1,0,0,-1,0,4048.8413)" />
</svg>
