<?xml version='1.0' encoding='utf-8'?>
<svg id="Trapezoid" version="1.1" baseProfile="full" width="5150.00000mm" height="4048.84126mm" viewBox="0.00000,0.00000,5150.00000,4048.84126" xmlns="http://www.w3.org/2000/svg" xmlns:ev="http://www.w3.org/2001/xml-events" xmlns:xlink="http://www.w3.org/1999/xlink" xmlns:sodipodi="http://sodipodi.sourceforge.net/DTD/sodipodi-0.dtd"><sodipodi:namedview id="trackview" pagecolor="#00c389" bordercolor="#000000" borderopacity="0.25" /><path d="M 0.9318104791914834,3049.5928554809184 L 8.948207705108246,3155.227572746596 L 11.738295937949431,3179.679407424742 L 16.37066294934357,3203.850009141417 L 40.23624712856832,3307.065269680097 L 46.68432991467154,3330.8160389278087 L 54.911153760955926,3354.0107836101006 L 94.07930774260603,3452.442545912484 L 104.03769824494492,3474.9482622991563 L 115.67055181794848,3496.6358976986985 L 169.24416851367226,3588.0296814611784 L 182.4847798351118,3608.7748742370727 L 197.25722434880095,3628.4586669245714 L 264.0092540664221,3710.7211896482336 L 280.22882335019995,3729.230711082435 L 297.80251085251825,3746.4598236261877 L 376.20406563245797,3817.706945142579 L 395.0310999922543,3833.5568533028654 L 415.0035228839374,3847.9366702457273 L 503.25889413692244,3906.536547048337 L 524.2621793269822,3919.3638157638293 L 546.1758893924186,3930.564981892515 L 642.2636767947786,3975.1754428675163 L 664.962153737581,3984.6862764772245 L 688.3152395351208,3992.4522403715027 L 790.0346491657795,4022.051527874304 L 813.9084321253313,4028.028090320612 L 838.1660147629602,4032.1809804050004 L 943.1872660699601,4046.091152589241 L 967.6895501105807,4048.3965567332502 L 992.296034107834,4048.841255246172 L 1098.2137211836332,4046.7437136383946 L 1122.7833061858582,4045.3251565218625 L 1147.17510482829,4042.0514780921017 L 1251.5632898076026,4023.9942647686667 L 1275.6374341912804,4018.8842370125467 L 1299.255877916115,4011.967161944912 L 1399.7236546375511,3978.3638591766576 L 1422.7509643905264,3969.679400816174 L 1445.055096549887,3959.2773577431904 L 1539.3013518517207,3910.8976153103836 L 1547.1516588936881,3906.7311982598326 L 4647.151658893688,2206.7311982598326 L 4670.74045555562,2192.4618235360135 L 4713.242441048869,2164.2219555465344 L 4732.484498060577,2150.40005133182 L 4772.816295281333,2119.138972529652 L 4791.000307299855,2103.9520208581403 L 4828.947589051509,2069.8358557367187 L 4845.9769244217305,2053.364561585656 L 4881.338035060915,2016.574606852129 L 4897.122198194711,1998.9065003228936 L 4929.709225249516,1959.6382614693246 L 4944.164337528309,1940.8672326437645 L 4973.804110283921,1899.3293850114273 L 4986.853355798064,1879.555185010562 L 5013.388365543226,1835.9684648683483 L 5024.962399299395,1815.296175764975 L 5048.25163634343,1769.892207294826 L 5058.288952770854,1748.4316836968676 L 5078.208655783228,1701.4517481197474 L 5086.655915580417,1679.3170333919495 L 5103.100229270811,1631.0107867753525 L 5109.91254285595,1608.3195070013855 L 5122.794080499835,1558.9436535620707 L 5127.9352465584825,1535.8163924678488 L 5137.1855543789015,1485.6333204200057 L 5140.628252241392,1462.1929785797179 L 5146.198173179166,1411.469365777804 L 5147.924108005393,1387.8405075079188 L 5149.78404294463,1336.8459042939182 L 5150.0,1325.0 L 5150.0,1024.9999999999998 L 5149.48871488079,1006.7771046479135 L 5145.08726180606,928.4019713755979 L 5141.006627943696,892.1853441536408 L 5127.857619545702,814.7958236565363 L 5119.747668159434,779.263805017508 L 5098.016460848016,703.8331154183112 L 5085.979179282025,669.4325411127268 L 5055.939055597861,596.9092670990531 L 5040.1258196520375,564.0727443085048 L 5002.154551580143,495.36890813005994 L 4982.764221871559,464.5093751808296 L 4937.339320139382,400.4889674404518 L 4914.615741314649,371.9945008644846 L 4862.308450417611,313.4626153350147 L 4836.5373846649845,287.69154958238755 L 4778.005499135515,235.38425868534995 L 4749.511032559548,212.66067986061813 L 4685.490624819169,167.2357781284402 L 4654.631091869938,147.84544841985633 L 4585.927255691494,109.87418034796201 L 4553.090732900945,94.06094440213894 L 4480.567458887272,64.02082071797486 L 4446.166884581693,51.9835391519855 L 4370.736194982496,30.25233184056617 L 4335.204176343458,22.14238045429647 L 4257.814655846353,8.993372056303429 L 4221.598028624403,4.9127381939399015 L 4143.222895352088,0.5112851192096173 L 4125.0,0.0 L 1025.0,0.0 L 1006.7771046479123,0.5112851192096741 L 928.4019713755966,4.912738193939958 L 892.1853441536455,8.993372056303542 L 814.795823656541,22.1423804542967 L 779.2638050175035,30.25233184056617 L 703.8331154183065,51.9835391519855 L 669.4325411127282,64.0208207179748 L 596.9092670990547,94.06094440213877 L 564.0727443085066,109.87418034796173 L 495.3689081300616,147.84544841985615 L 464.50937518082753,167.2357781284416 L 400.48896744044976,212.66067986061955 L 371.9945008644853,235.3842586853503 L 313.46261533501536,287.691549582388 L 287.6915495823878,313.46261533501564 L 235.38425868535015,371.9945008644855 L 212.6606798606192,400.4889674404501 L 167.23577812844127,464.509375180828 L 147.84544841985593,495.368908130062 L 109.87418034796161,564.0727443085068 L 94.06094440213866,596.9092670990549 L 64.02082071797469,669.4325411127286 L 51.9835391519855,703.8331154183068 L 30.25233184056617,779.2638050175037 L 22.1423804542967,814.7958236565412 L 8.993372056303542,892.1853441536457 L 4.9127381939399015,928.4019713755969 L 0.5112851192096173,1006.7771046479123 L 0.0,1025.0 L 0.0,3025.0 L 0.9318104791914834,3049.5928554809184 z M 650.0,1034.1186203143134 L 652.8667921036513,983.0706574318592 L 659.9012844806558,941.6686006744839 L 671.5271050405249,901.3144846136321 L 687.598052344261,862.5157856727691 L 707.912024904937,825.76042000261 L 732.2135627311625,791.5106076524145 L 760.1970598846908,760.1970598846915 L 791.5106076524144,732.2135627311625 L 825.7604200026103,707.9120249049369 L 862.5157856727695,687.5980523442605 L 901.3144846136305,671.5271050405253 L 941.6686006744836,659.9012844806558 L 983.0706574318592,652.8667921036513 L 1034.1186203143113,650.0 L 4115.881379685687,650.0 L 4166.929342568141,652.8667921036513 L 4208.331399325517,659.9012844806559 L 4248.685515386367,671.5271050405246 L 4287.484214327227,687.5980523442594 L 4324.239579997393,707.9120249049394 L 4358.489392347583,732.2135627311602 L 4389.802940115311,760.1970598846934 L 4417.786437268838,791.5106076524152 L 4442.087975095061,825.7604200026067 L 4462.4019476557405,862.5157856727717 L 4478.472894959475,901.31448461363 L 4490.098715519343,941.6686006744837 L 4497.13320789635,983.0706574318623 L 4500.0,1034.118620314307 L 4500.0,1319.0750793477966 L 4498.788079822135,1352.3027946261611 L 4495.805913124811,1379.460499476149 L 4490.853246788925,1406.3287957953323 L 4483.9563997778005,1432.7649027748698 L 4475.152022624926,1458.6283363033094 L 4464.486902669417,1483.7816555129814 L 4452.017715423361,1508.0911931546752 L 4437.810723392556,1531.4277659185973 L 4421.941423950874,1553.6673609274928 L 4404.494148139726,1574.6917947533834 L 4385.561612524472,1594.3893414561235 L 4365.2444264893375,1612.6553263062003 L 4343.650557589104,1629.3926820366926 L 4322.513181865309,1643.4371247411118 L 1238.5071288321483,3334.6662505980066 L 1170.156017016447,3369.753153245217 L 1116.468116785525,3387.710062667565 L 1060.6852315327214,3397.359463689397 L 1004.0850120197287,3398.480346506191 L 947.9638292256692,3391.047038426795 L 893.6070822764339,3375.2297918805416 L 842.2597576733313,3351.3908849569634 L 795.0979141320846,3320.076323791288 L 753.2017461433653,3282.0033368442587 L 717.5308432067169,3238.0439475071435 L 688.9022114002761,3189.2050012849013 L 667.9715606800286,3136.6051050147116 L 655.2182865041758,3081.449006303843 L 650.0,3012.685919352788 L 650.0,1034.1186203143134 z" id="road" style="fill:#232f3e;fill-opacity:1;stroke:none;" /><path d="M 575.2150331875057,3018.3611936945385 L 580.4333196916815,3087.1242806455934 L 581.0771862069525,3092.7670117251655 L 582.1461939788128,3098.344842890552 L 594.8994681546656,3153.500941601421 L 596.3874872591509,3158.981888350893 L 598.2859850698319,3164.334521739114 L 619.2166357900794,3216.9344180093035 L 621.5147259060038,3222.1280448677667 L 624.199230576697,3227.1328838061227 L 652.8278623831378,3275.971830028365 L 655.8833880727008,3280.7591822074173 L 659.2924137297058,3285.301595904532 L 694.9633166663542,3329.260985241647 L 698.7062941933798,3333.5324132649243 L 702.7617605400687,3337.508362313483 L 744.657928528788,3375.581349260512 L 749.0026287656642,3379.2390203744244 L 753.6116494329757,3382.5574396689312 L 800.7734929742223,3413.8720008346068 L 805.6204049411593,3416.832139768951 L 810.67741495626,3419.4170242601863 L 862.0247395593626,3443.2559311837645 L 867.262849623086,3445.4507389398505 L 872.6520232686718,3447.242884453915 L 927.0087702179071,3463.0601310001684 L 932.518104747035,3464.439337718547 L 938.116008432642,3465.3976969687906 L 994.2371912267015,3472.8310050481864 L 999.8915644668443,3473.3630213891115 L 1005.5699838508255,3473.4656441228626 L 1062.1702033638182,3472.344761306069 L 1067.8401075951012,3472.0174019714846 L 1073.4689842048933,3471.261937718463 L 1129.2518694576968,3461.6125366966307 L 1134.8074412385456,3460.4332995221416 L 1140.257851328892,3458.8370514296107 L 1193.9457515598142,3440.8801420072627 L 1199.2597461181929,3438.8760362317666 L 1204.4068535395838,3436.4755647533857 L 1272.757965355285,3401.388662106175 L 1274.5695746726622,3400.4271812483557 L 4358.575627705823,1709.1980553914607 L 4364.019196166269,1705.9051227628872 L 4385.156571890064,1691.860680058468 L 4389.597046585073,1688.6710098550725 L 4411.1909154853065,1671.9336541245802 L 4415.387225951119,1668.4289729696159 L 4435.704411986254,1650.162988119539 L 4439.634258610153,1646.3619202385235 L 4458.566794225407,1626.6643735357834 L 4462.209293410127,1622.5871181828838 L 4479.656569221275,1601.5626843569933 L 4482.992364362535,1597.2309084741719 L 4498.861663804217,1574.9913134652763 L 4501.8730281536355,1570.4280365419986 L 4516.08002018444,1547.0914637780766 L 4518.750951051247,1542.320935523454 L 4531.2201382973035,1518.01139788176 L 4533.536442088249,1513.0589693591523 L 4544.201562043758,1487.9056501494804 L 4546.150929689263,1482.7976390584502 L 4554.955306842137,1456.9342055300106 L 4556.527379207939,1451.6977563514033 L 4563.424226219064,1425.2616493718658 L 4564.610649155675,1419.9245891193532 L 4569.56331549156,1393.0562928001698 L 4570.357784229058,1387.646983144719 L 4573.339950926382,1360.489278294731 L 4573.738243578588,1355.0364648478353 L 4574.950163756453,1321.8087495694708 L 4575.0,1319.0750793477966 L 4575.0,1034.118620314307 L 4574.882011126337,1029.9133367715183 L 4572.015219022686,978.8653738890735 L 4571.073534285217,970.5076906840052 L 4564.0390419082105,929.1056339266266 L 4562.167514665226,920.9059373176214 L 4550.541694105357,880.5518212567677 L 4547.763859897821,872.6132271862484 L 4531.692912594087,833.8145282453901 L 4528.043704298897,826.2368691398782 L 4507.729731738217,789.4815034697132 L 4503.255040267005,782.3600727891213 L 4478.953502440782,748.1102604389298 L 4473.709599635075,741.5346143060148 L 4445.726102481548,710.221066538293 L 4439.778933461712,704.2738975184565 L 4408.465385693984,676.2904003649232 L 4401.8897395610675,671.0464975592151 L 4367.639927210877,646.7449597329943 L 4360.518496530286,642.270268261783 L 4323.76313086012,621.956295701103 L 4316.185471754608,618.3070874059129 L 4277.386772813748,602.2361401021781 L 4269.4481787432305,599.4583058946422 L 4229.09406268238,587.8324853347735 L 4220.894366073372,585.9609580917883 L 4179.492309315996,578.9264657147836 L 4171.13462611093,577.984780977315 L 4120.086663228476,575.1179888736638 L 4115.881379685687,575.0 L 1034.1186203143113,575.0 L 1029.9133367715217,575.1179888736638 L 978.8653738890697,577.984780977315 L 970.5076906840042,578.9264657147836 L 929.1056339266286,585.9609580917881 L 920.9059373176199,587.8324853347733 L 880.5518212567667,599.4583058946428 L 872.6132271862488,602.2361401021788 L 833.8145282453878,618.307087405914 L 826.2368691398764,621.9562957011041 L 789.4815034697172,642.2702682617804 L 782.3600727891251,646.7449597329922 L 748.1102604389291,671.0464975592179 L 741.534614306014,676.2904003649252 L 710.2210665382904,704.2738975184542 L 704.2738975184533,710.2210665382913 L 676.290400364925,741.5346143060142 L 671.046497559218,748.110260438929 L 646.7449597329925,782.3600727891245 L 642.2702682617803,789.4815034697172 L 621.9562957011043,826.2368691398763 L 618.3070874059144,833.8145282453875 L 602.2361401021784,872.6132271862505 L 599.4583058946425,880.5518212567682 L 587.8324853347734,920.90593731762 L 585.9609580917881,929.1056339266287 L 578.9264657147836,970.507690684004 L 577.984780977315,978.8653738890698 L 575.1179888736638,1029.913336771524 L 575.0,1034.1186203143134 L 575.0,3012.685919352788 L 575.2150331875057,3018.3611936945385 z M 650.0,1034.1186203143134 L 652.8667921036513,983.0706574318592 L 659.9012844806558,941.6686006744839 L 671.5271050405249,901.3144846136321 L 687.598052344261,862.5157856727691 L 707.912024904937,825.76042000261 L 732.2135627311625,791.5106076524145 L 760.1970598846908,760.1970598846915 L 791.5106076524144,732.2135627311625 L 825.7604200026103,707.9120249049369 L 862.5157856727695,687.5980523442605 L 901.3144846136305,671.5271050405253 L 941.6686006744836,659.9012844806558 L 983.0706574318592,652.8667921036513 L 1034.1186203143113,650.0 L 4115.881379685687,650.0 L 4166.929342568141,652.8667921036513 L 4208.331399325517,659.9012844806559 L 4248.685515386367,671.5271050405246 L 4287.484214327227,687.5980523442594 L 4324.239579997393,707.9120249049394 L 4358.489392347583,732.2135627311602 L 4389.802940115311,760.1970598846934 L 4417.786437268838,791.5106076524152 L 4442.087975095061,825.7604200026067 L 4462.4019476557405,862.5157856727717 L 4478.472894959475,901.31448461363 L 4490.098715519343,941.6686006744837 L 4497.13320789635,983.0706574318623 L 4500.0,1034.118620314307 L 4500.0,1319.0750793477966 L 4498.788079822135,1352.3027946261611 L 4495.805913124811,1379.460499476149 L 4490.853246788925,1406.3287957953323 L 4483.9563997778005,1432.7649027748698 L 4475.152022624926,1458.6283363033094 L 4464.486902669417,1483.7816555129814 L 4452.017715423361,1508.0911931546752 L 4437.810723392556,1531.4277659185973 L 4421.941423950874,1553.6673609274928 L 4404.494148139726,1574.6917947533834 L 4385.561612524472,1594.3893414561235 L 4365.2444264893375,1612.6553263062003 L 4343.650557589104,1629.3926820366926 L 4322.513181865309,1643.4371247411118 L 1238.5071288321483,3334.6662505980066 L 1170.156017016447,3369.753153245217 L 1116.468116785525,3387.710062667565 L 1060.6852315327214,3397.359463689397 L 1004.0850120197287,3398.480346506191 L 947.9638292256692,3391.047038426795 L 893.6070822764339,3375.2297918805416 L 842.2597576733313,3351.3908849569634 L 795.0979141320846,3320.076323791288 L 753.2017461433653,3282.0033368442587 L 717.5308432067169,3238.0439475071435 L 688.9022114002761,3189.2050012849013 L 667.9715606800286,3136.6051050147116 L 655.2182865041758,3081.449006303843 L 650.0,3012.685919352788 L 650.0,1034.1186203143134 z" id="il" style="fill:#ffffff;fill-opacity:1;stroke:none;" /><path d="M 0.9318104791914834,3049.5928554809184 L 8.948207705108246,3155.227572746596 L 11.738295937949431,3179.679407424742 L 16.37066294934357,3203.850009141417 L 40.23624712856832,3307.065269680097 L 46.68432991467154,3330.8160389278087 L 54.911153760955926,3354.0107836101006 L 94.07930774260603,3452.442545912484 L 104.03769824494492,3474.9482622991563 L 115.67055181794848,3496.6358976986985 L 169.24416851367226,3588.0296814611784 L 182.4847798351118,3608.7748742370727 L 197.25722434880095,3628.4586669245714 L 264.0092540664221,3710.7211896482336 L 280.22882335019995,3729.230711082435 L 297.80251085251825,3746.4598236261877 L 376.20406563245797,3817.706945142579 L 395.0310999922543,3833.5568533028654 L 415.0035228839374,3847.9366702457273 L 503.25889413692244,3906.536547048337 L 524.2621793269822,3919.3638157638293 L 546.1758893924186,3930.564981892515 L 642.2636767947786,3975.1754428675163 L 664.962153737581,3984.6862764772245 L 688.3152395351208,3992.4522403715027 L 790.0346491657795,4022.051527874304 L 813.9084321253313,4028.028090320612 L 838.1660147629602,4032.1809804050004 L 943.1872660699601,4046.091152589241 L 967.6895501105807,4048.3965567332502 L 992.296034107834,4048.841255246172 L 1098.2137211836332,4046.7437136383946 L 1122.7833061858582,4045.3251565218625 L 1147.17510482829,4042.0514780921017 L 1251.5632898076026,4023.9942647686667 L 1275.6374341912804,4018.8842370125467 L 1299.255877916115,4011.967161944912 L 1399.7236546375511,3978.3638591766576 L 1422.7509643905264,3969.679400816174 L 1445.055096549887,3959.2773577431904 L 1539.3013518517207,3910.8976153103836 L 1547.1516588936881,3906.7311982598326 L 4647.151658893688,2206.7311982598326 L 4670.74045555562,2192.4618235360135 L 4713.242441048869,2164.2219555465344 L 4732.484498060577,2150.40005133182 L 4772.816295281333,2119.138972529652 L 4791.000307299855,2103.9520208581403 L 4828.947589051509,2069.8358557367187 L 4845.9769244217305,2053.364561585656 L 4881.338035060915,2016.574606852129 L 4897.122198194711,1998.9065003228936 L 4929.709225249516,1959.6382614693246 L 4944.164337528309,1940.8672326437645 L 4973.804110283921,1899.3293850114273 L 4986.853355798064,1879.555185010562 L 5013.388365543226,1835.9684648683483 L 5024.962399299395,1815.296175764975 L 5048.25163634343,1769.892207294826 L 5058.288952770854,1748.4316836968676 L 5078.208655783228,1701.4517481197474 L 5086.655915580417,1679.3170333919495 L 5103.100229270811,1631.0107867753525 L 5109.91254285595,1608.3195070013855 L 5122.794080499835,1558.9436535620707 L 5127.9352465584825,1535.8163924678488 L 5137.1855543789015,1485.6333204200057 L 5140.628252241392,1462.1929785797179 L 5146.198173179166,1411.469365777804 L 5147.924108005393,1387.8405075079188 L 5149.78404294463,1336.8459042939182 L 5150.0,1325.0 L 5150.0,1024.9999999999998 L 5149.48871488079,1006.7771046479135 L 5145.08726180606,928.4019713755979 L 5141.006627943696,892.1853441536408 L 5127.857619545702,814.7958236565363 L 5119.747668159434,779.263805017508 L 5098.016460848016,703.8331154183112 L 5085.979179282025,669.4325411127268 L 5055.939055597861,596.9092670990531 L 5040.1258196520375,564.0727443085048 L 5002.154551580143,495.36890813005994 L 4982.764221871559,464.5093751808296 L 4937.339320139382,400.4889674404518 L 4914.615741314649,371.9945008644846 L 4862.308450417611,313.4626153350147 L 4836.5373846649845,287.69154958238755 L 4778.005499135515,235.38425868534995 L 4749.511032559548,212.66067986061813 L 4685.490624819169,167.2357781284402 L 4654.631091869938,147.84544841985633 L 4585.927255691494,109.87418034796201 L 4553.090732900945,94.06094440213894 L 4480.567458887272,64.02082071797486 L 4446.166884581693,51.9835391519855 L 4370.736194982496,30.25233184056617 L 4335.204176343458,22.14238045429647 L 4257.814655846353,8.993372056303429 L 4221.598028624403,4.9127381939399015 L 4143.222895352088,0.5112851192096173 L 4125.0,0.0 L 1025.0,0.0 L 1006.7771046479123,0.5112851192096741 L 928.4019713755966,4.912738193939958 L 892.1853441536455,8.993372056303542 L 814.795823656541,22.1423804542967 L 779.2638050175035,30.25233184056617 L 703.8331154183065,51.9835391519855 L 669.4325411127282,64.0208207179748 L 596.9092670990547,94.06094440213877 L 564.0727443085066,109.87418034796173 L 495.3689081300616,147.84544841985615 L 464.50937518082753,167.2357781284416 L 400.48896744044976,212.66067986061955 L 371.9945008644853,235.3842586853503 L 313.46261533501536,287.691549582388 L 287.6915495823878,313.46261533501564 L 235.38425868535015,371.9945008644855 L 212.6606798606192,400.4889674404501 L 167.23577812844127,464.509375180828 L 147.84544841985593,495.368908130062 L 109.87418034796161,564.0727443085068 L 94.06094440213866,596.9092670990549 L 64.02082071797469,669.4325411127286 L 51.9835391519855,703.8331154183068 L 30.25233184056617,779.2638050175037 L 22.1423804542967,814.7958236565412 L 8.993372056303542,892.1853441536457 L 4.9127381939399015,928.4019713755969 L 0.5112851192096173,1006.7771046479123 L 0.0,1025.0 L 0.0,3025.0 L 0.9318104791914834,3049.5928554809184 z M 75.0,1026.0519415133642 L 75.45227907666755,1009.932101575929 L 79.67676044661242,934.7082414655648 L 83.28618128761742,902.6737454791737 L 95.73022400071817,829.4333558267239 L 102.90367512141829,798.0044129407681 L 123.46979416289832,726.6178342087698 L 134.11706525331695,696.1896816155408 L 162.54662974348932,627.5546414510063 L 176.53382519197385,598.509930824189 L 212.46931686215677,533.4895546801656 L 229.620539570383,506.19354010802493 L 272.61004876256663,445.6054969402238 L 292.70961215360717,420.40144164352176 L 342.2125208466054,365.00766124878015 L 365.0076612487799,342.21252084660557 L 420.4014416435209,292.70961215360796 L 445.60549694022376,272.61004876256675 L 506.19354010802454,229.6205395703833 L 533.4895546801655,212.46931686215686 L 598.5099308241888,176.53382519197396 L 627.5546414510061,162.54662974348943 L 696.1896816155408,134.11706525331692 L 726.6178342087693,123.46979416289838 L 798.0044129407679,102.90367512141829 L 829.4333558267236,95.73022400071817 L 902.6737454791734,83.28618128761744 L 934.708241465565,79.67676044661242 L 1009.9321015759278,75.45227907666764 L 1026.0519415133647,75.0 L 4123.948058486635,75.0 L 4140.067898424072,75.45227907666758 L 4215.291758534434,79.67676044661235 L 4247.326254520825,83.28618128761737 L 4320.566644173276,95.73022400071802 L 4351.995587059234,102.90367512141879 L 4423.382165791229,123.46979416289803 L 4453.810318384457,134.11706525331613 L 4522.445358548995,162.5466297434902 L 4551.490069175811,176.53382519197407 L 4616.510445319837,212.4693168621588 L 4643.806459891974,229.62053957038262 L 4704.394503059774,272.61004876256555 L 4729.598558356477,292.7096121536055 L 4784.992338751215,342.21252084660125 L 4807.787479153398,365.00766124878356 L 4857.290387846394,420.4014416435232 L 4877.38995123743,445.60549694021944 L 4920.37946042962,506.1935401080306 L 4937.53068313784,533.489554680161 L 4973.4661748080225,598.5099308241828 L 4987.453370256512,627.5546414510094 L 5015.8829347466835,696.1896816155404 L 5026.5302058371035,726.6178342087754 L 5047.096324878582,798.0044129407712 L 5054.269775999282,829.4333558267253 L 5066.713818712383,902.6737454791681 L 5070.323239553387,934.7082414655519 L 5074.547720923332,1009.9321015759441 L 5075.0,1026.0519415133658 L 5075.0,1324.3164121026002 L 5074.808963136456,1334.795367736911 L 5073.0237804924855,1383.7404564458534 L 5071.49705817905,1404.642001865452 L 5066.225625033012,1452.6473751549477 L 5063.1802935609285,1473.382163269927 L 5054.42570264296,1520.8759629698732 L 5049.877945207662,1541.3338070463913 L 5037.686719287847,1588.0636463639928 L 5031.6607031263375,1608.135831376372 L 5016.097627596211,1653.8533832806622 L 5008.625375559942,1673.4332436339655 L 4989.773154156479,1717.8955604903006 L 4980.8943745386805,1736.8790468520776 L 4958.853189848369,1779.8498514701678 L 4948.615065370269,1798.136083698825 L 4923.5020464488625,1839.3870249332826 L 4911.958983525976,1856.8788281653042 L 4883.907583462925,1896.190694396537 L 4871.120923083938,1912.7951154433895 L 4840.280209819492,1949.958999489822 L 4826.317901574074,1965.5878008005393 L 4792.851765737207,2000.40621007245 L 4777.788006725228,2014.9763386366508 L 4741.874290702572,2047.2642446313769 L 4725.789131243147,2060.698273331425 L 4687.618684106829,2090.284094893285 L 4670.597602343033,2102.5106339596055 L 4630.559788658448,2129.113216401775 L 4609.6940014013235,2141.735383676628 L 1511.5388074861078,3840.7237158236812 L 1504.5943474418243,3844.4093699746204 L 1412.0678453866046,3891.906305776514 L 1393.6263519409101,3900.506918783183 L 1374.5869210925143,3907.687399099119 L 1276.8131423744187,3940.389644498359 L 1257.2849503767575,3946.1088176816866 L 1237.3799761464008,3950.333888744687 L 1135.7909131451472,3967.90690605795 L 1115.623296150261,3970.6136475206717 L 1095.3086819099487,3971.786538336597 L 992.2311297193219,3973.827835314626 L 971.8860066670095,3973.460149871733 L 951.627038180301,3971.5539965586304 L 849.4218842386751,3958.01681935162 L 829.3652396660791,3954.583128467582 L 809.625928186623,3949.6415895458294 L 710.6340785298015,3920.835993553231 L 691.3252896652502,3914.4149424568427 L 672.5577442267056,3906.5511988947337 L 579.0465073946422,3863.136947258856 L 560.9278225852305,3853.8756036535287 L 543.5618948995781,3843.2697665712853 L 457.6730515195036,3786.2412189674956 L 441.15946097850895,3774.3517045937656 L 425.59290011581896,3761.2466899998576 L 349.29364757575024,3691.910027830461 L 334.76337845004525,3677.6646600313147 L 321.3527207969315,3662.3606250761254 L 256.3906165723131,3582.3039347019017 L 244.1764700307754,3566.0289892684923 L 233.22887318384124,3548.876457447346 L 181.09180879493724,3459.9333566700875 L 171.4735375531518,3442.001594823636 L 163.23974518380683,3423.3934275894126 L 125.12186754014924,3327.6010684843695 L 118.31976840640036,3308.4231991560746 L 112.98836722980928,3288.7855978236144 L 89.76272789882843,3188.33800782448 L 85.9325960977645,3168.3532807814413 L 83.62569648422028,3148.1360248160195 L 75.824255325068,3045.3338547279936 L 75.0,3023.5796541244945 L 75.0,1026.0519415133642 z" id="ol" style="fill:#ffffff;fill-opacity:1;stroke:none;" /><path d="M 325.0,2325.0 L 325.0,3025.0 L 333.01639722591676,3130.6347172656774 L 356.8819814051415,3233.8499778043574 L 396.0501353867916,3332.281740106741 L 449.6237520825154,3423.6755238692203 L 516.3757818001366,3505.9380465928825 L 594.7773365800763,3577.185168109274 L 683.0327078330613,3635.7850449118837 L 779.1204952354211,3680.395505886885 L 880.8399048660798,3709.9947933896865 L 985.8611561730796,3723.9049655739273 L 1091.7788432488787,3721.80742396615 L 1196.1670282281914,3703.750210642715 L 1296.6348049496273,3670.146907874461 L 1390.8810602514611,3621.767165441654 L 4490.881060251461,1921.767165441654 L 4533.38304574471,1893.527297452175 L 4573.714842965466,1862.2662186500067 L 4611.66212471712,1828.1500535285852 L 4647.023235356304,1791.3600987950585 L 4679.610262411109,1752.0918599414895 L 4709.25003516672,1710.5540123091523 L 4735.785044911883,1666.9672921669387 L 4759.074281955918,1621.5633236967897 L 4778.993984968291,1574.5833881196695 L 4795.438298658685,1526.2771415030725 L 4808.31983630257,1476.9012880637576 L 4817.570144122989,1426.7182160159145 L 4823.140065060763,1375.9946032140006 L 4825.0,1325.0 L 4825.0,1024.9999999999998 L 4820.59854692527,946.6248667276842 L 4807.449538527276,869.2353462305797 L 4785.718331215858,793.8046566313828 L 4755.678207531693,721.2813826177091 L 4717.706939459798,652.5775464392643 L 4672.282037727621,588.5571386988865 L 4619.974746830583,530.0252531694166 L 4561.442861301113,477.717962272379 L 4497.4224535607345,432.29306054020105 L 4428.71861738229,394.32179246830674 L 4356.195343368617,364.28166878414265 L 4280.76465376942,342.5504614727233 L 4203.375133272315,329.4014530747303 L 4125.0,325.0 L 1025.0,325.0 L 946.6248667276843,329.4014530747303 L 869.2353462305798,342.55046147272344 L 793.8046566313828,364.28166878414277 L 721.2813826177093,394.32179246830674 L 652.5775464392643,432.29306054020117 L 588.5571386988865,477.7179622723791 L 530.0252531694166,530.0252531694168 L 477.717962272379,588.5571386988867 L 432.29306054020105,652.5775464392646 L 394.32179246830674,721.2813826177094 L 364.28166878414277,793.8046566313831 L 342.55046147272344,869.23534623058 L 329.4014530747303,946.6248667276845 L 325.0,1025.0 L 325.0,2325.0 z" id="cl" style="fill:none;stroke:#ff9900;stroke-width:25;stroke-opacity:1;stroke-dasharray:50,50;stroke-dashoffset:0;" /><polyline points="650.0,2325.0 0.0,2325.0" id="start_line" style="fill:none;stroke:#ffffff;stroke-width:100;stroke-opacity:1;" /></svg>