<?xml version="1.0" encoding="UTF-8" standalone="no"?>
<svg
   inkscape:version="1.1.2 (0a00cf5339, 2022-02-04)"
   sodipodi:docname="Trapezoid_narrow_print.svg"
   viewBox="0 0 5000 3750"
   height="3750mm"
   width="5000mm"
   version="1.1"
   id="Trapezoid_narrow"
   xmlns:inkscape="http://www.inkscape.org/namespaces/inkscape"
   xmlns:sodipodi="http://sodipodi.sourceforge.net/DTD/sodipodi-0.dtd"
   xmlns="http://www.w3.org/2000/svg"
   xmlns:svg="http://www.w3.org/2000/svg">
  <defs
     id="defs894" />
  <sodipodi:namedview
     id="trackview"
     pagecolor="#ffffff"
     bordercolor="#000000"
     borderopacity="0.25"
     inkscape:pageshadow="2"
     inkscape:pageopacity="0"
     inkscape:pagecheckerboard="0"
     inkscape:document-units="mm"
     showgrid="false"
     inkscape:zoom="0.040738655"
     inkscape:cx="11991.068"
     inkscape:cy="6001.6709"
     inkscape:window-width="2490"
     inkscape:window-height="1376"
     inkscape:window-x="2630"
     inkscape:window-y="27"
     inkscape:window-maximized="1"
     inkscape:current-layer="Trapezoid_narrow"
     fit-margin-top="0"
     fit-margin-left="0"
     fit-margin-right="0"
     fit-margin-bottom="0" />
  <rect
     style="fill:#00c389;fill-opacity:1;stroke-width:0.25607"
     id="rect1661"
     width="5000"
     height="3750"
     x="0"
     y="0" />
  <g
     id="g5314"
     transform="translate(-223.72742,-79.09114)">
    <path
       d="m 395.66709,1278.8174 6.54891,-92.8896 7.48935,-52.8505 19.14361,-89.3091 14.83054,-51.2769 31.48491,-85.73975 21.87833,-48.68881 43.20332,-80.47407 28.49327,-45.13751 54.06701,-73.61631 34.54452,-40.69321 63.86105,-65.30215 39.91233,-35.44385 72.39167,-55.69605 44.49054,-29.49328 79.4901,-44.98807 48.18855,-22.95922 85.0159,-33.39006 50.9332,-15.97093 88.8598,-21.13147 52.6702,-8.66668 90.9457,-8.4548 53.3652,-1.191 91.2323,4.3891 53.0044,6.30836 89.7141,17.1462 51.5949,13.68278 88.8921,30.40947 13.3967,4.8658 2597.3549,998.98271 26.0341,11.1452 49.2888,23.3135 28.0889,14.7532 46.9726,27.2352 26.7584,17.0479 44.5334,31.0637 25.2409,19.2235 41.7829,34.675 23.547,21.2647 38.7405,38.044 21.6883,23.1573 35.4273,41.1471 19.6782,24.888 31.8665,43.9625 17.5305,26.4448 28.0828,46.4707 15.2603,27.8167 24.103,48.6541 12.8834,28.9942 19.9546,50.4974 10.4165,29.969 15.6667,51.9878 7.8768,30.7344 11.2694,53.1147 5.2819,31.2849 6.7933,53.8705 2.6503,31.6168 2.3139,55.3055 0.3317,15.8639 v 297.5271 l -0.597,21.2788 -4.163,74.1289 -4.7649,42.2898 -12.1989,71.7977 -9.47,41.4904 -20.161,69.9804 -14.0558,40.1692 -27.8695,67.2831 -18.465,38.3429 -35.2276,63.7396 -22.6419,36.0344 -42.1427,59.3945 -26.5341,33.2727 -48.5278,54.3027 -30.0927,30.0926 -54.3026,48.5278 -33.2727,26.5341 -59.3946,42.1427 -36.0344,22.6419 -63.7395,35.2276 -38.343,18.465 -67.283,27.8695 -40.1692,14.0559 -69.9804,20.161 -41.4904,9.4699 -71.7977,12.1989 -42.2898,4.7649 -74.129,4.163 -21.2787,0.597 H 1425.1443 l -21.2787,-0.597 -74.1289,-4.163 -42.2899,-4.7649 -71.7976,-12.1989 -41.4905,-9.4699 -69.9803,-20.161 -40.1693,-14.0559 -67.28302,-27.8695 -38.34291,-18.465 -63.73958,-35.2276 -36.0344,-22.6419 -59.39455,-42.1427 -33.27273,-26.5341 -54.30261,-48.5278 -30.09265,-30.0926 -48.52777,-54.3027 -26.53412,-33.2727 -42.14269,-59.3945 -22.64191,-36.0344 -35.22762,-63.7396 -18.46497,-38.3429 -27.86955,-67.2831 -14.05582,-40.1692 -20.161,-69.9804 -9.46992,-41.4904 -12.19891,-71.7977 -4.76492,-42.2898 -4.163,-74.1289 -0.59702,-21.2788 V 1305.5067 Z m 757.06031,1312.8467 v 0.056 l 2.371,42.2191 0.013,0.1115 5.059,29.7753 0.025,0.1093 8.361,29.0217 0.037,0.1059 11.5579,27.903 0.049,0.1011 14.6093,26.4335 0.06,0.095 17.477,24.6316 0.07,0.088 20.1251,22.5199 0.079,0.079 22.5199,20.125 0.088,0.07 24.6316,17.477 0.095,0.06 26.4336,14.6093 0.101,0.049 27.9031,11.5578 0.1058,0.037 29.0217,8.361 0.1094,0.025 29.7753,5.059 0.1114,0.013 42.2192,2.3709 h 0.056 2575.8708 0.056 l 42.2192,-2.3709 0.1115,-0.013 29.7753,-5.059 0.1093,-0.025 29.0217,-8.361 0.1059,-0.037 27.903,-11.5578 0.1011,-0.049 26.4335,-14.6093 0.095,-0.06 24.6316,-17.477 0.088,-0.07 22.5199,-20.125 0.079,-0.079 20.125,-22.5199 0.07,-0.088 17.4771,-24.6316 0.06,-0.095 14.6093,-26.4335 0.049,-0.1011 11.5579,-27.903 0.037,-0.1059 8.361,-29.0217 0.025,-0.1093 5.059,-29.7753 0.012,-0.1115 2.371,-42.2191 v -0.056 -278.944 l -9e-4,-0.042 -1.3184,-31.5133 -0.01,-0.083 -2.8203,-22.3645 -0.014,-0.082 -4.6785,-22.0508 -0.021,-0.081 -6.5041,-21.5829 -0.028,-0.079 -8.2842,-20.9642 -0.034,-0.076 -10.0064,-20.1989 -0.04,-0.073 -11.6587,-19.2925 -0.046,-0.07 -13.2294,-18.2512 -0.052,-0.065 -14.7077,-17.0824 -0.057,-0.061 -16.0833,-15.7941 -0.062,-0.056 -17.3463,-14.3955 -0.067,-0.051 -18.4882,-12.8962 -0.07,-0.045 -19.5008,-11.3068 -0.074,-0.039 -22.1267,-10.4659 -0.069,-0.029 -2577.4771,-991.3373 -0.035,-0.013 -56.8328,-19.4422 -0.136,-0.036 -37.1542,-7.1009 -0.1397,-0.017 -37.783,-1.8177 h -0.1406 l -37.6643,3.5015 -0.1387,0.023 -36.8005,8.7514 -0.1342,0.042 -35.2086,13.8281 -0.1269,0.06 -32.9201,18.6314 -0.1172,0.078 -29.9804,23.066 -0.1051,0.093 -26.4475,27.0443 -0.091,0.1072 -22.3913,30.4875 -0.075,0.119 -17.8923,33.3275 -0.058,0.1283 -13.0392,35.5083 -0.039,0.1352 -7.9281,36.9865 -0.02,0.1393 -3.7276,52.8722 v 0.07 z"
       id="road"
       style="fill:#232f3e;fill-opacity:1;stroke:none" />
    <path
       d="m 1078.9131,1313.5933 3.7276,-52.8722 1.4801,-10.4448 7.9282,-36.9865 2.9309,-10.1338 13.0392,-35.5083 4.3238,-9.6223 17.8922,-33.3276 5.6311,-8.9205 22.3914,-30.4875 6.827,-8.0421 26.4474,-27.0443 7.8878,-7.0047 29.9804,-23.066 8.7926,-5.8287 32.9201,-18.63144 9.5234,-4.5374 35.2085,-13.82818 10.0659,-3.15631 36.8005,-8.7514 10.4091,-1.71279 37.6643,-3.50148 10.5465,-0.23537 37.783,1.81771 10.4752,1.24671 37.1542,7.10093 10.1967,2.70412 56.8328,19.44217 2.6476,0.96162 2577.4771,991.33741 5.1451,2.2026 22.1267,10.4659 5.5512,2.9156 19.5008,11.3068 5.2882,3.3692 18.4882,12.8962 4.9883,3.7991 17.3463,14.3954 4.6536,4.2025 16.0832,15.7941 4.2863,4.5766 14.7077,17.0823 3.889,4.9186 13.2294,18.2512 3.4646,5.2262 11.6586,19.2925 3.0159,5.4974 10.0064,20.1989 2.5462,5.7301 8.2842,20.9641 2.0586,5.9228 6.5041,21.5829 1.5566,6.0739 4.6786,22.0508 1.0438,6.1828 2.8203,22.3645 0.5238,6.2484 1.3184,31.5132 0.066,3.1352 v 278.944 l -0.118,4.2053 -2.371,42.2192 -0.9417,8.3576 -5.059,29.7754 -1.8715,8.1997 -8.361,29.0217 -2.7779,7.9386 -11.5578,27.903 -3.6492,7.5777 -14.6093,26.4335 -4.4747,7.1215 -17.4771,24.6316 -5.2439,6.5756 -20.125,22.52 -5.9472,5.9471 -22.5199,20.1251 -6.5756,5.2439 -24.6317,17.477 -7.1214,4.4747 -26.4335,14.6093 -7.5777,3.6492 -27.9031,11.5579 -7.9386,2.7778 -29.0217,8.361 -8.1996,1.8715 -29.7754,5.0591 -8.3577,0.9417 -42.2192,2.3709 -4.2052,0.118 H 1435.792 l -4.2052,-0.118 -42.2192,-2.3709 -8.3577,-0.9417 -29.7753,-5.0591 -8.1997,-1.8715 -29.0217,-8.361 -7.9386,-2.7778 -27.9031,-11.5579 -7.5776,-3.6492 -26.4336,-14.6093 -7.1214,-4.4747 -24.6316,-17.477 -6.5757,-5.2439 -22.5199,-20.1251 -5.9472,-5.9471 -20.125,-22.52 -5.2439,-6.5756 -17.4771,-24.6316 -4.4747,-7.1215 -14.6093,-26.4335 -3.6492,-7.5777 -11.5578,-27.903 -2.7779,-7.9386 -8.361,-29.0217 -1.8715,-8.1997 -5.059,-29.7754 -0.9417,-8.3576 -2.371,-42.2192 -0.118,-4.2053 V 1318.8679 Z m 74.8143,1278.0708 2.371,42.2192 5.059,29.7753 8.361,29.0217 11.5579,27.9031 14.6093,26.4335 17.477,24.6316 20.1251,22.52 22.5199,20.125 24.6316,17.4771 26.4336,14.6093 27.9031,11.5578 29.0216,8.361 29.7754,5.059 42.2191,2.371 h 2575.8708 l 42.2191,-2.371 29.7754,-5.059 29.0217,-8.361 27.903,-11.5578 26.4336,-14.6093 24.6316,-17.4771 22.5199,-20.125 20.1251,-22.52 17.477,-24.6316 14.6094,-26.4335 11.5578,-27.9031 8.361,-29.0217 5.059,-29.7753 2.371,-42.2192 v -278.944 l -1.3185,-31.5133 -2.8202,-22.3645 -4.6786,-22.0507 -6.5041,-21.5829 -8.2842,-20.9642 -10.0064,-20.1989 -11.6587,-19.2925 -13.2294,-18.2512 -14.7078,-17.0823 -16.0832,-15.7941 -17.3464,-14.3954 -18.4881,-12.8962 -19.5008,-11.3068 -22.1267,-10.4659 -2577.4772,-991.3374 -56.8328,-19.4422 -37.1542,-7.1009 -37.783,-1.8177 -37.6643,3.5015 -36.8005,8.7514 -35.2085,13.8282 -32.9201,18.6313 -29.9803,23.066 -26.4475,27.0443 -22.3913,30.4875 -17.8923,33.3276 -13.0391,35.5083 -7.9282,36.9866 -3.7276,52.8722 z"
       id="il"
       style="fill:#ffffff;fill-opacity:1;stroke:none" />
    <path
       d="m 394.66833,1278.7646 6.55262,-92.9423 7.49924,-52.9201 19.15836,-89.3781 14.8501,-51.34446 31.50918,-85.80585 21.90719,-48.75303 43.23663,-80.53612 28.53087,-45.19704 54.10869,-73.67307 34.59008,-40.7469 63.91028,-65.35249 39.96499,-35.4906 72.44747,-55.73899 44.54923,-29.53218 79.55139,-45.02276 48.25215,-22.9895 85.0814,-33.41581 51.0004,-15.99199 88.9283,-21.14776 52.7397,-8.67807 91.0158,-8.4614 53.4356,-1.1925 91.3026,4.3925 53.0743,6.31663 89.7833,17.15942 51.663,13.70083 88.9343,30.4239 13.4143,4.87221 2597.3811,998.99273 26.0684,11.1599 49.3246,23.3305 28.1259,14.7726 47.0087,27.2562 26.7938,17.0704 44.5676,31.0876 25.2742,19.2488 41.8151,34.7017 23.578,21.2928 38.7704,38.0733 21.7169,23.1878 35.4546,41.1788 19.7041,24.9208 31.891,43.9964 17.5536,26.4796 28.1045,46.5065 15.2804,27.8534 24.1215,48.6916 12.9004,29.0324 19.97,50.5363 10.4302,30.0085 15.6788,52.0278 7.8871,30.7749 11.2781,53.1556 5.289,31.3262 6.7985,53.9119 2.6537,31.6585 2.3152,55.3369 0.3322,15.8847 v 297.5517 l -0.5978,21.3067 -4.1654,74.171 -4.7712,42.3456 -12.2083,71.853 -9.4824,41.5451 -20.1765,70.0343 -14.0744,40.2222 -27.891,67.3349 -18.4893,38.3934 -35.2548,63.7887 -22.6717,36.0819 -42.1752,59.4404 -26.5691,33.3166 -48.5652,54.3444 -30.1323,30.1323 -54.3444,48.5652 -33.3167,26.5691 -59.4403,42.1752 -36.0819,22.6717 -63.7887,35.2548 -38.3934,18.4893 -67.3349,27.891 -40.2222,14.0744 -70.0343,20.1765 -41.5452,9.4824 -71.8529,12.2084 -42.3456,4.7712 -74.171,4.1653 -21.3068,0.5978 H 1425.1303 l -21.3068,-0.5978 -74.1709,-4.1653 -42.3456,-4.7712 -71.853,-12.2084 -41.5451,-9.4824 -70.0343,-20.1765 -40.2222,-14.0744 -67.33492,-27.891 -38.39347,-18.4893 -63.78869,-35.2548 -36.08192,-22.6717 -59.44031,-42.1752 -33.31661,-26.5691 -54.34445,-48.5652 -30.13232,-30.1323 -48.56517,-54.3444 -26.56911,-33.3166 -42.17515,-59.4404 -22.67177,-36.0819 -35.25476,-63.7887 -18.48932,-38.3934 -27.89102,-67.3349 -14.07436,-40.2222 -20.17654,-70.0343 -9.4824,-41.5451 -12.20832,-71.853 -4.7712,-42.3456 -4.16535,-74.171 -0.59781,-21.3067 V 1305.4891 Z m 74.0591,1322.5093 0.5388,19.2037 3.98838,71.0197 4.29999,38.1635 11.50335,67.7038 8.54591,37.4421 19.01144,65.9902 12.68435,36.2498 26.28046,63.4466 16.66328,34.6017 33.21899,60.1052 20.43266,32.5184 39.73976,56.0079 23.94509,30.0262 45.76079,51.2064 27.1564,27.1564 51.20634,45.7608 30.0262,23.9451 56.00795,39.7397 32.51839,20.4327 60.10523,33.219 34.60161,16.6632 63.4467,26.2805 36.2498,12.6844 65.9902,19.0114 37.442,8.5459 67.7039,11.5033 38.1634,4.3 71.0197,3.9884 19.2037,0.5388 h 2595.0904 l 19.2037,-0.5388 71.0197,-3.9884 38.1635,-4.3 67.7038,-11.5033 37.4421,-8.5459 65.9901,-19.0114 36.2498,-12.6844 63.4467,-26.2805 34.6016,-16.6632 60.1053,-33.219 32.5184,-20.4327 56.0079,-39.7397 30.0262,-23.9451 51.2064,-45.7608 27.1564,-27.1564 45.7607,-51.2064 23.9451,-30.0262 39.7398,-56.0079 20.4327,-32.5184 33.2189,-60.1052 16.6633,-34.6017 26.2805,-63.4466 12.6843,-36.2498 19.0115,-65.9902 8.5459,-37.4421 11.5033,-67.7038 4.3,-38.1635 3.9884,-71.0197 0.5388,-19.2037 v -295.7156 l -0.2994,-14.317 -2.2169,-52.9867 -2.3917,-28.5329 -6.4061,-50.8001 -4.7668,-28.2334 -10.6271,-50.0874 -7.1084,-27.7366 -14.7739,-49.0246 -9.4004,-27.0459 -18.8173,-47.6193 -11.6268,-26.1661 -22.7291,-45.881 -13.7719,-25.1035 -26.4822,-43.8221 -15.8206,-23.8654 -30.0502,-41.4568 -17.7588,-22.4605 -33.4081,-38.8018 -19.5729,-20.8986 -36.5324,-35.8756 -21.2502,-19.1906 -39.4015,-32.6987 -22.7789,-17.3484 -41.9952,-29.2932 -24.1484,-15.3851 -44.2953,-25.6829 -25.3492,-13.3142 -46.6416,-22.0614 -23.495,-10.0582 -2595.4174,-998.23749 -12.0904,-4.39136 -85.7696,-29.34126 -46.5584,-12.3471 -84.596,-16.16804 -47.8302,-5.69251 -86.0277,-4.13871 -48.1557,1.0747 -85.7574,7.97248 -47.5287,7.82065 -83.7905,19.92595 -45.9612,14.41188 -80.1659,31.48521 -43.48445,20.71799 -74.95532,42.42157 -40.14747,26.61421 -68.26183,52.51868 -36.01619,31.9839 -60.21787,61.57676 -31.17236,36.72084 -50.98257,69.41661 -25.71183,40.73129 -40.73864,75.88315 -19.74261,43.93592 -29.68875,80.84838 -13.38282,46.2714 -18.05148,84.2142 -6.75827,47.6913 -6.27409,88.9917 -0.84802,24.0864 z"
       id="ol"
       style="fill:#ffffff;fill-opacity:1;stroke:none" />
    <path
       d="m 773.72743,1305.4891 6.55262,-92.9423 19.15836,-89.378 31.50918,-85.8059 43.23663,-80.53611 54.10869,-73.67306 63.91028,-65.35249 72.44751,-55.73899 79.5513,-45.02276 85.0815,-33.41581 88.9283,-21.14776 91.0158,-8.46133 91.3027,4.39249 89.7832,17.15942 88.9343,30.4239 2597.381,998.9927 49.3246,23.3305 47.0087,27.2562 44.5677,31.0876 41.8152,34.7017 38.7703,38.0733 35.4546,41.1787 31.8909,43.9965 28.1045,46.5065 24.1215,48.6916 19.9699,50.5363 15.6788,52.0278 11.2781,53.1556 6.7986,53.9119 2.3152,55.3369 v 297.5517 l -4.1654,74.1709 -12.2083,71.853 -20.1765,70.0343 -27.891,67.3349 -35.2548,63.7887 -42.1751,59.4403 -48.5652,54.3444 -54.3444,48.5652 -59.4404,42.1751 -63.7887,35.2548 -67.3348,27.891 -70.0343,20.1766 -71.853,12.2083 -74.171,4.1653 H 1425.1303 l -74.171,-4.1653 -71.853,-12.2083 -70.0342,-20.1766 -67.3349,-27.891 -63.7887,-35.2548 -59.4403,-42.1751 -54.34447,-48.5652 -48.56517,-54.3444 -42.17515,-59.4403 -35.25476,-63.7887 -27.89102,-67.3349 -20.17653,-70.0343 -12.20832,-71.853 -4.16535,-74.1709 z"
       id="cl"
       style="fill:none;stroke:#ff9900;stroke-width:25;stroke-dasharray:50, 50;stroke-dashoffset:0;stroke-opacity:1" />
  </g>
</svg>
