<?xml version='1.0' encoding='utf-8'?>
<svg id="Trapezoid" version="1.1" baseProfile="full" width="5150.00000mm" height="4048.84126mm" viewBox="0.00000,0.00000,5150.00000,4048.84126" xmlns="http://www.w3.org/2000/svg" xmlns:ev="http://www.w3.org/2001/xml-events" xmlns:xlink="http://www.w3.org/1999/xlink" xmlns:sodipodi="http://sodipodi.sourceforge.net/DTD/sodipodi-0.dtd" xmlns:inkscape="http://www.inkscape.org/namespaces/inkscape"><sodipodi:namedview id="trackview" pagecolor="#00c389" bordercolor="#000000" borderopacity="0.25" /><path d="M 0.9318104791914266,3049.592855480918 L 8.948207705108075,3155.2275727465953 L 11.738295937949317,3179.679407424742 L 16.37066294934357,3203.850009141418 L 40.23624712856855,3307.065269680098 L 46.68432991467171,3330.816038927809 L 54.91115376095581,3354.0107836101 L 94.07930774260569,3452.4425459124836 L 104.0376982449448,3474.948262299157 L 115.6705518179487,3496.6358976986994 L 169.24416851367272,3588.029681461179 L 182.48477983511208,3608.7748742370727 L 197.25722434880106,3628.4586669245714 L 264.0092540664222,3710.7211896482336 L 280.22882335019995,3729.230711082435 L 297.8025108525182,3746.4598236261877 L 376.2040656324578,3817.706945142579 L 395.0310999922541,3833.556853302865 L 415.0035228839371,3847.9366702457273 L 503.25889413692187,3906.536547048337 L 524.262179326982,3919.3638157638293 L 546.1758893924189,3930.5649818925153 L 642.263676794779,3975.1754428675167 L 664.9621537375813,3984.6862764772245 L 688.3152395351208,3992.4522403715027 L 790.0346491657793,4022.051527874304 L 813.9084321253318,4028.0280903206126 L 838.1660147629616,4032.180980405001 L 943.1872660699614,4046.091152589241 L 967.6895501105807,4048.39655673325 L 992.2960341078326,4048.8412552461714 L 1098.2137211836316,4046.7437136383946 L 1122.7833061858573,4045.3251565218625 L 1147.17510482829,4042.0514780921017 L 1251.5632898076026,4023.9942647686667 L 1275.6374341912804,4018.8842370125467 L 1299.255877916115,4011.967161944912 L 1399.7236546375511,3978.3638591766576 L 1422.7509643905264,3969.679400816174 L 1445.055096549887,3959.2773577431904 L 1539.3013518517207,3910.8976153103836 L 1547.1516588936881,3906.7311982598326 L 4647.151658893688,2206.7311982598326 L 4670.74045555562,2192.4618235360135 L 4713.242441048869,2164.2219555465344 L 4732.484498060577,2150.40005133182 L 4772.816295281333,2119.138972529652 L 4791.000307299856,2103.9520208581393 L 4828.94758905151,2069.835855736718 L 4845.97692442173,2053.3645615856562 L 4881.338035060914,2016.5746068521296 L 4897.122198194711,1998.9065003228936 L 4929.709225249516,1959.6382614693246 L 4944.164337528309,1940.8672326437645 L 4973.804110283921,1899.3293850114273 L 4986.853355798064,1879.555185010562 L 5013.388365543226,1835.9684648683483 L 5024.962399299395,1815.296175764975 L 5048.25163634343,1769.892207294826 L 5058.288952770854,1748.4316836968676 L 5078.208655783228,1701.4517481197474 L 5086.655915580417,1679.3170333919495 L 5103.100229270811,1631.0107867753525 L 5109.91254285595,1608.3195070013855 L 5122.794080499835,1558.9436535620707 L 5127.9352465584825,1535.8163924678488 L 5137.1855543789015,1485.6333204200057 L 5140.628252241392,1462.1929785797179 L 5146.198173179166,1411.469365777804 L 5147.924108005393,1387.8405075079188 L 5149.78404294463,1336.8459042939182 L 5150.0,1325.0 L 5150.0,1024.9999999999998 L 5149.48871488079,1006.7771046479135 L 5145.08726180606,928.4019713755979 L 5141.006627943696,892.1853441536408 L 5127.857619545702,814.7958236565363 L 5119.747668159434,779.263805017508 L 5098.016460848016,703.8331154183112 L 5085.979179282025,669.4325411127268 L 5055.939055597861,596.9092670990531 L 5040.1258196520375,564.072744308505 L 5002.154551580143,495.36890813006005 L 4982.76422187156,464.5093751808297 L 4937.339320139383,400.4889674404518 L 4914.615741314649,371.99450086448394 L 4862.308450417611,313.4626153350142 L 4836.537384664984,287.6915495823873 L 4778.005499135514,235.3842586853498 L 4749.511032559549,212.66067986061842 L 4685.49062481917,167.23577812844036 L 4654.631091869938,147.84544841985678 L 4585.927255691494,109.87418034796224 L 4553.090732900944,94.06094440213826 L 4480.567458887271,64.02082071797452 L 4446.166884581693,51.98353915198561 L 4370.736194982496,30.252331840566285 L 4335.204176343459,22.1423804542967 L 4257.814655846354,8.993372056303429 L 4221.598028624402,4.912738193939788 L 4143.222895352087,0.5112851192096173 L 4125.0,0.0 L 1025.0,0.0 L 1006.7771046479128,0.5112851192096173 L 928.4019713755971,4.912738193939788 L 892.185344153645,8.993372056303542 L 814.7958236565405,22.142380454296813 L 779.2638050175035,30.25233184056617 L 703.8331154183065,51.9835391519855 L 669.4325411127284,64.02082071797469 L 596.9092670990547,94.06094440213866 L 564.0727443085062,109.87418034796184 L 495.3689081300614,147.84544841985627 L 464.50937518082765,167.23577812844144 L 400.48896744044964,212.6606798606195 L 371.99450086448485,235.38425868535057 L 313.46261533501513,287.6915495823882 L 287.6915495823875,313.46261533501587 L 235.38425868535,371.9945008644857 L 212.66067986061972,400.4889674404496 L 167.23577812844167,464.50937518082736 L 147.84544841985604,495.3689081300617 L 109.87418034796161,564.0727443085066 L 94.06094440213832,596.9092670990555 L 64.02082071797446,669.4325411127293 L 51.9835391519855,703.8331154183068 L 30.25233184056617,779.2638050175036 L 22.142380454296813,814.7958236565407 L 8.993372056303542,892.1853441536452 L 4.912738193939788,928.4019713755973 L 0.5112851192096173,1006.7771046479128 L 0.0,1025.0 L 0.0,3025.0 L 0.9318104791914266,3049.592855480918 z M 650.0,1034.118620314313 L 652.8667921036513,983.0706574318584 L 659.9012844806556,941.6686006744848 L 671.5271050405252,901.3144846136314 L 687.5980523442605,862.5157856727698 L 707.9120249049372,825.7604200026096 L 732.2135627311618,791.5106076524153 L 760.1970598846912,760.1970598846912 L 791.5106076524144,732.2135627311625 L 825.7604200026101,707.912024904937 L 862.515785672769,687.598052344261 L 901.3144846136319,671.5271050405249 L 941.6686006744842,659.9012844806557 L 983.0706574318582,652.8667921036513 L 1034.1186203143127,650.0 L 4115.8813796856875,650.0 L 4166.929342568141,652.8667921036513 L 4208.331399325517,659.901284480656 L 4248.685515386367,671.5271050405247 L 4287.484214327231,687.598052344261 L 4324.2395799973865,707.9120249049354 L 4358.489392347588,732.2135627311651 L 4389.802940115307,760.1970598846891 L 4417.786437268836,791.5106076524132 L 4442.0879750950635,825.7604200026119 L 4462.40194765574,862.5157856727707 L 4478.472894959475,901.31448461363 L 4490.098715519343,941.6686006744837 L 4497.13320789635,983.0706574318623 L 4500.0,1034.118620314307 L 4500.0,1319.0750793477966 L 4498.788079822135,1352.3027946261611 L 4495.805913124811,1379.460499476149 L 4490.853246788925,1406.3287957953323 L 4483.9563997778005,1432.7649027748698 L 4475.152022624926,1458.6283363033094 L 4464.486902669417,1483.7816555129814 L 4452.017715423361,1508.0911931546752 L 4437.810723392556,1531.4277659185973 L 4421.941423950874,1553.6673609274928 L 4404.494148139725,1574.691794753385 L 4385.561612524474,1594.389341456121 L 4365.2444264893375,1612.6553263062003 L 4343.650557589104,1629.3926820366926 L 4322.513181865309,1643.4371247411118 L 1238.5071288321483,3334.6662505980066 L 1170.156017016447,3369.753153245217 L 1116.468116785525,3387.710062667565 L 1060.685231532722,3397.3594636893968 L 1004.0850120197307,3398.4803465061905 L 947.963829225667,3391.047038426794 L 893.6070822764352,3375.229791880542 L 842.2597576733309,3351.390884956963 L 795.0979141320846,3320.0763237912875 L 753.2017461433647,3282.0033368442582 L 717.5308432067168,3238.0439475071435 L 688.9022114002759,3189.205001284901 L 667.9715606800288,3136.605105014712 L 655.2182865041756,3081.4490063038415 L 650.0,3012.685919352789 L 650.0,1034.118620314313 z" id="road" style="fill:#232f3e;fill-opacity:1;stroke:none;" /><path d="M 575.2150331875057,3018.3611936945395 L 580.4333196916813,3087.124280645592 L 581.0771862069523,3092.767011725164 L 582.1461939788126,3098.344842890551 L 594.8994681546658,3153.5009416014213 L 596.3874872591512,3158.9818883508933 L 598.2859850698321,3164.3345217391143 L 619.2166357900792,3216.934418009303 L 621.5147259060035,3222.1280448677658 L 624.1992305766968,3227.1328838061218 L 652.8278623831377,3275.971830028365 L 655.8833880727007,3280.7591822074173 L 659.2924137297057,3285.301595904532 L 694.9633166663536,3329.2609852416467 L 698.7062941933794,3333.5324132649243 L 702.7617605400685,3337.508362313483 L 744.6579285287884,3375.581349260512 L 749.0026287656642,3379.239020374424 L 753.6116494329756,3382.5574396689303 L 800.7734929742219,3413.872000834606 L 805.6204049411587,3416.8321397689506 L 810.6774149562596,3419.4170242601854 L 862.0247395593639,3443.2559311837645 L 867.2628496230874,3445.450738939851 L 872.6520232686735,3447.2428844539154 L 927.0087702179053,3463.0601310001675 L 932.518104747033,3464.4393377185465 L 938.11600843264,3465.3976969687897 L 994.2371912267037,3472.831005048186 L 999.8915644668465,3473.363021389111 L 1005.5699838508275,3473.465644122862 L 1062.1702033638187,3472.3447613060684 L 1067.8401075951015,3472.017401971484 L 1073.4689842048933,3471.2619377184624 L 1129.2518694576963,3461.6125366966307 L 1134.8074412385454,3460.4332995221416 L 1140.257851328892,3458.8370514296107 L 1193.9457515598142,3440.8801420072627 L 1199.2597461181929,3438.8760362317666 L 1204.4068535395838,3436.4755647533857 L 1272.757965355285,3401.388662106175 L 1274.5695746726622,3400.4271812483557 L 4358.575627705823,1709.1980553914607 L 4364.019196166269,1705.9051227628872 L 4385.156571890064,1691.860680058468 L 4389.597046585073,1688.6710098550725 L 4411.1909154853065,1671.9336541245802 L 4415.387225951121,1668.4289729696147 L 4435.704411986258,1650.1629881195354 L 4439.634258610153,1646.3619202385228 L 4458.566794225404,1626.6643735357868 L 4462.209293410127,1622.5871181828848 L 4479.656569221276,1601.5626843569926 L 4482.992364362535,1597.2309084741719 L 4498.861663804217,1574.9913134652763 L 4501.8730281536355,1570.4280365419986 L 4516.08002018444,1547.0914637780766 L 4518.750951051247,1542.320935523454 L 4531.2201382973035,1518.01139788176 L 4533.536442088249,1513.0589693591523 L 4544.201562043758,1487.9056501494804 L 4546.150929689263,1482.7976390584502 L 4554.955306842137,1456.9342055300106 L 4556.527379207939,1451.6977563514033 L 4563.424226219064,1425.2616493718658 L 4564.610649155675,1419.9245891193532 L 4569.56331549156,1393.0562928001698 L 4570.357784229058,1387.646983144719 L 4573.339950926382,1360.489278294731 L 4573.738243578588,1355.0364648478353 L 4574.950163756453,1321.8087495694708 L 4575.0,1319.0750793477966 L 4575.0,1034.118620314307 L 4574.882011126337,1029.9133367715183 L 4572.015219022686,978.8653738890735 L 4571.073534285217,970.5076906840052 L 4564.0390419082105,929.1056339266266 L 4562.167514665226,920.9059373176214 L 4550.541694105357,880.5518212567677 L 4547.763859897821,872.6132271862476 L 4531.692912594086,833.8145282453883 L 4528.043704298896,826.2368691398775 L 4507.72973173822,789.4815034697187 L 4503.255040267009,782.3600727891272 L 4478.953502440781,748.1102604389285 L 4473.709599635074,741.534614306013 L 4445.726102481544,710.2210665382889 L 4439.778933461706,704.2738975184511 L 4408.465385693988,676.2904003649271 L 4401.889739561074,671.0464975592204 L 4367.639927210872,646.7449597329907 L 4360.51849653028,642.2702682617789 L 4323.763130860124,621.9562957011045 L 4316.185471754612,618.3070874059143 L 4277.386772813748,602.2361401021781 L 4269.4481787432305,599.4583058946423 L 4229.09406268238,587.8324853347737 L 4220.894366073372,585.9609580917884 L 4179.492309315996,578.9264657147836 L 4171.13462611093,577.984780977315 L 4120.086663228477,575.1179888736638 L 4115.8813796856875,575.0 L 1034.1186203143127,575.0 L 1029.9133367715233,575.1179888736638 L 978.8653738890688,577.984780977315 L 970.5076906840029,578.9264657147836 L 929.1056339266289,585.960958091788 L 920.9059373176204,587.8324853347733 L 880.5518212567681,599.4583058946425 L 872.6132271862501,602.2361401021784 L 833.8145282453872,618.3070874059144 L 826.236869139876,621.9562957011044 L 789.4815034697172,642.2702682617804 L 782.3600727891247,646.7449597329924 L 748.110260438929,671.0464975592179 L 741.534614306014,676.2904003649252 L 710.2210665382908,704.2738975184539 L 704.2738975184537,710.2210665382909 L 676.2904003649244,741.534614306015 L 671.0464975592173,748.1102604389299 L 646.7449597329927,782.3600727891243 L 642.2702682617806,789.4815034697167 L 621.956295701104,826.2368691398768 L 618.3070874059139,833.8145282453883 L 602.2361401021785,872.6132271862499 L 599.4583058946428,880.5518212567675 L 587.8324853347732,920.9059373176209 L 585.9609580917879,929.1056339266295 L 578.9264657147836,970.5076906840031 L 577.984780977315,978.865373889069 L 575.1179888736638,1029.9133367715235 L 575.0,1034.118620314313 L 575.0,3012.685919352789 L 575.2150331875057,3018.3611936945395 z M 650.0,1034.118620314313 L 652.8667921036513,983.0706574318584 L 659.9012844806556,941.6686006744848 L 671.5271050405252,901.3144846136314 L 687.5980523442605,862.5157856727698 L 707.9120249049372,825.7604200026096 L 732.2135627311618,791.5106076524153 L 760.1970598846912,760.1970598846912 L 791.5106076524144,732.2135627311625 L 825.7604200026101,707.912024904937 L 862.515785672769,687.598052344261 L 901.3144846136319,671.5271050405249 L 941.6686006744842,659.9012844806557 L 983.0706574318582,652.8667921036513 L 1034.1186203143127,650.0 L 4115.8813796856875,650.0 L 4166.929342568141,652.8667921036513 L 4208.331399325517,659.901284480656 L 4248.685515386367,671.5271050405247 L 4287.484214327231,687.598052344261 L 4324.2395799973865,707.9120249049354 L 4358.489392347588,732.2135627311651 L 4389.802940115307,760.1970598846891 L 4417.786437268836,791.5106076524132 L 4442.0879750950635,825.7604200026119 L 4462.40194765574,862.5157856727707 L 4478.472894959475,901.31448461363 L 4490.098715519343,941.6686006744837 L 4497.13320789635,983.0706574318623 L 4500.0,1034.118620314307 L 4500.0,1319.0750793477966 L 4498.788079822135,1352.3027946261611 L 4495.805913124811,1379.460499476149 L 4490.853246788925,1406.3287957953323 L 4483.9563997778005,1432.7649027748698 L 4475.152022624926,1458.6283363033094 L 4464.486902669417,1483.7816555129814 L 4452.017715423361,1508.0911931546752 L 4437.810723392556,1531.4277659185973 L 4421.941423950874,1553.6673609274928 L 4404.494148139725,1574.691794753385 L 4385.561612524474,1594.389341456121 L 4365.2444264893375,1612.6553263062003 L 4343.650557589104,1629.3926820366926 L 4322.513181865309,1643.4371247411118 L 1238.5071288321483,3334.6662505980066 L 1170.156017016447,3369.753153245217 L 1116.468116785525,3387.710062667565 L 1060.685231532722,3397.3594636893968 L 1004.0850120197307,3398.4803465061905 L 947.963829225667,3391.047038426794 L 893.6070822764352,3375.229791880542 L 842.2597576733309,3351.390884956963 L 795.0979141320846,3320.0763237912875 L 753.2017461433647,3282.0033368442582 L 717.5308432067168,3238.0439475071435 L 688.9022114002759,3189.205001284901 L 667.9715606800288,3136.605105014712 L 655.2182865041756,3081.4490063038415 L 650.0,3012.685919352789 L 650.0,1034.118620314313 z" id="il" style="fill:#ffffff;fill-opacity:1;stroke:none;" /><path d="M 0.9318104791914266,3049.592855480918 L 8.948207705108075,3155.2275727465953 L 11.738295937949317,3179.679407424742 L 16.37066294934357,3203.850009141418 L 40.23624712856855,3307.065269680098 L 46.68432991467171,3330.816038927809 L 54.91115376095581,3354.0107836101 L 94.07930774260569,3452.4425459124836 L 104.0376982449448,3474.948262299157 L 115.6705518179487,3496.6358976986994 L 169.24416851367272,3588.029681461179 L 182.48477983511208,3608.7748742370727 L 197.25722434880106,3628.4586669245714 L 264.0092540664222,3710.7211896482336 L 280.22882335019995,3729.230711082435 L 297.8025108525182,3746.4598236261877 L 376.2040656324578,3817.706945142579 L 395.0310999922541,3833.556853302865 L 415.0035228839371,3847.9366702457273 L 503.25889413692187,3906.536547048337 L 524.262179326982,3919.3638157638293 L 546.1758893924189,3930.5649818925153 L 642.263676794779,3975.1754428675167 L 664.9621537375813,3984.6862764772245 L 688.3152395351208,3992.4522403715027 L 790.0346491657793,4022.051527874304 L 813.9084321253318,4028.0280903206126 L 838.1660147629616,4032.180980405001 L 943.1872660699614,4046.091152589241 L 967.6895501105807,4048.39655673325 L 992.2960341078326,4048.8412552461714 L 1098.2137211836316,4046.7437136383946 L 1122.7833061858573,4045.3251565218625 L 1147.17510482829,4042.0514780921017 L 1251.5632898076026,4023.9942647686667 L 1275.6374341912804,4018.8842370125467 L 1299.255877916115,4011.967161944912 L 1399.7236546375511,3978.3638591766576 L 1422.7509643905264,3969.679400816174 L 1445.055096549887,3959.2773577431904 L 1539.3013518517207,3910.8976153103836 L 1547.1516588936881,3906.7311982598326 L 4647.151658893688,2206.7311982598326 L 4670.74045555562,2192.4618235360135 L 4713.242441048869,2164.2219555465344 L 4732.484498060577,2150.40005133182 L 4772.816295281333,2119.138972529652 L 4791.000307299856,2103.9520208581393 L 4828.94758905151,2069.835855736718 L 4845.97692442173,2053.3645615856562 L 4881.338035060914,2016.5746068521296 L 4897.122198194711,1998.9065003228936 L 4929.709225249516,1959.6382614693246 L 4944.164337528309,1940.8672326437645 L 4973.804110283921,1899.3293850114273 L 4986.853355798064,1879.555185010562 L 5013.388365543226,1835.9684648683483 L 5024.962399299395,1815.296175764975 L 5048.25163634343,1769.892207294826 L 5058.288952770854,1748.4316836968676 L 5078.208655783228,1701.4517481197474 L 5086.655915580417,1679.3170333919495 L 5103.100229270811,1631.0107867753525 L 5109.91254285595,1608.3195070013855 L 5122.794080499835,1558.9436535620707 L 5127.9352465584825,1535.8163924678488 L 5137.1855543789015,1485.6333204200057 L 5140.628252241392,1462.1929785797179 L 5146.198173179166,1411.469365777804 L 5147.924108005393,1387.8405075079188 L 5149.78404294463,1336.8459042939182 L 5150.0,1325.0 L 5150.0,1024.9999999999998 L 5149.48871488079,1006.7771046479135 L 5145.08726180606,928.4019713755979 L 5141.006627943696,892.1853441536408 L 5127.857619545702,814.7958236565363 L 5119.747668159434,779.263805017508 L 5098.016460848016,703.8331154183112 L 5085.979179282025,669.4325411127268 L 5055.939055597861,596.9092670990531 L 5040.1258196520375,564.072744308505 L 5002.154551580143,495.36890813006005 L 4982.76422187156,464.5093751808297 L 4937.339320139383,400.4889674404518 L 4914.615741314649,371.99450086448394 L 4862.308450417611,313.4626153350142 L 4836.537384664984,287.6915495823873 L 4778.005499135514,235.3842586853498 L 4749.511032559549,212.66067986061842 L 4685.49062481917,167.23577812844036 L 4654.631091869938,147.84544841985678 L 4585.927255691494,109.87418034796224 L 4553.090732900944,94.06094440213826 L 4480.567458887271,64.02082071797452 L 4446.166884581693,51.98353915198561 L 4370.736194982496,30.252331840566285 L 4335.204176343459,22.1423804542967 L 4257.814655846354,8.993372056303429 L 4221.598028624402,4.912738193939788 L 4143.222895352087,0.5112851192096173 L 4125.0,0.0 L 1025.0,0.0 L 1006.7771046479128,0.5112851192096173 L 928.4019713755971,4.912738193939788 L 892.185344153645,8.993372056303542 L 814.7958236565405,22.142380454296813 L 779.2638050175035,30.25233184056617 L 703.8331154183065,51.9835391519855 L 669.4325411127284,64.02082071797469 L 596.9092670990547,94.06094440213866 L 564.0727443085062,109.87418034796184 L 495.3689081300614,147.84544841985627 L 464.50937518082765,167.23577812844144 L 400.48896744044964,212.6606798606195 L 371.99450086448485,235.38425868535057 L 313.46261533501513,287.6915495823882 L 287.6915495823875,313.46261533501587 L 235.38425868535,371.9945008644857 L 212.66067986061972,400.4889674404496 L 167.23577812844167,464.50937518082736 L 147.84544841985604,495.3689081300617 L 109.87418034796161,564.0727443085066 L 94.06094440213832,596.9092670990555 L 64.02082071797446,669.4325411127293 L 51.9835391519855,703.8331154183068 L 30.25233184056617,779.2638050175036 L 22.142380454296813,814.7958236565407 L 8.993372056303542,892.1853441536452 L 4.912738193939788,928.4019713755973 L 0.5112851192096173,1006.7771046479128 L 0.0,1025.0 L 0.0,3025.0 L 0.9318104791914266,3049.592855480918 z M 75.0,1026.0519415133642 L 75.45227907666755,1009.9321015759292 L 79.67676044661229,934.7082414655656 L 83.28618128761747,902.6737454791729 L 95.73022400071831,829.4333558267232 L 102.90367512141822,798.0044129407681 L 123.4697941628983,726.6178342087698 L 134.11706525331695,696.1896816155408 L 162.54662974348875,627.5546414510073 L 176.53382519197385,598.5099308241888 L 212.46931686215743,533.4895546801644 L 229.6205395703832,506.1935401080246 L 272.61004876256766,445.6054969402226 L 292.7096121536067,420.40144164352233 L 342.2125208466057,365.00766124877975 L 365.00766124877924,342.21252084660614 L 420.4014416435211,292.7096121536076 L 445.60549694022336,272.6100487625669 L 506.1935401080247,229.62053957038307 L 533.4895546801653,212.46931686215692 L 598.5099308241878,176.5338251919744 L 627.5546414510061,162.54662974348932 L 696.1896816155406,134.11706525331695 L 726.6178342087695,123.46979416289832 L 798.0044129407681,102.90367512141822 L 829.4333558267232,95.73022400071827 L 902.6737454791727,83.28618128761747 L 934.7082414655656,79.67676044661226 L 1009.9321015759286,75.45227907666757 L 1026.0519415133642,75.0 L 4123.948058486635,75.0 L 4140.067898424071,75.45227907666758 L 4215.291758534435,79.67676044661232 L 4247.326254520825,83.28618128761721 L 4320.5666441732765,95.7302240007182 L 4351.995587059234,102.90367512141874 L 4423.3821657912285,123.46979416289778 L 4453.810318384461,134.1170652533177 L 4522.445358548989,162.5466297434871 L 4551.490069175813,176.53382519197515 L 4616.510445319834,212.4693168621572 L 4643.80645989197,229.62053957038037 L 4704.394503059776,272.6100487625672 L 4729.59855835648,292.7096121536088 L 4784.992338751222,342.2125208466074 L 4807.787479153392,365.0076612487769 L 4857.290387846392,420.40144164352006 L 4877.389951237434,445.60549694022376 L 4920.37946042962,506.1935401080294 L 4937.53068313784,533.4895546801611 L 4973.466174808029,598.5099308241944 L 4987.453370256507,627.5546414509977 L 5015.8829347466835,696.1896816155404 L 5026.5302058371035,726.6178342087754 L 5047.096324878582,798.0044129407712 L 5054.269775999282,829.4333558267253 L 5066.713818712383,902.6737454791681 L 5070.323239553387,934.7082414655519 L 5074.547720923332,1009.9321015759441 L 5075.0,1026.0519415133658 L 5075.0,1324.3164121026002 L 5074.808963136456,1334.795367736911 L 5073.0237804924855,1383.7404564458534 L 5071.49705817905,1404.642001865452 L 5066.225625033012,1452.6473751549477 L 5063.1802935609285,1473.382163269927 L 5054.42570264296,1520.8759629698732 L 5049.877945207662,1541.3338070463913 L 5037.686719287847,1588.0636463639928 L 5031.6607031263375,1608.135831376372 L 5016.097627596211,1653.8533832806622 L 5008.625375559942,1673.4332436339655 L 4989.773154156479,1717.8955604903006 L 4980.8943745386805,1736.8790468520776 L 4958.853189848369,1779.8498514701678 L 4948.615065370269,1798.136083698825 L 4923.5020464488625,1839.3870249332826 L 4911.958983525976,1856.8788281653042 L 4883.907583462925,1896.190694396537 L 4871.120923083938,1912.7951154433895 L 4840.280209819488,1949.9589994898265 L 4826.317901574081,1965.5878008005318 L 4792.851765737208,2000.4062100724477 L 4777.788006725222,2014.9763386366558 L 4741.874290702569,2047.2642446313794 L 4725.789131243154,2060.6982733314194 L 4687.618684106829,2090.284094893285 L 4670.597602343033,2102.5106339596055 L 4630.559788658448,2129.113216401775 L 4609.6940014013235,2141.735383676628 L 1511.5388074861078,3840.7237158236812 L 1504.5943474418243,3844.4093699746204 L 1412.0678453866046,3891.906305776514 L 1393.6263519409101,3900.506918783183 L 1374.5869210925143,3907.687399099119 L 1276.8131423744187,3940.389644498359 L 1257.2849503767575,3946.1088176816866 L 1237.3799761464008,3950.333888744687 L 1135.7909131451459,3967.90690605795 L 1115.623296150261,3970.6136475206717 L 1095.3086819099472,3971.786538336597 L 992.2311297193208,3973.8278353146256 L 971.8860066670078,3973.4601498717325 L 951.6270381803031,3971.553996558631 L 849.4218842386753,3958.01681935162 L 829.3652396660834,3954.583128467583 L 809.6259281866185,3949.641589545828 L 710.6340785298034,3920.8359935532317 L 691.3252896652448,3914.414942456841 L 672.557744226713,3906.551198894738 L 579.046507394632,3863.136947258851 L 560.9278225852325,3853.87560365353 L 543.5618948995753,3843.269766571284 L 457.67305151950006,3786.2412189674933 L 441.1594609785089,3774.3517045937656 L 425.59290011582175,3761.24668999986 L 349.2936475757511,3691.910027830462 L 334.76337845004304,3677.6646600313125 L 321.35272079693453,3662.360625076129 L 256.3906165723126,3582.303934701901 L 244.17647003077502,3566.028989268492 L 233.228873183845,3548.876457447352 L 181.09180879493465,3459.9333566700834 L 171.47353755315243,3442.001594823638 L 163.23974518380695,3423.393427589413 L 125.12186754014827,3327.601068484367 L 118.31976840640044,3308.423199156075 L 112.98836722980951,3288.7855978236157 L 89.76272789882873,3188.3380078244822 L 85.93259609776436,3168.3532807814413 L 83.62569648422016,3148.1360248160195 L 75.82425532506795,3045.333854727993 L 75.0,3023.579654124494 L 75.0,1026.0519415133642 z" id="ol" style="fill:#ffffff;fill-opacity:1;stroke:none;" /><path d="M 325.0,2325.0 L 325.0,3025.0 L 333.01639722591665,3130.6347172656774 L 356.88198140514163,3233.8499778043574 L 396.0501353867915,3332.281740106741 L 449.6237520825155,3423.6755238692203 L 516.3757818001367,3505.9380465928825 L 594.7773365800763,3577.185168109274 L 683.0327078330611,3635.7850449118837 L 779.1204952354212,3680.395505886885 L 880.8399048660798,3709.9947933896865 L 985.8611561730796,3723.904965573927 L 1091.7788432488787,3721.80742396615 L 1196.1670282281914,3703.750210642715 L 1296.6348049496273,3670.146907874461 L 1390.8810602514611,3621.767165441654 L 4490.881060251461,1921.767165441654 L 4533.38304574471,1893.527297452175 L 4573.714842965466,1862.2662186500067 L 4611.66212471712,1828.150053528585 L 4647.023235356304,1791.3600987950585 L 4679.610262411109,1752.0918599414895 L 4709.25003516672,1710.5540123091523 L 4735.785044911883,1666.9672921669387 L 4759.074281955918,1621.5633236967897 L 4778.993984968291,1574.5833881196695 L 4795.438298658685,1526.2771415030725 L 4808.31983630257,1476.9012880637576 L 4817.570144122989,1426.7182160159145 L 4823.140065060763,1375.9946032140006 L 4825.0,1325.0 L 4825.0,1024.9999999999998 L 4820.59854692527,946.6248667276842 L 4807.449538527276,869.2353462305797 L 4785.718331215858,793.8046566313828 L 4755.678207531693,721.2813826177091 L 4717.706939459798,652.5775464392642 L 4672.282037727621,588.5571386988863 L 4619.974746830583,530.0252531694166 L 4561.442861301113,477.7179622723791 L 4497.4224535607345,432.29306054020105 L 4428.71861738229,394.3217924683065 L 4356.195343368617,364.28166878414277 L 4280.76465376942,342.55046147272344 L 4203.375133272315,329.40145307473017 L 4125.0,325.0 L 1025.0,325.0 L 946.6248667276843,329.40145307473017 L 869.2353462305798,342.55046147272344 L 793.8046566313828,364.28166878414277 L 721.2813826177091,394.32179246830674 L 652.5775464392643,432.29306054020117 L 588.5571386988863,477.7179622723792 L 530.0252531694166,530.0252531694168 L 477.7179622723791,588.5571386988867 L 432.29306054020105,652.5775464392644 L 394.3217924683066,721.2813826177094 L 364.28166878414277,793.8046566313832 L 342.55046147272344,869.23534623058 L 329.40145307473017,946.6248667276845 L 325.0,1025.0 L 325.0,2325.0 z" id="cl" style="fill:none;stroke:#ff9900;stroke-width:25;stroke-opacity:1;stroke-dasharray:50,50;stroke-dashoffset:0;" /><polyline points="650.0,2324.9999999999995 0.0,2325.0" id="start_line" style="fill:none;stroke:#ffffff;stroke-width:100;stroke-opacity:1;" /></svg>