<?xml version='1.0' encoding='utf-8'?>
<svg id="Trapezoid" version="1.1" baseProfile="full" width="5150.00000mm" height="4048.84126mm" viewBox="0.00000,0.00000,5150.00000,4048.84126" xmlns="http://www.w3.org/2000/svg" xmlns:ev="http://www.w3.org/2001/xml-events" xmlns:xlink="http://www.w3.org/1999/xlink" xmlns:sodipodi="http://sodipodi.sourceforge.net/DTD/sodipodi-0.dtd"><sodipodi:namedview id="trackview" pagecolor="#ffffff" bordercolor="#000000" borderopacity="0.25" inkscape:pageopacity="0" inkscape:pagecheckerboard="true" /><path d="M 0.9318104791914834,3049.5928554809184 L 8.948207705108246,3155.227572746596 L 11.738295937949431,3179.679407424742 L 16.37066294934357,3203.850009141417 L 40.23624712856832,3307.065269680097 L 46.68432991467154,3330.8160389278087 L 54.911153760955926,3354.0107836101006 L 94.07930774260603,3452.442545912484 L 104.03769824494492,3474.9482622991563 L 115.67055181794848,3496.6358976986985 L 169.24416851367226,3588.0296814611784 L 182.4847798351118,3608.7748742370727 L 197.25722434880095,3628.4586669245714 L 264.0092540664221,3710.7211896482336 L 280.22882335019995,3729.230711082435 L 297.80251085251825,3746.4598236261877 L 376.20406563245797,3817.706945142579 L 395.0310999922543,3833.5568533028654 L 415.0035228839374,3847.9366702457273 L 503.25889413692244,3906.536547048337 L 524.2621793269822,3919.3638157638293 L 546.1758893924186,3930.564981892515 L 642.2636767947786,3975.1754428675163 L 664.962153737581,3984.6862764772245 L 688.3152395351208,3992.4522403715027 L 790.0346491657795,4022.051527874304 L 813.9084321253313,4028.028090320612 L 838.1660147629602,4032.1809804050004 L 943.1872660699601,4046.091152589241 L 967.6895501105807,4048.3965567332502 L 992.296034107834,4048.841255246172 L 1098.2137211836332,4046.7437136383946 L 1122.7833061858582,4045.3251565218625 L 1147.17510482829,4042.0514780921017 L 1251.5632898076026,4023.9942647686667 L 1275.6374341912804,4018.8842370125467 L 1299.255877916115,4011.967161944912 L 1399.7236546375511,3978.3638591766576 L 1422.7509643905264,3969.679400816174 L 1445.055096549887,3959.2773577431904 L 1539.3013518517207,3910.8976153103836 L 1547.1516588936881,3906.7311982598326 L 4647.151658893688,2206.7311982598326 L 4670.74045555562,2192.4618235360135 L 4713.242441048869,2164.2219555465344 L 4732.484498060577,2150.40005133182 L 4772.816295281333,2119.138972529652 L 4791.000307299855,2103.9520208581403 L 4828.947589051509,2069.8358557367187 L 4845.9769244217305,2053.364561585656 L 4881.338035060915,2016.574606852129 L 4897.122198194711,1998.9065003228936 L 4929.709225249516,1959.6382614693246 L 4944.164337528309,1940.8672326437645 L 4973.804110283921,1899.3293850114273 L 4986.853355798064,1879.555185010562 L 5013.388365543226,1835.9684648683483 L 5024.962399299395,1815.296175764975 L 5048.25163634343,1769.892207294826 L 5058.288952770854,1748.4316836968676 L 5078.208655783228,1701.4517481197474 L 5086.655915580417,1679.3170333919495 L 5103.100229270811,1631.0107867753525 L 5109.91254285595,1608.3195070013855 L 5122.794080499835,1558.9436535620707 L 5127.9352465584825,1535.8163924678488 L 5137.1855543789015,1485.6333204200057 L 5140.628252241392,1462.1929785797179 L 5146.198173179166,1411.469365777804 L 5147.924108005393,1387.8405075079188 L 5149.78404294463,1336.8459042939182 L 5150.0,1325.0 L 5150.0,1024.9999999999998 L 5149.48871488079,1006.7771046479135 L 5145.08726180606,928.4019713755979 L 5141.006627943696,892.1853441536408 L 5127.857619545702,814.7958236565363 L 5119.747668159434,779.263805017508 L 5098.016460848016,703.8331154183112 L 5085.979179282025,669.4325411127268 L 5055.939055597861,596.9092670990531 L 5040.1258196520375,564.0727443085048 L 5002.154551580143,495.36890813005994 L 4982.764221871559,464.5093751808296 L 4937.339320139382,400.4889674404518 L 4914.615741314649,371.9945008644846 L 4862.308450417611,313.4626153350147 L 4836.5373846649845,287.69154958238755 L 4778.005499135515,235.38425868534995 L 4749.511032559548,212.66067986061813 L 4685.490624819169,167.2357781284402 L 4654.631091869938,147.84544841985633 L 4585.927255691494,109.87418034796201 L 4553.090732900945,94.06094440213894 L 4480.567458887272,64.02082071797486 L 4446.166884581693,51.9835391519855 L 4370.736194982496,30.25233184056617 L 4335.204176343458,22.14238045429647 L 4257.814655846353,8.993372056303429 L 4221.598028624403,4.9127381939399015 L 4143.222895352088,0.5112851192096173 L 4125.0,0.0 L 1025.0,0.0 L 1006.7771046479123,0.5112851192096741 L 928.4019713755966,4.912738193939958 L 892.1853441536455,8.993372056303542 L 814.795823656541,22.1423804542967 L 779.2638050175035,30.25233184056617 L 703.8331154183065,51.9835391519855 L 669.4325411127282,64.0208207179748 L 596.9092670990547,94.06094440213877 L 564.0727443085066,109.87418034796173 L 495.3689081300616,147.84544841985615 L 464.50937518082753,167.2357781284416 L 400.48896744044976,212.66067986061955 L 371.9945008644853,235.3842586853503 L 313.46261533501536,287.691549582388 L 287.6915495823878,313.46261533501564 L 235.38425868535015,371.9945008644855 L 212.6606798606192,400.4889674404501 L 167.23577812844127,464.509375180828 L 147.84544841985593,495.368908130062 L 109.87418034796161,564.0727443085068 L 94.06094440213866,596.9092670990549 L 64.02082071797469,669.4325411127286 L 51.9835391519855,703.8331154183068 L 30.25233184056617,779.2638050175037 L 22.1423804542967,814.7958236565412 L 8.993372056303542,892.1853441536457 L 4.9127381939399015,928.4019713755969 L 0.5112851192096173,1006.7771046479123 L 0.0,1025.0 L 0.0,3025.0 L 0.9318104791914834,3049.5928554809184 z M 650.0,1034.1186203143134 L 652.8667921036513,983.0706574318592 L 659.9012844806558,941.6686006744839 L 671.5271050405249,901.3144846136321 L 687.598052344261,862.5157856727691 L 707.912024904937,825.76042000261 L 732.2135627311625,791.5106076524145 L 760.1970598846908,760.1970598846915 L 791.5106076524144,732.2135627311625 L 825.7604200026103,707.9120249049369 L 862.5157856727695,687.5980523442605 L 901.3144846136305,671.5271050405253 L 941.6686006744836,659.9012844806558 L 983.0706574318592,652.8667921036513 L 1034.1186203143113,650.0 L 4115.881379685687,650.0 L 4166.929342568141,652.8667921036513 L 4208.331399325517,659.9012844806559 L 4248.685515386367,671.5271050405246 L 4287.484214327227,687.5980523442594 L 4324.239579997393,707.9120249049394 L 4358.489392347583,732.2135627311602 L 4389.802940115311,760.1970598846934 L 4417.786437268838,791.5106076524152 L 4442.087975095061,825.7604200026067 L 4462.4019476557405,862.5157856727717 L 4478.472894959475,901.31448461363 L 4490.098715519343,941.6686006744837 L 4497.13320789635,983.0706574318623 L 4500.0,1034.118620314307 L 4500.0,1319.0750793477966 L 4498.788079822135,1352.3027946261611 L 4495.805913124811,1379.460499476149 L 4490.853246788925,1406.3287957953323 L 4483.9563997778005,1432.7649027748698 L 4475.152022624926,1458.6283363033094 L 4464.486902669417,1483.7816555129814 L 4452.017715423361,1508.0911931546752 L 4437.810723392556,1531.4277659185973 L 4421.941423950874,1553.6673609274928 L 4404.494148139726,1574.6917947533834 L 4385.561612524472,1594.3893414561235 L 4365.2444264893375,1612.6553263062003 L 4343.650557589104,1629.3926820366926 L 4322.513181865309,1643.4371247411118 L 1238.5071288321483,3334.6662505980066 L 1170.156017016447,3369.753153245217 L 1116.468116785525,3387.710062667565 L 1060.6852315327214,3397.359463689397 L 1004.0850120197287,3398.480346506191 L 947.9638292256692,3391.047038426795 L 893.6070822764339,3375.2297918805416 L 842.2597576733313,3351.3908849569634 L 795.0979141320846,3320.076323791288 L 753.2017461433653,3282.0033368442587 L 717.5308432067169,3238.0439475071435 L 688.9022114002761,3189.2050012849013 L 667.9715606800286,3136.6051050147116 L 655.2182865041758,3081.449006303843 L 650.0,3012.685919352788 L 650.0,1034.1186203143134 z" id="road" style="fill:#232f3e;fill-opacity:0.7;stroke:none;" /><path d="M 325.0,2325.0 L 325.0,3025.0 L 333.01639722591676,3130.6347172656774 L 356.8819814051415,3233.8499778043574 L 396.0501353867916,3332.281740106741 L 449.6237520825154,3423.6755238692203 L 516.3757818001366,3505.9380465928825 L 594.7773365800763,3577.185168109274 L 683.0327078330613,3635.7850449118837 L 779.1204952354211,3680.395505886885 L 880.8399048660798,3709.9947933896865 L 985.8611561730796,3723.9049655739273 L 1091.7788432488787,3721.80742396615 L 1196.1670282281914,3703.750210642715 L 1296.6348049496273,3670.146907874461 L 1390.8810602514611,3621.767165441654 L 4490.881060251461,1921.767165441654 L 4533.38304574471,1893.527297452175 L 4573.714842965466,1862.2662186500067 L 4611.66212471712,1828.1500535285852 L 4647.023235356304,1791.3600987950585 L 4679.610262411109,1752.0918599414895 L 4709.25003516672,1710.5540123091523 L 4735.785044911883,1666.9672921669387 L 4759.074281955918,1621.5633236967897 L 4778.993984968291,1574.5833881196695 L 4795.438298658685,1526.2771415030725 L 4808.31983630257,1476.9012880637576 L 4817.570144122989,1426.7182160159145 L 4823.140065060763,1375.9946032140006 L 4825.0,1325.0 L 4825.0,1024.9999999999998 L 4820.59854692527,946.6248667276842 L 4807.449538527276,869.2353462305797 L 4785.718331215858,793.8046566313828 L 4755.678207531693,721.2813826177091 L 4717.706939459798,652.5775464392643 L 4672.282037727621,588.5571386988865 L 4619.974746830583,530.0252531694166 L 4561.442861301113,477.717962272379 L 4497.4224535607345,432.29306054020105 L 4428.71861738229,394.32179246830674 L 4356.195343368617,364.28166878414265 L 4280.76465376942,342.5504614727233 L 4203.375133272315,329.4014530747303 L 4125.0,325.0 L 1025.0,325.0 L 946.6248667276843,329.4014530747303 L 869.2353462305798,342.55046147272344 L 793.8046566313828,364.28166878414277 L 721.2813826177093,394.32179246830674 L 652.5775464392643,432.29306054020117 L 588.5571386988865,477.7179622723791 L 530.0252531694166,530.0252531694168 L 477.717962272379,588.5571386988867 L 432.29306054020105,652.5775464392646 L 394.32179246830674,721.2813826177094 L 364.28166878414277,793.8046566313831 L 342.55046147272344,869.23534623058 L 329.4014530747303,946.6248667276845 L 325.0,1025.0 L 325.0,2325.0 z" id="cl" style="fill:none;stroke:#ffffff;stroke-width:50;stroke-opacity:1;" /></svg>