<?xml version='1.0' encoding='utf-8'?>
<svg id="Trapezoid_narrow" version="1.1" baseProfile="full" width="4660.00000mm" height="3359.27512mm" viewBox="0.00000,0.00000,4660.00000,3359.27512" xmlns="http://www.w3.org/2000/svg" xmlns:ev="http://www.w3.org/2001/xml-events" xmlns:xlink="http://www.w3.org/1999/xlink" xmlns:sodipodi="http://sodipodi.sourceforge.net/DTD/sodipodi-0.dtd" xmlns:inkscape="http://www.inkscape.org/namespaces/inkscape"><sodipodi:namedview id="trackview" pagecolor="#00c389" bordercolor="#000000" borderopacity="0.25" /><path d="M 1.9396578140466691,2354.911303518239 L 8.488566835659574,2447.800932955523 L 15.977923621859498,2500.651388826523 L 35.12152460224696,2589.9605490856234 L 49.952070100813486,2641.2374061564187 L 81.43697735565237,2726.977152947717 L 103.31530674916525,2775.6659591950706 L 146.5186285941682,2856.140032947054 L 175.011904989224,2901.2775378749816 L 229.07891475509328,2974.8938541347543 L 263.62343234875203,3015.587065547293 L 327.48447813831143,3080.8892124901354 L 367.39681447126776,3116.3330632866923 L 439.7884809582436,3172.029115102963 L 484.27901762060725,3201.5223905795688 L 563.7691212288584,3246.5104667001597 L 611.9576655272587,3269.469677253735 L 696.973588490435,3302.859741755058 L 747.9067870204105,3318.8306665357363 L 836.7665897660769,3339.962136448701 L 889.4367893825081,3348.628809582548 L 980.3824857190793,3357.083623746012 L 1033.747668762982,3358.274585346492 L 1124.9800055590595,3353.8854752532907 L 1177.984404945602,3347.5771635525 L 1267.6984582270193,3330.430962559213 L 1319.2934445497135,3316.7481800496103 L 1408.1855497756965,3286.338715010784 L 1421.582221907386,3281.472913627937 L 4018.9370989702065,2282.490268603775 L 4044.971182943915,2271.3450602586295 L 4094.2599975814614,2248.0315171027064 L 4122.348942342231,2233.278324063365 L 4169.3214637382625,2206.0431327848264 L 4196.079896016157,2188.9952055015037 L 4240.613278320165,2157.9315407008817 L 4265.854166867335,2138.708037690786 L 4307.637138702153,2104.0330225512307 L 4331.184059323241,2082.7683087771547 L 4369.924573633163,2044.7243084448833 L 4391.612942323329,2021.567016155222 L 4427.040217671668,1980.4199436995566 L 4446.718440996036,1955.5319335455536 L 4478.58485422427,1911.5693913278174 L 4496.115388898288,1885.124621019283 L 4524.1982059176,1838.6538904618562 L 4539.458520182245,1810.837198868969 L 4563.561452799904,1762.183092675277 L 4576.444882871923,1733.1889078754355 L 4596.399460771067,1682.6914997127446 L 4606.815956382265,1652.7224800122176 L 4622.482704665126,1600.7347275264672 L 4630.35945847938,1570.0003449561584 L 4641.628872543789,1516.8856227322399 L 4646.910829052625,1485.6006989179007 L 4653.704139987392,1431.7302586299083 L 4656.354380326985,1400.1134632709277 L 4658.668285020802,1344.8078855093654 L 4659.0,1328.9440398806362 L 4659.0,1031.4168905505844 L 4658.402976454005,1010.1381613393048 L 4654.239984689863,936.009225102482 L 4649.475064860304,893.7193919465974 L 4637.276150777237,821.9217260771305 L 4627.8062327496555,780.4313042682072 L 4607.645234833356,710.4509320762141 L 4593.589408321512,670.2816877417472 L 4565.719862818466,602.9986530111195 L 4547.254887996133,564.6557377053754 L 4512.027270611317,500.91616363635046 L 4489.385355250514,464.88176176637586 L 4447.242673712091,405.4872104854541 L 4420.708553035629,372.21447556241475 L 4372.180776015702,317.91186801347453 L 4342.088131986528,287.81922398430163 L 4287.785524437584,239.29144696436921 L 4254.512789514546,212.7573262879082 L 4195.1182382336165,170.61464474948014 L 4159.083836363648,147.97272938868096 L 4095.3442622946254,112.74511200386661 L 4057.001346988887,94.28013718153639 L 3989.718312258249,66.41059167848626 L 3949.54906792379,52.35476516664532 L 3879.5686957317976,32.19376725034548 L 3838.078273922863,22.723849222761366 L 3766.280608053388,10.524935139693008 L 3723.9907748975293,5.760015310137269 L 3649.861838660686,1.597023545995875 L 3628.5831094494147,1.0 L 1031.4168905505853,1.0 L 1010.1381613393145,1.597023545995762 L 936.0092251024703,5.760015310137157 L 893.7193919466107,10.524935139693122 L 821.9217260771369,22.723849222761345 L 780.4313042682016,32.19376725034548 L 710.4509320762093,52.354765166645365 L 670.2816877417499,66.41059167848654 L 602.9986530111121,94.28013718153673 L 564.6557377053731,112.7451120038674 L 500.916163636354,147.97272938867985 L 464.88176176637984,170.6146447494827 L 405.48721048545923,212.757326287904 L 372.2144755624139,239.29144696437072 L 317.9118680134702,287.8192239843023 L 287.8192239843018,317.91186801347095 L 239.2914469643701,372.214475562415 L 212.75732628790453,405.48721048545866 L 170.61464474948272,464.8817617663798 L 147.9727293886798,500.916163636354 L 112.7451120038674,564.655737705373 L 94.28013718153633,602.9986530111128 L 66.41059167848603,670.2816877417512 L 52.35476516664525,710.4509320762099 L 32.19376725034548,780.431304268202 L 22.723849222761345,821.9217260771371 L 10.524935139693161,893.7193919466108 L 5.760015310137144,936.0092251024706 L 1.597023545995762,1010.1381613393144 L 1.0,1031.4168905505853 L 1.0,2328.2220353933053 L 1.9396578140466691,2354.911303518239 z M 759.0,1042.0646361081663 L 759.0015731849821,1042.008565660929 L 761.3725517441309,999.7893809044319 L 761.3851075406305,999.6779451283644 L 766.4441408954694,969.902607425364 L 766.4690945920426,969.7932781372438 L 774.8300978937189,940.7715935272408 L 774.8671356831527,940.6657456063007 L 786.4249644639813,912.762678612038 L 786.4736205745837,912.6616431572978 L 801.0829284316347,886.2280910359709 L 801.1425909845843,886.1331386268964 L 818.6196573950408,861.5015186335285 L 818.6895760991168,861.4138433517562 L 838.8146168124349,838.8939123993665 L 838.8939123993661,838.8146168124354 L 861.4138433517563,818.6895760991168 L 861.5015186335286,818.6196573950408 L 886.133138626896,801.1425909845847 L 886.2280910359705,801.0829284316351 L 912.6616431572986,786.4736205745834 L 912.7626786120388,786.4249644639809 L 940.6657456062999,774.8671356831528 L 940.77159352724,774.830097893719 L 969.7932781372439,766.4690945920424 L 969.9026074253641,766.4441408954693 L 999.6779451283642,761.3851075406305 L 999.7893809044317,761.3725517441309 L 1042.008565660929,759.0015731849821 L 1042.0646361081663,759.0 L 3617.9353638918333,759.0 L 3617.9914343390706,759.0015731849821 L 3660.210619095567,761.3725517441309 L 3660.3220548716345,761.3851075406305 L 3690.0973925746357,766.4441408954694 L 3690.206721862756,766.4690945920426 L 3719.228406472759,774.830097893719 L 3719.334254393699,774.8671356831528 L 3747.237321387959,786.4249644639802 L 3747.3383568426993,786.4736205745827 L 3773.771908964032,801.0829284316367 L 3773.8668613731065,801.1425909845863 L 3798.4984813664723,818.6196573950415 L 3798.5861566482445,818.6895760991175 L 3821.106087600631,838.8146168124324 L 3821.185383187562,838.8939123993636 L 3841.310423900885,861.413843351759 L 3841.3803426049612,861.5015186335313 L 3858.857409015416,886.1331386268964 L 3858.9170715683654,886.2280910359709 L 3873.5263794254147,912.6616431572952 L 3873.5750355360174,912.7626786120354 L 3885.1328643168463,940.6657456062989 L 3885.16990210628,940.771593527239 L 3893.5309054079567,969.7932781372432 L 3893.5558591045296,969.9026074253634 L 3898.6148924593695,999.6779451283684 L 3898.6274482558692,999.7893809044359 L 3900.998426815018,1042.0085656609297 L 3901.0,1042.064636108167 L 3901.0,1321.0086466804119 L 3900.9991259156077,1321.0504486511968 L 3899.68065693337,1352.5637123643605 L 3899.6736734238407,1352.6470241260795 L 3896.8534080013924,1375.011514945824 L 3896.8394897944054,1375.0939522102153 L 3892.1609554063493,1397.1447041851093 L 3892.140199784869,1397.2256907470996 L 3885.6360976042656,1418.808577521193 L 3885.608649642179,1418.8875473155663 L 3877.324440865506,1439.851712732393 L 3877.2904924136124,1439.9281137903702 L 3867.2840805043256,1460.127026320025 L 3867.2438688493703,1460.2003246273166 L 3855.585194814729,1479.4928015660832 L 3855.5390010208616,1479.562484795444 L 3842.3095545509473,1497.813679079072 L 3842.2577014951885,1497.879260171275 L 3827.549951381014,1514.9616029045876 L 3827.492801496471,1515.022623472782 L 3811.4095493083664,1530.8167155876492 L 3811.3475020509604,1530.8727491213092 L 3794.001163594742,1545.268195930672 L 3793.934652651165,1545.3188507767434 L 3775.4464722244743,1558.2150335914152 L 3775.375962480884,1558.2599556918212 L 3755.8751654217704,1569.5667351067705 L 3755.8011497144134,1569.6056104731422 L 3733.6744366848625,1580.0715160321738 L 3733.6058356415956,1580.100884183582 L 1156.1287228651584,2571.4382352514426 L 1156.0934220122256,2571.451056863954 L 1099.260592716815,2590.893232646862 L 1099.1246373266044,2590.929287468616 L 1061.9704062188282,2598.030225293002 L 1061.8307369541365,2598.0468480123777 L 1024.0477230132626,2599.864556663315 L 1023.9071030654443,2599.8614184194535 L 986.2427985740738,2596.3599366792714 L 986.1040099426257,2596.3370995586183 L 949.3035586571644,2587.585700105842 L 949.169347111153,2587.5436159138435 L 913.9608024731497,2573.715434845106 L 913.833823229415,2573.654936167769 L 880.9137446885679,2555.0235477047436 L 880.7965098813955,2554.9458314369085 L 850.8161822899366,2531.8798355835997 L 850.71101127145,2531.7864392497877 L 824.2635599830014,2504.742169477051 L 824.1725334375208,2504.6349408133606 L 801.7811900228347,2474.147436040399 L 801.7061088029961,2474.028496439229 L 783.8138595316606,2440.7009159208606 L 783.756209030675,2440.5726184616688 L 770.7170309112361,2405.0643089952177 L 770.6779516761399,2404.929191891625 L 762.7498094392787,2367.9426434196744 L 762.7300746065582,2367.803379803908 L 759.002476042681,2314.9311764877853 L 759.0,2314.8608490068495 L 759.0,1042.0646361081663 z" id="road" style="fill:#232f3e;fill-opacity:1;stroke:none;" /><path d="M 685.1857032010787,2320.135410077016 L 688.9133017649559,2373.0076133931384 L 690.3934142189904,2383.4523845756526 L 698.3215564558516,2420.4389330476033 L 701.2524990880679,2430.5727158170494 L 714.2916772075068,2466.0810252835004 L 718.6154647814245,2475.703334722886 L 736.5077140527601,2509.0309152412547 L 742.1388055406536,2517.951385329016 L 764.5301489553397,2548.4388901019774 L 771.3571398663875,2556.4810398787554 L 797.8045911548361,2583.525309651492 L 805.6924175413249,2590.53003468737 L 835.6727451327838,2613.596030540679 L 844.4653556707115,2619.4247506283145 L 877.3854342115585,2638.05613909134 L 886.9088774916661,2642.593539891602 L 922.1174221296694,2656.42172096034 L 932.1832880805264,2659.5780353602477 L 968.9837393659876,2668.329434813024 L 979.3928867245969,2670.042218861994 L 1017.0571912159674,2673.543700602176 L 1027.6036873023415,2673.7790688917994 L 1065.3867012432156,2671.961360240862 L 1075.8618960950896,2670.7146562876633 L 1113.0161272028658,2663.6137184632776 L 1123.2127814686455,2660.909606831739 L 1180.0456107640562,2641.467431048831 L 1182.6931747340145,2640.5058101104687 L 3760.170287510452,1649.1684590426082 L 3765.3153657554876,1646.9658476870136 L 3787.4420787850386,1636.499942127982 L 3792.9932568367826,1633.584289650089 L 3812.4940538958963,1622.2775102351397 L 3817.7822846651675,1618.908352704695 L 3836.270465091858,1606.0121698900232 L 3841.258785860151,1602.2130564346712 L 3858.6051243163693,1587.8176096253085 L 3863.258668621833,1583.6150946008152 L 3879.3419208099376,1567.821002485948 L 3883.628162150666,1563.2444598713676 L 3898.3359122648403,1546.162117138055 L 3902.2248914467177,1541.243535222816 L 3915.454337916632,1522.9923409391881 L 3918.918872456703,1517.7660987371207 L 3930.577546491344,1498.473621798354 L 3933.5934206130005,1492.976248751493 L 3943.599832522287,1472.7773362218381 L 3946.145966414327,1467.0472568735377 L 3954.430175191,1446.083091456711 L 3956.4887723474785,1440.1603568787189 L 3962.9928745280818,1418.5774701046255 L 3964.5495461391056,1412.5034779553514 L 3969.2280805271616,1390.4527259804574 L 3970.2719460511903,1384.2699311511126 L 3973.0922114736386,1361.905440331368 L 3973.615974688323,1355.6570582024524 L 3974.934443670561,1324.1437944892887 L 3975.0,1321.0086466804119 L 3975.0,1042.064636108167 L 3974.8820111263362,1037.8593525653775 L 3972.5110325671876,995.6401678088836 L 3971.569347829719,987.2824846038175 L 3966.510314474879,957.5071469008125 L 3964.638787231894,949.3074502918042 L 3956.2777839302175,920.2857656818001 L 3953.4999497226813,912.3471716112823 L 3941.9421209418524,884.4441046170189 L 3938.292912646663,876.8664455115079 L 3923.6836047896136,850.4328933901836 L 3919.208913318401,843.3114627095903 L 3901.731846907946,818.6798427162252 L 3896.4879441022395,812.1041965833111 L 3876.3629033889165,789.5842656309156 L 3870.415734369079,783.6370966110779 L 3847.8958034166926,763.512055897763 L 3841.3201572837784,758.2681530920564 L 3816.6885372904126,740.7910866816012 L 3809.5671066098193,736.3163952103889 L 3783.133554488487,721.7070873533348 L 3775.555895382976,718.0578790581449 L 3747.652828388716,706.5000502773174 L 3739.714234318198,703.7222160697817 L 3710.6925497081947,695.3612127681052 L 3702.492853099186,693.48968552512 L 3672.717515396185,688.4306521702811 L 3664.359832191119,687.4889674328125 L 3622.1406474346227,685.1179888736638 L 3617.9353638918333,685.0 L 1042.0646361081663,685.0 L 1037.8593525653769,685.1179888736638 L 995.6401678088796,687.4889674328125 L 987.2824846038137,688.4306521702811 L 957.5071469008136,693.4896855251199 L 949.3074502918049,695.3612127681051 L 920.2857656818011,703.7222160697817 L 912.347171611283,706.5000502773177 L 884.4441046170219,718.0578790581458 L 876.8664455115108,721.7070873533357 L 850.4328933901827,736.3163952103874 L 843.3114627095904,740.7910866815994 L 818.679842716223,758.2681530920555 L 812.1041965833081,763.5120558977626 L 789.5842656309178,783.6370966110811 L 783.6370966110808,789.5842656309181 L 763.5120558977627,812.1041965833078 L 758.2681530920554,818.679842716223 L 740.7910866815989,843.311462709591 L 736.3163952103871,850.4328933901832 L 721.7070873533361,876.86644551151 L 718.0578790581459,884.4441046170216 L 706.5000502773173,912.3471716112842 L 703.7222160697816,920.2857656818019 L 695.3612127681052,949.3074502918048 L 693.48968552512,957.5071469008134 L 688.4306521702811,987.2824846038138 L 687.4889674328125,995.6401678088797 L 685.1179888736638,1037.8593525653769 L 685.0,1042.0646361081663 L 685.0,2314.8608490068495 L 685.1857032010787,2320.135410077016 z M 760.0,1042.0646361081663 L 762.3709785591487,999.8454513516691 L 767.4300119139876,970.0701136486687 L 775.791015215664,941.0484290386657 L 787.3488439964925,913.1453620444031 L 801.9581518535435,886.7118099230762 L 819.435218264,862.0801899297082 L 839.5602589773181,839.5602589773185 L 862.0801899297084,819.435218264 L 886.7118099230757,801.9581518535439 L 913.1453620444039,787.3488439964922 L 941.048429038665,775.7910152156641 L 970.0701136486688,767.4300119139875 L 999.8454513516689,762.3709785591487 L 1042.0646361081663,760.0 L 3617.9353638918333,760.0 L 3660.1545486483296,762.3709785591487 L 3689.929886351331,767.4300119139876 L 3718.9515709613343,775.7910152156641 L 3746.854637955594,787.3488439964915 L 3773.2881900769266,801.9581518535455 L 3797.9198100702924,819.4352182640007 L 3820.439741022679,839.5602589773156 L 3840.564781736002,862.0801899297111 L 3858.0418481464567,886.7118099230762 L 3872.651156003506,913.1453620444005 L 3884.208984784335,941.0484290386639 L 3892.5699880860116,970.0701136486681 L 3897.6290214408514,999.8454513516731 L 3900.0,1042.064636108167 L 3900.0,1321.0086466804119 L 3898.681531017762,1352.5219103935756 L 3895.861265595314,1374.8864012133201 L 3891.182731207258,1396.937153188214 L 3884.6786290266546,1418.5200399623075 L 3876.3944202499815,1439.4842053791342 L 3866.388008340695,1459.683117908789 L 3854.7293343060537,1478.9755948475556 L 3841.4998878361394,1497.2267891311835 L 3826.792137721965,1514.309131864496 L 3810.70888553386,1530.1032239793633 L 3793.362547077642,1544.498670788726 L 3774.8743666509513,1557.394853603398 L 3755.3735695918376,1568.7016330183471 L 3733.2468565622867,1579.1675385773788 L 1155.7697437858494,2570.5048896452395 L 1098.9369144904388,2589.9470654281477 L 1061.7826833826625,2597.0480032525334 L 1023.9996694417886,2598.8657119034706 L 986.3353649504181,2595.3642301632885 L 949.5349136649569,2586.6128307105123 L 914.3263690269536,2572.7846496417746 L 881.4062904861065,2554.1532611787493 L 851.4259628946476,2531.0872653254405 L 824.9785116061989,2504.042995552704 L 802.5871681915129,2473.5554907797423 L 784.6949189201773,2440.227910261374 L 771.6557408007384,2404.719600794923 L 763.7275985638772,2367.733052322972 L 760.0,2314.8608490068495 L 760.0,1042.0646361081663 z" id="il" style="fill:#ffffff;fill-opacity:1;stroke:none;" /><path d="M 0.9408962187987981,2354.9640763609573 L 7.493518921021632,2447.9063805895025 L 14.992755354796373,2500.826554580907 L 34.15111462011339,2590.204565524645 L 49.001223956676256,2641.549064889838 L 80.51040372078461,2727.354910614886 L 102.41759409530061,2776.1079451077744 L 145.6542224709995,2856.644058353324 L 174.1850860096597,2901.8411067979796 L 228.29377739730222,2975.5141757330707 L 262.88386467994513,3016.2610679354143 L 326.7941425607236,3081.613557950709 L 366.7591295856016,3117.10416479916 L 439.20660463448894,3172.8431541068144 L 483.7558313599871,3202.375335884167 L 563.3072158943969,3247.398094447548 L 611.5593285136092,3270.387591835542 L 696.6407923964803,3303.803397579915 L 747.6411798808197,3319.795390539447 L 836.5694868900839,3340.94315123565 L 889.3091668403714,3349.621257083767 L 980.3249755085218,3358.082589276758 L 1033.7605556794863,3359.2751219441834 L 1125.0632257855032,3354.882628175288 L 1178.1375463683314,3348.5659948124135 L 1267.920762476626,3331.406575380236 L 1319.5838107565778,3317.7057431137728 L 1408.5181126354667,3287.2818428488035 L 1421.9324367499214,3282.4096300944375 L 4019.313496375081,2283.4169148539913 L 4045.3818928165933,2272.257017318979 L 4094.706479984711,2248.9265538041177 L 4122.832448780219,2234.1539145827915 L 4169.84114896013,2206.8977464422514 L 4196.6348515244335,2189.827348288001 L 4241.20253395894,2158.7397578904147 L 4266.476692518292,2139.4909163832963 L 4308.291846085393,2104.789194142614 L 4331.869803899745,2083.496451351847 L 4370.640156605671,2045.4231490867624 L 4392.357112732022,2022.2353331728943 L 4427.811674581074,1981.0565687620665 L 4447.515835769258,1956.1357537248484 L 4479.406792880662,1912.1393510443022 L 4496.960434550351,1885.6597238871643 L 4525.064881282889,1839.1532010310286 L 4540.34531016595,1811.2998442602634 L 4564.466807143458,1762.6082641064584 L 4577.367218863126,1733.5758620750728 L 4597.337166010915,1683.0395602196218 L 4607.767391603739,1653.0310383577898 L 4623.446206598873,1601.0032442986649 L 4631.3333427613925,1570.2283507423465 L 4642.611436659962,1517.072718939829 L 4647.900355315041,1485.7465584711458 L 4654.698898537132,1431.8346265416717 L 4657.3526321582,1400.1761570885028 L 4659.667847930843,1344.8392426983576 L 4660.0,1328.9544938000467 L 4660.0,1031.402864663743 L 4659.4021897067705,1010.096094713609 L 4655.236838319898,935.9251415012687 L 4650.465635650056,893.5795465955995 L 4638.257322024522,821.7265589815302 L 4628.774917326732,780.1814294958929 L 4608.598384900168,710.1471358256741 L 4594.5240249153185,669.9249258683824 L 4566.633005289681,602.5900480197533 L 4548.143683260718,564.1965752184949 L 4512.88892219055,500.4078883490185 L 4490.21715206974,464.3259729006796 L 4448.041998630785,404.8856567587921 L 4421.472891081874,371.5690496853623 L 4372.907722299223,317.2246007346224 L 4342.77539926538,287.09227770077945 L 4288.430950314641,238.52710891812882 L 4255.1143432412055,211.95800136921235 L 4195.674027099316,169.78284793025693 L 4159.59211165098,147.1110778094489 L 4095.8034247815017,111.85631673928015 L 4057.4099519802458,93.36699471031824 L 3990.07507413162,65.47597508468175 L 3949.8528641743287,51.40161509983284 L 3879.8185705041083,31.225082673267536 L 3838.273441018465,21.742677975475658 L 3766.420453404395,9.534364349942166 L 3724.0748584987286,4.763161680101632 L 3649.9039052863927,0.5978102932297702 L 3628.5971353362597,0.0 L 1031.4028646637403,0.0 L 1010.0960947136076,0.5978102932296565 L 935.9251415012708,4.763161680101518 L 893.5795465956037,9.53436434994228 L 821.7265589815346,21.742677975475715 L 780.1814294958912,31.225082673267536 L 710.1471358256701,51.401615099833066 L 669.924925868379,65.47597508468203 L 602.5900480197531,93.36699471031858 L 564.1965752184966,111.85631673928094 L 500.407888349019,147.11107780944934 L 464.32597290068406,169.7828479302567 L 404.88565675879545,211.95800136921144 L 371.5690496853597,238.52710891812762 L 317.22460073462025,287.09227770077916 L 287.09227770077865,317.224600734621 L 238.527108918127,371.56904968536077 L 211.95800136921162,404.88565675879534 L 169.78284793025705,464.3259729006835 L 147.11107780944928,500.407888349019 L 111.85631673928094,564.1965752184965 L 93.36699471031818,602.5900480197538 L 65.47597508468152,669.9249258683802 L 51.40161509983295,710.1471358256708 L 31.225082673267536,780.1814294958915 L 21.742677975475715,821.7265589815348 L 9.53436434994228,893.5795465956039 L 4.763161680101518,935.9251415012709 L 0.5978102932296565,1010.0960947136075 L 0.0,1031.4028646637403 L 0.0,2328.2396336054476 L 0.9408962187987981,2354.9640763609573 z M 75.0,1032.4548061771043 L 75.53880425068759,1013.2510916416239 L 79.52718393277402,942.2314115912392 L 83.8271735812562,904.0679479211316 L 95.33052152189711,836.3640911517178 L 103.87642595411968,798.9220374191558 L 122.88787011074584,732.9318546161336 L 135.57221962002382,696.6820663711924 L 161.8526800516688,633.2354223717053 L 178.51596158329335,598.6337617341784 L 211.73494625175005,538.5285348991227 L 232.16760937219877,506.01013782788044 L 271.9073702711592,450.0021862585688 L 295.852462386384,419.9759904643971 L 341.61324896499644,368.76964664838533 L 368.7696466483844,341.6132489649971 L 419.97599046439615,295.85246238638456 L 450.0021862585688,271.9073702711591 L 506.01013782788095,232.16760937219846 L 538.5285348991223,211.73494625175036 L 598.633761734179,178.51596158329315 L 633.2354223717044,161.85268005166932 L 696.6820663711916,135.57221962002419 L 732.9318546161331,122.88787011074588 L 798.9220374191559,103.87642595411955 L 836.364091151717,95.3305215218972 L 904.0679479211313,83.8271735812562 L 942.2314115912391,79.52718393277402 L 1013.251091641624,75.53880425068759 L 1032.4548061771043,75.0 L 3627.5451938228957,75.0 L 3646.7489083583764,75.5388042506877 L 3717.76858840876,79.52718393277411 L 3755.9320520788674,83.8271735812561 L 3823.635908848283,95.33052152189727 L 3861.0779625808423,103.87642595411924 L 3927.0681453838656,122.88787011074562 L 3963.3179336288094,135.57221962002464 L 4026.764577628295,161.85268005166913 L 4061.3662382658176,178.51596158329158 L 4121.4714651008735,211.7349462517485 L 4153.989862172121,232.16760937220064 L 4209.9978137414355,271.9073702711626 L 4240.024009535604,295.85246238638473 L 4291.230353351615,341.6132489649965 L 4318.386751035001,368.76964664838266 L 4364.147537613621,419.9759904644039 L 4388.092629728835,450.00218625856206 L 4427.8323906277965,506.01013782787385 L 4448.265053748253,538.5285348991288 L 4481.484038416703,598.6337617341715 L 4498.1473199483335,633.2354223717124 L 4524.427780379973,696.6820663711871 L 4537.112129889256,732.9318546161402 L 4556.123574045881,798.9220374191609 L 4564.669478478098,836.3640911517016 L 4576.172826418744,904.0679479211395 L 4580.472816067227,942.2314115912426 L 4584.4611957493125,1013.2510916416093 L 4585.0,1032.4548061771065 L 4585.0,1328.1704498432432 L 4584.700629677705,1342.487453525682 L 4582.483744817077,1395.4741207706852 L 4580.092007306708,1424.0070331590541 L 4573.685885633712,1474.8070919781744 L 4568.919127947025,1503.040503370323 L 4558.292021610636,1553.127916777566 L 4551.183561567948,1580.864486383479 L 4536.4097499930185,1629.8891624401447 L 4527.009273022025,1656.9350222046526 L 4508.192019523328,1704.5542971012303 L 4496.565231376909,1730.7204067677874 L 4473.836061387884,1776.6014399135338 L 4460.064228885925,1801.704908343631 L 4433.582010646012,1845.5270087954368 L 4417.761393651275,1869.3923723080059 L 4387.711227777486,1910.849240277882 L 4369.952406375824,1933.3096890736024 L 4336.544332079871,1972.1115568476137 L 4316.971433667582,1993.0101009458044 L 4280.438960661896,2028.8857582498954 L 4259.188792342494,2048.0763247887035 L 4219.787268696172,2080.775014445318 L 4197.008361050899,2098.1234686753364 L 4155.013188404033,2127.4166393004907 L 4130.864757319633,2142.801722135604 L 4086.5694659308315,2168.4846256259525 L 4061.2202997411,2181.7988011981784 L 4014.5786523656175,2203.8602377928282 L 3991.083691009115,2213.918446087916 L 1395.6663235593912,3212.1558951070406 L 1383.5758981538022,3216.547254996977 L 1297.8063452415493,3245.88851330164 L 1251.247943756152,3258.235613803521 L 1166.6519396639467,3274.4036503188695 L 1118.821708802044,3280.096159025501 L 1032.7940369418413,3284.234877117313 L 984.6382412999859,3283.1601744707796 L 898.8808575005538,3275.1876944923347 L 851.3522025897701,3267.3670422145206 L 767.561715349991,3247.4410902611057 L 721.6004994430355,3233.029210715656 L 641.4346045376299,3201.5439982001462 L 597.9501159788031,3180.8260133933345 L 522.9948009063697,3138.404438039249 L 482.84732891613515,3111.7902288180107 L 414.5854960106002,3059.2715513641037 L 378.5693108799839,3027.287648407848 L 318.35143984030987,2965.7108888261746 L 287.17907923174795,2928.9900558594704 L 236.19650947693148,2859.5734375730317 L 210.4846817086624,2818.842152883088 L 169.74604313514325,2742.959001654985 L 150.0034263358667,2699.0230855771906 L 120.31468476693534,2618.1746598832815 L 106.93186328015192,2571.9033325981127 L 88.88037538453169,2487.68912300208 L 82.12211251886417,2439.997808040998 L 75.84801586239078,2351.0061131571406 L 75.0,2326.9197676947697 L 75.0,1032.4548061771043 z" id="ol" style="fill:#ffffff;fill-opacity:1;stroke:none;" /><path d="M 380.0,2328.2396336054476 L 386.55262270222283,2421.181937833993 L 405.71098196753985,2510.559948777731 L 437.2201617316482,2596.365794502779 L 480.4567901073471,2676.9019077483285 L 534.5654814949896,2750.5749766834197 L 598.4757593757681,2815.9274666987144 L 670.9232344246554,2871.6664560063687 L 750.4746189590653,2916.6892145697498 L 835.5560828419364,2950.1050203141226 L 924.4843898512006,2971.2527810103256 L 1015.500198519351,2979.7141132033166 L 1106.8028686253679,2975.3216194344213 L 1196.5860847336623,2958.162200002244 L 1285.5203866125512,2927.7382997372747 L 3882.9014462377104,1928.7455844968285 L 3932.2260334058283,1905.4151209819674 L 3979.2347335857394,1878.1589528414274 L 4023.802416020246,1847.0713624438413 L 4065.6175695873476,1812.3696402031592 L 4104.387922293274,1774.2963379380744 L 4139.842484142326,1733.1175735272466 L 4171.733441253729,1689.1211708467004 L 4199.837887986267,1642.6146479905647 L 4223.959384963775,1593.9230678367596 L 4243.929332111564,1543.3867659813086 L 4259.608147106697,1491.3589719221834 L 4270.886241005267,1438.2033401196659 L 4277.684784227357,1384.291408190192 L 4280.0,1328.9544938000467 L 4280.0,1031.402864663743 L 4275.834648613128,957.2319114514028 L 4263.6263349875935,885.3789238373334 L 4243.449802561029,815.3446301671147 L 4215.558782935392,748.0097523184857 L 4180.304021865224,684.2210654490093 L 4138.128868426269,624.7807493071218 L 4089.563699643618,570.4363003563819 L 4035.2192506928795,521.8711315737313 L 3975.77893455099,479.6959781347759 L 3911.9902476815114,444.44121706460714 L 3844.6553698328858,416.55019743897066 L 3774.6210761626653,396.37366501240535 L 3702.7680885485956,384.16535138687186 L 3628.5971353362597,380.0 L 1031.4028646637403,380.0 L 957.2319114514034,384.16535138687186 L 885.3789238373344,396.3736650124053 L 815.3446301671133,416.5501974389708 L 748.0097523184876,444.4412170646074 L 684.22106544901,479.69597813477577 L 624.7807493071214,521.8711315737305 L 570.4363003563819,570.436300356382 L 521.8711315737303,624.7807493071218 L 479.6959781347757,684.22106544901 L 444.4412170646074,748.0097523184875 L 416.5501974389707,815.3446301671139 L 396.3736650124053,885.3789238373346 L 384.16535138687186,957.2319114514037 L 380.0,1031.4028646637403 L 380.0,2328.2396336054476 z" id="cl" style="fill:none;stroke:#ff9900;stroke-width:25;stroke-opacity:1;stroke-dasharray:50,50;stroke-dashoffset:0;" /><polyline points="760.0,2314.8608490068495 0.4704481093994134,2341.601854983203" id="start_line" style="fill:none;stroke:#ffffff;stroke-width:100;stroke-opacity:1;" /></svg>